<svg xmlns="http://www.w3.org/2000/svg" width="77.778" height="70" viewBox="0 0 77.778 70">
  <g id="グループ_3683" data-name="グループ 3683" transform="translate(-134 -227)">
    <path id="heart" d="M38.389,70.5a1.532,1.532,0,0,1-1.081-.446L11.165,44.025A50.565,50.565,0,0,1,3.232,34.7a25.892,25.892,0,0,1-2.7-5.7A21.168,21.168,0,0,1-.5,22.481,21.869,21.869,0,0,1,5.966,6.938,22.061,22.061,0,0,1,21.577.5a22.88,22.88,0,0,1,9.381,1.754,26.165,26.165,0,0,1,7.432,5.089A26.165,26.165,0,0,1,45.82,2.254,22.88,22.88,0,0,1,55.2.5,22.087,22.087,0,0,1,75.542,13.924a21.762,21.762,0,0,1,1.736,8.556,20.973,20.973,0,0,1-1.043,6.5,26,26,0,0,1-2.7,5.7,52.479,52.479,0,0,1-7.914,9.349L39.47,70.054A1.532,1.532,0,0,1,38.389,70.5Z" transform="translate(134.5 226.5)" fill="#f1636e"/>
    <path id="heart_-_アウトライン" data-name="heart - アウトライン" d="M38.389,67.6,63.871,42.232a50.174,50.174,0,0,0,7.54-8.885A23.5,23.5,0,0,0,73.858,28.2a18.476,18.476,0,0,0,.92-5.722A19.369,19.369,0,0,0,69.048,8.71,19.561,19.561,0,0,0,55.2,3a20.48,20.48,0,0,0-8.386,1.548,23.639,23.639,0,0,0-6.722,4.624l-1.7,1.589-1.7-1.589a23.639,23.639,0,0,0-6.722-4.624A20.48,20.48,0,0,0,21.577,3,19.587,19.587,0,0,0,3.537,14.9,19.276,19.276,0,0,0,2,22.481a18.672,18.672,0,0,0,.916,5.745,23.4,23.4,0,0,0,2.438,5.15A48.247,48.247,0,0,0,12.9,42.224l.03.029L38.389,67.6m0,2.9a1.532,1.532,0,0,1-1.081-.446L11.165,44.025A50.565,50.565,0,0,1,3.232,34.7a25.891,25.891,0,0,1-2.7-5.7A21.168,21.168,0,0,1-.5,22.481,21.869,21.869,0,0,1,5.966,6.938,22.061,22.061,0,0,1,21.577.5a22.88,22.88,0,0,1,9.381,1.754,26.165,26.165,0,0,1,7.432,5.089A26.165,26.165,0,0,1,45.82,2.254,22.88,22.88,0,0,1,55.2.5,22.087,22.087,0,0,1,75.542,13.924a21.762,21.762,0,0,1,1.736,8.556,20.972,20.972,0,0,1-1.043,6.5,26,26,0,0,1-2.7,5.7,52.479,52.479,0,0,1-7.914,9.349L39.47,70.054A1.532,1.532,0,0,1,38.389,70.5Z" transform="translate(134.5 226.5)" fill="#323232"/>
  </g>
</svg>
