<svg id="グループ_3738" data-name="グループ 3738" xmlns="http://www.w3.org/2000/svg" width="23.998" height="19.999" viewBox="0 0 23.998 19.999">
  <g id="グループ_3739" data-name="グループ 3739">
    <path id="パス_2415" data-name="パス 2415" d="M13.6,21H2.4A2.4,2.4,0,0,1,0,18.6V7.4A2.4,2.4,0,0,1,2.4,5H13.6A2.4,2.4,0,0,1,16,7.4V18.6A2.4,2.4,0,0,1,13.6,21M2.4,6.6a.8.8,0,0,0-.8.8V18.6a.8.8,0,0,0,.8.8H13.6a.8.8,0,0,0,.8-.8V7.4a.8.8,0,0,0-.8-.8Z" transform="translate(0 -1)" fill="#008763"/>
    <path id="パス_2416" data-name="パス 2416" d="M6.4,13.8a2.4,2.4,0,1,1,2.4-2.4,2.4,2.4,0,0,1-2.4,2.4m0-3.2a.8.8,0,1,0,.8.8.8.8,0,0,0-.8-.8" transform="translate(-0.8 -1.8)" fill="#008763"/>
    <path id="パス_2417" data-name="パス 2417" d="M3.8,22.665A.8.8,0,0,1,3.234,21.3L10.5,14.032a2.4,2.4,0,0,1,3.394,0L16.365,16.5a.8.8,0,0,1-1.132,1.131l-2.468-2.469a.8.8,0,0,0-1.132,0L4.365,22.431a.8.8,0,0,1-.566.234" transform="translate(-0.6 -2.667)" fill="#008763"/>
    <path id="パス_2418" data-name="パス 2418" d="M23.6,0H12.4A2.4,2.4,0,0,0,10,2.4v.8h1.6V2.4a.8.8,0,0,1,.8-.8h.8V3.2h1.6V1.6h6.4V7.2H18.8V8.8h2.4v5.6H18.8V16h4.8A2.4,2.4,0,0,0,26,13.6V2.4A2.4,2.4,0,0,0,23.6,0m.8,13.6a.8.8,0,0,1-.8.8h-.8v-2h1.6Zm0-2.8H22.8v-2h1.6Zm0-3.6H22.8v-2h1.6Zm0-3.6H22.8v-2h.8a.8.8,0,0,1,.8.8Z" transform="translate(-2.001)" fill="#008763"/>
  </g>
</svg>
