<svg xmlns="http://www.w3.org/2000/svg" width="12.723" height="13.995" viewBox="0 0 12.723 13.995">
  <g id="calendar-days" transform="translate(-2 -1)">
    <path id="パス_1784" data-name="パス 1784" d="M7.636,4.817A.636.636,0,0,1,7,4.181V1.636a.636.636,0,0,1,1.272,0V4.181A.636.636,0,0,1,7.636,4.817Z" transform="translate(-1.819)" fill="#008763"/>
    <path id="パス_1785" data-name="パス 1785" d="M15.636,4.817A.636.636,0,0,1,15,4.181V1.636a.636.636,0,0,1,1.272,0V4.181A.636.636,0,0,1,15.636,4.817Z" transform="translate(-4.73)" fill="#008763"/>
    <path id="長方形_1929" data-name="長方形 1929" d="M.908-1H9.815A1.911,1.911,0,0,1,11.723.908V9.815a1.911,1.911,0,0,1-1.908,1.908H.908A1.911,1.911,0,0,1-1,9.815V.908A1.911,1.911,0,0,1,.908-1ZM9.815,10.451a.637.637,0,0,0,.636-.636V.908A.637.637,0,0,0,9.815.272H.908A.637.637,0,0,0,.272.908V9.815a.637.637,0,0,0,.636.636Z" transform="translate(3 3.272)" fill="#008763"/>
    <path id="パス_1786" data-name="パス 1786" d="M14.087,10.272H2.636A.636.636,0,1,1,2.636,9H14.087a.636.636,0,1,1,0,1.272Z" transform="translate(0 -2.911)" fill="#008763"/>
    <path id="パス_1787" data-name="パス 1787" d="M7.643,14.272H7.636a.636.636,0,1,1,0-1.272h.006a.636.636,0,1,1,0,1.272Z" transform="translate(-1.819 -4.366)" fill="#008763"/>
    <path id="パス_1788" data-name="パス 1788" d="M11.643,14.272h-.006a.636.636,0,1,1,0-1.272h.006a.636.636,0,1,1,0,1.272Z" transform="translate(-3.275 -4.366)" fill="#008763"/>
    <path id="パス_1789" data-name="パス 1789" d="M15.643,14.272h-.006a.636.636,0,1,1,0-1.272h.006a.636.636,0,1,1,0,1.272Z" transform="translate(-4.73 -4.366)" fill="#008763"/>
    <path id="パス_1790" data-name="パス 1790" d="M7.643,18.272H7.636a.636.636,0,0,1,0-1.272h.006a.636.636,0,0,1,0,1.272Z" transform="translate(-1.819 -5.822)" fill="#008763"/>
    <path id="パス_1791" data-name="パス 1791" d="M11.643,18.272h-.006a.636.636,0,0,1,0-1.272h.006a.636.636,0,0,1,0,1.272Z" transform="translate(-3.275 -5.822)" fill="#008763"/>
    <path id="パス_1792" data-name="パス 1792" d="M15.643,18.272h-.006a.636.636,0,0,1,0-1.272h.006a.636.636,0,0,1,0,1.272Z" transform="translate(-4.73 -5.822)" fill="#008763"/>
  </g>
</svg>
