<svg xmlns="http://www.w3.org/2000/svg" width="15" height="15" viewBox="0 0 15 15">
  <g id="refresh-ccw" transform="translate(-2 -2)">
    <path id="パス_2427" data-name="パス 2427" d="M16.25,10.25a.75.75,0,0,1-.75-.75,6.007,6.007,0,0,0-6-6A6.531,6.531,0,0,0,4.971,5.34L3.28,7.03A.75.75,0,0,1,2.22,5.97l1.7-1.7.009-.009A8.026,8.026,0,0,1,9.5,2,7.509,7.509,0,0,1,17,9.5.75.75,0,0,1,16.25,10.25Z" transform="translate(0 0)" fill="#008763"/>
    <path id="パス_2428" data-name="パス 2428" d="M6.5,7.25H2.75A.75.75,0,0,1,2,6.5V2.75a.75.75,0,0,1,1.5,0v3h3a.75.75,0,0,1,0,1.5Z" fill="#008763"/>
    <path id="パス_2429" data-name="パス 2429" d="M9.5,19.25A7.509,7.509,0,0,1,2,11.75a.75.75,0,0,1,1.5,0,6.007,6.007,0,0,0,6,6,6.531,6.531,0,0,0,4.529-1.84L15.72,14.22A.75.75,0,0,1,16.78,15.28l-1.7,1.695-.009.009A8.026,8.026,0,0,1,9.5,19.25Z" transform="translate(0 -2.25)" fill="#008763"/>
    <path id="パス_2430" data-name="パス 2430" d="M19.5,20.25a.75.75,0,0,1-.75-.75v-3h-3a.75.75,0,0,1,0-1.5H19.5a.75.75,0,0,1,.75.75V19.5A.75.75,0,0,1,19.5,20.25Z" transform="translate(-3.25 -3.25)" fill="#008763"/>
  </g>
</svg>
