<svg xmlns="http://www.w3.org/2000/svg" xmlns:xlink="http://www.w3.org/1999/xlink" width="30" height="30.004" viewBox="0 0 30 30.004">
  <defs>
    <clipPath id="clip-path">
      <rect id="長方形_1901" data-name="長方形 1901" width="23.456" height="30.004" fill="none"/>
    </clipPath>
  </defs>
  <g id="グループ_3746" data-name="グループ 3746" transform="translate(-98 -554)">
    <rect id="長方形_2078" data-name="長方形 2078" width="30" height="30" transform="translate(98 554)" fill="none"/>
    <g id="グループ_3451" data-name="グループ 3451" transform="translate(101 554)">
      <g id="グループ_3450" data-name="グループ 3450" clip-path="url(#clip-path)">
        <path id="パス_2237" data-name="パス 2237" d="M85.093,21.422a2.236,2.236,0,0,0-2.236-2.236H64.079v28.78H82.857a2.236,2.236,0,0,0,2.236-2.236Z" transform="translate(-62.036 -18.574)" fill="#d89ba2" fill-rule="evenodd"/>
        <path id="パス_2238" data-name="パス 2238" d="M14.145,19.186H12.791a.291.291,0,0,0-.291.291v28.2a.291.291,0,0,0,.291.291h1.354Z" transform="translate(-12.101 -18.574)" fill="#6a6374" fill-rule="evenodd"/>
        <path id="パス_2239" data-name="パス 2239" d="M.689,36.263H20.822a2.634,2.634,0,0,0,2.634-2.634V9.32a2.634,2.634,0,0,0-2.634-2.634H.689A.689.689,0,0,0,0,7.375v28.2a.689.689,0,0,0,.689.689m.955-.8H.8V7.483h.847Zm.8-27.983h18.38A1.837,1.837,0,0,1,22.659,9.32V33.629a1.837,1.837,0,0,1-1.837,1.837H2.442Zm3.891,3.276H5.225a.4.4,0,0,0-.4.4v1.054a1.757,1.757,0,0,1-.2.011.4.4,0,0,0-.4.4V30.328a.4.4,0,0,0,.4.4,1.757,1.757,0,0,1,.2.011V31.78a.4.4,0,0,0,.4.4H6.331a1.7,1.7,0,0,1,.019.254.4.4,0,0,0,.4.4H17.391l.344-.354.055-.054v0c0-.334,0-20.746,0-21.9v7.779c0-.006,0-.012,0-.018s0-.012,0-.018V32.421c0-.334,0-20.746,0-21.9a.4.4,0,0,0-.4-.4H6.748a.4.4,0,0,0-.4.4,1.7,1.7,0,0,1-.017.242m10.661,7.12c0-3.185,0-5.921,0-6.964H7.115a2.516,2.516,0,0,1-2.09,2.074V29.96a2.516,2.516,0,0,1,2.09,2.074h9.878c0-1.606,0-7.96,0-13.359H9.262a.4.4,0,1,1,0-.8Zm-11.37,13.5h.36a1.728,1.728,0,0,0-.36-.34Zm0-19.473a1.726,1.726,0,0,0,.369-.352H5.624Z" transform="translate(0 -6.473)" fill="#323232" fill-rule="evenodd"/>
        <rect id="長方形_1900" data-name="長方形 1900" width="2.65" height="29.206" transform="translate(17.393 0.399)" fill="#a095b4"/>
        <path id="パス_2240" data-name="パス 2240" d="M536.428.4a.4.4,0,0,0-.4-.4h-2.65a.4.4,0,0,0-.4.4V29.605a.4.4,0,0,0,.4.4h2.65a.4.4,0,0,0,.4-.4Zm-.8,28.808h-1.852V.8h1.852Z" transform="translate(-515.987 0)" fill="#323232" fill-rule="evenodd"/>
      </g>
    </g>
  </g>
</svg>
