<svg xmlns="http://www.w3.org/2000/svg" width="30" height="30" viewBox="0 0 30 30">
  <g id="グループ_3672" data-name="グループ 3672" transform="translate(-132 -153)">
    <circle id="楕円形_8" data-name="楕円形 8" cx="15" cy="15" r="15" transform="translate(132 153)" fill="#f5f5f5"/>
    <g id="グループ_1787" data-name="グループ 1787" transform="translate(140.131 160.622)">
      <path id="楕円形_9" data-name="楕円形 9" d="M3.468-1A4.468,4.468,0,1,1-1,3.468,4.473,4.473,0,0,1,3.468-1Zm0,7.148A2.681,2.681,0,1,0,.787,3.468,2.684,2.684,0,0,0,3.468,6.148Z" transform="translate(3.681 1)" fill="#008763"/>
      <path id="パス_443" data-name="パス 443" d="M29.4,31.042a.894.894,0,0,1-.894-.894,5.361,5.361,0,0,0-10.723,0,.894.894,0,0,1-1.787,0,7.148,7.148,0,1,1,14.3,0A.894.894,0,0,1,29.4,31.042Z" transform="translate(-16 -15.798)" fill="#008763"/>
    </g>
  </g>
</svg>
