<svg xmlns="http://www.w3.org/2000/svg" width="15.693" height="19.996" viewBox="0 0 15.693 19.996">
  <g id="icon" transform="translate(-7 -3.179)">
    <path id="パス_1748" data-name="パス 1748" d="M20.634,42.731a3.01,3.01,0,0,1-2.832-2,.923.923,0,1,1,1.74-.618,1.159,1.159,0,0,0,2.183,0,.923.923,0,1,1,1.74.618A3.01,3.01,0,0,1,20.634,42.731Z" transform="translate(-5.788 -19.556)" fill="#008763"/>
    <path id="パス_1749" data-name="パス 1749" d="M21.77,19.251H7.923A.923.923,0,0,1,7,18.328V16.482a3.751,3.751,0,0,1,.923-2.072,4.423,4.423,0,0,0,.462-.729V10.943a6.471,6.471,0,0,1,3.86-5.9,2.77,2.77,0,0,1,5.233,0,6.463,6.463,0,0,1,3.831,5.9.923.923,0,1,1-1.846,0,4.623,4.623,0,0,0-3.077-4.35.923.923,0,0,1-.608-.757.923.923,0,0,0-1.832,0,.923.923,0,0,1-.613.759,4.621,4.621,0,0,0-3.1,4.35v2.767a3.241,3.241,0,0,1-.807,1.772,7.327,7.327,0,0,0-.453.681.811.811,0,0,0-.125.316V17.4h12v-.923a.766.766,0,0,0-.116-.29,6.9,6.9,0,0,0-.429-.642,6.171,6.171,0,0,1-.622-.991.923.923,0,0,1,1.679-.769,5.01,5.01,0,0,0,.443.683,3.607,3.607,0,0,1,.892,2.009v1.846A.923.923,0,0,1,21.77,19.251Z" transform="translate(0 0)" fill="#008763"/>
  </g>
</svg>
