<svg xmlns="http://www.w3.org/2000/svg" width="30" height="30.002" viewBox="0 0 30 30.002">
  <g id="グループ_3745" data-name="グループ 3745" transform="translate(-98 -504)">
    <rect id="長方形_2077" data-name="長方形 2077" width="30" height="30" transform="translate(98 504)" fill="none"/>
    <g id="グループ_3456" data-name="グループ 3456" transform="translate(63.798 500.835)">
      <g id="グループ_3457" data-name="グループ 3457" transform="translate(35.202 3.165)">
        <path id="パス_2244" data-name="パス 2244" d="M396.965,71.786a.887.887,0,0,0-1.346.158l-1.6,2.416a.887.887,0,0,0,.38,1.3l5.893,2.613,1.379-2.083-4.707-4.4" transform="translate(-387.28 -70.798)" fill="#f1636e" fill-rule="evenodd"/>
        <path id="パス_2245" data-name="パス 2245" d="M528.766,71.786a.887.887,0,0,1,1.346.158l1.6,2.416a.887.887,0,0,1-.38,1.3l-5.893,2.613-1.379-2.083,4.708-4.4" transform="translate(-509.666 -70.798)" fill="#f1636e" fill-rule="evenodd"/>
        <path id="パス_2246" data-name="パス 2246" d="M389.921,65.8l.754,1.14a.749.749,0,0,0,.928.271l5.893-2.613a1.636,1.636,0,0,0,.7-2.4l-1.6-2.416a1.636,1.636,0,0,0-2.482-.292l-4.2,3.926-4.2-3.926a1.636,1.636,0,0,0-2.482.292l-1.6,2.416a1.636,1.636,0,0,0,.7,2.4l5.893,2.613a.749.749,0,0,0,.928-.271ZM384.7,60.582l4.245,3.972-.68,1.027-5.315-2.356a.138.138,0,0,1-.059-.2l1.6-2.416a.138.138,0,0,1,.21-.025m10.438,0a.138.138,0,0,1,.209.025l1.6,2.416a.138.138,0,0,1-.059.2l-5.315,2.356-.68-1.027Z" transform="translate(-375.529 -59.047)" fill="#323232" fill-rule="evenodd"/>
        <path id="パス_2247" data-name="パス 2247" d="M344.329,252.242H319.862V269.39a.53.53,0,0,0,.53.53H343.8a.53.53,0,0,0,.53-.53Z" transform="translate(-317.704 -240.667)" fill="#ffefaf" fill-rule="evenodd"/>
        <path id="長方形_1905" data-name="長方形 1905" d="M2.69,0H24.6a2.69,2.69,0,0,1,2.69,2.69v0A2.69,2.69,0,0,1,24.6,5.38H2.69A2.69,2.69,0,0,1,0,2.69v0A2.69,2.69,0,0,1,2.69,0Z" transform="translate(0.749 6.194)" fill="#ffefaf"/>
        <path id="パス_2248" data-name="パス 2248" d="M285.251,156.813v16.4a1.279,1.279,0,0,0,1.279,1.279h23.407a1.279,1.279,0,0,0,1.279-1.279v-16.4a1.512,1.512,0,0,0,1.409-1.508V151.45a1.512,1.512,0,0,0-1.512-1.512h-25.76a1.512,1.512,0,0,0-1.512,1.512V155.3a1.512,1.512,0,0,0,1.409,1.508m1.5,0h22.97V173h-22.97Zm-1.4-1.5h25.76a.014.014,0,0,0,.014-.014V151.45a.014.014,0,0,0-.014-.014h-25.76a.014.014,0,0,0-.014.014V155.3a.014.014,0,0,0,.014.014" transform="translate(-283.842 -144.493)" fill="#323232" fill-rule="evenodd"/>
        <rect id="長方形_1906" data-name="長方形 1906" width="3.843" height="23.058" transform="translate(12.47 6.194)" fill="#f1636e"/>
        <path id="パス_2249" data-name="パス 2249" d="M484.826,150.687a.749.749,0,0,0-.749-.749h-3.843a.749.749,0,0,0-.749.749v23.058a.749.749,0,0,0,.749.749h3.843a.749.749,0,0,0,.749-.749ZM483.328,173h-2.345V151.436h2.345Z" transform="translate(-467.764 -144.493)" fill="#323232" fill-rule="evenodd"/>
      </g>
    </g>
  </g>
</svg>
