<svg xmlns="http://www.w3.org/2000/svg" width="30" height="30" viewBox="0 0 30 30">
  <g id="グループ_3733" data-name="グループ 3733" transform="translate(-54 -988)">
    <g id="グループ_3733-2" data-name="グループ 3733" transform="translate(-78 835)">
      <circle id="楕円形_8" data-name="楕円形 8" cx="15" cy="15" r="15" transform="translate(132 153)" fill="#f5f5f5"/>
    </g>
    <g id="building" transform="translate(59 992)">
      <path id="長方形_2074" data-name="長方形 2074" d="M1.368,2H10.84a2.371,2.371,0,0,1,2.368,2.368V14.629A2.371,2.371,0,0,1,10.84,17H1.368A2.371,2.371,0,0,1-1,14.629V4.368A2.371,2.371,0,0,1,1.368,2ZM10.84,15.418a.79.79,0,0,0,.789-.789V4.368a.79.79,0,0,0-.789-.789H1.368a.79.79,0,0,0-.789.789V14.629a.79.79,0,0,0,.789.789Z" transform="translate(4 2)" fill="#008763"/>
      <path id="パス_2415" data-name="パス 2415" d="M13.525,21.736a.789.789,0,0,1-.789-.789V18.579H9.579v2.368a.789.789,0,1,1-1.579,0V17.789A.789.789,0,0,1,8.789,17h4.736a.789.789,0,0,1,.789.789v3.157A.789.789,0,0,1,13.525,21.736Z" transform="translate(-1.053 -2.739)" fill="#008763"/>
      <path id="パス_2419" data-name="パス 2419" d="M11.8,10.579h-.008a.789.789,0,1,1,0-1.579H11.8a.789.789,0,1,1,0,1.579Z" transform="translate(-1.686 -1.053)" fill="#008763"/>
      <path id="パス_2420" data-name="パス 2420" d="M11.8,14.579h-.008a.789.789,0,1,1,0-1.579H11.8a.789.789,0,1,1,0,1.579Z" transform="translate(-1.686 -1.896)" fill="#008763"/>
      <path id="パス_2421" data-name="パス 2421" d="M15.8,10.579h-.008a.789.789,0,1,1,0-1.579H15.8a.789.789,0,0,1,0,1.579Z" transform="translate(-2.528 -1.053)" fill="#008763"/>
      <path id="パス_2422" data-name="パス 2422" d="M15.8,14.579h-.008a.789.789,0,1,1,0-1.579H15.8a.789.789,0,0,1,0,1.579Z" transform="translate(-2.528 -1.896)" fill="#008763"/>
      <path id="パス_2423" data-name="パス 2423" d="M7.8,10.579H7.789A.789.789,0,1,1,7.789,9H7.8a.789.789,0,1,1,0,1.579Z" transform="translate(-0.843 -1.053)" fill="#008763"/>
      <path id="パス_2424" data-name="パス 2424" d="M7.8,14.579H7.789a.789.789,0,1,1,0-1.579H7.8a.789.789,0,1,1,0,1.579Z" transform="translate(-0.843 -1.896)" fill="#008763"/>
    </g>
  </g>
</svg>
