<svg xmlns="http://www.w3.org/2000/svg" xmlns:xlink="http://www.w3.org/1999/xlink" width="30" height="30.004" viewBox="0 0 30 30.004">
  <defs>
    <clipPath id="clip-path">
      <rect id="長方形_1907" data-name="長方形 1907" width="7.773" height="13.126" fill="none"/>
    </clipPath>
    <clipPath id="clip-path-2">
      <rect id="長方形_1910" data-name="長方形 1910" width="3.91" height="32.388" fill="none"/>
    </clipPath>
  </defs>
  <g id="グループ_3744" data-name="グループ 3744" transform="translate(-98 -454)">
    <rect id="長方形_2076" data-name="長方形 2076" width="30" height="30" transform="translate(98 454)" fill="none"/>
    <g id="グループ_3743" data-name="グループ 3743" transform="translate(73.772 7.949)">
      <g id="グループ_3459" data-name="グループ 3459" transform="translate(31.791 453.628) rotate(30)">
        <g id="グループ_3458" data-name="グループ 3458" transform="translate(0 0)" clip-path="url(#clip-path)">
          <path id="パス_2250" data-name="パス 2250" d="M6.522,9.075a.518.518,0,0,0,.518-.518V0H0V8.557a.518.518,0,0,0,.518.518Z" transform="translate(0.366 3.685)" fill="#63cdd3" fill-rule="evenodd"/>
          <path id="パス_2251" data-name="パス 2251" d="M7.04,3.319H0V2.033A2.033,2.033,0,0,1,2.033,0H5.007A2.033,2.033,0,0,1,7.04,2.033Z" transform="translate(0.366 0.366)" fill="#fcf8e7" fill-rule="evenodd"/>
          <path id="パス_2252" data-name="パス 2252" d="M0,2.4v9.843a.884.884,0,0,0,.884.884h6a.884.884,0,0,0,.884-.884V2.4A2.4,2.4,0,0,0,5.373,0H2.4A2.4,2.4,0,0,0,0,2.4M.732,4.051H7.041v8.191a.152.152,0,0,1-.152.152h-6a.152.152,0,0,1-.152-.152Zm6.308-.732H.732V2.4A1.667,1.667,0,0,1,2.4.732H5.373A1.667,1.667,0,0,1,7.041,2.4Z" fill="#323232" fill-rule="evenodd"/>
        </g>
      </g>
      <g id="グループ_3462" data-name="グループ 3462" transform="translate(49.823 446.051) rotate(30)">
        <path id="パス_2257" data-name="パス 2257" d="M0,0H3.177V23.822H0Z" transform="translate(0.366 3.801)" fill="#64ccd3"/>
        <rect id="長方形_1909" data-name="長方形 1909" width="3.177" height="1.604" transform="translate(0.366 2.197)" fill="#f7e090"/>
        <g id="グループ_3461" data-name="グループ 3461">
          <g id="グループ_3460" data-name="グループ 3460" clip-path="url(#clip-path-2)">
            <path id="パス_2253" data-name="パス 2253" d="M0,.45A.45.45,0,0,1,.45,0H2.387a.45.45,0,0,1,.45.45V1.831H0Z" transform="translate(0.536 0.366)" fill="#e08a94" fill-rule="evenodd"/>
            <path id="パス_2254" data-name="パス 2254" d="M1.589,4.4,0,0H3.177Z" transform="translate(0.366 27.623)" fill="#ffeeaf" fill-rule="evenodd"/>
            <path id="パス_2255" data-name="パス 2255" d="M0,0H1.055L.527,1.461Z" transform="translate(1.427 30.562)" fill="#564256" fill-rule="evenodd"/>
            <path id="パス_2256" data-name="パス 2256" d="M.17,1.888A.366.366,0,0,0,0,2.2V27.623H0v0H0v.005H0v0H0a.365.365,0,0,0,.024.115L1.61,32.147v.027l0,0,0,0,0,0,0,0,0,0,0,0,0,0,0,0,0,0,0,0,0,0,0,0,0,0,0,0,0,0,0,0,0,0,0,0,0,0,0,0,0,0,0,0,0,0,0,0,0,0,0,0,0,0,0,0,0,0,0,0,0,0,0,0,0,0,0,0,0,0,0,0,0,0,0,0,0,0,0,0,0,0,0,0,0,0,0,0,0,0,0,0,0,0,0,0,0,0,0,0,0,0,0,0,0,0,0,0,0,0,0,0,0,0,0,0,0,0,0,0,0,0,0,0,0,0,0,0,0,0,0,0,0,0,0,0,0,0,0,0,0,0,0,0,0,0,0,0h.313l0,0,0,0,0,0,0,0,0,0,0,0,0,0,0,0,0,0,0,0,0,0,0,0,0,0,0,0,0,0,0,0,0,0,0,0,0,0,0,0,0,0,0,0,0,0,0,0,0,0,0,0,0,0,0,0,0,0,0,0,0,0,0,0,0,0,0,0,0,0,0,0,0,0,0,0,0,0,0,0,0,0,0,0,0,0,0,0,0,0,0,0,0,0,0,0,0,0,0,0,0,0,0,0,0,0,0,0,0,0,0,0,0,0,0,0,0,0,0,0,0,0,0,0,0,0,0,0,0,0,0,0,0,0,0,0,0,0,0,0,0,0,0,0,0,0v-.03l1.586-4.391a.364.364,0,0,0,.024-.115v0h0v-.005h0v0h0V2.2a.366.366,0,0,0-.17-.309V.816A.816.816,0,0,0,2.923,0H.986A.816.816,0,0,0,.17.816Zm1.791,29.04-.006.016-.006-.016ZM1.684,30.2h.541l.8-2.206H.888Zm1.493-2.938H.732V4.167H3.177Zm0-24.694H.732v.872H3.177ZM.9.816A.084.084,0,0,1,.986.732H2.923a.084.084,0,0,1,.084.084V1.831H.9Z" fill="#323232" fill-rule="evenodd"/>
          </g>
        </g>
      </g>
    </g>
  </g>
</svg>
