<svg xmlns="http://www.w3.org/2000/svg" xmlns:xlink="http://www.w3.org/1999/xlink" width="50" height="50" viewBox="0 0 50 50">
  <defs>
    <clipPath id="clip-path">
      <rect id="長方形_2360" data-name="長方形 2360" width="30" height="30" fill="none"/>
    </clipPath>
  </defs>
  <g id="グループ_4841" data-name="グループ 4841" transform="translate(-40 -393)">
    <circle id="楕円形_8" data-name="楕円形 8" cx="25" cy="25" r="25" transform="translate(40 393)" fill="#f5f5f5"/>
    <g id="グループ_4840" data-name="グループ 4840" transform="translate(50 403)">
      <g id="グループ_4839" data-name="グループ 4839" clip-path="url(#clip-path)">
        <path id="パス_2546" data-name="パス 2546" d="M113.54,122.611a8.646,8.646,0,0,0-2.06-2.98,8.606,8.606,0,0,1-5.987,2.377,23.835,23.835,0,0,0-2.763-.46,15.208,15.208,0,0,0-2.4-.085,4.6,4.6,0,0,0-2.676.808l-.008.005c-1.983,1.7-2.093,6.7,1.563,9.631a8.684,8.684,0,0,0,14.332-9.3" transform="translate(-84.206 -104.633)" fill="#138160"/>
        <path id="パス_2547" data-name="パス 2547" d="M13.878,13.182a4.6,4.6,0,0,0,2.676-.808l.008-.006c1.982-1.7,2.092-6.7-1.563-9.631h0A8.683,8.683,0,1,0,2.726,15.014a8.6,8.6,0,0,1,5.988-2.377,23.877,23.877,0,0,0,2.763.46,15.213,15.213,0,0,0,2.4.085" transform="translate(0 -0.012)" fill="#138160"/>
        <path id="パス_2548" data-name="パス 2548" d="M29.346,5.359A8.679,8.679,0,0,0,15.01,2.726c3.656,2.936,3.545,7.93,1.563,9.631l-.008.006a4.6,4.6,0,0,1-2.676.808,15.2,15.2,0,0,1-2.4-.085,23.856,23.856,0,0,1-2.763-.46,8.688,8.688,0,1,0,6.288,14.649c-3.656-2.936-3.546-7.93-1.563-9.631l.008-.006a4.6,4.6,0,0,1,2.676-.808,15.208,15.208,0,0,1,2.4.085,23.867,23.867,0,0,1,2.763.46A8.692,8.692,0,0,0,29.346,5.359" transform="translate(-0.012 0)" fill="#6fb92c"/>
      </g>
    </g>
  </g>
</svg>
