<svg id="グループ_1787" data-name="グループ 1787" xmlns="http://www.w3.org/2000/svg" width="18.755" height="19.998" viewBox="0 0 18.755 19.998">
  <path id="楕円形_9" data-name="楕円形 9" d="M4.861-1A5.861,5.861,0,1,1-1,4.861,5.868,5.868,0,0,1,4.861-1Zm0,9.378A3.517,3.517,0,1,0,1.344,4.861,3.521,3.521,0,0,0,4.861,8.378Z" transform="translate(4.517 1)" fill="#ccc"/>
  <path id="パス_443" data-name="パス 443" d="M33.583,33.55a1.172,1.172,0,0,1-1.172-1.172,7.033,7.033,0,0,0-14.066,0,1.172,1.172,0,1,1-2.344,0,9.378,9.378,0,1,1,18.755,0A1.172,1.172,0,0,1,33.583,33.55Z" transform="translate(-16 -13.552)" fill="#ccc"/>
</svg>
