<svg xmlns="http://www.w3.org/2000/svg" width="11.451" height="13.995" viewBox="0 0 11.451 13.995">
  <g id="flag" transform="translate(-3 -1)">
    <path id="パス_1784" data-name="パス 1784" d="M11.27,11.178A7.207,7.207,0,0,1,8.489,10.5a6.12,6.12,0,0,0-2.308-.591,3.567,3.567,0,0,0-2.1.458.607.607,0,0,1-.68.154A.645.645,0,0,1,3,9.906V2.272a.636.636,0,0,1,.186-.45C3.324,1.685,4.114,1,6.181,1a7.207,7.207,0,0,1,2.781.682,6.12,6.12,0,0,0,2.308.591,3.567,3.567,0,0,0,2.1-.458.607.607,0,0,1,.68-.154.645.645,0,0,1,.4.612V9.906a.636.636,0,0,1-.186.45C14.127,10.493,13.337,11.178,11.27,11.178ZM6.181,8.634a7.207,7.207,0,0,1,2.781.682,6.12,6.12,0,0,0,2.308.591,4.336,4.336,0,0,0,1.908-.343V3.294a6.509,6.509,0,0,1-1.908.25,7.207,7.207,0,0,1-2.781-.682,6.12,6.12,0,0,0-2.308-.591,4.336,4.336,0,0,0-1.908.343V8.884A6.509,6.509,0,0,1,6.181,8.634Z" fill="#008763"/>
    <path id="線_1" data-name="線 1" d="M-.364,4.725A.636.636,0,0,1-1,4.089V-.364A.636.636,0,0,1-.364-1a.636.636,0,0,1,.636.636V4.089A.636.636,0,0,1-.364,4.725Z" transform="translate(4 10.27)" fill="#008763"/>
  </g>
</svg>
