<svg xmlns="http://www.w3.org/2000/svg" width="13.641" height="15.005" viewBox="0 0 13.641 15.005">
  <g id="trash-2" transform="translate(-2 -1)">
    <path id="パス_2422" data-name="パス 2422" d="M14.959,6.364H2.682A.682.682,0,1,1,2.682,5H14.959a.682.682,0,0,1,0,1.364Z" transform="translate(0 -1.272)" fill="#008763"/>
    <path id="パス_2423" data-name="パス 2423" d="M12.867,17.277H6.046A2.145,2.145,0,0,1,4,15.231V5.682a.682.682,0,0,1,1.364,0v9.549a.8.8,0,0,0,.682.682h6.82a.8.8,0,0,0,.682-.682V5.682a.682.682,0,0,1,1.364,0v9.549a2.145,2.145,0,0,1-2.046,2.046Z" transform="translate(-0.636 -1.272)" fill="#008763"/>
    <path id="パス_2424" data-name="パス 2424" d="M13.138,5.092a.682.682,0,0,1-.682-.682V3.046a.8.8,0,0,0-.682-.682H9.046a.8.8,0,0,0-.682.682V4.41A.682.682,0,0,1,7,4.41V3.046a2.047,2.047,0,0,1,.626-1.42A2.047,2.047,0,0,1,9.046,1h2.728a2.047,2.047,0,0,1,1.42.626,2.047,2.047,0,0,1,.626,1.42V4.41A.682.682,0,0,1,13.138,5.092Z" transform="translate(-1.59)" fill="#008763"/>
    <path id="線_1" data-name="線 1" d="M-.318,4.456A.682.682,0,0,1-1,3.774V-.318A.682.682,0,0,1-.318-1a.682.682,0,0,1,.682.682V3.774A.682.682,0,0,1-.318,4.456Z" transform="translate(7.774 8.138)" fill="#008763"/>
    <path id="線_2" data-name="線 2" d="M-.318,4.456A.682.682,0,0,1-1,3.774V-.318A.682.682,0,0,1-.318-1a.682.682,0,0,1,.682.682V3.774A.682.682,0,0,1-.318,4.456Z" transform="translate(10.502 8.138)" fill="#008763"/>
  </g>
</svg>
