<svg xmlns="http://www.w3.org/2000/svg" xmlns:xlink="http://www.w3.org/1999/xlink" width="250" height="250" viewBox="0 0 250 250">
  <defs>
    <clipPath id="clip-path">
      <rect id="長方形_1912" data-name="長方形 1912" width="56.954" height="53.45" fill="none"/>
    </clipPath>
    <clipPath id="clip-path-2">
      <rect id="長方形_1912-2" data-name="長方形 1912" width="39.649" height="37.21" fill="none"/>
    </clipPath>
    <clipPath id="clip-path-3">
      <rect id="長方形_1912-3" data-name="長方形 1912" width="33.677" height="31.605" fill="none"/>
    </clipPath>
    <clipPath id="clip-path-4">
      <rect id="長方形_1912-4" data-name="長方形 1912" width="45.572" height="42.769" fill="none"/>
    </clipPath>
  </defs>
  <g id="グループ_3742" data-name="グループ 3742" transform="translate(-70 -110)">
    <g id="楕円形_207" data-name="楕円形 207" transform="translate(70 110)" fill="none" stroke="#e4e4e4" stroke-width="1">
      <circle cx="125" cy="125" r="125" stroke="none"/>
      <circle cx="125" cy="125" r="124.5" fill="none"/>
    </g>
    <g id="楕円形_208" data-name="楕円形 208" transform="translate(93 135)" fill="none" stroke="#e4e4e4" stroke-width="1">
      <circle cx="100" cy="100" r="100" stroke="none"/>
      <circle cx="100" cy="100" r="99.5" fill="none"/>
    </g>
    <g id="グループ_3471" data-name="グループ 3471" transform="translate(253 120)">
      <g id="グループ_3470" data-name="グループ 3470" clip-path="url(#clip-path)">
        <path id="パス_2266" data-name="パス 2266" d="M45.718,4H16.76A12.76,12.76,0,0,0,4,16.76V35.1a12.76,12.76,0,0,0,12.76,12.76h8.413l4.158,6.106a2.309,2.309,0,0,0,3.816,0l4.158-6.106h8.413A12.76,12.76,0,0,0,58.478,35.1V16.76A12.76,12.76,0,0,0,45.718,4" transform="translate(-2.762 -2.762)" fill="#fff6d3"/>
        <path id="パス_2267" data-name="パス 2267" d="M14,0H42.956a14.014,14.014,0,0,1,14,14v18.34a14.014,14.014,0,0,1-14,14H35.2L31.408,51.9a3.547,3.547,0,0,1-5.863,0l-3.79-5.565H14a14.014,14.014,0,0,1-14-14V14A14.014,14.014,0,0,1,14,0ZM42.956,43.859A11.534,11.534,0,0,0,54.478,32.338V14A11.534,11.534,0,0,0,42.956,2.476H14A11.535,11.535,0,0,0,2.476,14v18.34A11.535,11.535,0,0,0,14,43.859h8.413a1.238,1.238,0,0,1,1.023.541l4.158,6.106a1.07,1.07,0,0,0,1.769,0L33.52,44.4a1.238,1.238,0,0,1,1.023-.541Z" fill="#323232"/>
        <line id="線_1" data-name="線 1" x2="21.667" transform="translate(17.825 17.825)" fill="#fff"/>
        <path id="線_2" data-name="線 2" d="M18.905-1.524H-2.762A1.238,1.238,0,0,1-4-2.762,1.238,1.238,0,0,1-2.762-4H18.905a1.238,1.238,0,0,1,1.238,1.238A1.238,1.238,0,0,1,18.905-1.524Z" transform="translate(20.587 20.587)" fill="#323232"/>
        <line id="線_3" data-name="線 3" x2="15.477" transform="translate(17.462 28.655)" fill="#fff"/>
        <path id="線_4" data-name="線 4" d="M12.715-1.524H-2.762A1.238,1.238,0,0,1-4-2.762,1.238,1.238,0,0,1-2.762-4H12.715a1.238,1.238,0,0,1,1.238,1.238A1.238,1.238,0,0,1,12.715-1.524Z" transform="translate(20.224 31.417)" fill="#323232"/>
      </g>
    </g>
    <g id="グループ_3475" data-name="グループ 3475" transform="translate(270 313)">
      <g id="グループ_3470-2" data-name="グループ 3470" clip-path="url(#clip-path-2)">
        <path id="パス_2266-2" data-name="パス 2266" d="M33.043,4H12.883A8.883,8.883,0,0,0,4,12.883V25.651a8.883,8.883,0,0,0,8.883,8.883H18.74l2.895,4.251a1.607,1.607,0,0,0,2.657,0l2.895-4.251h5.857a8.883,8.883,0,0,0,8.883-8.883V12.883A8.883,8.883,0,0,0,33.043,4" transform="translate(-3.138 -3.138)" fill="#f5f5f5"/>
        <path id="パス_2267-2" data-name="パス 2267" d="M9.745,0H29.9a9.756,9.756,0,0,1,9.745,9.745V22.512A9.756,9.756,0,0,1,29.9,32.257H24.5l-2.638,3.874a2.469,2.469,0,0,1-4.081,0l-2.638-3.874h-5.4A9.756,9.756,0,0,1,0,22.512V9.745A9.756,9.756,0,0,1,9.745,0ZM29.9,30.533a8.03,8.03,0,0,0,8.021-8.021V9.745A8.03,8.03,0,0,0,29.9,1.724H9.745A8.03,8.03,0,0,0,1.724,9.745V22.512a8.03,8.03,0,0,0,8.021,8.021H15.6a.862.862,0,0,1,.712.377l2.895,4.251a.745.745,0,0,0,1.232,0l2.895-4.251a.862.862,0,0,1,.712-.377Z" fill="#323232"/>
        <line id="線_1-2" data-name="線 1" x2="15.084" transform="translate(12.409 12.409)" fill="#fff"/>
        <path id="線_2-2" data-name="線 2" d="M11.946-2.276H-3.138A.862.862,0,0,1-4-3.138.862.862,0,0,1-3.138-4H11.946a.862.862,0,0,1,.862.862A.862.862,0,0,1,11.946-2.276Z" transform="translate(15.547 15.547)" fill="#323232"/>
        <line id="線_3-2" data-name="線 3" x2="10.774" transform="translate(12.156 19.949)" fill="#fff"/>
        <path id="線_4-2" data-name="線 4" d="M7.636-2.276H-3.138A.862.862,0,0,1-4-3.138.862.862,0,0,1-3.138-4H7.636a.862.862,0,0,1,.862.862A.862.862,0,0,1,7.636-2.276Z" transform="translate(15.294 23.087)" fill="#323232"/>
      </g>
    </g>
    <g id="グループ_3476" data-name="グループ 3476" transform="translate(80 120)">
      <g id="グループ_3470-3" data-name="グループ 3470" clip-path="url(#clip-path-3)">
        <path id="パス_2266-3" data-name="パス 2266" d="M28.668,4H11.545A7.545,7.545,0,0,0,4,11.545V22.389a7.545,7.545,0,0,0,7.545,7.545h4.974l2.459,3.611a1.365,1.365,0,0,0,2.256,0l2.459-3.611h4.975a7.545,7.545,0,0,0,7.545-7.545V11.545A7.545,7.545,0,0,0,28.668,4" transform="translate(-3.268 -3.268)" fill="#f5f5f5"/>
        <path id="パス_2267-3" data-name="パス 2267" d="M8.277,0H25.4a8.286,8.286,0,0,1,8.277,8.277V19.121A8.286,8.286,0,0,1,25.4,27.4H20.813l-2.241,3.291a2.1,2.1,0,0,1-3.467,0L12.864,27.4H8.277A8.286,8.286,0,0,1,0,19.121V8.277A8.286,8.286,0,0,1,8.277,0ZM25.4,25.934a6.82,6.82,0,0,0,6.813-6.813V8.277A6.82,6.82,0,0,0,25.4,1.464H8.277A6.82,6.82,0,0,0,1.464,8.277V19.121a6.82,6.82,0,0,0,6.813,6.813h4.974a.732.732,0,0,1,.605.32l2.459,3.611a.633.633,0,0,0,1.046,0l2.459-3.611a.732.732,0,0,1,.605-.32Z" fill="#323232"/>
        <line id="線_1-3" data-name="線 1" x2="12.812" transform="translate(10.54 10.54)" fill="#fff"/>
        <path id="線_2-3" data-name="線 2" d="M9.544-2.536H-3.268A.732.732,0,0,1-4-3.268.732.732,0,0,1-3.268-4H9.544a.732.732,0,0,1,.732.732A.732.732,0,0,1,9.544-2.536Z" transform="translate(13.808 13.808)" fill="#323232"/>
        <line id="線_3-3" data-name="線 3" x2="9.151" transform="translate(10.325 16.944)" fill="#fff"/>
        <path id="線_4-3" data-name="線 4" d="M5.883-2.536H-3.268A.732.732,0,0,1-4-3.268.732.732,0,0,1-3.268-4H5.883a.732.732,0,0,1,.732.732A.732.732,0,0,1,5.883-2.536Z" transform="translate(13.593 20.211)" fill="#323232"/>
      </g>
    </g>
    <g id="グループ_3474" data-name="グループ 3474" transform="translate(80 307)">
      <g id="グループ_3470-4" data-name="グループ 3470" clip-path="url(#clip-path-4)">
        <path id="パス_2266-4" data-name="パス 2266" d="M14.21,4H37.381A10.21,10.21,0,0,1,47.59,14.21V28.885a10.21,10.21,0,0,1-10.21,10.21H30.649L27.322,43.98a1.847,1.847,0,0,1-3.053,0l-3.327-4.886H14.21A10.21,10.21,0,0,1,4,28.885V14.21A10.21,10.21,0,0,1,14.21,4" transform="translate(-3.009 -3.009)" fill="#fff6d3"/>
        <path id="パス_2267-4" data-name="パス 2267" d="M34.371,0H11.2A11.213,11.213,0,0,0,0,11.2V25.875a11.213,11.213,0,0,0,11.2,11.2h6.208l3.032,4.453a2.838,2.838,0,0,0,4.691,0l3.032-4.453h6.208a11.213,11.213,0,0,0,11.2-11.2V11.2A11.213,11.213,0,0,0,34.371,0ZM11.2,35.094a9.229,9.229,0,0,1-9.219-9.219V11.2A9.229,9.229,0,0,1,11.2,1.981H34.371A9.229,9.229,0,0,1,43.59,11.2V25.875a9.229,9.229,0,0,1-9.219,9.219H27.64a.991.991,0,0,0-.819.433l-3.327,4.886a.856.856,0,0,1-1.416,0l-3.327-4.886a.991.991,0,0,0-.819-.433Z" fill="#323232"/>
        <line id="線_1-4" data-name="線 1" x1="17.337" transform="translate(13.972 14.262)" fill="#fff"/>
        <path id="線_2-4" data-name="線 2" d="M-3.009-2.019H14.328a.991.991,0,0,0,.991-.991A.991.991,0,0,0,14.328-4H-3.009A.991.991,0,0,0-4-3.009.991.991,0,0,0-3.009-2.019Z" transform="translate(16.981 17.272)" fill="#323232"/>
        <line id="線_3-4" data-name="線 3" x1="12.384" transform="translate(19.216 22.928)" fill="#fff"/>
        <path id="線_4-4" data-name="線 4" d="M-3.009-2.019H9.374a.991.991,0,0,0,.991-.991A.991.991,0,0,0,9.374-4H-3.009A.991.991,0,0,0-4-3.009.991.991,0,0,0-3.009-2.019Z" transform="translate(22.225 25.938)" fill="#323232"/>
      </g>
    </g>
    <g id="グループ_3495" data-name="グループ 3495" transform="translate(-0.357 -0.174)">
      <path id="パス_2268" data-name="パス 2268" d="M2.522,71.375A2.522,2.522,0,0,1,0,68.853a83.094,83.094,0,0,1,32.858-66.4,2.522,2.522,0,0,1,3.068,4,78.087,78.087,0,0,0-30.882,62.4A2.522,2.522,0,0,1,2.522,71.375Z" transform="matrix(0.966, 0.259, -0.259, 0.966, 128.83, 150.312)" fill="none"/>
      <path id="パス_2269" data-name="パス 2269" d="M26.151,79.955a2.522,2.522,0,0,1-2.522-2.522A68.763,68.763,0,0,1,47.075,25.775,2.522,2.522,0,1,1,50.4,29.567,63.718,63.718,0,0,0,28.673,77.433,2.522,2.522,0,0,1,26.151,79.955Z" transform="matrix(0.966, 0.259, -0.259, 0.966, 122.618, 139.765)" fill="none"/>
    </g>
    <g id="グループ_3494" data-name="グループ 3494" transform="translate(8.334 83.161)">
      <path id="パス_2268-2" data-name="パス 2268" d="M2,55.186a2,2,0,0,1-2-2A66.03,66.03,0,0,1,26.11.413,2,2,0,0,1,28.548,3.6,62.051,62.051,0,0,0,4.008,53.181,2,2,0,0,1,2,55.186Z" transform="matrix(0.966, 0.259, -0.259, 0.966, 124.64, 68.839)" fill="#ffe146"/>
      <path id="パス_2269-2" data-name="パス 2269" d="M2,43.551a2,2,0,0,1-2-2A54.642,54.642,0,0,1,18.631.5a2,2,0,1,1,2.644,3.013A50.633,50.633,0,0,0,4.008,41.547,2,2,0,0,1,2,43.551Z" transform="matrix(0.966, 0.259, -0.259, 0.966, 133.064, 83.142)" fill="#ffe146"/>
    </g>
    <g id="グループ_3496" data-name="グループ 3496" transform="translate(0.089 0.002)">
      <path id="パス_2270" data-name="パス 2270" d="M222.964,80a2.522,2.522,0,0,1-2.522-2.522,62.958,62.958,0,0,0-6.152-27.293,63.686,63.686,0,0,0-15.493-20.5,2.522,2.522,0,1,1,3.334-3.785,68.7,68.7,0,0,1,16.713,22.113,67.964,67.964,0,0,1,6.643,29.463A2.522,2.522,0,0,1,222.964,80Z" transform="matrix(0.966, 0.259, -0.259, 0.966, 60.419, 123.052)" fill="none"/>
      <path id="パス_2271" data-name="パス 2271" d="M241.155,71.416a2.522,2.522,0,0,1-2.522-2.522A78.573,78.573,0,0,0,229.6,32.35,79.653,79.653,0,0,0,207.839,6.56a2.522,2.522,0,0,1,3.074-4A84.733,84.733,0,0,1,234.064,30a83.636,83.636,0,0,1,9.613,38.9A2.522,2.522,0,0,1,241.155,71.416Z" transform="matrix(0.966, 0.259, -0.259, 0.966, 55.017, 130.492)" fill="none"/>
    </g>
    <g id="グループ_3493" data-name="グループ 3493" transform="translate(34.846 90.283)">
      <path id="パス_2270-2" data-name="パス 2270" d="M19.884,43.489a2,2,0,0,1-2-2A50.029,50.029,0,0,0,12.991,19.8,50.608,50.608,0,0,0,.68,3.508,2,2,0,1,1,3.329.5,54.594,54.594,0,0,1,16.609,18.072a54.007,54.007,0,0,1,5.279,23.413A2,2,0,0,1,19.884,43.489Z" transform="matrix(0.966, 0.259, -0.259, 0.966, 217.41, 105.806)" fill="#ffe146"/>
      <path id="パス_2271-2" data-name="パス 2271" d="M27.257,55.13a2,2,0,0,1-2-2,62.437,62.437,0,0,0-7.175-29.039A63.3,63.3,0,0,0,.783,3.593,2,2,0,0,1,3.226.415a67.332,67.332,0,0,1,18.4,21.8,66.461,66.461,0,0,1,7.639,30.91A2,2,0,0,1,27.257,55.13Z" transform="matrix(0.966, 0.259, -0.259, 0.966, 224.736, 95.717)" fill="#ffe146"/>
    </g>
    <path id="パス_2272" data-name="パス 2272" d="M137.159,14.719A10.719,10.719,0,1,1,126.44,4a10.719,10.719,0,0,1,10.719,10.719" transform="matrix(0.966, 0.259, -0.259, 0.966, 87.729, 138.506)" fill="#ffe146"/>
    <path id="楕円形_201" data-name="楕円形 201" d="M9.241-4A13.241,13.241,0,1,1-4,9.241,13.256,13.256,0,0,1,9.241-4Zm0,21.438a8.2,8.2,0,1,0-8.2-8.2A8.206,8.206,0,0,0,9.241,17.438Z" transform="matrix(0.966, 0.259, -0.259, 0.966, 199.516, 174.131)" fill="#323232"/>
    <path id="パス_2273" data-name="パス 2273" d="M139.508,166.567a16.394,16.394,0,1,1-16.394-16.394,16.394,16.394,0,0,1,16.394,16.394" transform="matrix(0.966, 0.259, -0.259, 0.966, 104.919, 87.2)" fill="#e0c538"/>
    <path id="楕円形_202" data-name="楕円形 202" d="M14.916-4A18.916,18.916,0,1,1-4,14.916,18.937,18.937,0,0,1,14.916-4Zm0,32.787A13.871,13.871,0,1,0,1.044,14.916,13.887,13.887,0,0,0,14.916,28.787Z" transform="matrix(0.966, 0.259, -0.259, 0.966, 170.181, 261.687)" fill="#323232"/>
    <path id="パス_2274" data-name="パス 2274" d="M145.6,95.819V73.046a43.727,43.727,0,0,0-87.453,0V95.819a13.919,13.919,0,0,1-2.236,7.566L50.2,112.2a5.963,5.963,0,0,0,5,9.2h93.342a5.963,5.963,0,0,0,5-9.2l-5.711-8.815a13.91,13.91,0,0,1-2.237-7.566" transform="matrix(0.966, 0.259, -0.259, 0.966, 113.88, 135.829)" fill="#ffe146"/>
    <path id="パス_2275" data-name="パス 2275" d="M147.06,122.448H53.718a8.485,8.485,0,0,1-7.121-13.1l5.713-8.815a11.37,11.37,0,0,0,1.83-6.194V71.568a46.249,46.249,0,0,1,92.5,0V94.341a11.362,11.362,0,0,0,1.831,6.194l5.712,8.815a8.485,8.485,0,0,1-7.12,13.1ZM100.388,30.363a41.251,41.251,0,0,0-41.2,41.2V94.341a16.4,16.4,0,0,1-2.641,8.937l-5.713,8.815a3.441,3.441,0,0,0,2.888,5.311H147.06a3.441,3.441,0,0,0,2.887-5.311l-5.711-8.815a16.394,16.394,0,0,1-2.643-8.937V71.568A41.251,41.251,0,0,0,100.388,30.363Z" transform="matrix(0.966, 0.259, -0.259, 0.966, 114.93, 137.64)" fill="#323232"/>
    <rect id="長方形_1913" data-name="長方形 1913" width="167.249" height="129.997" transform="matrix(0.966, 0.259, -0.259, 0.966, 128.646, 151)" fill="none"/>
  </g>
</svg>
