<svg xmlns="http://www.w3.org/2000/svg" width="30" height="30" viewBox="0 0 30 30">
  <g id="グループ_4265" data-name="グループ 4265" transform="translate(-170 -327.395)">
    <g id="楕円形_333" data-name="楕円形 333" transform="translate(170 327.395)" fill="#fff" stroke="#008763" stroke-width="1">
      <circle cx="15" cy="15" r="15" stroke="none"/>
      <circle cx="15" cy="15" r="14.5" fill="none"/>
    </g>
    <g id="グループ_4820" data-name="グループ 4820" transform="translate(157 161.797)">
      <rect id="長方形_2356" data-name="長方形 2356" width="18" height="18" transform="translate(19 171.598)" fill="none"/>
      <g id="notebook-pen" transform="translate(19.857 172)">
        <path id="パス_2536" data-name="パス 2536" d="M14.688,18.142H5.338A2.34,2.34,0,0,1,3,15.8V3.338A2.34,2.34,0,0,1,5.338,1H11.1a.779.779,0,0,1,0,1.558H5.338a.78.78,0,0,0-.779.779V15.8a.78.78,0,0,0,.779.779h9.35a.78.78,0,0,0,.779-.779V10.038a.779.779,0,1,1,1.558,0V15.8A2.34,2.34,0,0,1,14.688,18.142Z" transform="translate(-3 -1)" fill="#008763"/>
        <path id="パス_2541" data-name="パス 2541" d="M17.916,1a2.434,2.434,0,0,1,1.721,4.156l-3.906,3.9a2.343,2.343,0,0,1-1,.591L12.5,10.3a1.169,1.169,0,0,1-1.449-1.449L11.7,6.616a2.344,2.344,0,0,1,.591-1l3.9-3.9A2.418,2.418,0,0,1,17.916,1ZM12.743,8.607,14.3,8.154a.781.781,0,0,0,.332-.2l3.906-3.9A.876.876,0,0,0,17.3,2.815l-3.9,3.905a.782.782,0,0,0-.2.333Z" transform="translate(-4.767 -1)" fill="#008763"/>
      </g>
    </g>
  </g>
</svg>
