<svg xmlns="http://www.w3.org/2000/svg" xmlns:xlink="http://www.w3.org/1999/xlink" width="180" height="169.512" viewBox="0 0 180 169.512">
  <defs>
    <clipPath id="clip-path">
      <rect id="長方形_1920" data-name="長方形 1920" width="29.999" height="29.999" fill="none"/>
    </clipPath>
    <clipPath id="clip-path-2">
      <rect id="長方形_1920-2" data-name="長方形 1920" width="15" height="15" fill="none"/>
    </clipPath>
    <clipPath id="clip-path-3">
      <rect id="長方形_1920-3" data-name="長方形 1920" width="20" height="20" fill="none"/>
    </clipPath>
    <clipPath id="clip-path-5">
      <rect id="長方形_2035" data-name="長方形 2035" width="130.005" height="69.512" fill="none"/>
    </clipPath>
  </defs>
  <g id="グループ_3587" data-name="グループ 3587" transform="translate(-105 -142)">
    <g id="グループ_3561" data-name="グループ 3561">
      <g id="グループ_3504" data-name="グループ 3504" transform="translate(-6)">
        <g id="グループ_3502" data-name="グループ 3502" transform="translate(-13 -19)">
          <g id="グループ_3499" data-name="グループ 3499" transform="translate(267 161)">
            <g id="グループ_3498" data-name="グループ 3498" transform="translate(0 0)" clip-path="url(#clip-path)">
              <path id="パス_2292" data-name="パス 2292" d="M30,15c-13.783.672-14.329,1.216-15,15-.672-13.783-1.216-14.327-15-15,13.783-.672,14.327-1.216,15-15,.672,13.785,1.218,14.329,15,15" transform="translate(0 0)" fill="#fbe146"/>
            </g>
          </g>
          <g id="グループ_3500" data-name="グループ 3500" transform="translate(289 196)">
            <g id="グループ_3498-2" data-name="グループ 3498" transform="translate(0 0)" clip-path="url(#clip-path-2)">
              <path id="パス_2292-2" data-name="パス 2292" d="M15,7.5c-6.892.336-7.165.608-7.5,7.5C7.164,8.108,6.892,7.836,0,7.5,6.892,7.165,7.164,6.893,7.5,0c.336,6.893.609,7.165,7.5,7.5" transform="translate(0 0)" fill="#fbe146"/>
            </g>
          </g>
        </g>
        <g id="グループ_3501" data-name="グループ 3501" transform="translate(126 222)">
          <g id="グループ_3498-3" data-name="グループ 3498" transform="translate(0 0)" clip-path="url(#clip-path-3)">
            <path id="パス_2292-3" data-name="パス 2292" d="M19.561,9.781c-8.987.438-9.343.793-9.781,9.78-.438-8.987-.793-9.342-9.78-9.78C8.987,9.343,9.342,8.989,9.78,0c.438,8.989.794,9.343,9.781,9.781" transform="translate(0 0)" fill="#fbe146"/>
          </g>
        </g>
        <g id="グループ_3503" data-name="グループ 3503" transform="translate(111 202)">
          <g id="グループ_3498-4" data-name="グループ 3498" transform="translate(0 0)" clip-path="url(#clip-path-2)">
            <path id="パス_2292-4" data-name="パス 2292" d="M15,7.5c-6.892.336-7.165.608-7.5,7.5C7.164,8.108,6.892,7.836,0,7.5,6.892,7.165,7.164,6.893,7.5,0c.336,6.893.609,7.165,7.5,7.5" transform="translate(0 0)" fill="#fbe146"/>
          </g>
        </g>
      </g>
      <g id="グループ_3645" data-name="グループ 3645" transform="translate(6)">
        <path id="合体_2" data-name="合体 2" d="M-3417.43-3996H-3430l6.705-11.735A49.918,49.918,0,0,1-3426-4024a50,50,0,0,1,50-50,50,50,0,0,1,50,50,50,50,0,0,1-50,50A49.953,49.953,0,0,1-3417.43-3996Z" transform="translate(3567 4216)" fill="#fbe146"/>
        <path id="合体_2_-_アウトライン" data-name="合体 2 - アウトライン" d="M-3376-3977a46.7,46.7,0,0,0,18.293-3.692,46.846,46.846,0,0,0,14.94-10.074,46.853,46.853,0,0,0,10.073-14.941A46.7,46.7,0,0,0-3329-4024a46.7,46.7,0,0,0-3.692-18.294,46.852,46.852,0,0,0-10.073-14.94,46.847,46.847,0,0,0-14.94-10.074A46.7,46.7,0,0,0-3376-4071a46.7,46.7,0,0,0-18.294,3.692,46.845,46.845,0,0,0-14.94,10.074,46.848,46.848,0,0,0-10.074,14.94A46.7,46.7,0,0,0-3423-4024a46.9,46.9,0,0,0,2.542,15.29,3,3,0,0,1-.232,2.464l-4.141,7.247h7.4a3,3,0,0,1,2.484,1.318,47.39,47.39,0,0,0,16.568,15.023,46.732,46.732,0,0,0,10.643,4.183A47.181,47.181,0,0,0-3376-3977m0,3a49.953,49.953,0,0,1-41.431-22H-3430l6.705-11.735A49.918,49.918,0,0,1-3426-4024a50,50,0,0,1,50-50,50,50,0,0,1,50,50A50,50,0,0,1-3376-3974Z" transform="translate(3567 4216)" fill="#323232"/>
        <path id="パス_2421" data-name="パス 2421" d="M361.246,235.575a5.666,5.666,0,1,1-5.666,5.666,5.669,5.669,0,0,1,5.666-5.666m6.531-39.667a6.541,6.541,0,0,0-6.531-6.889h0a6.54,6.54,0,0,0-6.531,6.889c.447,8.368,1.308,24.514,1.67,31.293a4.868,4.868,0,0,0,4.861,4.608h0a4.868,4.868,0,0,0,4.861-4.608Z" transform="translate(-170.706 -26.02)" fill="#323232" fill-rule="evenodd"/>
      </g>
    </g>
    <g id="グループ_3584" data-name="グループ 3584" transform="translate(130 242)">
      <g id="グループ_3583" data-name="グループ 3583" transform="translate(0 0)" clip-path="url(#clip-path-5)">
        <path id="パス_2391" data-name="パス 2391" d="M77.5,13.244l9.322-9.322a4.717,4.717,0,0,1,4.712-1.213c-.07.066-.151.115-.22.183L77.388,16.817a5.7,5.7,0,0,1-4.052,1.678H62.9A7.819,7.819,0,0,0,64,15.947h6.968a9.169,9.169,0,0,0,6.524-2.7" transform="translate(25.078 0.999)" fill="#ffe4d9"/>
        <path id="パス_2392" data-name="パス 2392" d="M29.235,59.439,1.635,33.832,15.7,19.763l.4.4v0l0,0,26.194,26.2Z" transform="translate(0.652 7.88)" fill="#008763"/>
        <path id="パス_2393" data-name="パス 2393" d="M14.635,19.679l1.788-1.788.757.757L38.36,39.829l0,0,0,0,1.221,1.221L37.8,42.845Z" transform="translate(5.835 7.134)" fill="#fff"/>
        <path id="パス_2394" data-name="パス 2394" d="M117.62,10.922,100.8,27.746c-1.547,1.534-20,10.374-29.888,9.825L44.566,35.934a1.84,1.84,0,0,0-1.343.509l-5.406,5.406L19.1,23.137l5.883-5.883c16.021-16.022,31.2-8.429,31.835-8.1a1.759,1.759,0,0,0,.815.2H73.823a4.363,4.363,0,1,1,0,8.727H56.813a1.748,1.748,0,0,0,0,3.5H90.8a9.163,9.163,0,0,0,6.524-2.7L111.244,4.954a4.573,4.573,0,0,1,6.042-.506,4.322,4.322,0,0,1,1.6,3.167,4.37,4.37,0,0,1-1.266,3.308" transform="translate(7.617 1.409)" fill="#ffe4d9"/>
        <path id="パス_2395" data-name="パス 2395" d="M57.519,19.312h17.01a6.112,6.112,0,1,0,0-12.223H58.342S41.654-1.7,24.456,15.5l-7.119,7.118" transform="translate(6.912 1.931)" fill="none" stroke="#1a1311" stroke-linecap="round" stroke-linejoin="round" stroke-width="2.5"/>
        <path id="パス_2396" data-name="パス 2396" d="M65.481,20.333H85.462a7.473,7.473,0,0,0,5.287-2.19L104.675,4.218a6.309,6.309,0,0,1,8.381-.625,6.128,6.128,0,0,1,.466,9.065L96.7,29.482C94.677,31.5,75.6,40.355,65.469,39.814L39.125,38.177l-6.642,6.644" transform="translate(12.951 0.91)" fill="none" stroke="#323232" stroke-linecap="round" stroke-linejoin="round" stroke-width="2.5"/>
        <path id="パス_2397" data-name="パス 2397" d="M12.867,20.384l4.26-4.26L42.764,41.762l-4.259,4.26" transform="translate(5.13 6.429)" fill="none" stroke="#323232" stroke-linecap="round" stroke-linejoin="round" stroke-width="2.5"/>
        <path id="パス_2398" data-name="パス 2398" d="M1.25,32.6,15.857,18,44.932,47.071,31.416,60.588" transform="translate(0.498 7.176)" fill="none" stroke="#323232" stroke-linecap="round" stroke-linejoin="round" stroke-width="2.5"/>
        <path id="パス_2399" data-name="パス 2399" d="M62.6,14.7h8.5a7.472,7.472,0,0,0,5.286-2.19L85.7,3.186a6.311,6.311,0,0,1,8.381-.624" transform="translate(24.958 0.499)" fill="none" stroke="#1a1311" stroke-linecap="round" stroke-linejoin="round" stroke-width="2.5"/>
      </g>
    </g>
  </g>
</svg>
