<svg xmlns="http://www.w3.org/2000/svg" width="73" height="70" viewBox="0 0 73 70">
  <g id="グループ_3646" data-name="グループ 3646" transform="translate(-137 -142)">
    <path id="合体_2" data-name="合体 2" d="M8.823,54.6H0l4.707-8.214A35.1,35.1,0,1,1,8.823,54.6Z" transform="translate(137 142)" fill="#fbe146"/>
    <path id="合体_2_-_アウトライン" data-name="合体 2 - アウトライン" d="M-3392.2-4006.1a32.685,32.685,0,0,0,12.805-2.585,32.8,32.8,0,0,0,10.458-7.051,32.8,32.8,0,0,0,7.051-10.458A32.7,32.7,0,0,0-3359.3-4039a32.7,32.7,0,0,0-2.584-12.806,32.8,32.8,0,0,0-7.051-10.458,32.805,32.805,0,0,0-10.458-7.052,32.693,32.693,0,0,0-12.805-2.584,32.7,32.7,0,0,0-12.806,2.584,32.805,32.805,0,0,0-10.458,7.052,32.8,32.8,0,0,0-7.051,10.458A32.687,32.687,0,0,0-3425.1-4039a32.836,32.836,0,0,0,1.779,10.7,2.1,2.1,0,0,1-.163,1.725l-2.9,5.073h5.18a2.1,2.1,0,0,1,1.739.922,33.178,33.178,0,0,0,11.6,10.516,32.7,32.7,0,0,0,7.45,2.928,33.009,33.009,0,0,0,8.215,1.034m0,2.1a34.968,34.968,0,0,1-29-15.4h-8.8l4.693-8.214A34.947,34.947,0,0,1-3427.2-4039a35,35,0,0,1,35-35,35,35,0,0,1,35,35A35,35,0,0,1-3392.2-4004Z" transform="translate(3567 4216)" fill="#323232"/>
    <path id="パス_2421" data-name="パス 2421" d="M359.284,221.608a3.966,3.966,0,1,1-3.966,3.966,3.968,3.968,0,0,1,3.966-3.966m4.572-27.767a4.578,4.578,0,0,0-4.572-4.822h0a4.578,4.578,0,0,0-4.572,4.822c.313,5.858.915,17.16,1.169,21.905a3.407,3.407,0,0,0,3.4,3.226h0a3.407,3.407,0,0,0,3.4-3.226Z" transform="translate(-184.806 -32.32)" fill="#323232" fill-rule="evenodd"/>
  </g>
</svg>
