<svg xmlns="http://www.w3.org/2000/svg" width="19.998" height="19.998" viewBox="0 0 19.998 19.998">
  <g id="eye-off" transform="translate(-1 -1)">
    <path id="パス_1890" data-name="パス 1890" d="M11.562,15.42a3.636,3.636,0,0,1-2.479-6.3.909.909,0,1,1,1.239,1.33,1.818,1.818,0,1,0,2.569,2.569.909.909,0,0,1,1.33,1.239A3.635,3.635,0,0,1,11.562,15.42Z" transform="translate(-0.63 -0.717)" fill="#ccc"/>
    <path id="パス_1891" data-name="パス 1891" d="M19.365,14.617a.909.909,0,0,1-.708-1.479,11.066,11.066,0,0,0,1.214-1.867,12.146,12.146,0,0,0-1.852-2.6,8.327,8.327,0,0,0-6.226-2.849,8.6,8.6,0,0,0-1.042.066.909.909,0,1,1-.225-1.8A10.429,10.429,0,0,1,11.792,4a10.221,10.221,0,0,1,7.6,3.472,13.313,13.313,0,0,1,2.328,3.442.909.909,0,0,1-.012.743,12.885,12.885,0,0,1-1.633,2.621A.907.907,0,0,1,19.365,14.617Z" transform="translate(-0.794 -0.273)" fill="#ccc"/>
    <path id="パス_1892" data-name="パス 1892" d="M11.023,18.691H11A10.219,10.219,0,0,1,3.4,15.219a14.093,14.093,0,0,1-1.748-2.341c-.159-.266-.3-.529-.428-.779A1.387,1.387,0,0,1,1,11.419a.909.909,0,0,1,.087-.389,13.216,13.216,0,0,1,4.5-5.262.909.909,0,0,1,1.023,1.5,11.4,11.4,0,0,0-3.689,4.152,12.146,12.146,0,0,0,1.851,2.6A8.327,8.327,0,0,0,11,16.873a7.923,7.923,0,0,0,4.4-1.313.909.909,0,0,1,1,1.518A9.734,9.734,0,0,1,11.023,18.691Z" transform="translate(0 -0.419)" fill="#ccc"/>
    <path id="線_3" data-name="線 3" d="M18.089,19a.906.906,0,0,1-.643-.266L-.734.552a.909.909,0,0,1,0-1.286.909.909,0,0,1,1.286,0l18.18,18.18A.909.909,0,0,1,18.089,19Z" transform="translate(2 2)" fill="#ccc"/>
  </g>
</svg>
