<svg xmlns="http://www.w3.org/2000/svg" width="19.991" height="14.539" viewBox="0 0 19.991 14.539">
  <g id="eye" transform="translate(-1 -4)">
    <path id="パス_1893" data-name="パス 1893" d="M11,4A10.216,10.216,0,0,1,18.59,7.471a13.309,13.309,0,0,1,2.327,3.441.909.909,0,0,1,0,.716,13.309,13.309,0,0,1-2.327,3.441A10.216,10.216,0,0,1,11,18.539,10.216,10.216,0,0,1,3.4,15.068a13.308,13.308,0,0,1-2.327-3.441.909.909,0,0,1,0-.716A13.308,13.308,0,0,1,3.4,7.471,10.216,10.216,0,0,1,11,4Zm8.076,7.271a12.141,12.141,0,0,0-1.853-2.6,8.228,8.228,0,0,0-12.487.042,12.051,12.051,0,0,0-1.814,2.561,12.141,12.141,0,0,0,1.853,2.6,8.228,8.228,0,0,0,12.487-.042A12.051,12.051,0,0,0,19.072,11.271Z" fill="#278763"/>
    <path id="楕円形_17" data-name="楕円形 17" d="M2.635-1A3.635,3.635,0,1,1-1,2.635,3.639,3.639,0,0,1,2.635-1Z" transform="translate(8.361 8.635)" fill="#278763"/>
  </g>
</svg>
