<svg xmlns="http://www.w3.org/2000/svg" width="120" height="120" viewBox="0 0 120 120">
  <g id="グループ_1786" data-name="グループ 1786" transform="translate(-132 -153)">
    <circle id="楕円形_8" data-name="楕円形 8" cx="60" cy="60" r="60" transform="translate(132 153)" fill="#f5f5f5"/>
    <g id="グループ_1787" data-name="グループ 1787" transform="translate(164 183)">
      <path id="楕円形_9" data-name="楕円形 9" d="M16.584-1A17.584,17.584,0,1,1-1,16.584,17.6,17.6,0,0,1,16.584-1Zm0,28.134a10.55,10.55,0,1,0-10.55-10.55A10.562,10.562,0,0,0,16.584,27.134Z" transform="translate(11.55 1)" fill="#008763"/>
      <path id="パス_443" data-name="パス 443" d="M68.752,54.651a3.517,3.517,0,0,1-3.517-3.517,21.1,21.1,0,0,0-42.2,0,3.517,3.517,0,1,1-7.034,0,28.134,28.134,0,1,1,56.268,0A3.517,3.517,0,0,1,68.752,54.651Z" transform="translate(-16 5.345)" fill="#008763"/>
    </g>
  </g>
</svg>
