<svg xmlns="http://www.w3.org/2000/svg" xmlns:xlink="http://www.w3.org/1999/xlink" width="310" height="310" viewBox="0 0 310 310">
  <defs>
    <clipPath id="clip-path">
      <rect id="長方形_1874" data-name="長方形 1874" width="150" height="176.986" fill="none"/>
    </clipPath>
    <clipPath id="clip-path-2">
      <rect id="長方形_1921" data-name="長方形 1921" width="30.502" height="35.396" fill="none"/>
    </clipPath>
    <clipPath id="clip-path-3">
      <rect id="長方形_1917" data-name="長方形 1917" width="36.863" height="35.399" fill="#fff6d3"/>
    </clipPath>
  </defs>
  <g id="グループ_3718" data-name="グループ 3718" transform="translate(-3944 -2248)">
    <g id="グループ_3416" data-name="グループ 3416" transform="translate(4023.918 2381.014)">
      <g id="グループ_3415" data-name="グループ 3415" clip-path="url(#clip-path)">
        <path id="パス_2169" data-name="パス 2169" d="M1.01,182.907l6.521-17.124L23.9,154.941,38.6,148.5l5.257-4.776,19.787,6.664,6.4,8.912,17.915-.985,4.117-6.879,16.344-7.713,3.228,1.035,18.458,10.184,9,6.445,6.636,10.662,2.531,10.858Z" transform="translate(-0.116 -16.538)" fill="#eec37f"/>
        <path id="パス_1810" data-name="パス 1810" d="M124.353,430.135c0-.008.015-.037.044-.073-.034.029-.053.054-.044.073" transform="translate(-86.629 -299.602)" fill="#fff1bf"/>
        <path id="パス_1811" data-name="パス 1811" d="M218.071,385.684a19.986,19.986,0,0,1-1.7-6.025c-8.387,7.256-22.15,7.716-31.364,1.755-.67-.433-1.3-.9-1.913-1.38-.471,5.006-2.2,9.972-6.188,13.2l1.935.621,6.6,2.117c.967.31,2.557.527,3.322,1.266a9.582,9.582,0,0,1,1.323,2.223l2.957,5.264,9.949,17.709,7.988-18.782,1.762-4.144c.414-.974.556-1.592,1.591-2.092,2.807-1.356,5.827-2.382,8.711-3.562l1.86-.761a20.577,20.577,0,0,1-6.831-7.4" transform="translate(-123.241 -264.488)" fill="#ffeeda"/>
        <path id="パス_1812" data-name="パス 1812" d="M200.493,258.68c5.911-3.19,5.4-10.7,3.231-16.5a1.911,1.911,0,0,1-.327.1l-3.242.648c-.9,4.479-3.331,8.947-8.214,9.725-3.161.5-7.041-.135-9.33-2.557a15.084,15.084,0,0,1-3.235-6.331h-.983c-.8,5.574-6.48,9.342-12.042,9.15-5.6-.194-9.09-4.087-10.136-9.15h-3.653a1.569,1.569,0,0,1-1.514-.961,1.8,1.8,0,0,1-1.984,1.073c-2.961-.514-3.37,3.971-3.32,5.978a9.311,9.311,0,0,0,1.76,5.255,4.4,4.4,0,0,1,5.213,1.935,1.654,1.654,0,0,1,1.243,1.59,44.875,44.875,0,0,0,2.21,12.343,22.138,22.138,0,0,0,10.566,12.675,25.239,25.239,0,0,0,17.29,1.877c5.391-1.273,9.1-4.446,12.308-8.813a24.1,24.1,0,0,0,3.136-5.086,37.6,37.6,0,0,0,1.8-7.286,1.632,1.632,0,0,1,.312-.72,4.15,4.15,0,0,1-.556-1.783c-1.332-.327-2.067-2.336-.534-3.164m-25.861-3.69c.2-1.29,1.468-2.539,2.155-3.626a4.057,4.057,0,0,0,.516-3.065c-.225-2.216,3.236-2.193,3.458,0a8.064,8.064,0,0,1-1.61,5.771,11.1,11.1,0,0,0-.986,1.4c.118-.143.478.552.625.726.454.539.943,1.053,1.441,1.551a1.73,1.73,0,0,1-2.445,2.445c-1.269-1.27-3.454-3.206-3.152-5.2m11.2,14.7c-3.451,3.639-10.987,3.3-14.328-.268-1.522-1.624.92-4.073,2.445-2.445,2.083,2.223,7.25,2.575,9.438.268,1.535-1.619,3.976.831,2.445,2.445m5.6-.921a1.741,1.741,0,0,1-2.366.62l-2.512-1.675a1.77,1.77,0,0,1-.62-2.366,1.741,1.741,0,0,1,2.366-.62l2.512,1.675a1.77,1.77,0,0,1,.62,2.366" transform="translate(-101.53 -168.717)" fill="#ffeeda"/>
        <path id="パス_1813" data-name="パス 1813" d="M199.15,125.1l-.3.063.291-.084c-.76-2.64-1.486-5.374-2.188-8.018-2.875-10.834-5.849-22.036-12.327-31.383-3.123-4.506-8.4-10.234-15.779-11.933-6.351-1.462-12.832.523-16.514,5.056a1.073,1.073,0,0,1-1.327.384,1.691,1.691,0,0,1-.984-1.668l.049-.429-.42.1a10.2,10.2,0,0,0-2.747,1.179l-.518.3.55.238a1.535,1.535,0,0,1,.764,2.03,1.143,1.143,0,0,1-1.559.7c-3.89-1.442-7.586.105-11.3,4.73a58.751,58.751,0,0,0-5.094,7.984q-.37.656-.742,1.31c-.538.944-1.086,1.887-1.635,2.833a97.31,97.31,0,0,0-6.465,12.485c-2.336,5.84-2.864,11.415-1.568,16.569a15.068,15.068,0,0,0,4.147,7.253l.714.693-.206-.974a13.072,13.072,0,0,1-.278-3.1c.176-5.892,3.216-8.177,5.765-8.342l.994-.065-.861-.5a1.593,1.593,0,0,1-.7-1.533,1.289,1.289,0,0,1,.985-1.123c5.715-1.654,9.592-6.781,11.526-15.238a1.221,1.221,0,0,1,1.486-.98l.251.041.084-.241a1.435,1.435,0,0,1,1.282-.994,23.528,23.528,0,0,0,9.157-2.688c3.344-1.851,5.336-4.373,5.761-7.294a1.071,1.071,0,0,1,.642-.911,1.6,1.6,0,0,1,1.513.3,1.508,1.508,0,0,1,.579,1.444c-.7,4.837-4.691,7.743-7.911,9.33l-.538.265.532.276a4.563,4.563,0,0,0,3.3.042c.228-.054.457-.109.684-.154l.224-.045.018-.228a1.212,1.212,0,0,1,1-1.134c4.417-1.084,8.947-2.938,9.065-8.469a1.379,1.379,0,0,1,1.5-1.372,1.288,1.288,0,0,1,1.354,1.359,12.681,12.681,0,0,1-.558,3.568l-.045.14.083.122c.288.424.568.88.84,1.322.249.4.506.824.772,1.222l.956,1.431-.409-1.672c-.106-.431-.21-.862-.309-1.294a1.432,1.432,0,0,1,1.148-1.743,1.24,1.24,0,0,1,1.6.96,46.883,46.883,0,0,0,5.169,14c.772,1.267,1.614,2.514,2.427,3.719a49.3,49.3,0,0,1,4.346,7.32,23.246,23.246,0,0,1,1.872,11.825c-.389,3.116-1.757,7.318-6.069,9.645a1.363,1.363,0,0,1-1,.15l-.416-.1.042.427a4.458,4.458,0,0,0,.6,1.913l.229.367.267-.341a1.4,1.4,0,0,1,1.91-.071l.124.092.147-.046a13.585,13.585,0,0,0,7.914-6.235c1.673-2.964,2.786-7.358.893-10.8a1.326,1.326,0,0,1,0-1.373,1.62,1.62,0,0,1,1.379-.776,1.215,1.215,0,0,1,1.073.7c1.95,3.55,1.765,8.388-.495,12.943l-.468.943.9-.549a9.439,9.439,0,0,0,3.6-5.057c1.228-3.839.3-7.065-.779-10.8" transform="translate(-82.659 -51.046)" fill="#7e7e7e"/>
        <path id="パス_1814" data-name="パス 1814" d="M197.1,154.647c-2.263,2.306-5.53,3.38-8.589,4.131a1.758,1.758,0,0,1-2.146-1.93c-1.27.257-2.573.768-3.783.141a28.44,28.44,0,0,1-9.9,2.7c-.025,0-.048,0-.072,0-1.738,7.484-5.729,14.886-13.513,17.238.064.01.127.016.192.027a1.435,1.435,0,0,1,1.072.709,1.57,1.57,0,0,1,1.506-.944h5.123a1.768,1.768,0,0,1,1.729,1.729c.373,3.97,2.732,7.273,6.938,7.421,4.285.152,8.855-2.757,8.672-7.421a1.748,1.748,0,0,1,1.729-1.729h3.985a1.747,1.747,0,0,1,1.667,1.27,14.334,14.334,0,0,0,2.374,5.732c1.47,1.9,4.427,2.334,6.667,1.94,2.337-.412,3.652-2.136,4.5-4.239a17.265,17.265,0,0,0,.818-2.724c.06-.272.292-1.728.174-.819a1.774,1.774,0,0,1,1.27-1.667l4.066-.813c-.117-.216-.235-.428-.355-.632-2.049-3.5-4.65-6.663-6.461-10.3a52.552,52.552,0,0,1-3.84-11.014c-.552-.827-1.055-1.727-1.613-2.546a9.253,9.253,0,0,1-2.211,3.732m-21.186,26.431a1.568,1.568,0,1,1,1.568-1.568,1.6,1.6,0,0,1-1.568,1.568M200.5,179.51a1.568,1.568,0,1,1-1.568-1.568,1.586,1.586,0,0,1,1.568,1.568" transform="translate(-110.833 -105.134)" fill="#ffeeda"/>
        <path id="パス_1815" data-name="パス 1815" d="M10.739,538.855l0,.014c.012.041.021.068.027.088,0-.02-.006-.04-.01-.06l-.017-.066,0,.024" transform="translate(-7.481 -375.375)" fill="#fff1bf"/>
        <path id="パス_1816" data-name="パス 1816" d="M152.691,296.563a1.067,1.067,0,0,0,2.134,0,1.067,1.067,0,0,0-2.134,0" transform="translate(-106.372 -205.88)" fill="#fff"/>
        <path id="パス_1817" data-name="パス 1817" d="M173.932,367.655c0,4.752-1.023,10.619-5.076,13.669-1.541,1.16-.031,3.795,1.531,2.619,5-3.765,6.576-10.3,6.578-16.289a1.518,1.518,0,0,0-3.034,0" transform="translate(-117.185 -255.105)" fill="#323232"/>
        <path id="パス_1818" data-name="パス 1818" d="M306.753,367.678a23.77,23.77,0,0,0,1.953,8.539,20.422,20.422,0,0,0,6.831,7.383c1.588,1.141,3.1-1.489,1.531-2.619a17.157,17.157,0,0,1-5.742-6.295,19.881,19.881,0,0,1-1.539-7.008c-.16-1.932-3.2-1.949-3.034,0" transform="translate(-213.694 -255.128)" fill="#323232"/>
        <path id="パス_1819" data-name="パス 1819" d="M244.263,259.01a4.207,4.207,0,0,1-.46,3.04c-.377.609-.76,1.232-1.16,1.827a5.4,5.4,0,0,0-1.028,1.651c-.458,1.971,1.826,3.98,3.067,5.221a1.518,1.518,0,0,0,2.145-2.145c-.489-.489-.965-.993-1.412-1.519-.159-.187-.7-.684-.7-.929,0-.3.9-1.327,1.075-1.605a7.688,7.688,0,0,0,1.5-5.54c-.2-1.923-3.234-1.943-3.033,0" transform="translate(-168.279 -179.429)" fill="#323232"/>
        <path id="パス_1820" data-name="パス 1820" d="M162.135,293.058c.38,10.369,3.726,21.176,12.919,26.97,10.347,6.521,26.026,4.983,33.736-4.887a39.334,39.334,0,0,0,4.583-6.729,33.9,33.9,0,0,0,2.446-8.781c.354-1.908-2.569-2.727-2.925-.806a36.879,36.879,0,0,1-1.844,7.405,24.133,24.133,0,0,1-3.037,4.918c-3.207,4.367-6.868,7.621-12.253,8.949a25.55,25.55,0,0,1-17.474-1.712,22.374,22.374,0,0,1-10.9-12.922,44.982,44.982,0,0,1-2.22-12.4c-.071-1.946-3.105-1.956-3.034,0" transform="translate(-112.95 -203.138)" fill="#323232"/>
        <path id="パス_1821" data-name="パス 1821" d="M142.474,237.192c-5.117-.915-7.283,3.939-7.425,8.3-.177,5.413,2.976,10.607,8.3,12.156a1.518,1.518,0,0,0,.807-2.925,8.828,8.828,0,0,1-6.083-8.557c-.032-2.154.491-6.6,3.592-6.046,1.909.341,2.728-2.582.806-2.925" transform="translate(-94.076 -165.161)" fill="#323232"/>
        <path id="パス_1822" data-name="パス 1822" d="M259.717,135.509a7.106,7.106,0,0,1-2.071,5.319c-1.859,1.741-4.51,2.478-6.919,3.067-1.9.464-1.092,3.39.806,2.925,3.021-.739,6.238-1.795,8.48-4.063a10.265,10.265,0,0,0,2.737-7.248c.039-1.953-2.995-1.953-3.034,0" transform="translate(-173.915 -93.382)" fill="#323232"/>
        <path id="パス_1823" data-name="パス 1823" d="M215.384,134.059c-.913,6.435-9.29,9.435-14.847,9.88-1.933.155-1.949,3.189,0,3.034,6.79-.544,16.66-4.272,17.772-12.107.271-1.909-2.652-2.734-2.925-.806" transform="translate(-138.689 -92.626)" fill="#323232"/>
        <path id="パス_1824" data-name="パス 1824" d="M164.653,174.079c-1.462,6.424-4.632,13.2-11.463,15.163a1.518,1.518,0,0,0,.807,2.925c7.877-2.263,11.874-9.781,13.582-17.282.433-1.9-2.491-2.712-2.925-.806" transform="translate(-105.975 -120.515)" fill="#323232"/>
        <path id="パス_1825" data-name="パス 1825" d="M224.209,72.106c3.917-4.841,10.559-6.373,16.481-4.99,6.57,1.534,11.873,6.436,15.628,11.844,8.148,11.737,10.733,26.3,14.634,39.779,1.053,3.636,1.872,6.882.612,10.6-.866,2.557-2.83,5.328-5.749,5.556-1.934.151-1.95,3.186,0,3.034,6.571-.513,9.812-7.85,9.47-13.72a23.029,23.029,0,0,0-1.094-5.2c-.675-2.293-1.316-4.6-1.947-6.9-1.1-4.029-2.165-8.07-3.354-12.074-4.083-13.743-10.923-30.709-25.946-35.449-7.194-2.27-15.988-.671-20.88,5.375-1.217,1.5.916,3.664,2.145,2.145" transform="translate(-154.448 -44.308)" fill="#323232"/>
        <path id="パス_1826" data-name="パス 1826" d="M140.175,89.846c-9.588-3.58-15.841,7.328-19.746,14.194-5.874,10.326-13.294,21.221-11.008,33.7a17.66,17.66,0,0,0,4.235,9.151,21.85,21.85,0,0,0,4.574,3.789c1.669,1.022,3.195-1.6,1.531-2.619a15.143,15.143,0,0,1-7.025-9.357,26.591,26.591,0,0,1,1.536-16.639c2.139-5.339,5.249-10.3,8.084-15.289a67.008,67.008,0,0,1,5.96-9.446c2.8-3.428,6.481-6.263,11.052-4.556,1.831.684,2.622-2.247.806-2.925" transform="translate(-75.932 -62.101)" fill="#323232"/>
        <path id="パス_1827" data-name="パス 1827" d="M152.583,292.515a2.8,2.8,0,1,1-2.8-2.8,2.8,2.8,0,0,1,2.8,2.8" transform="translate(-102.401 -201.832)" fill="#fff"/>
        <path id="パス_1828" data-name="パス 1828" d="M147.583,289.032a1.28,1.28,0,0,1-2.558,0,1.28,1.28,0,0,1,2.558,0c.1,1.942,3.139,1.954,3.034,0a4.313,4.313,0,1,0-4.465,4.3,4.391,4.391,0,0,0,4.465-4.3c.1-1.951-2.929-1.945-3.034,0" transform="translate(-98.917 -198.349)" fill="#323232"/>
        <path id="パス_1829" data-name="パス 1829" d="M3.012,451.8c.061.185.192.376.038.164-.039-.053.1-.65-.015.028.033-.2.079-.407.129-.608a25.489,25.489,0,0,1,1.793-4.615c1.333-2.85,2.69-6.079,4.627-8.572a23.866,23.866,0,0,1,5.2-4.65A87.883,87.883,0,0,1,35.441,423.1c1.55-.557,3.679-.9,4.848-2.1,1.331-1.373,2.547-2.876,3.815-4.307l-1.476.39L63.894,423.9l-.906-.7L76.7,447.616l1.942,3.457a1.527,1.527,0,0,0,2.619,0L91.4,427.235l1.449-3.407-.906.7,18.387-7.518-1.169-.153c1.069.777,2.114,1.686,3.25,2.36,1.314.779,2.819,1.335,4.2,1.989,3.243,1.536,6.47,3.094,9.627,4.8,4.308,2.331,8.9,4.813,12.41,8.286,1.806,1.787,2.766,4.179,3.872,6.431a67.8,67.8,0,0,1,3,6.817c.247.683.479,1.374.661,2.077.068.264.125.528.181.795.1.488.011-.037.04.269.011.112.005.224.012.336.022.368-.013-.046.024-.1-.224.322.315-.478.317-.48-1.319,1.435.821,3.586,2.145,2.145,1.054-1.147.4-3.15.019-4.429a48.785,48.785,0,0,0-2.46-6.181c-1.317-2.879-2.564-6.137-4.564-8.611-3.407-4.212-8.8-7.054-13.463-9.614-3.613-1.981-7.324-3.758-11.046-5.521a24.226,24.226,0,0,1-3.968-2.007c-1.072-.78-2.6-2.461-4.033-2.082a31.634,31.634,0,0,0-3.673,1.5l-6.08,2.486c-2.81,1.149-5.76,2.145-8.492,3.472-.937.455-1.065,1.058-1.443,1.947l-1.864,4.382-9.193,21.615h2.619L69.6,428.78l-2.875-5.118a12.671,12.671,0,0,0-1.238-2.146c-.731-.838-2.434-1.072-3.439-1.394l-6.691-2.146-11.923-3.825a1.491,1.491,0,0,0-1.476.39l-3.568,4.028c-.026.029-.522.586-.52.587-.029-.027,1.17-.559-.028-.131L34.828,420.1c-2.506.895-4.956,1.958-7.381,3.049a84,84,0,0,0-14.48,7.972,27.462,27.462,0,0,0-5.6,5.019,43.9,43.9,0,0,0-4.8,8.607,30.593,30.593,0,0,0-2.342,5.882A3.832,3.832,0,0,0,.087,452.6c.611,1.845,3.541,1.055,2.925-.806" transform="translate(0 -288.47)" fill="#323232"/>
        <path id="パス_1830" data-name="パス 1830" d="M296.527,150.5a54.266,54.266,0,0,0,4.238,12.483c1.827,3.6,4.422,6.748,6.445,10.238,3.356,5.791,5.8,16.5-1.6,20.453-1.722.921-.192,3.54,1.531,2.619,7.711-4.123,7.3-14.916,4.147-21.8-1.8-3.924-4.522-7.264-6.741-10.935a46.651,46.651,0,0,1-5.1-13.862c-.437-1.9-3.363-1.1-2.925.806" transform="translate(-206.544 -103.524)" fill="#323232"/>
        <path id="パス_1831" data-name="パス 1831" d="M341.579,252.129c1.8,3.235.88,7.541-.835,10.626a13.622,13.622,0,0,1-8.956,6.573c-1.9.436-1.1,3.362.806,2.925a16.558,16.558,0,0,0,10.964-8.333c2.085-4.025,2.922-9.208.64-13.322-.947-1.708-3.568-.179-2.619,1.531" transform="translate(-230.383 -174.058)" fill="#323232"/>
        <path id="パス_1832" data-name="パス 1832" d="M164.864,236.511h5.123l-1.517-1.517c.282,3.06,1.23,6.138,3.639,8.2a10.558,10.558,0,0,0,6.511,2.461c6,.231,12.221-4.262,11.952-10.665l-1.517,1.517h3.984l-1.462-1.114a15.628,15.628,0,0,0,3.581,7.6c2.322,2.345,6.161,2.928,9.293,2.367,5.153-.924,7.427-6.246,8.035-10.94l-1.113,1.462,4.269-.854c1.913-.383,1.1-3.307-.806-2.925l-4.269.854a1.557,1.557,0,0,0-1.114,1.463c.112-.86-.136.676-.187.9a17.718,17.718,0,0,1-.794,2.653c-.831,2.1-2.138,3.9-4.451,4.386-2.266.477-5.409.093-6.967-1.8a14.1,14.1,0,0,1-2.55-5.979,1.532,1.532,0,0,0-1.463-1.114h-3.984a1.533,1.533,0,0,0-1.517,1.517c.2,4.787-4.52,7.8-8.918,7.631-4.318-.167-6.741-3.562-7.116-7.631a1.551,1.551,0,0,0-1.517-1.517h-5.123a1.518,1.518,0,0,0,0,3.034" transform="translate(-113.831 -161.674)" fill="#323232"/>
        <path id="パス_1833" data-name="パス 1833" d="M278.934,319.254l2.512,1.674a1.517,1.517,0,0,0,1.531-2.619l-2.512-1.674a1.517,1.517,0,0,0-1.531,2.619" transform="translate(-193.797 -220.435)" fill="#323232"/>
        <path id="パス_1834" data-name="パス 1834" d="M224.684,320.121c1.256,8.647,15.912,9.21,16.345-.108a1.538,1.538,0,0,0-1.517-1.517l-13.365-.295c-1.953-.043-1.952,2.991,0,3.034l13.365.295L238,320.013c-.126,2.718-2.536,3.961-5.034,3.83a5.36,5.36,0,0,1-5.352-4.528c-.279-1.925-3.2-1.106-2.925.806" transform="translate(-156.513 -221.673)" fill="#323232"/>
        <path id="パス_1835" data-name="パス 1835" d="M200.7,241.437a2.323,2.323,0,0,1,2.454-.169c1.728.905,3.263-1.712,1.531-2.619a5.492,5.492,0,0,0-6.13.643,1.526,1.526,0,0,0,0,2.145,1.554,1.554,0,0,0,2.145,0" transform="translate(-138.017 -165.8)" fill="#323232"/>
        <path id="パス_1836" data-name="パス 1836" d="M284.768,239.292a5.491,5.491,0,0,0-6.13-.643c-1.73.906-.2,3.526,1.531,2.619a2.327,2.327,0,0,1,2.454.169,1.565,1.565,0,0,0,2.145,0,1.527,1.527,0,0,0,0-2.145" transform="translate(-193.583 -165.799)" fill="#323232"/>
        <path id="パス_1837" data-name="パス 1837" d="M223.649,434.824c-1.028-6.189-1.848-12.7-5.446-17.839a6.714,6.714,0,0,0-3.4-2.832,3,3,0,0,0-3.706,1.674,4.026,4.026,0,0,0-4.319-1.9,6.521,6.521,0,0,0-4,2.892,18.27,18.27,0,0,0-2.025,4.626,202.378,202.378,0,0,0-8.983,41.724,1.5,1.5,0,0,0,.13,1c.278.412.864.44,1.361.426,11.993-.34,25.84.06,37.833-.28l-1.77-5.334a188.038,188.038,0,0,1-5.673-24.158" transform="translate(-133.577 -288.307)" fill="#ffeeda"/>
        <path id="パス_1838" data-name="パス 1838" d="M251.516,564.571h2.309q-.6-3.121-1.159-6.252-.545,3.132-1.151,6.252" transform="translate(-175.218 -388.951)" fill="#fff"/>
        <path id="パス_1839" data-name="パス 1839" d="M274.156,459.629c-2.111-10.522-4.923-20.884-7.546-31.285-1.1-4.368-1.795-9.012-3.461-13.208-1.027-2.586-2.744-6.164-6.033-6.006-3.932.19-5.277,4.518-5.153,7.8.073,1.946,3.107,1.955,3.034,0-.057-1.513.01-3.673,1.524-4.536,1.1-.629,1.813.153,2.442,1.094,2.516,3.762,3.025,8.847,4.091,13.138,2.8,11.252,5.9,22.435,8.177,33.807.384,1.913,3.308,1.1,2.925-.806" transform="translate(-175.524 -285.016)" fill="#363636"/>
        <path id="パス_1840" data-name="パス 1840" d="M257.455,481.78c-.669-4.46-1.36-8.92-2.172-13.356-.43-2.346-.626-5.845-2.566-7.506a4.047,4.047,0,0,0-5.831,1.1c-1.5,2.333-.435,5.822-.152,8.361q.689,6.194,1.379,12.389c.508,4.563,1.053,9.148,1.921,13.656.369,1.915,3.293,1.1,2.925-.806-1.366-7.092-1.979-14.344-2.778-21.517-.334-3-.808-6.02-1.006-9.033-.05-.761.325-2.38,1.437-1.909.664.281.845,1.728,1,2.358.29,1.169.494,2.36.712,3.544.828,4.493,1.527,9.013,2.2,13.531.289,1.924,3.212,1.107,2.925-.806" transform="translate(-171.446 -320.527)" fill="#363636"/>
        <path id="パス_1841" data-name="パス 1841" d="M252.127,441.772c.071-1.118-.391-8.074,2.642-5.646a5.208,5.208,0,0,1,1.678,3.35q.471,2.262.94,4.525,1.731,8.361,3.375,16.738c.376,1.914,3.3,1.1,2.925-.806q-1.109-5.652-2.256-11.3c-.758-3.718-1.274-7.624-2.344-11.262-.817-2.777-3.473-5.369-6.539-4.492-4.013,1.148-3.252,5.722-3.455,8.89-.125,1.949,2.909,1.942,3.034,0" transform="translate(-173.528 -301.445)" fill="#363636"/>
        <path id="パス_1842" data-name="パス 1842" d="M244.656,525.626c-.734,4.992-1.789,9.923-2.767,14.87-.377,1.907,2.546,2.723,2.925.806.978-4.947,2.032-9.878,2.767-14.87.281-1.91-2.642-2.734-2.925-.806" transform="translate(-168.488 -365.411)" fill="#363636"/>
        <path id="パス_1843" data-name="パス 1843" d="M187.759,460.469c2.339-11.655,5.536-23.111,8.385-34.646.617-2.5,1.243-5,1.772-7.519a13.307,13.307,0,0,1,1.562-4.754,2.343,2.343,0,0,1,2.792-1.19c1.7.716,1.781,3.068,1.723,4.6-.074,1.952,2.96,1.949,3.034,0,.116-3.065-.883-6.711-4.222-7.618-3.189-.866-5.7,1.651-6.785,4.391a28.678,28.678,0,0,0-1.182,4.492c-.535,2.459-1.151,4.9-1.757,7.345-1.331,5.368-2.734,10.719-4.086,16.082-1.506,5.974-2.949,11.964-4.161,18.005-.383,1.906,2.541,2.722,2.925.806" transform="translate(-128.74 -285.05)" fill="#363636"/>
        <path id="パス_1844" data-name="パス 1844" d="M232.908,484.884q.786-3.839,1.555-7.681c.376-1.875.75-3.75,1.111-5.628.286-1.493.406-3.851,1.444-5.042,1.277-1.465-.859-3.62-2.145-2.145-1.253,1.438-1.646,3.4-2,5.22-.389,1.983-.769,3.968-1.164,5.95q-.85,4.262-1.723,8.52c-.39,1.905,2.533,2.72,2.926.806" transform="translate(-160.191 -323.17)" fill="#363636"/>
        <path id="パス_1845" data-name="パス 1845" d="M228.612,435.495c-.634-2.362-3.365-4.455-5.838-3.271-2.516,1.205-3.026,4.588-3.533,7.022q-1.774,8.5-3.583,17c-.4,1.9,2.518,2.718,2.925.806q1.243-5.842,2.471-11.688c.573-2.724.969-5.556,1.786-8.22.182-.592.564-2.036,1.292-2.2.759-.173,1.4.786,1.554,1.362a1.518,1.518,0,0,0,2.925-.806" transform="translate(-150.211 -300.87)" fill="#363636"/>
        <path id="パス_1846" data-name="パス 1846" d="M89.218,6.348,83.685.469C82.344-.956,80.2,1.192,81.54,2.614l5.533,5.879c1.341,1.425,3.483-.723,2.145-2.145" transform="translate(-56.509 0)" fill="#ffe146"/>
        <path id="パス_1847" data-name="パス 1847" d="M53.992,58.908l-7.027-3.954c-1.7-.959-3.235,1.661-1.531,2.619l7.027,3.954c1.7.958,3.234-1.661,1.531-2.619" transform="translate(-31.133 -38.139)" fill="#ffe146"/>
        <path id="パス_1848" data-name="パス 1848" d="M39.8,129.534l-8.063.089a1.518,1.518,0,0,0,0,3.034l8.063-.089a1.518,1.518,0,0,0,0-3.034" transform="translate(-21.087 -90.239)" fill="#ffe146"/>
        <path id="パス_1849" data-name="パス 1849" d="M402.1,8.492l5.533-5.879c1.337-1.421-.8-3.57-2.145-2.145l-5.533,5.879c-1.338,1.421.8,3.57,2.145,2.145" transform="translate(-278.33 0)" fill="#ffe146"/>
        <path id="パス_1850" data-name="パス 1850" d="M433.22,61.527l7.027-3.954c1.7-.957.174-3.579-1.531-2.619l-7.027,3.954c-1.7.957-.174,3.579,1.531,2.619" transform="translate(-300.218 -38.139)" fill="#ffe146"/>
        <path id="パス_1851" data-name="パス 1851" d="M443.7,132.567l8.063.089a1.518,1.518,0,0,0,0-3.034l-8.063-.089a1.518,1.518,0,0,0,0,3.034" transform="translate(-308.084 -90.239)" fill="#ffe146"/>
      </g>
    </g>
    <g id="グループ_3719" data-name="グループ 3719">
      <circle id="楕円形_202" data-name="楕円形 202" cx="53.5" cy="53.5" r="53.5" transform="translate(4046 2248)" fill="#fef6d3"/>
      <g id="グループ_3490" data-name="グループ 3490" transform="translate(4075.734 2276.915)">
        <text id="趣味_嗜好" data-name="趣味・嗜好" transform="translate(23.766 9.385)" fill="#404040" font-size="12" font-family="HiraginoSans-W6, Hiragino Sans"><tspan x="-27.6" y="0">趣</tspan><tspan y="0" letter-spacing="-0.2em">味・</tspan><tspan y="0">嗜好</tspan></text>
        <g id="グループ_3507" data-name="グループ 3507" transform="translate(3.766 15.385)">
          <path id="合体_1" data-name="合体 1" d="M4.966,19.784l.061-.061A10.664,10.664,0,1,1,18.394,3.329a10.663,10.663,0,1,1,13.3,16.438l.017.017L18.337,33.165Z" transform="translate(1.376 0.883)" fill="#f1636e"/>
          <path id="heart" d="M19.167,35.9a.775.775,0,0,1-.547-.225L5.4,22.512A25.572,25.572,0,0,1,1.388,17.8,13.094,13.094,0,0,1,.024,14.91,10.705,10.705,0,0,1-.5,11.616a11.06,11.06,0,0,1,3.27-7.86A11.157,11.157,0,0,1,10.665.5a11.571,11.571,0,0,1,4.744.887,13.232,13.232,0,0,1,3.758,2.574,13.233,13.233,0,0,1,3.758-2.574A11.571,11.571,0,0,1,27.67.5,11.17,11.17,0,0,1,37.957,7.289a11.006,11.006,0,0,1,.878,4.327,10.607,10.607,0,0,1-.527,3.285,13.148,13.148,0,0,1-1.368,2.88,26.54,26.54,0,0,1-4,4.728L19.714,35.676A.775.775,0,0,1,19.167,35.9Zm-8.5-33.862A9.625,9.625,0,0,0,1.8,7.889a9.481,9.481,0,0,0-.756,3.728A9.964,9.964,0,0,0,2.7,16.983,24.165,24.165,0,0,0,6.478,21.41l.009.009L19.167,34.043l12.68-12.624.006-.006c2.824-2.755,5.436-5.848,5.436-9.8a9.524,9.524,0,0,0-2.817-6.772,9.607,9.607,0,0,0-6.8-2.805,10.082,10.082,0,0,0-4.127.759,12.589,12.589,0,0,0-3.829,2.778.775.775,0,0,1-1.093,0A12.589,12.589,0,0,0,14.792,2.8,10.082,10.082,0,0,0,10.665,2.039Z" transform="translate(0.5 -0.5)" fill="#323232"/>
        </g>
      </g>
    </g>
    <g id="グループ_3723" data-name="グループ 3723">
      <circle id="楕円形_201" data-name="楕円形 201" cx="53" cy="53" r="53" transform="translate(3944 2292)" fill="#fef6d3"/>
      <g id="グループ_3491" data-name="グループ 3491" transform="translate(3977.185 2320.53)">
        <text id="ご本人史" transform="translate(19.815 9.272)" fill="#404040" font-size="12" font-family="HiraginoSans-W6, Hiragino Sans"><tspan x="-24" y="0">ご本人史</tspan></text>
        <g id="グループ_3506" data-name="グループ 3506" transform="translate(4.815 15.273)">
          <g id="グループ_3505" data-name="グループ 3505" clip-path="url(#clip-path-2)">
            <path id="パス_2293" data-name="パス 2293" d="M32.8,420.379a.274.274,0,0,1-.274.274H7.426a1.176,1.176,0,0,1-1.176-1.176v-2.183a1.176,1.176,0,0,1,1.176-1.176H32.8Z" transform="translate(-5.793 -385.713)" fill="#ccc6ae" fill-rule="evenodd"/>
            <path id="パス_2294" data-name="パス 2294" d="M32.8,36.2H7.323a1.049,1.049,0,0,0-.759.329,1.151,1.151,0,0,0-.314.795V7.374A1.1,1.1,0,0,1,7.323,6.25H32.53a.274.274,0,0,1,.274.274Z" transform="translate(-5.793 -5.793)" fill="#b2dbd0" fill-rule="evenodd"/>
            <path id="パス_2296" data-name="パス 2296" d="M371.854,91.247l-2.181.474v3.707l2.181-.474Z" transform="translate(-342.662 -84.58)" fill="#fbd952" fill-rule="evenodd"/>
            <path id="パス_2297" data-name="パス 2297" d="M372.708,229.092l-3.035.256v3.707l3.035-.256Z" transform="translate(-342.662 -212.353)" fill="#50c4cb" fill-rule="evenodd"/>
            <path id="パス_2298" data-name="パス 2298" d="M371.923,280.73l-2.25.19v1.948l2.25-.19Z" transform="translate(-342.662 -260.218)" fill="#3ea5ab" fill-rule="evenodd"/>
            <path id="パス_2299" data-name="パス 2299" d="M0,31.546c0-.006,0-.012,0-.018V1.58A1.556,1.556,0,0,1,1.53,0H26.737a.73.73,0,0,1,.731.731V6.575L29.1,6.221a.457.457,0,0,1,.554.446v3.707a.457.457,0,0,1-.36.446l-1.822.4V16.5l2.54-.214a.457.457,0,0,1,.5.455v3.707a.457.457,0,0,1-.418.455l-.366.031V22.46a.457.457,0,0,1-.418.455l-1.832.154v11.6a.73.73,0,0,1-.731.731H1.632A1.632,1.632,0,0,1,0,33.764V31.58c0-.011,0-.023,0-.034m26.554-.685v3.621H1.632a.719.719,0,0,1-.719-.719V31.58a.719.719,0,0,1,.719-.719Zm0-.913V.913H1.53a.643.643,0,0,0-.616.667v28.5a1.486,1.486,0,0,1,.616-.134Zm2.25-8.939v1.032l-1.337.113V21.122l.139-.012Zm-1.337-3.594,2.121-.179v2.79l-2.121.179Zm0-9.905,1.268-.276v2.772l-1.268.276Z" transform="translate(0)" fill="#323232" fill-rule="evenodd"/>
          </g>
        </g>
      </g>
    </g>
    <g id="グループ_3722" data-name="グループ 3722">
      <path id="パス_2450" data-name="パス 2450" d="M53,0A53,53,0,1,1,0,53,53,53,0,0,1,53,0Z" transform="translate(4148 2292)" fill="#fef6d3"/>
      <g id="グループ_3721" data-name="グループ 3721" transform="translate(0 -4.674)">
        <g id="グループ_3720" data-name="グループ 3720" transform="translate(4164.775 2320.202)">
          <text id="支援_配慮事項" data-name="支援・配慮事項" transform="translate(36.225 14.272)" fill="#404040" font-size="12" font-family="HiraginoSans-W6, Hiragino Sans"><tspan x="-39.6" y="0">支</tspan><tspan y="0" letter-spacing="-0.2em">援・</tspan><tspan y="0">配慮事項</tspan></text>
          <g id="グループ_3486" data-name="グループ 3486" transform="translate(18.225 20.272)">
            <g id="グループ_3485" data-name="グループ 3485" clip-path="url(#clip-path-3)">
              <path id="パス_2282" data-name="パス 2282" d="M27.368,46.947a16.567,16.567,0,1,1,1.3,2.849l-3.52.445a.132.132,0,0,1-.121-.21l2.341-3.083" transform="translate(-23.845 -24.115)" fill="#fbe146" fill-rule="evenodd"/>
              <path id="パス_2283" data-name="パス 2283" d="M2.236,22.886l-1.975,2.6a1.287,1.287,0,0,0,1.187,2.055l2.776-.351a17.613,17.613,0,1,0-1.988-4.306m1.338,2.059L4.443,23.8a1.156,1.156,0,0,0,.172-1.076,15.411,15.411,0,1,1,1.21,2.649,1.155,1.155,0,0,0-1.146-.569Z" transform="translate(0)" fill="#323232" fill-rule="evenodd"/>
              <path id="パス_2284" data-name="パス 2284" d="M357.021,205.5a2.006,2.006,0,1,1-2.006,2.006,2.007,2.007,0,0,1,2.006-2.006m2.312-14.042a2.315,2.315,0,0,0-2.312-2.438h0a2.315,2.315,0,0,0-2.312,2.438c.158,2.962.463,8.678.591,11.078a1.723,1.723,0,0,0,1.721,1.631h0a1.723,1.723,0,0,0,1.721-1.631Z" transform="translate(-338.312 -181.941)" fill="#323232" fill-rule="evenodd"/>
            </g>
          </g>
        </g>
      </g>
    </g>
  </g>
</svg>
