<svg id="グループ_3506" data-name="グループ 3506" xmlns="http://www.w3.org/2000/svg" xmlns:xlink="http://www.w3.org/1999/xlink" width="60.322" height="70" viewBox="0 0 60.322 70">
  <defs>
    <clipPath id="clip-path">
      <rect id="長方形_1921" data-name="長方形 1921" width="60.322" height="70" fill="none"/>
    </clipPath>
  </defs>
  <g id="グループ_3505" data-name="グループ 3505" clip-path="url(#clip-path)">
    <path id="パス_2293" data-name="パス 2293" d="M58.764,424.545a.542.542,0,0,1-.542.541H8.575a2.325,2.325,0,0,1-2.325-2.325v-4.318a2.325,2.325,0,0,1,2.325-2.325H58.764Z" transform="translate(-5.347 -355.989)" fill="#ccc6ae" fill-rule="evenodd"/>
    <path id="パス_2294" data-name="パス 2294" d="M58.764,65.476H8.372a2.074,2.074,0,0,0-1.5.651A2.277,2.277,0,0,0,6.25,67.7V8.472A2.174,2.174,0,0,1,8.372,6.25H58.223a.542.542,0,0,1,.542.542Z" transform="translate(-5.347 -5.347)" fill="#b2dbd0" fill-rule="evenodd"/>
    <path id="パス_2296" data-name="パス 2296" d="M373.987,91.247l-4.314.938v7.331l4.314-.938Z" transform="translate(-316.255 -78.062)" fill="#fbd952" fill-rule="evenodd"/>
    <path id="パス_2297" data-name="パス 2297" d="M375.675,229.092l-6,.506v7.331l6-.506Z" transform="translate(-316.255 -195.988)" fill="#50c4cb" fill-rule="evenodd"/>
    <path id="パス_2298" data-name="パス 2298" d="M374.123,280.73l-4.45.375v3.853l4.45-.375Z" transform="translate(-316.255 -240.165)" fill="#3ea5ab" fill-rule="evenodd"/>
    <path id="パス_2299" data-name="パス 2299" d="M0,62.387c0-.012,0-.024,0-.036V3.126A3.077,3.077,0,0,1,3.025,0H52.876a1.445,1.445,0,0,1,1.445,1.445V13l3.219-.7a.9.9,0,0,1,1.1.882v7.331a.9.9,0,0,1-.711.882l-3.6.783V32.627l5.023-.423a.9.9,0,0,1,.979.9v7.331a.9.9,0,0,1-.827.9l-.724.061v3.023a.9.9,0,0,1-.827.9l-3.623.305V68.555A1.445,1.445,0,0,1,52.876,70H3.228A3.228,3.228,0,0,1,0,66.772V62.454c0-.023,0-.045,0-.067m52.514-1.355v7.162H3.228a1.422,1.422,0,0,1-1.422-1.422V62.454a1.422,1.422,0,0,1,1.422-1.422Zm0-1.806V1.806H3.025A1.271,1.271,0,0,0,1.806,3.126V59.491a2.939,2.939,0,0,1,1.219-.265Zm4.45-17.678v2.04l-2.644.223v-2.04l.275-.023ZM54.321,34.44l4.2-.354V39.6l-4.2.354Zm0-19.589,2.507-.545v5.483l-2.507.545Z" transform="translate(0)" fill="#323232" fill-rule="evenodd"/>
  </g>
</svg>
