<svg xmlns="http://www.w3.org/2000/svg" width="50" height="50" viewBox="0 0 50 50">
  <g id="グループ_3846" data-name="グループ 3846" transform="translate(701 -1323)">
    <circle id="楕円形_337" data-name="楕円形 337" cx="25" cy="25" r="25" transform="translate(-701 1323)" fill="#e2f4ef"/>
    <g id="歩く人のシルエットアイコン素材_2" data-name="歩く人のシルエットアイコン素材 2" transform="translate(-791.83 1333.001)">
      <path id="パス_1787" data-name="パス 1787" d="M278.133,328.034l-.272-.828,0,0,0-.009a1.761,1.761,0,0,1-.15.117l-1.795,1.289-.357.258.83,2.5,4.462,6.009a.547.547,0,0,0,.085.074l.017.015a.538.538,0,0,0,.337.118h0a.537.537,0,0,0,.328-.1l1.3-.966a.541.541,0,0,0,.108-.764l-4.2-5.657Z" transform="translate(-158.578 -308.028)" fill="#008763"/>
      <path id="パス_1788" data-name="パス 1788" d="M112,126.023a.426.426,0,0,0,.427-.37l1.055-7.354,2.344-2.344.689-.5,1.8-1.289a1.113,1.113,0,0,0,.319-.342,1.182,1.182,0,0,0,.183-.628v-.53l-.1-3.778-.071-2.819,1.952,2.12,1.111,3.272a.767.767,0,0,0,.726.525.643.643,0,0,0,.249-.042l1.106-.37a.765.765,0,0,0,.482-.98l-1.289-3.82L118.85,102.3a.934.934,0,0,0-.684-.3,1.3,1.3,0,0,0-.136.009l-3.229.483a.915.915,0,0,0-.675.469l-2.268,3.017-4.275,1.333a.678.678,0,0,0-.445.848l.4,1.294a.685.685,0,0,0,.647.478.636.636,0,0,0,.206-.033l3.811-1.169,1.225-.754.636-.386v6.228l-3.145,3.2-1.176,8.25a.431.431,0,0,0,.366.492l1.828.258C111.96,126.019,111.978,126.023,112,126.023Z" transform="translate(0 -96.025)" fill="#008763"/>
      <path id="パス_1789" data-name="パス 1789" d="M220.464,4.973a2.557,2.557,0,0,0,2.55-.38h0a2.58,2.58,0,1,0-2.554.38Z" transform="translate(-105.181)" fill="#008763"/>
    </g>
  </g>
</svg>
