<svg xmlns="http://www.w3.org/2000/svg" width="50" height="50" viewBox="0 0 50 50">
  <g id="グループ_3827" data-name="グループ 3827" transform="translate(798 -1113)">
    <circle id="楕円形_340" data-name="楕円形 340" cx="25" cy="25" r="25" transform="translate(-798 1113)" fill="#e2f4ef"/>
    <g id="グループ_3813" data-name="グループ 3813" transform="translate(-1015.998 661.002)">
      <path id="パス_2404" data-name="パス 2404" d="M-987,612.913l.893-14.418,3.595-4.119,5.861-1.561,5.959,1.561,4.538,2.821.4,3.378-1.022,1.883v3.335h7.332v14.843H-976.2l-5.636-.946-3.728-2.368L-987,614.647Z" transform="translate(1216 -130)" fill="#fff"/>
      <g id="icon_data" transform="translate(228 462)">
        <path id="線_1" data-name="線 1" d="M-.75,15.5A1.25,1.25,0,0,1-2,14.247v-15A1.25,1.25,0,0,1-.75-2,1.25,1.25,0,0,1,.5-.75v15A1.25,1.25,0,0,1-.75,15.5Z" transform="translate(2 8.249)" fill="#008763"/>
        <path id="パス_1868" data-name="パス 1868" d="M35.122,37.5H18.262a1.25,1.25,0,1,1,0-2.5h15.61V22.5H18.25a1.25,1.25,0,0,1,0-2.5H35.122a1.25,1.25,0,0,1,1.25,1.25v15A1.25,1.25,0,0,1,35.122,37.5Z" transform="translate(-6.377 -7.502)" fill="#008763"/>
        <path id="パス_1869" data-name="パス 1869" d="M11.873,42.749a16.3,16.3,0,0,1-8.146-2A8.573,8.573,0,0,1,1.07,38.411,5.346,5.346,0,0,1,0,35.25a1.25,1.25,0,0,1,2.5,0,2.9,2.9,0,0,0,.6,1.7,6.2,6.2,0,0,0,1.9,1.639,13.786,13.786,0,0,0,6.878,1.658,1.25,1.25,0,1,1,0,2.5Z" transform="translate(0 -12.753)" fill="#008763"/>
        <path id="パス_1870" data-name="パス 1870" d="M16.374,13.249a5.619,5.619,0,0,1-2.852-.726A2.841,2.841,0,0,1,12,10.125a2.841,2.841,0,0,1,1.523-2.4A5.619,5.619,0,0,1,16.374,7a5.605,5.605,0,0,1,2.8.681,2.922,2.922,0,0,1,1.572,2.211V9.9a1.824,1.824,0,0,1,0,.275,2.854,2.854,0,0,1-1.522,2.346A5.619,5.619,0,0,1,16.374,13.249Zm-1.866-3.125a2.435,2.435,0,0,0,1.866.625,2.413,2.413,0,0,0,1.869-.63.972.972,0,0,0-.381-.306A3.276,3.276,0,0,0,16.374,9.5,2.435,2.435,0,0,0,14.508,10.125Z" transform="translate(-4.501 -2.626)" fill="#008763"/>
        <path id="パス_1871" data-name="パス 1871" d="M11.873,15a16.3,16.3,0,0,1-8.146-2A8.573,8.573,0,0,1,1.07,10.66,5.346,5.346,0,0,1,0,7.5,5.346,5.346,0,0,1,1.07,4.338,8.573,8.573,0,0,1,3.727,2a16.3,16.3,0,0,1,8.146-2,16.3,16.3,0,0,1,8.146,2,8.573,8.573,0,0,1,2.657,2.334A5.346,5.346,0,0,1,23.746,7.5q0,.013,0,.025a5.424,5.424,0,0,1-1.212,3.3A1.25,1.25,0,0,1,20.6,9.247a2.913,2.913,0,0,0,.65-1.76,2.906,2.906,0,0,0-.6-1.69,6.2,6.2,0,0,0-1.9-1.639A13.786,13.786,0,0,0,11.873,2.5,13.786,13.786,0,0,0,4.995,4.158,6.2,6.2,0,0,0,3.1,5.8a2.9,2.9,0,0,0-.6,1.7,2.9,2.9,0,0,0,.6,1.7,6.2,6.2,0,0,0,1.9,1.639A13.786,13.786,0,0,0,11.873,12.5a1.25,1.25,0,1,1,0,2.5Z" transform="translate(0 0)" fill="#008763"/>
      </g>
    </g>
  </g>
</svg>
