<svg xmlns="http://www.w3.org/2000/svg" width="50" height="50" viewBox="0 0 50 50">
  <g id="グループ_3837" data-name="グループ 3837" transform="translate(894 -1218)">
    <circle id="楕円形_331" data-name="楕円形 331" cx="25" cy="25" r="25" transform="translate(-894 1218)" fill="#e2f4ef"/>
    <g id="グループ_3818" data-name="グループ 3818" transform="translate(199.998 536.998)">
      <path id="パス_2409" data-name="パス 2409" d="M-1080.969,715.576l2.944-3.678,2.1-2.538,1.115-4.318,6.087-6.6,6.209-5.971,2.575-.648,3.3,1.065,1.726,2.6v2.954l-2.4,3.18-5.845,6.055-3.781,3.758-3.735,1.123-3.283,1.258-4.062,3.932s-.626,1.718-1.527.993S-1080.969,715.576-1080.969,715.576Z" fill="#fff"/>
      <g id="体温計のアイコン素材_2" data-name="体温計のアイコン素材 2" transform="translate(-1084.001 690.992)">
        <path id="パス_2401" data-name="パス 2401" d="M28.347,1.987l-.32-.32a5.659,5.659,0,0,0-8.007,0L9.6,12.083a5.849,5.849,0,0,0-1.565,2.824l-.56,2.425a5.851,5.851,0,0,1-1.566,2.824L2.864,23.205l-.731.731L.819,25.251A2.789,2.789,0,0,0,4.763,29.2L6.078,27.88l.731-.731L9.857,24.1a5.861,5.861,0,0,1,2.825-1.566l2.425-.559a5.855,5.855,0,0,0,2.824-1.566L28.347,9.994A5.661,5.661,0,0,0,28.347,1.987ZM27.374,9.02,16.957,19.436a4.465,4.465,0,0,1-2.161,1.2l-2.424.559a7.234,7.234,0,0,0-3.489,1.934L6.078,25.932l-2-2,2.8-2.806a7.219,7.219,0,0,0,1.934-3.489l.559-2.425a4.48,4.48,0,0,1,1.2-2.161L20.995,2.641a4.286,4.286,0,0,1,6.059,0l.32.319A4.291,4.291,0,0,1,27.374,9.02Z" transform="translate(0 0)" fill="#008763"/>
        <path id="パス_2402" data-name="パス 2402" d="M233.542,114.444a.716.716,0,0,0-1.014,0l-6.363,6.362a.717.717,0,0,0,0,1.015l2.272,2.273a.717.717,0,0,0,1.015,0l6.362-6.362a.717.717,0,0,0,0-1.015Z" transform="translate(-212.712 -107.533)" fill="#008763"/>
      </g>
    </g>
  </g>
</svg>
