<svg xmlns="http://www.w3.org/2000/svg" width="50" height="50" viewBox="0 0 50 50">
  <g id="グループ_3845" data-name="グループ 3845" transform="translate(797 -1323)">
    <circle id="楕円形_335" data-name="楕円形 335" cx="25" cy="25" r="25" transform="translate(-797 1323)" fill="#e2f4ef"/>
    <g id="グループ_3844" data-name="グループ 3844">
      <g id="グループ_3823" data-name="グループ 3823" transform="translate(200.005 542.001)">
        <path id="パス_2414" data-name="パス 2414" d="M-983.556,803.128V798.86l6.422-5.6,7.094-.475,5.468,2.266,2.894,2.831,1.589,4.139-.381,2.714-20.479-.517Z" fill="#fff"/>
        <g id="ご飯のアイコン" transform="translate(-988 775.057)">
          <path id="パス_1813" data-name="パス 1813" d="M31.857,26.287H29.336a13.774,13.774,0,0,0-26.681,0H.134S-1.694,35.143,8.15,41.073A13.784,13.784,0,0,0,10.128,42.2l-.339,3.738H22.2L21.863,42.2a13.781,13.781,0,0,0,1.978-1.131C33.685,35.143,31.857,26.287,31.857,26.287ZM16,26.287H5.519a11.027,11.027,0,0,1,20.954,0Z" transform="translate(0 0)" fill="#008763"/>
        </g>
      </g>
    </g>
  </g>
</svg>
