<svg xmlns="http://www.w3.org/2000/svg" width="30" height="30" viewBox="0 0 30 30">
  <g id="グループ_4897" data-name="グループ 4897" transform="translate(991 -1429)">
    <circle id="楕円形_341" data-name="楕円形 341" cx="15" cy="15" r="15" transform="translate(-991 1429)" fill="#e2f4ef"/>
    <g id="走る人のシルエットアイコン素材" transform="translate(-982.857 1435)">
      <path id="パス_1790" data-name="パス 1790" d="M296.057,309.724l-.357-.514h0l0,0-1.1,1.394-.045.08,1.368,1.848L299,314.265a.415.415,0,0,0,.09.03l.014,0a.412.412,0,0,0,.1.013h.016a.414.414,0,0,0,.181-.046h0a.4.4,0,0,0,.076-.052l.016-.016a.4.4,0,0,0,.061-.059l.425-.61a.42.42,0,0,0-.14-.607L297.3,311.5Z" transform="translate(-286.34 -298.337)" fill="#008763"/>
      <path id="パス_1791" data-name="パス 1791" d="M61.358,98.516l3.36.085.849-.957.47-.525,1.065,4.144-2.27,2.263.884,4.563a.42.42,0,0,0,.471.336l.814-.114a.42.42,0,0,0,.357-.478l-.568-3.786,1.693-1.832.229-.291.92-1.164a.728.728,0,0,0,.158-.44.75.75,0,0,0-.029-.211l-.088-.309L68.7,96.738l-.24-.757,2.346-.135,2.318,1.118a.42.42,0,0,0,.555-.183l.3-.57a.42.42,0,0,0-.181-.569l-2.51-1.281-3.3-.625a.556.556,0,0,0-.321.035l-1.851.789a.554.554,0,0,0-.251.214l-1.33,2.1-2.865.042a.42.42,0,0,0-.414.42V98.1A.42.42,0,0,0,61.358,98.516Z" transform="translate(-60.949 -90.43)" fill="#008763"/>
      <path id="パス_1792" data-name="パス 1792" d="M155.385,3.077a1.5,1.5,0,0,0,.394.052,1.57,1.57,0,1,0-.394-.052Z" transform="translate(-150.936)" fill="#008763"/>
    </g>
  </g>
</svg>
