<svg xmlns="http://www.w3.org/2000/svg" width="50" height="50" viewBox="0 0 50 50">
  <g id="グループ_3829" data-name="グループ 3829" transform="translate(991 -1218)">
    <circle id="楕円形_332" data-name="楕円形 332" cx="25" cy="25" r="25" transform="translate(-991 1218)" fill="#e2f4ef"/>
    <g id="グループ_3817" data-name="グループ 3817" transform="translate(199.999 536.651)">
      <path id="パス_2408" data-name="パス 2408" d="M-1179.064,705.783h25.811l-.734,4.648-2.524,4.488s-9.061.782-9.412.736-7.289-.782-7.46-.736-3.712-2.012-3.712-2.012l-.844-3.722Z" fill="#fff"/>
      <g id="_411_tr_f" data-name="411_tr_f" transform="translate(-1181.634 692)">
        <path id="線_1" data-name="線 1" d="M26.7.609H-.7A1.3,1.3,0,0,1-2-.7,1.3,1.3,0,0,1-.7-2H26.7A1.3,1.3,0,0,1,28-.7,1.3,1.3,0,0,1,26.7.609Z" transform="translate(2.634 14.392)" fill="#008763"/>
        <path id="パス_1868" data-name="パス 1868" d="M22.914,33.479H11.174A7.174,7.174,0,0,1,4,26.3a1.3,1.3,0,1,1,2.609,0,4.571,4.571,0,0,0,4.566,4.566h11.74A4.571,4.571,0,0,0,27.48,26.3a1.3,1.3,0,1,1,2.609,0,7.174,7.174,0,0,1-7.174,7.174Z" transform="translate(-1.409 -8.694)" fill="#008763"/>
        <path id="線_2" data-name="線 2" d="M-.7,3.87a1.3,1.3,0,0,1-.922-.382,1.3,1.3,0,0,1,0-1.845L1.643-1.618a1.3,1.3,0,0,1,1.845,0,1.3,1.3,0,0,1,0,1.845L.227,3.488A1.3,1.3,0,0,1-.7,3.87Z" transform="translate(7.852 24.828)" fill="#008763"/>
        <path id="線_3" data-name="線 3" d="M2.566,3.87a1.3,1.3,0,0,1-.922-.382L-1.618.227a1.3,1.3,0,0,1,0-1.845,1.3,1.3,0,0,1,1.845,0L3.488,1.643A1.3,1.3,0,0,1,2.566,3.87Z" transform="translate(21.548 24.828)" fill="#008763"/>
        <path id="パス_1869" data-name="パス 1869" d="M13.131,6.522a1.3,1.3,0,0,1-1.3-1.3,2.609,2.609,0,1,0-5.218,0A1.3,1.3,0,1,1,4,5.218a5.218,5.218,0,0,1,10.436,0A1.3,1.3,0,0,1,13.131,6.522Z" transform="translate(-1.409)" fill="#008763"/>
        <path id="線_4" data-name="線 4" d="M-.7,7.822A1.3,1.3,0,0,1-2,6.518V-.7A1.3,1.3,0,0,1-.7-2,1.3,1.3,0,0,1,.609-.7V6.518A1.3,1.3,0,0,1-.7,7.822Z" transform="translate(4.591 5.913)" fill="#008763"/>
        <path id="線_5" data-name="線 5" d="M-.7,1.952A1.3,1.3,0,0,1-2,.648V-.7A1.3,1.3,0,0,1-.7-2,1.3,1.3,0,0,1,.609-.7V.648A1.3,1.3,0,0,1-.7,1.952Z" transform="translate(12.417 5.913)" fill="#008763"/>
      </g>
    </g>
  </g>
</svg>
