<svg xmlns="http://www.w3.org/2000/svg" width="50" height="50" viewBox="0 0 50 50">
  <g id="グループ_3852" data-name="グループ 3852" transform="translate(1067 -1534)">
    <circle id="楕円形_231" data-name="楕円形 231" cx="25" cy="25" r="25" transform="translate(-1067 1534)" fill="#e2f4ef"/>
    <g id="グループ_3706" data-name="グループ 3706" transform="translate(-68.699 654.001)">
      <path id="パス_2416" data-name="パス 2416" d="M-981.3,908.144l-4.627-5.778,7.869-2.107,4.881-8.873,4.349,8.208,9.139,2.017-6.981,8,2.129,7.611-5.832-1.737-2.8-1.428-8.643,4.2s.486-4.7.52-5.247S-981.3,908.144-981.3,908.144Z" fill="#fff"/>
      <path id="star" d="M16.7,1a1.427,1.427,0,0,1,1.28.8l4.078,8.262,9.12,1.333a1.427,1.427,0,0,1,.789,2.435l-6.6,6.426,1.557,9.079a1.427,1.427,0,0,1-2.071,1.5L16.7,26.546,8.543,30.835a1.427,1.427,0,0,1-2.071-1.5l1.557-9.079-6.6-6.426a1.427,1.427,0,0,1,.789-2.435l9.12-1.333L15.419,1.8A1.427,1.427,0,0,1,16.7,1ZM27.9,13.8l-7-1.023a1.427,1.427,0,0,1-1.073-.78L16.7,5.651l-3.13,6.341a1.427,1.427,0,0,1-1.073.78l-7,1.023,5.065,4.934a1.427,1.427,0,0,1,.411,1.264l-1.2,6.968,6.26-3.292a1.427,1.427,0,0,1,1.329,0l6.26,3.292-1.2-6.968a1.427,1.427,0,0,1,.411-1.264Z" transform="translate(-990 889)" fill="#008763"/>
    </g>
  </g>
</svg>
