<svg xmlns="http://www.w3.org/2000/svg" width="50" height="50" viewBox="0 0 50 50">
  <g id="グループ_3828" data-name="グループ 3828" transform="translate(701 -1113)">
    <circle id="楕円形_338" data-name="楕円形 338" cx="25" cy="25" r="25" transform="translate(-701 1113)" fill="#e2f4ef"/>
    <g id="グループ_3814" data-name="グループ 3814" transform="translate(200.406 531)">
      <path id="パス_2405" data-name="パス 2405" d="M-879.625,619.315c-1.394-.08-5.653-2.811-5.653-2.811l1.184-12.375,4.47-2.842,1.962,14.2Z" fill="#fff"/>
      <path id="パス_2406" data-name="パス 2406" d="M93.57,11.212,85.788,0,78.006,11.212c-3.157,4.948-4.3,11.266,0,15.565a11.006,11.006,0,0,0,15.565,0C97.868,22.478,96.727,16.159,93.57,11.212ZM78.59,23.041c-2.02-4.114,1.2-10.024,3.217-12.268a15.4,15.4,0,0,0,.673,11.222C83.915,24.905,80.845,27.636,78.59,23.041Z" transform="translate(-962.194 592)" fill="#008763"/>
    </g>
  </g>
</svg>
