<svg xmlns="http://www.w3.org/2000/svg" width="50" height="50" viewBox="0 0 50 50">
  <g id="グループ_3825" data-name="グループ 3825" transform="translate(991 -1113)">
    <circle id="楕円形_330" data-name="楕円形 330" cx="25" cy="25" r="25" transform="translate(-991 1113)" fill="#e2f4ef"/>
    <g id="グループ_3816" data-name="グループ 3816" transform="translate(200 531)">
      <path id="前面オブジェクトで型抜き_1" data-name="前面オブジェクトで型抜き 1" d="M16,20a8.491,8.491,0,0,1-6.055-2.6A10.406,10.406,0,0,1,7.05,11h17.9a10.405,10.405,0,0,1-2.9,6.4A8.491,8.491,0,0,1,16,20Z" transform="translate(-1150 622) rotate(180)" fill="#fff"/>
      <g id="レイヤー_2" data-name="レイヤー 2" transform="translate(-1184 588)">
        <g id="icon_data" transform="translate(0 4)">
          <path id="線_1" data-name="線 1" d="M-.5,3.25A1.5,1.5,0,0,1-2,1.75V-.5A1.5,1.5,0,0,1-.5-2,1.5,1.5,0,0,1,1-.5V1.75A1.5,1.5,0,0,1-.5,3.25Z" transform="translate(18.5 2)" fill="#008763"/>
          <path id="線_2" data-name="線 2" d="M1.75,1H-.5A1.5,1.5,0,0,1-2-.5,1.5,1.5,0,0,1-.5-2H1.75A1.5,1.5,0,0,1,3.25-.5,1.5,1.5,0,0,1,1.75,1Z" transform="translate(32.75 17)" fill="#008763"/>
          <path id="線_3" data-name="線 3" d="M1.75,1H-.5A1.5,1.5,0,0,1-2-.5,1.5,1.5,0,0,1-.5-2H1.75A1.5,1.5,0,0,1,3.25-.5,1.5,1.5,0,0,1,1.75,1Z" transform="translate(2 17)" fill="#008763"/>
          <path id="線_4" data-name="線 4" d="M20.5,1H-.5A1.5,1.5,0,0,1-2-.5,1.5,1.5,0,0,1-.5-2h21A1.5,1.5,0,0,1,22-.5,1.5,1.5,0,0,1,20.5,1Z" transform="translate(8 23)" fill="#008763"/>
          <path id="線_5" data-name="線 5" d="M13,1H-.5A1.5,1.5,0,0,1-2-.5,1.5,1.5,0,0,1-.5-2H13A1.5,1.5,0,0,1,14.5-.5,1.5,1.5,0,0,1,13,1Z" transform="translate(11.75 29)" fill="#008763"/>
          <path id="線_6" data-name="線 6" d="M1.09,2.59A1.5,1.5,0,0,1,.029,2.151L-1.561.561a1.5,1.5,0,0,1,0-2.121,1.5,1.5,0,0,1,2.121,0L2.151.029A1.5,1.5,0,0,1,1.09,2.59Z" transform="translate(6.83 6.83)" fill="#008763"/>
          <path id="線_7" data-name="線 7" d="M-.5,2.59a1.5,1.5,0,0,1-1.061-.439,1.5,1.5,0,0,1,0-2.121l1.59-1.59a1.5,1.5,0,0,1,2.121,0,1.5,1.5,0,0,1,0,2.121L.561,2.151A1.5,1.5,0,0,1-.5,2.59Z" transform="translate(28.58 6.83)" fill="#008763"/>
          <path id="パス_1868" data-name="パス 1868" d="M29,26.25a1.5,1.5,0,0,1-1.5-1.5,6.75,6.75,0,1,0-13.5,0,1.5,1.5,0,1,1-3,0,9.75,9.75,0,1,1,19.5,0A1.5,1.5,0,0,1,29,26.25Z" transform="translate(-2.75 -6.75)" fill="#008763"/>
        </g>
      </g>
    </g>
  </g>
</svg>
