<svg xmlns="http://www.w3.org/2000/svg" width="50" height="50" viewBox="0 0 50 50">
  <g id="グループ_3843" data-name="グループ 3843" transform="translate(894 -1323)">
    <circle id="楕円形_333" data-name="楕円形 333" cx="25" cy="25" r="25" transform="translate(-894 1323)" fill="#e2f4ef"/>
    <g id="グループ_3822" data-name="グループ 3822" transform="translate(200.41 542.001)">
      <path id="パス_2413" data-name="パス 2413" d="M-1082.253,812.769l-.852-4.827,2.064-3.284,6.477-5.878,6.941,4.655,1.876,2.477,5.706.53,3.228,1.5,1.224,2.321v6.22l-1.956,2.255-2.841,1.451h-3.439s-2.427-.136-2.706-.209-2.545-1.242-2.545-1.242l-1.3-1.286-.718-2.228v-2.861h-1.079l-2.389,2.547-2.55.314-2.254-.314-1.673-.754Z" fill="#fff"/>
      <g id="薬の無料アイコン9" transform="translate(-1084 791)">
        <path id="パス_1786" data-name="パス 1786" d="M8.967,13.538,20.662,1.976l0,.005a6.764,6.764,0,1,1,9.565,9.565l-2.76,2.73c.083,0,.167,0,.25,0a11.13,11.13,0,0,1,5.858,1.533,6.172,6.172,0,0,1,1.866,1.745,4.047,4.047,0,0,1,.728,2.277v4.612a4.048,4.048,0,0,1-.728,2.277,6.977,6.977,0,0,1-3.112,2.392A11.928,11.928,0,0,1,27.714,30a11.15,11.15,0,0,1-5.855-1.536,6.154,6.154,0,0,1-1.868-1.745,4.063,4.063,0,0,1-.725-2.277V22.382l-.736.728,0-.006a6.764,6.764,0,1,1-9.566-9.566Zm25.856,6.29a2.724,2.724,0,0,0-.5-1.528,4.709,4.709,0,0,0-1.251-1.213L22.8,23.1a7.942,7.942,0,0,0,.741.36,10.746,10.746,0,0,0,4.169.8A10.023,10.023,0,0,0,32.974,22.9a5.082,5.082,0,0,0,1.53-1.423,3.43,3.43,0,0,0,.32-.591V19.829ZM20.608,24.441a2.706,2.706,0,0,0,.5,1.527,5.69,5.69,0,0,0,2.524,1.907,10.559,10.559,0,0,0,4.086.781,9.83,9.83,0,0,0,5.144-1.329,4.884,4.884,0,0,0,1.469-1.359,2.721,2.721,0,0,0,.5-1.527v-1.9a7.287,7.287,0,0,1-2.58,1.761,11.669,11.669,0,0,1-4.529.87,10.911,10.911,0,0,1-5.742-1.5,6.288,6.288,0,0,1-1.364-1.127Zm0-3.557a1.12,1.12,0,0,0,.054.118,3.157,3.157,0,0,0,.266.473,4.53,4.53,0,0,0,.888.956l10.17-5.949c-.062-.027-.121-.059-.183-.083a10.563,10.563,0,0,0-4.089-.781,11.369,11.369,0,0,0-1.74.132,9.021,9.021,0,0,0-3.4,1.194c-.11.067-.215.14-.314.213a4.557,4.557,0,0,0-1.141,1.13.075.075,0,0,0-.014.016,2.709,2.709,0,0,0-.5,1.528v1.055Zm-10.5,1.082a5.156,5.156,0,0,0,7.289,0l0,0,1.868-1.847v-.287a4.062,4.062,0,0,1,.725-2.277,6.581,6.581,0,0,1,2.462-2.083,9.456,9.456,0,0,0-.494-1.076,9.989,9.989,0,0,0-2.553-3.12,7.334,7.334,0,0,0-4.218-1.619l-5.079,5.023h0a5.156,5.156,0,0,0,0,7.289Z" transform="translate(-6.986 0)" fill="#008763"/>
      </g>
    </g>
  </g>
</svg>
