<svg xmlns="http://www.w3.org/2000/svg" width="50" height="50" viewBox="0 0 50 50">
  <g id="グループ_3840" data-name="グループ 3840" transform="translate(701 -1218)">
    <circle id="楕円形_336" data-name="楕円形 336" cx="25" cy="25" r="25" transform="translate(-701 1218)" fill="#e2f4ef"/>
    <g id="グループ_3839" data-name="グループ 3839">
      <path id="パス_2411" data-name="パス 2411" d="M-882.3,702.171l.475-10.024h11.859v27.509l-3.5.637h-8.359l-.475-3.044Z" transform="translate(199.791 537.007)" fill="#fff"/>
      <g id="定規のアイコン素材" transform="translate(-816.149 1228.007)">
        <path id="パス_1814" data-name="パス 1814" d="M146.136.017,134.207,0a1.226,1.226,0,0,0-1.227,1.223l-.04,27.528a1.226,1.226,0,0,0,1.223,1.227L146.092,30a1.226,1.226,0,0,0,1.227-1.223l.04-27.528A1.226,1.226,0,0,0,146.136.017Zm-.443,1.665-.039,26.647-11-.016h-.046l.039-26.647,11,.016h.047Z" transform="translate(0 0)" fill="#008763"/>
        <path id="パス_1815" data-name="パス 1815" d="M248.543,60.019l0-1.243v0h0v0l-4.748-.007h-.04l0,1.243v0h0v0Z" transform="translate(-104.323 -55.32)" fill="#008763"/>
        <path id="パス_1816" data-name="パス 1816" d="M275.662,113.345v.009h0v0l2.915,0,0-1.249-2.915,0Z" transform="translate(-134.361 -105.542)" fill="#008763"/>
        <path id="パス_1817" data-name="パス 1817" d="M275.612,165.412h-.026l0,1.243v0h0v0l2.914,0,0-1.243v0h0v0Z" transform="translate(-134.287 -155.721)" fill="#008763"/>
        <path id="パス_1818" data-name="パス 1818" d="M248.312,219.926l0-1.249-4.776-.007h-.012l0,1.243v0h0v0Z" transform="translate(-104.105 -205.859)" fill="#008763"/>
        <path id="パス_1819" data-name="パス 1819" d="M275.43,272.018l0,1.243v0h0v0l2.914,0,0-1.243v0h0v0Z" transform="translate(-134.14 -256.082)" fill="#008763"/>
        <path id="パス_1820" data-name="パス 1820" d="M275.378,325.319h-.027l0,1.243v0h0v0l2.914,0,0-1.243v0h0v0Z" transform="translate(-134.067 -306.26)" fill="#008763"/>
        <path id="パス_1821" data-name="パス 1821" d="M243.291,379.822v0l4.788.007,0-1.243v0h0v0l-4.777-.007h-.012l0,1.235Z" transform="translate(-103.886 -356.399)" fill="#008763"/>
        <path id="パス_1822" data-name="パス 1822" d="M275.244,431.926H275.2l0,1.243v0h0v0l2.914,0,0-1.243v0h0v0Z" transform="translate(-133.924 -406.622)" fill="#008763"/>
      </g>
    </g>
  </g>
</svg>
