<svg xmlns="http://www.w3.org/2000/svg" width="50" height="50" viewBox="0 0 50 50">
  <g id="グループ_3842" data-name="グループ 3842" transform="translate(991 -1323)">
    <circle id="楕円形_339" data-name="楕円形 339" cx="25" cy="25" r="25" transform="translate(-991 1323)" fill="#e2f4ef"/>
    <g id="グループ_3821" data-name="グループ 3821" transform="translate(199.655 543.002)">
      <path id="パス_2412" data-name="パス 2412" d="M-1180,806V793.345l1.545-2.027h25.276l1.677,2.8v21.251l-1.677,3.094-10.351.617h-13.388l-2.177-.617-.906-5.792Z" fill="#fff"/>
      <g id="健康管理_体重計のアイコン素材_2" data-name="健康管理 体重計のアイコン素材 2" transform="translate(-1181 784.201)">
        <path id="パス_1793" data-name="パス 1793" d="M26.892,5.8H3.8A3.8,3.8,0,0,0,0,9.6V32a3.8,3.8,0,0,0,3.8,3.8H26.892a3.8,3.8,0,0,0,3.8-3.8V9.6A3.8,3.8,0,0,0,26.892,5.8ZM2.279,9.6A1.524,1.524,0,0,1,3.8,8.078H26.892a1.524,1.524,0,0,1,1.52,1.52V32a1.524,1.524,0,0,1-1.52,1.52H3.8A1.524,1.524,0,0,1,2.279,32V9.6Z" fill="#008763"/>
        <path id="パス_1794" data-name="パス 1794" d="M241.706,234.646l-.72,3.226a.181.181,0,0,0,.176.22h1.44a.181.181,0,0,0,.176-.22l-.72-3.226A.181.181,0,0,0,241.706,234.646Z" transform="translate(-226.536 -214.997)" fill="#008763"/>
        <path id="パス_1795" data-name="パス 1795" d="M87.03,105.929l.1-.061a11.8,11.8,0,0,1,6.169-1.782,9.045,9.045,0,0,1,5.391,1.66l.1.076,3.7-3.7.762-.759h0l.007-.007-.148-.1a17.537,17.537,0,0,0-20.51,0l-.118.079-.024.014h0l-.008.005Zm11.392-2.489c-.141-.063-.28-.131-.421-.189l1.06-2.591c.349.141.7.3,1.043.463h0L98.89,103.65c-.142-.07-.288-.129-.433-.194Zm-11.779-2.784,1.06,2.595c-.3.121-.6.254-.893.395l-1.216-2.522C85.94,100.957,86.294,100.8,86.643,100.656Zm3.071,1.939c-.058.015-.118.024-.176.04l-.71-2.708c.372-.1.752-.186,1.132-.255l.517,2.75c-.16.031-.316.072-.475.108Zm3.721-3.185-.106,2.8c-.319-.012-.638-.012-.953,0l-.106-2.789V99.41c.387-.015.778-.015,1.165,0Zm3.442.517-.71,2.708c-.311-.08-.627-.152-.938-.209l.517-2.754c.376.068.754.156,1.13.254Z" transform="translate(-77.507 -86.622)" fill="#008763"/>
      </g>
    </g>
  </g>
</svg>
