<svg xmlns="http://www.w3.org/2000/svg" width="50" height="50" viewBox="0 0 50 50">
  <g id="グループ_3853" data-name="グループ 3853" transform="translate(1163 -1534)">
    <circle id="楕円形_342" data-name="楕円形 342" cx="25" cy="25" r="25" transform="translate(-1163 1534)" fill="#e2f4ef"/>
    <g id="グループ_3851" data-name="グループ 3851" transform="translate(-68.999 654.001)">
      <path id="パス_2415" data-name="パス 2415" d="M-1078.932,903.533l-3.308-3.144v-4.709l1.9-2.87,4.452-1.087,4.253,1.762,1.788,3.395.415,1.035,3.086,1.144,2.4,2.33v2.143l3.022,1.494,1.872,1.026,1.658,3-.432,3.124-.762,2.006-2.336,1.776-3.483.773-3.511-1.288-1.516-2.783-.415-1.454-1.206-1.24a14.692,14.692,0,0,0-2.559-.913c-.248.089-1.895-1.5-1.895-1.5l-.381-2.058-.948-1.318Z" fill="#fff"/>
      <g id="お団子のイラスト" transform="translate(-1084.01 890)">
        <path id="パス_1812" data-name="パス 1812" d="M25.949,24.8a7.258,7.258,0,0,0-4.69-11.726,7.256,7.256,0,0,0-6.213-6.214A7.265,7.265,0,0,0,3.315,2.162L1.153,0,.01,1.143,2.172,3.306A7.264,7.264,0,0,0,6.865,15.037a7.258,7.258,0,0,0,6.214,6.213,7.258,7.258,0,0,0,11.726,4.689L28.865,30l1.143-1.144ZM8.071,13.155A5.318,5.318,0,0,1,3.558,4.691L5.384,6.518,6.528,5.375,4.7,3.548a5.318,5.318,0,0,1,8.464,4.514h0v0a5.317,5.317,0,0,1-5.093,5.092h0Zm6.213,6.214a5.311,5.311,0,0,1-5.532-4.978A6.6,6.6,0,0,0,14.4,8.742a5.312,5.312,0,0,1,4.978,5.532v0a5.317,5.317,0,0,1-5.093,5.092Zm9.757,4.659A5.318,5.318,0,0,1,14.966,20.6a6.6,6.6,0,0,0,5.648-5.648,5.32,5.32,0,0,1,3.427,9.072Z" fill="#008763"/>
      </g>
    </g>
  </g>
</svg>
