<svg xmlns="http://www.w3.org/2000/svg" width="30" height="30" viewBox="0 0 30 30">
  <g id="グループ_4877" data-name="グループ 4877" transform="translate(-10440 -3156)">
    <g id="グループ_3845" data-name="グループ 3845" transform="translate(10440 3156)">
      <circle id="楕円形_335" data-name="楕円形 335" cx="15" cy="15" r="15" fill="#e2f4ef"/>
    </g>
    <g id="グループ_4438" data-name="グループ 4438" transform="translate(10448.4 3162)">
      <path id="パス_2485" data-name="パス 2485" d="M10460.447,3176.473l-4.137-3.146V3167.4h11.55l-1.274,9.076-3.092,1.659Z" transform="translate(-10454.924 -3166.559)" fill="#fff"/>
      <path id="合体_2" data-name="合体 2" d="M4.19,18a2.6,2.6,0,0,1-2.61-2.3L0,.947A.847.847,0,0,1,.225.284.884.884,0,0,1,.876,0H13.125a.884.884,0,0,1,.65.284A.845.845,0,0,1,14,.947L12.412,15.7A2.6,2.6,0,0,1,9.8,18ZM7.525,7.885a3.56,3.56,0,0,0,3.947.17l.681-6.341H1.847l.587,5.5a5.357,5.357,0,0,1,5.091.666Z" transform="translate(-0.4)" fill="#008763"/>
    </g>
  </g>
</svg>
