<svg xmlns="http://www.w3.org/2000/svg" width="50" height="50" viewBox="0 0 50 50">
  <g id="グループ_3824" data-name="グループ 3824" transform="translate(894 -1113)">
    <circle id="楕円形_334" data-name="楕円形 334" cx="25" cy="25" r="25" transform="translate(-894 1113)" fill="#e2f4ef"/>
    <g id="グループ_3815" data-name="グループ 3815" transform="translate(200 531)">
      <path id="パス_2407" data-name="パス 2407" d="M-1076.688,618l-5.482-8.582,1.028-9.118,6.169-5.327,5.617-1.281-2.549,6.608,2.549,6.026,4.067,3.092h4.429l5.342-1.871-1.146,3.747-3.236,5.44-6.81,3.677s-5.56.6-6.176,0A38.026,38.026,0,0,0-1076.688,618Z" fill="#fff"/>
      <path id="moon" d="M17,2a1.5,1.5,0,0,1,1.061,2.561A8.046,8.046,0,1,0,29.439,15.939,1.5,1.5,0,0,1,32,17,15,15,0,1,1,17,2Zm6.75,19.3A11.047,11.047,0,0,1,13.81,5.43,12,12,0,1,0,28.568,20.2,11,11,0,0,1,23.75,21.3Z" transform="translate(-1086 590)" fill="#008763"/>
    </g>
  </g>
</svg>
