<svg xmlns="http://www.w3.org/2000/svg" width="50" height="50" viewBox="0 0 50 50">
  <g id="グループ_3834" data-name="グループ 3834" transform="translate(797 -1218)">
    <g id="グループ_3812" data-name="グループ 3812" transform="translate(205 542)">
      <circle id="楕円形_271" data-name="楕円形 271" cx="25" cy="25" r="25" transform="translate(-1002 676)" fill="#e2f4ef"/>
    </g>
    <g id="グループ_3819" data-name="グループ 3819" transform="translate(200 537.004)">
      <path id="パス_2410" data-name="パス 2410" d="M-975.159,717.542l-6.4-6.179-4.865-7.637V697.02l2.973-3.688,5.209-1.127,3.079,1.654s3.156,5.255,3.208,4.923,3.393-5.45,3.393-5.45l6.044-1.127,4.121,3.747,1.359,4.412-1.359,3.985-4.861,7.907-5.3,5.286-3.393,1.99Z" fill="#fff"/>
      <g id="ヘルスケアのハートのマークアイコン_1" data-name="ヘルスケアのハートのマークアイコン 1" transform="translate(-988.494 667.78)">
        <path id="パス_1809" data-name="パス 1809" d="M86.2,319.748c-.3.258-.582.506-.858.741-.136.113-.263.22-.375.324a.27.27,0,0,1-.038.028c-.052.038-.112.089-.178.145-.272.225-.525.436-.755.624l0,0s-.014.009-.019.014c-.127.1-.239.188-.343.272,0,0-.009.009-.014.009-.15.117-.291.23-.417.333l-.01,0-.009,0c-.037.033-.108.084-.206.164a.1.1,0,0,1-.023.019,2.118,2.118,0,0,0-.188.141.212.212,0,0,0-.033.028c-.066.052-.122.094-.174.131-.084.061-.131.1-.131.1l-.056.037-.047.042-.117.089c-.113.079-.211.155-.281.206l-.014.01-.01,0c-.009.01-.019.014-.028.024a.1.1,0,0,0-.024-.019l-.014-.009-.014-.01c-.07-.051-.169-.127-.281-.211-.056-.037-.094-.066-.117-.085l-.047-.042-.052-.038a1.537,1.537,0,0,1-.127-.094s0,0-.009,0c-.052-.038-.108-.079-.174-.136-.009,0-.019-.014-.033-.023q-.085-.071-.183-.141a.637.637,0,0,0-.089-.066c-.066-.056-.117-.089-.145-.117l-.009,0,0,0c-.131-.1-.272-.216-.422-.333,0,0-.009,0-.014-.009-.1-.084-.22-.178-.342-.272,0-.009-.014-.014-.019-.019-.216-.174-.446-.366-.7-.577-.019-.014-.037-.033-.056-.047a1.825,1.825,0,0,0-.178-.145.115.115,0,0,0-.028-.023s0,0,0,0c-.117-.1-.239-.206-.38-.324-.277-.235-.567-.488-.863-.746a50.1,50.1,0,0,1-4.615-4.6h-3.04c.028.042.061.08.089.117l.009.014L70,315.3l.019.023,0,0,0,0c.155.193.31.385.478.586A50.089,50.089,0,0,0,76,321.507l0,0c.3.258.586.511.863.75l.019.014.014.014c.127.1.253.211.389.328l.019.014.019.014c.066.052.117.094.136.113l.024.023.028.023c.272.22.53.436.788.647l.01.009.009,0c.108.084.225.178.347.272l.009.01,0,0c.131.1.258.207.394.31,0,0,.014.01.019.014.112.094.188.15.225.178l.042.038.047.028.094.07.014.014.014.009c.094.075.192.15.3.23l.009.009a.225.225,0,0,0,.047.028.3.3,0,0,1,.038.033l.009.009c.1.08.183.141.244.183l0,0c.075.056.155.112.244.178.009,0,.019.014.028.019.08.061.164.127.272.2a.234.234,0,0,1,.037.028c.094.07.164.117.183.131l.028.023.108.075v0c.009,0,.019.014.028.019l.746.746.779-.741.352-.258a.024.024,0,0,1,.019-.009.12.12,0,0,1,.028-.024c.108-.07.192-.136.267-.192a.1.1,0,0,0,.023-.019c.085-.061.169-.122.244-.178l0,0c.052-.038.122-.084.206-.155a.488.488,0,0,0,.042-.033c.056-.042.084-.061.089-.066l.009-.009c.108-.075.206-.155.3-.23l.019-.009.014-.014.089-.07.047-.028.042-.038c.037-.033.117-.089.23-.178l.014-.014.394-.31.009,0,0-.01c.122-.094.239-.187.347-.272l.01-.01.014-.009c.258-.206.516-.422.783-.643l.056-.047a.891.891,0,0,1,.136-.113l.019-.014.014-.014c.136-.117.263-.225.389-.328l.019-.014.014-.014c.277-.239.567-.493.863-.75l0,0a50.173,50.173,0,0,0,5.492-5.591c.169-.2.324-.394.478-.586l.009-.009.014-.019.019-.023.009-.014c.028-.037.061-.075.089-.117h-3.04A50.788,50.788,0,0,1,86.2,319.748Z" transform="translate(-65.383 -273.116)" fill="#008763"/>
        <path id="パス_1810" data-name="パス 1810" d="M32.882,38.067v0l-.169.267h2.716a17.176,17.176,0,0,0,1.1-2.491,11.139,11.139,0,0,0,.638-3.584,9.225,9.225,0,0,0-2.519-6.374,8.42,8.42,0,0,0-11.731-.553,9.1,9.1,0,0,0-1.932,2.387,8.993,8.993,0,0,0-1.928-2.387,8.42,8.42,0,0,0-11.731.553A9.222,9.222,0,0,0,4.8,32.265a11.023,11.023,0,0,0,.643,3.584,17.176,17.176,0,0,0,1.1,2.491H9.266L9.1,38.072v0a15.512,15.512,0,0,1-1.431-2.978,8.666,8.666,0,0,1-.516-2.824,6.872,6.872,0,0,1,1.876-4.756,6.078,6.078,0,0,1,8.49-.408A6.781,6.781,0,0,1,19.7,30.975l0,.014V31a1.322,1.322,0,0,0,.469.765,1.308,1.308,0,0,0,2.106-.8,6.8,6.8,0,0,1,2.186-3.87,6.078,6.078,0,0,1,8.49.408,6.888,6.888,0,0,1,1.871,4.756,8.776,8.776,0,0,1-.511,2.824A15.784,15.784,0,0,1,32.882,38.067Z" transform="translate(-4.495)" fill="#008763"/>
        <path id="パス_1811" data-name="パス 1811" d="M20.544,149.9a.562.562,0,0,0-.5-.31.547.547,0,0,0-.488.291l-2.894,5.366-2.819-9.268a.558.558,0,0,0-1.065.014l-2.359,7.772H0l.427.713c.108.183.225.37.338.539.056.089.112.174.169.263l.2.3H11.351a.555.555,0,0,0,.535-.394l1.426-4.7L15.8,158.68a.559.559,0,0,0,.535.389.582.582,0,0,0,.493-.291l3.175-5.9,1.2,2.4a.558.558,0,0,0,.5.31H31.848l.2-.3c.056-.089.117-.178.164-.258.122-.178.239-.366.352-.549l.427-.713H22.481Z" transform="translate(0 -114.491)" fill="#008763"/>
      </g>
    </g>
  </g>
</svg>
