<svg xmlns="http://www.w3.org/2000/svg" width="50" height="50" viewBox="0 0 50 50">
  <g id="グループ_3854" data-name="グループ 3854" transform="translate(991 -1429)">
    <circle id="楕円形_341" data-name="楕円形 341" cx="25" cy="25" r="25" transform="translate(-991 1429)" fill="#e2f4ef"/>
    <g id="走る人のシルエットアイコン素材" transform="translate(-1038.377 1439.001)">
      <path id="パス_1790" data-name="パス 1790" d="M297.06,310.069l-.594-.856,0,0-.006-.008-1.83,2.324-.076.133,2.281,3.079,5.138,2.893a.689.689,0,0,0,.15.051l.024.008a.686.686,0,0,0,.161.021h.008l.018,0a.689.689,0,0,0,.3-.076h0a.669.669,0,0,0,.128-.087c.009-.008.017-.017.026-.026a.677.677,0,0,0,.1-.1l.708-1.016a.7.7,0,0,0-.233-1.011l-4.236-2.371Z" transform="translate(-219.916 -291.09)" fill="#008763"/>
      <path id="パス_1791" data-name="パス 1791" d="M61.631,101.71l5.6.142,1.415-1.595.783-.875,1.775,6.907-3.784,3.771,1.474,7.605a.7.7,0,0,0,.785.56l1.357-.19a.7.7,0,0,0,.6-.8l-.946-6.31,2.822-3.054.382-.485,1.533-1.94a1.213,1.213,0,0,0,.264-.733,1.25,1.25,0,0,0-.048-.351l-.147-.515-1.627-5.1-.4-1.262,3.91-.226,3.863,1.863a.7.7,0,0,0,.924-.306l.5-.951a.7.7,0,0,0-.3-.948l-4.183-2.135L72.67,93.741a.926.926,0,0,0-.535.058L69.05,95.114a.923.923,0,0,0-.419.357l-2.217,3.506-4.775.07a.7.7,0,0,0-.69.7v1.264A.7.7,0,0,0,61.631,101.71Z" transform="translate(0 -88.234)" fill="#008763"/>
      <path id="パス_1792" data-name="パス 1792" d="M156.166,5.129a2.494,2.494,0,0,0,.657.086,2.616,2.616,0,1,0-.657-.086Z" transform="translate(-87.801)" fill="#008763"/>
    </g>
  </g>
</svg>
