<svg xmlns="http://www.w3.org/2000/svg" width="69.996" height="69.996" viewBox="0 0 69.996 69.996">
  <g id="レイヤー_2" data-name="レイヤー 2" transform="translate(-10)">
    <g id="icon_data" transform="translate(10 0)">
      <path id="線_1" data-name="線 1" d="M.917,38.831A2.917,2.917,0,0,1-2,35.915v-35a2.917,2.917,0,1,1,5.833,0v35A2.917,2.917,0,0,1,.917,38.831Z" transform="translate(2 16.583)" fill="#008763"/>
      <path id="パス_1868" data-name="パス 1868" d="M59.289,60.831H19.946a2.917,2.917,0,0,1,0-5.833H56.373V25.833H19.917a2.917,2.917,0,1,1,0-5.833H59.289a2.917,2.917,0,0,1,2.917,2.917v35A2.917,2.917,0,0,1,59.289,60.831Z" transform="translate(7.79 9.165)" fill="#008763"/>
      <path id="パス_1869" data-name="パス 1869" d="M27.707,54.416c-7.134,0-13.885-1.66-19.009-4.676a20.005,20.005,0,0,1-6.2-5.446A12.475,12.475,0,0,1,0,36.917a2.917,2.917,0,0,1,5.833,0,6.771,6.771,0,0,0,1.4,3.972,14.462,14.462,0,0,0,4.423,3.824,32.172,32.172,0,0,0,16.051,3.87,2.917,2.917,0,0,1,0,5.833Z" transform="translate(0 15.581)" fill="#008763"/>
      <path id="パス_1870" data-name="パス 1870" d="M22.208,21.583a13.112,13.112,0,0,1-6.654-1.695A6.629,6.629,0,0,1,12,14.291a6.629,6.629,0,0,1,3.553-5.6A13.112,13.112,0,0,1,22.208,7a13.08,13.08,0,0,1,6.524,1.589A6.82,6.82,0,0,1,32.4,13.75l0,.022a4.256,4.256,0,0,1,.011.641,6.661,6.661,0,0,1-3.552,5.475A13.112,13.112,0,0,1,22.208,21.583Zm-4.355-7.291c.259.453,1.807,1.458,4.355,1.458,2.571,0,4.124-1.023,4.362-1.47a2.268,2.268,0,0,0-.89-.713,7.646,7.646,0,0,0-3.472-.733C19.659,12.833,18.111,13.838,17.852,14.291Z" transform="translate(5.499 3.208)" fill="#008763"/>
      <path id="パス_1871" data-name="パス 1871" d="M27.707,35c-7.134,0-13.885-1.66-19.009-4.676a20.005,20.005,0,0,1-6.2-5.446A12.475,12.475,0,0,1,0,17.5a12.475,12.475,0,0,1,2.5-7.377A20.005,20.005,0,0,1,8.7,4.676C13.822,1.66,20.573,0,27.707,0S41.592,1.66,46.716,4.676a20.005,20.005,0,0,1,6.2,5.446,12.474,12.474,0,0,1,2.5,7.377q0,.029,0,.058a12.657,12.657,0,0,1-2.827,7.7,2.917,2.917,0,0,1-4.523-3.683,6.8,6.8,0,0,0,1.518-4.108,6.782,6.782,0,0,0-1.4-3.943A14.462,14.462,0,0,0,43.758,9.7a32.172,32.172,0,0,0-16.051-3.87A32.172,32.172,0,0,0,11.656,9.7a14.462,14.462,0,0,0-4.423,3.824,6.771,6.771,0,0,0-1.4,3.972,6.771,6.771,0,0,0,1.4,3.972A14.462,14.462,0,0,0,11.656,25.3a32.172,32.172,0,0,0,16.051,3.87,2.917,2.917,0,0,1,0,5.833Z" transform="translate(0 0)" fill="#008763"/>
    </g>
  </g>
</svg>
