<svg xmlns="http://www.w3.org/2000/svg" width="84" height="70" viewBox="0 0 84 70">
  <g id="レイヤー_2" data-name="レイヤー 2" transform="translate(0 -4)">
    <g id="icon_data" transform="translate(0 4)">
      <path id="線_1" data-name="線 1" d="M1.5,10.25A3.5,3.5,0,0,1-2,6.75V1.5a3.5,3.5,0,0,1,7,0V6.75A3.5,3.5,0,0,1,1.5,10.25Z" transform="translate(40.5 2)" fill="#008763"/>
      <path id="線_2" data-name="線 2" d="M6.75,5H1.5a3.5,3.5,0,0,1,0-7H6.75a3.5,3.5,0,0,1,0,7Z" transform="translate(73.75 37)" fill="#008763"/>
      <path id="線_3" data-name="線 3" d="M6.75,5H1.5a3.5,3.5,0,0,1,0-7H6.75a3.5,3.5,0,0,1,0,7Z" transform="translate(2 37)" fill="#008763"/>
      <path id="線_4" data-name="線 4" d="M50.5,5H1.5a3.5,3.5,0,0,1,0-7h49a3.5,3.5,0,1,1,0,7Z" transform="translate(16 51)" fill="#008763"/>
      <path id="線_5" data-name="線 5" d="M33,5H1.5a3.5,3.5,0,0,1,0-7H33a3.5,3.5,0,0,1,0,7Z" transform="translate(24.75 65)" fill="#008763"/>
      <path id="線_6" data-name="線 6" d="M5.21,8.71A3.489,3.489,0,0,1,2.735,7.685l-3.71-3.71a3.5,3.5,0,0,1,4.95-4.95l3.71,3.71A3.5,3.5,0,0,1,5.21,8.71Z" transform="translate(13.27 13.27)" fill="#008763"/>
      <path id="線_7" data-name="線 7" d="M1.5,8.71A3.5,3.5,0,0,1-.975,2.735l3.71-3.71a3.5,3.5,0,1,1,4.95,4.95l-3.71,3.71A3.489,3.489,0,0,1,1.5,8.71Z" transform="translate(64.02 13.27)" fill="#008763"/>
      <path id="パス_1868" data-name="パス 1868" d="M53,41.25a3.5,3.5,0,0,1-3.5-3.5,15.75,15.75,0,0,0-31.5,0,3.5,3.5,0,1,1-7,0,22.75,22.75,0,1,1,45.5,0A3.5,3.5,0,0,1,53,41.25Z" transform="translate(8.25 4.25)" fill="#008763"/>
    </g>
  </g>
</svg>
