<svg xmlns="http://www.w3.org/2000/svg" width="76.987" height="70.003" viewBox="0 0 76.987 70.003">
  <g id="ヘルスケアのハートのマークアイコン_1" data-name="ヘルスケアのハートのマークアイコン 1" transform="translate(0 -23.222)">
    <path id="パス_1809" data-name="パス 1809" d="M107.969,325.886c-.69.6-1.357,1.182-2,1.729-.318.263-.613.514-.876.755a.622.622,0,0,1-.088.066c-.12.088-.263.208-.417.34-.634.525-1.226,1.018-1.762,1.456l-.011.011c-.011.011-.033.022-.044.033-.3.23-.559.438-.8.635-.011.011-.022.022-.033.022-.35.274-.678.536-.974.777l-.022.011-.022.011c-.087.076-.252.2-.482.383a.235.235,0,0,1-.055.044,4.952,4.952,0,0,0-.438.328.489.489,0,0,0-.076.065c-.153.121-.284.219-.405.307-.2.142-.306.23-.306.23l-.131.087-.109.1c-.055.044-.143.11-.274.208-.263.186-.493.361-.657.481l-.033.022-.022.01c-.022.022-.043.033-.065.055a.241.241,0,0,0-.055-.044l-.033-.022-.033-.022c-.164-.12-.394-.3-.657-.492-.131-.087-.218-.153-.273-.2l-.11-.1-.12-.088a3.588,3.588,0,0,1-.3-.219c-.011,0-.011,0-.022-.011-.12-.088-.252-.186-.405-.317-.022-.011-.044-.033-.076-.055q-.2-.165-.427-.328a1.49,1.49,0,0,0-.208-.154c-.153-.131-.274-.208-.34-.273l-.022-.011-.011-.011c-.307-.241-.635-.5-.985-.777-.011,0-.022-.011-.033-.022-.241-.2-.515-.416-.8-.635-.011-.022-.033-.033-.044-.043-.5-.405-1.04-.854-1.642-1.347-.043-.033-.087-.076-.131-.109a4.252,4.252,0,0,0-.416-.34.27.27,0,0,0-.066-.055s0-.011-.011-.011c-.274-.23-.558-.482-.887-.755-.646-.547-1.324-1.138-2.014-1.74A116.922,116.922,0,0,1,76.98,315.147H69.886c.066.1.142.186.208.274l.022.033.044.055.044.055.011.011.011.011c.361.449.722.9,1.117,1.369A116.9,116.9,0,0,0,84.15,329.99l.011.011c.69.6,1.368,1.193,2.015,1.751l.043.033.033.033c.3.241.591.492.909.766l.044.033.044.033c.153.12.274.219.317.263l.055.055.065.055c.635.515,1.237,1.018,1.839,1.511l.022.022.022.011c.252.2.525.416.81.634l.022.022.011.01c.307.241.6.482.92.723.011.011.032.022.043.033.263.219.438.351.526.416l.1.088.11.066.218.164.033.033.033.022c.219.175.449.351.7.537l.022.022a.528.528,0,0,0,.11.065.692.692,0,0,1,.088.077l.022.022c.23.186.427.328.569.427l.011.011c.175.131.361.263.569.416.022.011.043.033.066.043.186.143.383.3.635.46a.547.547,0,0,1,.087.066c.219.164.383.274.427.306l.065.055.252.175v.011c.022.011.044.033.066.044l1.74,1.74,1.817-1.73.821-.6a.057.057,0,0,1,.044-.022.28.28,0,0,1,.066-.055c.252-.164.449-.317.624-.449a.225.225,0,0,0,.055-.043c.2-.142.394-.285.57-.416l.011-.011c.12-.087.284-.2.481-.361a1.128,1.128,0,0,0,.1-.076c.131-.1.2-.142.208-.153l.022-.022c.252-.176.482-.362.7-.537l.044-.022.032-.033.208-.164.109-.066.1-.088c.088-.076.273-.208.536-.416l.033-.033.919-.722.022-.011.011-.022c.285-.218.559-.437.81-.634l.022-.022.032-.022c.6-.482,1.2-.985,1.828-1.5l.131-.109a2.077,2.077,0,0,1,.318-.263l.044-.033.033-.033c.318-.274.613-.525.909-.766l.044-.033.033-.033c.646-.558,1.324-1.15,2.014-1.751l.011-.011A117.1,117.1,0,0,0,124.4,316.942c.394-.47.755-.919,1.117-1.368l.022-.022.033-.044.044-.055.022-.033c.066-.087.142-.175.208-.274h-7.094A118.525,118.525,0,0,1,107.969,325.886Z" transform="translate(-59.378 -248.03)" fill="#008763"/>
    <path id="パス_1810" data-name="パス 1810" d="M70.33,57.868v.011l-.394.624h6.338a40.087,40.087,0,0,0,2.573-5.812,26,26,0,0,0,1.488-8.364A21.53,21.53,0,0,0,74.457,29.45,19.65,19.65,0,0,0,47.08,28.159a21.236,21.236,0,0,0-4.51,5.572,20.987,20.987,0,0,0-4.5-5.572A19.651,19.651,0,0,0,10.694,29.45,21.522,21.522,0,0,0,4.805,44.327,25.726,25.726,0,0,0,6.3,52.69,40.086,40.086,0,0,0,8.877,58.5h6.338l-.394-.624v-.011a36.2,36.2,0,0,1-3.339-6.951,20.224,20.224,0,0,1-1.2-6.59,16.037,16.037,0,0,1,4.379-11.1,14.184,14.184,0,0,1,19.813-.953,15.825,15.825,0,0,1,5.09,9.042l.011.033v.033a3.086,3.086,0,0,0,1.095,1.784,3.052,3.052,0,0,0,4.915-1.861,15.877,15.877,0,0,1,5.1-9.031,14.184,14.184,0,0,1,19.814.953,16.076,16.076,0,0,1,4.368,11.1,20.481,20.481,0,0,1-1.194,6.59A36.837,36.837,0,0,1,70.33,57.868Z" transform="translate(-4.082 0)" fill="#008763"/>
    <path id="パス_1811" data-name="パス 1811" d="M47.946,155.647a1.312,1.312,0,0,0-1.171-.723,1.278,1.278,0,0,0-1.138.678l-6.755,12.523L32.3,146.5a1.3,1.3,0,0,0-2.485.032l-5.506,18.138H0l1,1.664c.252.427.525.865.788,1.259.131.208.263.405.394.613l.459.7H26.491a1.3,1.3,0,0,0,1.248-.92l3.328-10.957,5.813,19.1a1.3,1.3,0,0,0,1.248.908,1.358,1.358,0,0,0,1.15-.679l7.41-13.771,2.8,5.594a1.3,1.3,0,0,0,1.16.722H74.327l.46-.69c.132-.208.274-.416.383-.6.285-.417.558-.854.821-1.281l1-1.664H52.467Z" transform="translate(0 -103.975)" fill="#008763"/>
  </g>
</svg>
