<svg xmlns="http://www.w3.org/2000/svg" width="85" height="85" viewBox="0 0 33 33">
  <path id="star" d="M16.7,1a1.427,1.427,0,0,1,1.28.8l4.078,8.262,9.12,1.333a1.427,1.427,0,0,1,.789,2.435l-6.6,6.426,1.557,9.079a1.427,1.427,0,0,1-2.071,1.5L16.7,26.546,8.543,30.835a1.427,1.427,0,0,1-2.071-1.5l1.557-9.079-6.6-6.426a1.427,1.427,0,0,1,.789-2.435l9.12-1.333L15.419,1.8A1.427,1.427,0,0,1,16.7,1ZM27.9,13.8l-7-1.023a1.427,1.427,0,0,1-1.073-.78L16.7,5.651l-3.13,6.341a1.427,1.427,0,0,1-1.073.78l-7,1.023,5.065,4.934a1.427,1.427,0,0,1,.411,1.264l-1.2,6.968,6.26-3.292a1.427,1.427,0,0,1,1.329,0l6.26,3.292-1.2-6.968a1.427,1.427,0,0,1,.411-1.264Z" transform="translate(0 0)" fill="#008763"/>
</svg>
