<svg xmlns="http://www.w3.org/2000/svg" width="70" height="69.998" viewBox="0 0 70 69.998">
  <g id="体温計のアイコン素材_2" data-name="体温計のアイコン素材 2" transform="translate(-0.001 -0.008)">
    <path id="パス_2401" data-name="パス 2401" d="M66.132,4.626l-.748-.748a13.2,13.2,0,0,0-18.679,0L22.4,28.18a13.646,13.646,0,0,0-3.651,6.588l-1.307,5.657a13.65,13.65,0,0,1-3.653,6.588L6.68,54.127l-1.7,1.7L1.908,58.9a6.507,6.507,0,0,0,9.2,9.2l3.068-3.068,1.7-1.7L23,56.216a13.674,13.674,0,0,1,6.59-3.653l5.657-1.3a13.659,13.659,0,0,0,6.588-3.653l24.3-24.3A13.207,13.207,0,0,0,66.132,4.626ZM63.861,21.032l-24.3,24.3a10.418,10.418,0,0,1-5.042,2.794l-5.655,1.3a16.877,16.877,0,0,0-8.139,4.512l-6.545,6.545L9.522,55.832l6.543-6.545a16.842,16.842,0,0,0,4.512-8.139l1.305-5.657a10.452,10.452,0,0,1,2.794-5.042l24.3-24.3a10,10,0,0,1,14.135,0l.748.743A10.01,10.01,0,0,1,63.861,21.032Z" transform="translate(0)" fill="#008763"/>
    <path id="パス_2402" data-name="パス 2402" d="M243.655,114.724a1.671,1.671,0,0,0-2.365,0l-14.845,14.843a1.674,1.674,0,0,0,0,2.367l5.3,5.3a1.674,1.674,0,0,0,2.367,0l14.843-14.843a1.674,1.674,0,0,0,0-2.367Z" transform="translate(-195.062 -98.61)" fill="#008763"/>
  </g>
</svg>
