<svg xmlns="http://www.w3.org/2000/svg" xmlns:xlink="http://www.w3.org/1999/xlink" width="66.175" height="69.999" viewBox="0 0 66.175 69.999">
  <defs>
    <clipPath id="clip-path">
      <rect id="長方形_1997" data-name="長方形 1997" width="52.013" height="69.999" fill="none"/>
    </clipPath>
    <clipPath id="clip-path-2">
      <rect id="長方形_1996" data-name="長方形 1996" width="7.21" height="61.183" fill="none"/>
    </clipPath>
  </defs>
  <g id="グループ_3524" data-name="グループ 3524" transform="translate(1180.03 -194.038)">
    <g id="グループ_3522" data-name="グループ 3522" transform="translate(-1180.03 194.038)">
      <g id="グループ_3519" data-name="グループ 3519" clip-path="url(#clip-path)">
        <path id="パス_1863" data-name="パス 1863" d="M58.376,124.344H8.333V178.02a.641.641,0,0,0,.641.641H57.735a.641.641,0,0,0,.641-.641Z" transform="translate(-7.348 -109.646)" fill="#f5f5f5" fill-rule="evenodd"/>
        <path id="パス_1864" data-name="パス 1864" d="M46.34,244.024h39.2a.985.985,0,1,0,0-1.97H46.34a.985.985,0,1,0,0,1.97m0-11.22H85.385a.985.985,0,1,0,0-1.97H46.34a.985.985,0,1,0,0,1.97m0-11.219H85.385a.985.985,0,1,0,0-1.97H46.34a.985.985,0,1,0,0,1.97m-.156-11.22H85.23a.985.985,0,0,0,0-1.97H46.184a.985.985,0,0,0,0,1.97" transform="translate(-39.856 -183.762)" fill="#ccc" fill-rule="evenodd"/>
        <path id="パス_1865" data-name="パス 1865" d="M58.417,9.509a1.175,1.175,0,0,0-1.175-1.175H54.707a1.175,1.175,0,0,0-1.175,1.175V15.8a1.175,1.175,0,0,0,1.175,1.175h2.535A1.175,1.175,0,0,0,58.417,15.8Zm22.981,0a1.175,1.175,0,0,0-1.175-1.175H77.689a1.175,1.175,0,0,0-1.175,1.175V15.8a1.175,1.175,0,0,0,1.175,1.175h2.535A1.175,1.175,0,0,0,81.4,15.8Zm-11.491,0a1.175,1.175,0,0,0-1.175-1.175H66.2a1.175,1.175,0,0,0-1.175,1.175V15.8A1.175,1.175,0,0,0,66.2,16.971h2.535A1.175,1.175,0,0,0,69.908,15.8Zm22.981,0a1.175,1.175,0,0,0-1.175-1.175H89.179A1.175,1.175,0,0,0,88,9.509V15.8a1.175,1.175,0,0,0,1.175,1.175h2.535A1.175,1.175,0,0,0,92.889,15.8Z" transform="translate(-47.204 -7.349)" fill="#e4e4e4" fill-rule="evenodd"/>
        <path id="パス_1866" data-name="パス 1866" d="M53.033,38.466h4.7a.641.641,0,0,1,.641.641v9.51H8.333v-9.51a.641.641,0,0,1,.641-.641h4.7v3.9a1.175,1.175,0,0,0,1.175,1.175h2.535a1.175,1.175,0,0,0,1.175-1.175v-3.9h6.605v3.9a1.175,1.175,0,0,0,1.175,1.175h2.535a1.175,1.175,0,0,0,1.175-1.175v-3.9h6.605v3.9a1.175,1.175,0,0,0,1.175,1.175h2.535a1.175,1.175,0,0,0,1.175-1.175v-3.9h6.605v3.9a1.175,1.175,0,0,0,1.175,1.175h2.535a1.175,1.175,0,0,0,1.175-1.175Z" transform="translate(-7.348 -33.919)" fill="#b2dbd0" fill-rule="evenodd"/>
        <path id="パス_1867" data-name="パス 1867" d="M0,5.188V68.373A1.626,1.626,0,0,0,1.626,70H50.387a1.626,1.626,0,0,0,1.626-1.626V5.188a1.626,1.626,0,0,0-1.626-1.626H46.67V2.16A2.16,2.16,0,0,0,44.51,0H41.975a2.16,2.16,0,0,0-2.16,2.16v1.4H35.179V2.16A2.16,2.16,0,0,0,33.019,0H30.484a2.16,2.16,0,0,0-2.16,2.16v1.4H23.689V2.16A2.16,2.16,0,0,0,21.528,0H18.993a2.16,2.16,0,0,0-2.16,2.16v1.4H12.2V2.16A2.16,2.16,0,0,0,10.038,0H7.5a2.16,2.16,0,0,0-2.16,2.16v1.4H1.626A1.626,1.626,0,0,0,0,5.188M50.042,15.683H1.97V68.029H50.042ZM1.97,13.713H50.042V5.532H46.67V8.447a2.157,2.157,0,0,1-.111.685l-.02.058-.017.045a2.161,2.161,0,0,1-2.012,1.373H41.975a2.16,2.16,0,0,1-2.16-2.16V5.532H35.179V8.447a2.151,2.151,0,0,1-.445,1.313l-.048.061-.042.049-.062.067-.018.019a2.154,2.154,0,0,1-1.546.651H30.484a2.16,2.16,0,0,1-2.16-2.16V5.532H23.689V8.447a2.16,2.16,0,0,1-2.16,2.16.132.132,0,0,1-.159,0H18.993a2.16,2.16,0,0,1-2.16-2.16V5.532H12.2V8.447a2.16,2.16,0,0,1-2.16,2.16H7.5a2.16,2.16,0,0,1-2.16-2.16V5.532H1.97Zm8.258-5.266V2.16a.19.19,0,0,0-.19-.19H7.5a.19.19,0,0,0-.19.19V8.447a.19.19,0,0,0,.19.19h2.535a.19.19,0,0,0,.19-.19m11.491,0V2.16a.19.19,0,0,0-.19-.19H18.993a.19.19,0,0,0-.19.19V8.447a.19.19,0,0,0,.19.19h2.536a.19.19,0,0,0,.189-.19m11.491,0V2.16a.19.19,0,0,0-.19-.19H30.484a.19.19,0,0,0-.19.19V8.447a.19.19,0,0,0,.19.19h2.538a.19.19,0,0,0,.187-.19m11.491,0V2.16a.19.19,0,0,0-.19-.19H41.975a.19.19,0,0,0-.19.19V8.447a.19.19,0,0,0,.19.19h2.539a.19.19,0,0,0,.186-.19" transform="translate(0)" fill="#323232" fill-rule="evenodd"/>
      </g>
    </g>
    <g id="グループ_3523" data-name="グループ 3523" transform="translate(-1120.099 198.717) rotate(30)">
      <rect id="長方形_1994" data-name="長方形 1994" width="6.022" height="45.148" transform="translate(0.594 7.104)" fill="#b2dbd0"/>
      <rect id="長方形_1995" data-name="長方形 1995" width="6.022" height="3.04" transform="translate(0.594 4.064)" fill="#dbc87d"/>
      <g id="グループ_3517" data-name="グループ 3517">
        <g id="マスクグループ_3516" data-name="マスクグループ 3516" clip-path="url(#clip-path-2)">
          <path id="パス_1860" data-name="パス 1860" d="M0,.853A.853.853,0,0,1,.853,0h3.67a.853.853,0,0,1,.853.853V3.47H0Z" transform="translate(0.917 0.594)" fill="#c3636e" fill-rule="evenodd"/>
          <path id="パス_1861" data-name="パス 1861" d="M3.011,8.337,0,0H6.022Z" transform="translate(0.594 52.252)" fill="#dbc87d" fill-rule="evenodd"/>
          <path id="パス_1862" data-name="パス 1862" d="M.322,3.536A.594.594,0,0,0,0,4.064v48.2H0s0,0,0,.007v.012H0a.59.59,0,0,0,.039.186l3.006,8.324,0,.005,0,.005,0,.005,0,.005,0,.005,0,.005,0,.005,0,.005,0,.005,0,.005,0,.005,0,.005,0,.005,0,.005,0,.005,0,0,0,.005,0,0,0,0,0,0,0,0,0,0,0,0,0,0,0,0,0,0,0,0,0,0,0,0,0,0,0,0,0,0,0,0,0,0,0,0,0,0,0,0,0,0,0,0,0,0,0,0,0,0,0,0,0,0,0,0,0,0,0,0,0,0,0,0,0,0,0,0,0,0,0,0,0,0,0,0,0,0,0,0,0,0,0,0,0,0,0,0,0,0,0,0,0,0,0,0,0,0,0,0,0,0,0,0,0,0,0,0,0,0,0,0,0,0,0,0,0,0,0,0,0,0,0,0,0,0,.005,0,.005,0,.005,0,.005,0,.005,0,.005,0,.005,0,.005,0,.005,0,.005,0,.005,0,.005,0,.005,0,.005,0,.005,0,.005,0,.005,0,.005,0,.005,0h.33l.005,0,.005,0,.005,0,.005,0,.005,0,.005,0,.005,0,.005,0,.005,0,.005,0,.005,0,.005,0,.005,0,.005,0,.005,0,.005,0,.005,0,.005,0,.005,0,0,0,0,0,0,0,0,0,0,0,0,0,0,0,0,0,0,0,0,0,0,0,0,0,0,0,0,0,0,0,0,0,0,0,0,0,0,0,0,0,0,0,0,0,0,0,0,0,0,0,0,0,0,0,0,0,0,0,0,0,0,0,0,0,0,0,0,0,0,0,0,0,0,0,0,0,0,0,0,0,0,0,0,0,0,0,0,0,0,0,0,0,0,0,0,0,0,0,0,0,0,0,0,0,0,0,0,0,0,0,0,0,0,0,0,0,0,0,0,0,0,0,0,0,0,0,0-.005,0,0,0-.005,0-.005,0-.005,0-.005,0-.005,0-.005,0-.005,0-.005,0-.005,0-.005,0-.005,0-.005,0-.005,0-.005,0-.005L7.17,52.466a.59.59,0,0,0,.039-.186h0v-.012s0,0,0-.007h0s0-.005,0-.008V4.064a.594.594,0,0,0-.322-.529V1.448A1.448,1.448,0,0,0,5.44,0H1.77A1.448,1.448,0,0,0,.322,1.448ZM5.769,52.846H1.441l1.582,4.38H4.188ZM1.189,7.7H6.022V51.658H1.189Zm0-1.189H6.022V4.659H1.189ZM5.7,3.47H1.511V1.448a.259.259,0,0,1,.259-.259H5.44a.259.259,0,0,1,.259.259Z" transform="translate(0 0)" fill="#323232" fill-rule="evenodd"/>
        </g>
      </g>
    </g>
  </g>
</svg>
