<svg id="グループ_4444" data-name="グループ 4444" xmlns="http://www.w3.org/2000/svg" width="18.008" height="18" viewBox="0 0 18.008 18">
  <path id="パス_2489" data-name="パス 2489" d="M10455.881,3187.482l1.936-6.35.854-2.037,2.893.929,2.361,3.175.207,2.046-6.6,2.237Z" transform="translate(-10454.149 -3171.238)" fill="#fff"/>
  <g id="party-popper" transform="translate(0 0)">
    <path id="パス_2489-2" data-name="パス 2489" d="M1.818,20.691A.818.818,0,0,1,1.047,19.6l3.109-8.755a.818.818,0,1,1,1.542.548L3.164,18.528,10.3,16a.818.818,0,0,1,.546,1.542l-8.755,3.1A.817.817,0,0,1,1.818,20.691Z" transform="translate(-1 -2.691)" fill="#008763"/>
    <path id="パス_2490" data-name="パス 2490" d="M3.826,3.636H3.818A.818.818,0,1,1,3.818,2h.008a.818.818,0,0,1,0,1.636Z" transform="translate(-1.364 -1.182)" fill="#008763"/>
    <path id="パス_2491" data-name="パス 2491" d="M21.826,8.636h-.008a.818.818,0,1,1,0-1.636h.008a.818.818,0,0,1,0,1.636Z" transform="translate(-4.636 -2.091)" fill="#008763"/>
    <path id="パス_2492" data-name="パス 2492" d="M14.826,2.636h-.008a.818.818,0,1,1,0-1.636h.008a.818.818,0,1,1,0,1.636Z" transform="translate(-3.364 -1)" fill="#008763"/>
    <path id="パス_2493" data-name="パス 2493" d="M21.826,20.636h-.008a.818.818,0,1,1,0-1.636h.008a.818.818,0,1,1,0,1.636Z" transform="translate(-4.636 -4.272)" fill="#008763"/>
    <path id="パス_2494" data-name="パス 2494" d="M13.819,9.182a.819.819,0,0,1-.8-.977l.171-.865A2.28,2.28,0,0,1,15.43,5.5h.311a.371.371,0,0,0,.28-.125.376.376,0,0,0,.094-.293,3.2,3.2,0,0,1,2.157-3.427L20.1,1.042a.818.818,0,0,1,.52,1.552l-1.833.614a1.558,1.558,0,0,0-1.052,1.673V4.89a2.014,2.014,0,0,1-2,2.246H15.43a.642.642,0,0,0-.636.513v.006l-.172.867A.818.818,0,0,1,13.819,9.182Z" transform="translate(-3.182 -1)" fill="#008763"/>
    <path id="パス_2495" data-name="パス 2495" d="M17.448,15.194h-.63a.818.818,0,0,1,0-1.636h.63a.368.368,0,0,0,.362-.307l0-.015a2.019,2.019,0,0,1,2.727-1.527l0,0,.671.27A.818.818,0,1,1,20.6,13.5l-.668-.269a.383.383,0,0,0-.511.285A2.017,2.017,0,0,1,17.448,15.194Z" transform="translate(-3.727 -2.921)" fill="#008763"/>
    <path id="パス_2496" data-name="パス 2496" d="M8.818,6.727A.818.818,0,0,1,8,5.909v-.63A2,2,0,0,1,9.683,3.3a.383.383,0,0,0,.282-.511L9.7,2.124a.818.818,0,0,1,1.518-.611l.27.671,0,0A2.019,2.019,0,0,1,9.958,4.915l-.026,0a.362.362,0,0,0-.3.36v.63A.818.818,0,0,1,8.818,6.727Z" transform="translate(-2.273 -1)" fill="#008763"/>
    <path id="パス_2497" data-name="パス 2497" d="M6.475,9.691a6.4,6.4,0,0,1,3.956,2.129,8.327,8.327,0,0,1,1.846,2.657c.593,1.479.123,2.258-.21,2.591a1.762,1.762,0,0,1-1.292.493A6.4,6.4,0,0,1,6.82,15.431a8.327,8.327,0,0,1-1.846-2.657c-.593-1.479-.123-2.258.21-2.591A1.762,1.762,0,0,1,6.475,9.691Zm4.433,6.217a1.583,1.583,0,0,0-.208-.96,6.956,6.956,0,0,0-1.426-1.972,4.985,4.985,0,0,0-2.8-1.65.443.443,0,0,0-.133.016,1.583,1.583,0,0,0,.208.96,6.956,6.956,0,0,0,1.426,1.972,4.985,4.985,0,0,0,2.8,1.65A.443.443,0,0,0,10.908,15.908Z" transform="translate(-1.671 -2.58)" fill="#008763"/>
  </g>
</svg>
