<svg xmlns="http://www.w3.org/2000/svg" width="69.996" height="69.999" viewBox="0 0 69.996 69.999">
  <g id="お団子のイラスト" transform="translate(-0.01)">
    <path id="パス_1812" data-name="パス 1812" d="M60.536,57.858A16.937,16.937,0,0,0,49.592,30.5,16.932,16.932,0,0,0,35.1,16,16.951,16.951,0,0,0,7.722,5.044L2.678,0,.01,2.668,5.054,7.713A16.95,16.95,0,0,0,16.006,35.087a16.935,16.935,0,0,0,14.5,14.5A16.935,16.935,0,0,0,57.867,60.526L67.339,70l2.667-2.669ZM18.819,30.7A12.409,12.409,0,0,1,8.289,10.947l4.261,4.262,2.669-2.668L10.955,8.279a12.41,12.41,0,0,1,19.75,10.532h0v.005A12.406,12.406,0,0,1,18.825,30.7h-.005Zm14.5,14.5A12.392,12.392,0,0,1,20.408,33.579,15.407,15.407,0,0,0,33.588,20.4,12.394,12.394,0,0,1,45.2,33.307v.005A12.407,12.407,0,0,1,33.322,45.194ZM56.083,56.065a12.409,12.409,0,0,1-21.176-7.988A15.4,15.4,0,0,0,48.086,34.9a12.414,12.414,0,0,1,8,21.168Z" transform="translate(0)" fill="#008763"/>
  </g>
</svg>
