<svg xmlns="http://www.w3.org/2000/svg" width="20.63" height="15.004" viewBox="0 0 20.63 15.004">
  <g id="volume-x" transform="translate(-1 -4)">
    <path id="パス_2399" data-name="パス 2399" d="M10.377,4a.938.938,0,0,1,.938.938V18.066a.938.938,0,0,1-1.524.732L5.36,15.253H1.938A.938.938,0,0,1,1,14.315V8.689a.938.938,0,0,1,.938-.938H5.36L9.791,4.205A.937.937,0,0,1,10.377,4ZM9.44,16.115V6.889L6.274,9.421a.938.938,0,0,1-.586.205H2.875v3.751H5.689a.938.938,0,0,1,.586.205Z" transform="translate(0 0)" fill="#fff"/>
    <path id="線_1" data-name="線 1" d="M-.062,6.5a.935.935,0,0,1-.663-.275.938.938,0,0,1,0-1.326L4.9-.725a.938.938,0,0,1,1.326,0A.938.938,0,0,1,6.227.6L.6,6.227A.935.935,0,0,1-.062,6.5Z" transform="translate(15.128 8.751)" fill="#fff"/>
    <path id="線_2" data-name="線 2" d="M5.564,6.5A.935.935,0,0,1,4.9,6.227L-.725.6a.938.938,0,0,1,0-1.326A.938.938,0,0,1,.6-.725L6.227,4.9a.938.938,0,0,1-.663,1.6Z" transform="translate(15.128 8.751)" fill="#fff"/>
  </g>
</svg>
