<svg xmlns="http://www.w3.org/2000/svg" width="53.335" height="70.001" viewBox="0 0 53.335 70.001">
  <g id="走る人のシルエットアイコン素材" transform="translate(-60.949)">
    <path id="パス_1790" data-name="パス 1790" d="M300.4,311.218l-1.387-2,0,.005-.013-.019-4.271,5.423-.176.311,5.322,7.186,11.988,6.751a1.6,1.6,0,0,0,.35.119c.019.005.037.014.056.019a1.6,1.6,0,0,0,.375.049l.019,0c.014,0,.028,0,.042,0a1.608,1.608,0,0,0,.7-.177h0a1.56,1.56,0,0,0,.3-.2c.022-.019.041-.041.061-.06a1.58,1.58,0,0,0,.236-.231l1.652-2.371a1.634,1.634,0,0,0-.543-2.36l-9.886-5.532Z" transform="translate(-201.665 -266.932)" fill="#008763"/>
    <path id="パス_1791" data-name="パス 1791" d="M62.541,112.357l13.066.332,3.3-3.721,1.828-2.043,4.143,16.118-8.83,8.8,3.439,17.747A1.634,1.634,0,0,0,81.32,150.9l3.168-.443a1.634,1.634,0,0,0,1.389-1.86L83.67,133.87l6.585-7.126.892-1.132,3.578-4.527a2.83,2.83,0,0,0,.616-1.711,2.917,2.917,0,0,0-.111-.82l-.343-1.2-3.8-11.911-.933-2.944,9.125-.527,9.015,4.346a1.633,1.633,0,0,0,2.157-.713c.36-.69.795-1.521,1.159-2.218a1.632,1.632,0,0,0-.7-2.211l-9.761-4.982L88.3,93.763a2.161,2.161,0,0,0-1.248.135l-7.2,3.068a2.153,2.153,0,0,0-.978.832l-5.174,8.18-11.142.163a1.633,1.633,0,0,0-1.609,1.633v2.949A1.634,1.634,0,0,0,62.541,112.357Z" transform="translate(0 -80.911)" fill="#008763"/>
    <path id="パス_1792" data-name="パス 1792" d="M158.767,11.967a5.82,5.82,0,0,0,1.532.2,6.105,6.105,0,1,0-1.532-.2Z" transform="translate(-80.515)" fill="#008763"/>
  </g>
</svg>
