<svg id="薬の無料アイコン9" xmlns="http://www.w3.org/2000/svg" width="68.086" height="69.996" viewBox="0 0 68.086 69.996">
  <path id="パス_1786" data-name="パス 1786" d="M11.609,31.59,38.9,4.61l-.006.013A15.782,15.782,0,1,1,61.209,26.942l-6.44,6.371c.194-.006.389-.006.582-.006a25.969,25.969,0,0,1,13.669,3.577,14.4,14.4,0,0,1,4.354,4.072,9.444,9.444,0,0,1,1.7,5.312V57.029a9.446,9.446,0,0,1-1.7,5.312,16.279,16.279,0,0,1-7.26,5.582A27.832,27.832,0,0,1,55.352,70,26.016,26.016,0,0,1,41.69,66.413a14.359,14.359,0,0,1-4.36-4.071,9.481,9.481,0,0,1-1.692-5.312v-4.8l-1.716,1.7.006-.014a15.782,15.782,0,1,1-22.32-22.32ZM71.94,46.267A6.356,6.356,0,0,0,70.78,42.7a10.988,10.988,0,0,0-2.918-2.831L43.895,53.9a18.533,18.533,0,0,0,1.729.839,25.074,25.074,0,0,0,9.727,1.86,23.386,23.386,0,0,0,12.272-3.17,11.858,11.858,0,0,0,3.571-3.32,8,8,0,0,0,.746-1.378V46.267ZM38.771,57.029a6.314,6.314,0,0,0,1.158,3.564,13.277,13.277,0,0,0,5.889,4.449,24.636,24.636,0,0,0,9.534,1.823,22.937,22.937,0,0,0,12-3.1,11.4,11.4,0,0,0,3.427-3.171,6.35,6.35,0,0,0,1.16-3.564V52.588A17,17,0,0,1,65.92,56.7a27.228,27.228,0,0,1-10.568,2.031,25.459,25.459,0,0,1-13.4-3.5,14.671,14.671,0,0,1-3.183-2.631Zm0-8.3A2.613,2.613,0,0,0,38.9,49a7.366,7.366,0,0,0,.62,1.1,10.569,10.569,0,0,0,2.073,2.23L65.319,38.455c-.144-.063-.282-.138-.426-.194a24.647,24.647,0,0,0-9.541-1.823,26.528,26.528,0,0,0-4.059.308,21.05,21.05,0,0,0-7.937,2.786c-.257.157-.5.326-.733.5a10.632,10.632,0,0,0-2.662,2.638.176.176,0,0,0-.032.036,6.321,6.321,0,0,0-1.158,3.565v2.462ZM14.265,51.253a12.031,12.031,0,0,0,17.008,0l.006-.006,4.36-4.31v-.67a9.478,9.478,0,0,1,1.692-5.312,15.355,15.355,0,0,1,5.744-4.86,22.065,22.065,0,0,0-1.153-2.511A23.307,23.307,0,0,0,35.964,26.3a17.113,17.113,0,0,0-9.841-3.778L14.271,34.246h-.006a12.031,12.031,0,0,0,0,17.007Z" transform="translate(-6.986 0)" fill="#008763"/>
</svg>
