<svg xmlns="http://www.w3.org/2000/svg" width="71.62" height="69.997" viewBox="0 0 71.62 69.997">
  <g id="健康管理_体重計のアイコン素材_2" data-name="健康管理 体重計のアイコン素材 2" transform="translate(0 -5.799)">
    <path id="パス_1793" data-name="パス 1793" d="M62.755,5.8H8.865A8.879,8.879,0,0,0,0,14.664V66.931A8.879,8.879,0,0,0,8.865,75.8h53.89a8.879,8.879,0,0,0,8.865-8.865V14.664A8.879,8.879,0,0,0,62.755,5.8ZM5.319,14.664a3.557,3.557,0,0,1,3.546-3.546h53.89A3.557,3.557,0,0,1,66.3,14.664V66.931a3.557,3.557,0,0,1-3.546,3.546H8.865a3.557,3.557,0,0,1-3.546-3.546V14.664Z" transform="translate(0 0)" fill="#008763"/>
    <path id="パス_1794" data-name="パス 1794" d="M242.672,234.835l-1.681,7.529a.421.421,0,0,0,.412.513h3.361a.421.421,0,0,0,.412-.513l-1.681-7.529A.421.421,0,0,0,242.672,234.835Z" transform="translate(-207.272 -196.714)" fill="#008763"/>
    <path id="パス_1795" data-name="パス 1795" d="M93.14,116.578l.231-.142a27.53,27.53,0,0,1,14.4-4.158,21.107,21.107,0,0,1,12.58,3.874l.239.177,8.626-8.633,1.777-1.772,0,0,.016-.016-.346-.231c-7.792-5.124-15.85-7.731-23.935-7.731s-16.135,2.6-23.926,7.721l-.274.184-.056.032,0,0-.019.013Zm26.584-5.809c-.328-.146-.654-.307-.982-.441l2.474-6.047c.815.328,1.63.691,2.435,1.081h0l-2.836,5.9c-.332-.164-.672-.3-1.01-.452Zm-27.488-6.5,2.474,6.055c-.692.283-1.392.593-2.083.921l-2.837-5.886C90.6,104.974,91.421,104.611,92.236,104.274ZM99.4,108.8c-.136.034-.277.056-.411.093l-1.658-6.32c.869-.231,1.755-.435,2.642-.594l1.205,6.418c-.373.072-.738.168-1.108.252C99.839,108.7,99.621,108.749,99.4,108.8Zm8.684-7.433-.248,6.533c-.745-.027-1.489-.027-2.225,0l-.247-6.507v-.026c.9-.036,1.815-.036,2.719,0Zm8.032,1.206-1.658,6.32c-.727-.186-1.463-.355-2.189-.488l1.205-6.427c.876.159,1.761.363,2.637.593Z" transform="translate(-70.916 -79.256)" fill="#008763"/>
  </g>
</svg>
