<svg xmlns="http://www.w3.org/2000/svg" width="73.177" height="69.996" viewBox="0 0 73.177 69.996">
  <g id="_411_tr_f" data-name="411_tr_f" transform="translate(-1.469)">
    <path id="線_1" data-name="線 1" d="M68,4.363H1.182A3.182,3.182,0,1,1,1.182-2H68a3.182,3.182,0,0,1,0,6.363Z" transform="translate(3.469 32.225)" fill="#008763"/>
    <path id="パス_1868" data-name="パス 1868" d="M50.134,45.681H21.5A17.5,17.5,0,0,1,4,28.182a3.182,3.182,0,1,1,6.363,0A11.148,11.148,0,0,0,21.5,39.317H50.134A11.148,11.148,0,0,0,61.269,28.182a3.182,3.182,0,1,1,6.363,0,17.5,17.5,0,0,1-17.5,17.5Z" transform="translate(2.241 14.77)" fill="#008763"/>
    <path id="線_2" data-name="線 2" d="M1.182,12.317a3.182,3.182,0,0,1-2.25-5.431L6.886-1.068a3.182,3.182,0,0,1,4.5,4.5L3.431,11.385A3.172,3.172,0,0,1,1.182,12.317Z" transform="translate(16.195 57.678)" fill="#008763"/>
    <path id="線_3" data-name="線 3" d="M9.136,12.317a3.172,3.172,0,0,1-2.25-.932L-1.068,3.431a3.182,3.182,0,0,1,4.5-4.5l7.954,7.954a3.182,3.182,0,0,1-2.25,5.431Z" transform="translate(49.602 57.678)" fill="#008763"/>
    <path id="パス_1869" data-name="パス 1869" d="M26.271,15.908a3.182,3.182,0,0,1-3.182-3.182,6.363,6.363,0,1,0-12.726,0,3.182,3.182,0,0,1-6.363,0,12.726,12.726,0,0,1,25.453,0A3.182,3.182,0,0,1,26.271,15.908Z" transform="translate(2.241)" fill="#008763"/>
    <path id="線_4" data-name="線 4" d="M1.182,21.958A3.182,3.182,0,0,1-2,18.776V1.182a3.182,3.182,0,1,1,6.363,0V18.776A3.182,3.182,0,0,1,1.182,21.958Z" transform="translate(8.241 11.545)" fill="#008763"/>
    <path id="線_5" data-name="線 5" d="M1.182,7.64A3.182,3.182,0,0,1-2,4.459V1.182a3.182,3.182,0,1,1,6.363,0V4.459A3.182,3.182,0,0,1,1.182,7.64Z" transform="translate(27.331 11.545)" fill="#008763"/>
  </g>
</svg>
