<svg xmlns="http://www.w3.org/2000/svg" xmlns:xlink="http://www.w3.org/1999/xlink" width="97.33" height="77.316" viewBox="0 0 97.33 77.316">
  <defs>
    <clipPath id="clip-path">
      <rect id="長方形_2158" data-name="長方形 2158" width="43.554" height="64.13" fill="none"/>
    </clipPath>
  </defs>
  <g id="グループ_3886" data-name="グループ 3886" transform="translate(-149 -214)">
    <g id="グループ_3883" data-name="グループ 3883" transform="translate(1140 -899)">
      <circle id="楕円形_330" data-name="楕円形 330" cx="25" cy="25" r="25" transform="translate(-991 1113)" fill="#e2f4ef"/>
      <g id="グループ_3816" data-name="グループ 3816" transform="translate(200 531)">
        <path id="前面オブジェクトで型抜き_1" data-name="前面オブジェクトで型抜き 1" d="M16,20a8.491,8.491,0,0,1-6.055-2.6A10.406,10.406,0,0,1,7.05,11h17.9a10.405,10.405,0,0,1-2.9,6.4A8.491,8.491,0,0,1,16,20Z" transform="translate(-1150 622) rotate(180)" fill="#fff"/>
        <g id="レイヤー_2" data-name="レイヤー 2" transform="translate(-1184 588)">
          <g id="icon_data" transform="translate(0 4)">
            <path id="線_1" data-name="線 1" d="M-.5,3.25A1.5,1.5,0,0,1-2,1.75V-.5A1.5,1.5,0,0,1-.5-2,1.5,1.5,0,0,1,1-.5V1.75A1.5,1.5,0,0,1-.5,3.25Z" transform="translate(18.5 2)" fill="#008763"/>
            <path id="線_2" data-name="線 2" d="M1.75,1H-.5A1.5,1.5,0,0,1-2-.5,1.5,1.5,0,0,1-.5-2H1.75A1.5,1.5,0,0,1,3.25-.5,1.5,1.5,0,0,1,1.75,1Z" transform="translate(32.75 17)" fill="#008763"/>
            <path id="線_3" data-name="線 3" d="M1.75,1H-.5A1.5,1.5,0,0,1-2-.5,1.5,1.5,0,0,1-.5-2H1.75A1.5,1.5,0,0,1,3.25-.5,1.5,1.5,0,0,1,1.75,1Z" transform="translate(2 17)" fill="#008763"/>
            <path id="線_4" data-name="線 4" d="M20.5,1H-.5A1.5,1.5,0,0,1-2-.5,1.5,1.5,0,0,1-.5-2h21A1.5,1.5,0,0,1,22-.5,1.5,1.5,0,0,1,20.5,1Z" transform="translate(8 23)" fill="#008763"/>
            <path id="線_5" data-name="線 5" d="M13,1H-.5A1.5,1.5,0,0,1-2-.5,1.5,1.5,0,0,1-.5-2H13A1.5,1.5,0,0,1,14.5-.5,1.5,1.5,0,0,1,13,1Z" transform="translate(11.75 29)" fill="#008763"/>
            <path id="線_6" data-name="線 6" d="M1.09,2.59A1.5,1.5,0,0,1,.029,2.151L-1.561.561a1.5,1.5,0,0,1,0-2.121,1.5,1.5,0,0,1,2.121,0L2.151.029A1.5,1.5,0,0,1,1.09,2.59Z" transform="translate(6.83 6.83)" fill="#008763"/>
            <path id="線_7" data-name="線 7" d="M-.5,2.59a1.5,1.5,0,0,1-1.061-.439,1.5,1.5,0,0,1,0-2.121l1.59-1.59a1.5,1.5,0,0,1,2.121,0,1.5,1.5,0,0,1,0,2.121L.561,2.151A1.5,1.5,0,0,1-.5,2.59Z" transform="translate(28.58 6.83)" fill="#008763"/>
            <path id="パス_1868" data-name="パス 1868" d="M29,26.25a1.5,1.5,0,0,1-1.5-1.5,6.75,6.75,0,1,0-13.5,0,1.5,1.5,0,1,1-3,0,9.75,9.75,0,1,1,19.5,0A1.5,1.5,0,0,1,29,26.25Z" transform="translate(-2.75 -6.75)" fill="#008763"/>
          </g>
        </g>
      </g>
    </g>
    <g id="グループ_3885" data-name="グループ 3885" transform="translate(176.546 235.777) rotate(-30)">
      <g id="グループ_3884" data-name="グループ 3884" clip-path="url(#clip-path)">
        <path id="パス_2426" data-name="パス 2426" d="M22.338,54.585V20.936a4.269,4.269,0,0,1,4.269-4.269h0a4.269,4.269,0,0,1,4.269,4.269V33.5h-.01V42.82c0-.029.007-3.137.01-3.165v-.386A4.269,4.269,0,0,1,35.144,35h0a4.269,4.269,0,0,1,4.269,4.269v1.573a4.269,4.269,0,0,1,8.538,0v2.217c.007-.053.016-.763.025-.816A4.269,4.269,0,0,1,56.448,43c0,1.147-.083,17.229-.083,17.229L50.44,71.751a.8.8,0,0,0-.088.364v4.115a.8.8,0,0,1-.8.8H28.711a.8.8,0,0,1-.8-.8V72.281a.8.8,0,0,0-.269-.6L16.667,62V48.77l5.671-4.02Z" transform="translate(-14.78 -14.78)" fill="#ffeeda" fill-rule="evenodd"/>
        <path id="パス_2427" data-name="パス 2427" d="M5.671,9.274V28.995L.8,32.451A1.887,1.887,0,0,0,0,33.99V47.219a1.886,1.886,0,0,0,.639,1.415l10.611,9.36v3.456a2.682,2.682,0,0,0,2.682,2.682H34.776a2.682,2.682,0,0,0,2.682-2.682V57.6l5.8-11.292a1.886,1.886,0,0,0,.209-.853s.083-16.091.083-17.239a6.156,6.156,0,0,0-9.341-5.267,6.157,6.157,0,0,0-8.789-1.965,6.152,6.152,0,0,0-5.059-2.65h0a6.134,6.134,0,0,0-2.385.479l0-.094V6.155A6.155,6.155,0,0,0,11.826,0h0A6.155,6.155,0,0,0,5.671,6.155ZM14.2,28.039s.01-16.272.01-21.884a2.382,2.382,0,0,0-2.382-2.382h0A2.382,2.382,0,0,0,9.444,6.155V41.314A1.886,1.886,0,0,1,7.557,43.2h0a1.886,1.886,0,0,1-1.886-1.886V33.62l-1.9,1.345v11.4L14.115,55.49a2.681,2.681,0,0,1,.908,2.011v2.857H33.685V57.334a2.682,2.682,0,0,1,.3-1.226L39.7,44.983c.013-2.614.081-15.736.081-16.768a2.383,2.383,0,0,0-4.707-.524l-.013.355,0,.1v.133h-.005c-.005.135-.01.241-.013.26a1.887,1.887,0,0,1-3.755-.26V26.061a2.382,2.382,0,0,0-4.765,0V28.19a1.886,1.886,0,0,1-1.886,1.886h0a1.886,1.886,0,0,1-1.886-1.886v-3.7a2.382,2.382,0,0,0-2.382-2.382h0a2.382,2.382,0,0,0-2.382,2.382v.386l0,.061v-.018s0,.032,0,.063l-.009,1.579v1.48h-.01l0,.212a1.887,1.887,0,0,1-3.761-.211" transform="translate(0 0)" fill="#323232" fill-rule="evenodd"/>
      </g>
    </g>
  </g>
</svg>
