<svg xmlns="http://www.w3.org/2000/svg" width="33.648" height="69.997" viewBox="0 0 33.648 69.997">
  <g id="定規のアイコン素材" transform="translate(-132.94 0)">
    <path id="パス_1814" data-name="パス 1814" d="M163.733.041,135.9,0a2.862,2.862,0,0,0-2.862,2.854l-.093,64.24a2.862,2.862,0,0,0,2.854,2.862L163.632,70a2.862,2.862,0,0,0,2.863-2.854l.093-64.24A2.862,2.862,0,0,0,163.733.041ZM162.7,3.926l-.09,62.184-25.674-.037h-.107l.09-62.184,25.671.037h.11Z" transform="translate(0 0)" fill="#008763"/>
    <path id="パス_1815" data-name="パス 1815" d="M254.929,61.694l0-2.9v0h0v-.011l-11.079-.016h-.094l0,2.9v0h0v.011Z" transform="translate(-95.665 -50.729)" fill="#008763"/>
    <path id="パス_1816" data-name="パス 1816" d="M275.662,114.992v.022h0v.011l6.8.01,0-2.915-6.8-.01Z" transform="translate(-123.21 -96.783)" fill="#008763"/>
    <path id="パス_1817" data-name="パス 1817" d="M275.65,165.413h-.062l0,2.9v0h0v.011l6.8.01,0-2.9v0h0v-.011Z" transform="translate(-123.143 -142.798)" fill="#008763"/>
    <path id="パス_1818" data-name="パス 1818" d="M254.7,221.6l0-2.915-11.146-.016h-.027l0,2.9v0h0v.011Z" transform="translate(-95.466 -188.775)" fill="#008763"/>
    <path id="パス_1819" data-name="パス 1819" d="M275.432,272.018l0,2.9v0h0v.011l6.8.01,0-2.9v0h0v-.011Z" transform="translate(-123.008 -234.83)" fill="#008763"/>
    <path id="パス_1820" data-name="パス 1820" d="M275.416,325.32h-.062l0,2.9v0h0v.011l6.8.01,0-2.9v0h0v-.011Z" transform="translate(-122.941 -280.844)" fill="#008763"/>
    <path id="パス_1821" data-name="パス 1821" d="M243.291,381.482v.011l11.174.017,0-2.9v0h0v-.011l-11.147-.016H243.3l0,2.882Z" transform="translate(-95.265 -326.821)" fill="#008763"/>
    <path id="パス_1822" data-name="パス 1822" d="M275.305,431.927h-.1l0,2.9v0h0v.011l6.8.01,0-2.9v0h0v-.011Z" transform="translate(-122.81 -372.876)" fill="#008763"/>
  </g>
</svg>
