<svg xmlns="http://www.w3.org/2000/svg" width="40" height="40" viewBox="0 0 40 40">
  <g id="グループ_1863" data-name="グループ 1863" transform="translate(-663.291 -305.291)">
    <circle id="楕円形_8" data-name="楕円形 8" cx="20" cy="20" r="20" transform="translate(663.291 305.291)" fill="#008763"/>
    <g id="camera" transform="translate(671.291 315.291)">
      <path id="パス_585" data-name="パス 585" d="M173.218,198.494a4.144,4.144,0,0,0-2.956,1.235,4.255,4.255,0,0,0,0,5.98,4.151,4.151,0,0,0,5.911,0,4.255,4.255,0,0,0,0-5.98A4.144,4.144,0,0,0,173.218,198.494Zm0,6.831a2.605,2.605,0,1,1,2.582-2.605A2.593,2.593,0,0,1,173.218,205.325Z" transform="translate(-161.125 -191.306)" fill="#fff"/>
      <path id="パス_586" data-name="パス 586" d="M23.467,48.637a2.452,2.452,0,0,0-1.742-.728H19.06a.555.555,0,0,1-.507-.335l-.8-1.787a2.461,2.461,0,0,0-2.247-1.461H8.678a2.464,2.464,0,0,0-2.247,1.461l-.8,1.787a.556.556,0,0,1-.507.335H2.462A2.468,2.468,0,0,0,0,50.384V61.85A2.48,2.48,0,0,0,.718,63.6a2.454,2.454,0,0,0,1.744.727H21.724a2.448,2.448,0,0,0,1.742-.727,2.473,2.473,0,0,0,.719-1.747V50.384A2.473,2.473,0,0,0,23.467,48.637ZM16.035,59.726a5.54,5.54,0,0,1-7.885,0,5.645,5.645,0,0,1,0-7.936,5.543,5.543,0,0,1,7.885,0,5.644,5.644,0,0,1,0,7.936Zm5.787-7.359H20.132V50.675h1.691Z" transform="translate(0 -44.326)" fill="#fff"/>
    </g>
  </g>
</svg>
