<svg xmlns="http://www.w3.org/2000/svg" width="25.005" height="25.005" viewBox="0 0 25.005 25.005">
  <g id="scan-search" transform="translate(-2 -2)">
    <path id="パス_2399" data-name="パス 2399" d="M3.25,9.5A1.25,1.25,0,0,1,2,8.251v-2.5A3.751,3.751,0,0,1,5.751,2h2.5a1.25,1.25,0,0,1,0,2.5h-2.5A1.25,1.25,0,0,0,4.5,5.751v2.5A1.25,1.25,0,0,1,3.25,9.5Z" fill="#fff"/>
    <path id="パス_2400" data-name="パス 2400" d="M22.251,9.5A1.25,1.25,0,0,1,21,8.251v-2.5a1.252,1.252,0,0,0-1.25-1.25h-2.5a1.25,1.25,0,1,1,0-2.5h2.5A3.755,3.755,0,0,1,23.5,5.751v2.5A1.25,1.25,0,0,1,22.251,9.5Z" transform="translate(3.503)" fill="#fff"/>
    <path id="パス_2401" data-name="パス 2401" d="M19.751,23.5h-2.5a1.25,1.25,0,0,1,0-2.5h2.5A1.252,1.252,0,0,0,21,19.751v-2.5a1.25,1.25,0,0,1,2.5,0v2.5A3.755,3.755,0,0,1,19.751,23.5Z" transform="translate(3.503 3.503)" fill="#fff"/>
    <path id="パス_2402" data-name="パス 2402" d="M8.251,23.5h-2.5A3.755,3.755,0,0,1,2,19.751v-2.5a1.25,1.25,0,1,1,2.5,0v2.5A1.252,1.252,0,0,0,5.751,21h2.5a1.25,1.25,0,0,1,0,2.5Z" transform="translate(0 3.503)" fill="#fff"/>
    <path id="楕円形_278" data-name="楕円形 278" d="M4-1A5,5,0,1,1-1,4,5.007,5.007,0,0,1,4-1ZM4,6.5A2.5,2.5,0,1,0,1.5,4,2.5,2.5,0,0,0,4,6.5Z" transform="translate(10.501 10.501)" fill="#fff"/>
    <path id="パス_2403" data-name="パス 2403" d="M16.726,17.976a1.246,1.246,0,0,1-.884-.366l-2.375-2.375a1.25,1.25,0,0,1,1.768-1.768l2.375,2.375a1.25,1.25,0,0,1-.884,2.134Z" transform="translate(2.778 2.778)" fill="#fff"/>
  </g>
</svg>
