<svg xmlns="http://www.w3.org/2000/svg" xmlns:xlink="http://www.w3.org/1999/xlink" width="11" height="11" viewBox="0 0 11 11">
  <defs>
    <clipPath id="clip-path">
      <rect id="長方形_2072" data-name="長方形 2072" width="11" height="11" transform="translate(0 -0.393)" fill="#008763"/>
    </clipPath>
  </defs>
  <g id="グループ_3921" data-name="グループ 3921" transform="translate(0 0.393)">
    <g id="グループ_3746" data-name="グループ 3746" clip-path="url(#clip-path)">
      <path id="パス_2426" data-name="パス 2426" d="M4.772,10.606a1.061,1.061,0,0,1,0-2.121H6.628a1.856,1.856,0,1,0,0-3.712H3.62l.841.841a1.06,1.06,0,1,1-1.5,1.5L.31,4.463a1.064,1.064,0,0,1,0-1.5L2.961.311a1.06,1.06,0,1,1,1.5,1.5l-.841.841H6.628a3.977,3.977,0,0,1,0,7.955Z" transform="translate(0)" fill="#008763"/>
      <path id="パス_2427" data-name="パス 2427" d="M7.1,3.651H2.809L4.555,1.905a.53.53,0,0,0-.75-.75L1.154,3.807a.532.532,0,0,0,0,.75L3.806,7.208a.53.53,0,0,0,.75-.75L2.809,4.712H7.1a2.386,2.386,0,0,1,0,4.773H5.241a.53.53,0,0,0,0,1.061H7.1a3.447,3.447,0,0,0,0-6.894" transform="translate(-0.469 -0.47)" fill="#008763"/>
    </g>
  </g>
</svg>
