<svg xmlns="http://www.w3.org/2000/svg" width="30" height="30" viewBox="0 0 30 30">
  <g id="グループ_3877" data-name="グループ 3877" transform="translate(-170 -327.395)">
    <g id="楕円形_333" data-name="楕円形 333" transform="translate(170 327.395)" fill="#fff" stroke="#008763" stroke-width="1">
      <circle cx="15" cy="15" r="15" stroke="none"/>
      <circle cx="15" cy="15" r="14.5" fill="none"/>
    </g>
    <g id="stethoscope" transform="translate(175.009 332.414)">
      <path id="パス_2439" data-name="パス 2439" d="M6.722,13.257A5.728,5.728,0,0,1,1,7.536V3.449A2.455,2.455,0,0,1,3.452,1h.727a1.063,1.063,0,1,1-.715,1.635H3.452a.818.818,0,0,0-.817.817V7.536a4.087,4.087,0,0,0,8.174,0V3.449A.818.818,0,0,0,10,2.632L10,2.637a.991.991,0,0,1-1.4-1.4A.817.817,0,0,1,9.174,1h.817a2.455,2.455,0,0,1,2.452,2.452V7.536a5.722,5.722,0,0,1-5.722,5.722Z" fill="#008763"/>
      <path id="パス_2440" data-name="パス 2440" d="M12.722,20.808A5.728,5.728,0,0,1,7,15.087v-.817a.817.817,0,0,1,1.635,0v.817a4.087,4.087,0,0,0,8.174,0V11.817a.817.817,0,1,1,1.635,0v3.269A5.728,5.728,0,0,1,12.722,20.808Z" transform="translate(-1.096 -1.829)" fill="#008763"/>
      <path id="楕円形_334" data-name="楕円形 334" d="M1.452-1A2.452,2.452,0,1,1-1,1.452,2.455,2.455,0,0,1,1.452-1Zm0,3.269a.817.817,0,1,0-.817-.817A.818.818,0,0,0,1.452,2.269Z" transform="translate(15.078 6.901)" fill="#008763"/>
    </g>
  </g>
</svg>
