<svg xmlns="http://www.w3.org/2000/svg" width="12.72" height="13.992" viewBox="0 0 12.72 13.992">
  <g id="trash-2" transform="translate(-2 -1)">
    <path id="パス_2255" data-name="パス 2255" d="M14.084,6.272H2.636A.636.636,0,1,1,2.636,5H14.084a.636.636,0,0,1,0,1.272Z" transform="translate(0 -1.456)" fill="red"/>
    <path id="パス_2256" data-name="パス 2256" d="M12.268,16.448H5.908A2,2,0,0,1,4,14.54v-8.9a.636.636,0,1,1,1.272,0v8.9a.744.744,0,0,0,.636.636h6.36a.744.744,0,0,0,.636-.636v-8.9a.636.636,0,1,1,1.272,0v8.9a2,2,0,0,1-1.908,1.908Z" transform="translate(-0.728 -1.456)" fill="red"/>
    <path id="パス_2257" data-name="パス 2257" d="M12.724,4.816a.636.636,0,0,1-.636-.636V2.908a.744.744,0,0,0-.636-.636H8.908a.744.744,0,0,0-.636.636V4.18A.636.636,0,0,1,7,4.18V2.908a1.909,1.909,0,0,1,.584-1.324A1.909,1.909,0,0,1,8.908,1h2.544a1.909,1.909,0,0,1,1.324.584,1.909,1.909,0,0,1,.584,1.324V4.18A.636.636,0,0,1,12.724,4.816Z" transform="translate(-1.82 0)" fill="red"/>
    <path id="線_1" data-name="線 1" d="M-.364,4.088A.636.636,0,0,1-1,3.452V-.364A.636.636,0,0,1-.364-1a.636.636,0,0,1,.636.636V3.452A.636.636,0,0,1-.364,4.088Z" transform="translate(7.452 7.724)" fill="red"/>
    <path id="線_2" data-name="線 2" d="M-.364,4.088A.636.636,0,0,1-1,3.452V-.364A.636.636,0,0,1-.364-1a.636.636,0,0,1,.636.636V3.452A.636.636,0,0,1-.364,4.088Z" transform="translate(9.996 7.724)" fill="red"/>
  </g>
</svg>
