<svg xmlns="http://www.w3.org/2000/svg" width="18" height="20" viewBox="0 0 18 20">
  <g id="グループ_3660" data-name="グループ 3660" transform="translate(45 -92)">
    <path id="パス_2389" data-name="パス 2389" d="M443.583,268.833a1.266,1.266,0,0,1-.83-.307l-8.759-7.605a1.169,1.169,0,0,1-.093-1.692,1.275,1.275,0,0,1,1.753-.09l7.928,6.884,7.928-6.884a1.275,1.275,0,0,1,1.753.09,1.169,1.169,0,0,1-.093,1.692l-8.759,7.605A1.266,1.266,0,0,1,443.583,268.833Z" transform="translate(231.833 -341.583) rotate(90)" fill="#fff"/>
    <path id="パス_2390" data-name="パス 2390" d="M443.583,268.833a1.266,1.266,0,0,1-.83-.307l-8.759-7.605a1.169,1.169,0,0,1-.093-1.692,1.275,1.275,0,0,1,1.753-.09l7.928,6.884,7.928-6.884a1.275,1.275,0,0,1,1.753.09,1.169,1.169,0,0,1-.093,1.692l-8.759,7.605A1.266,1.266,0,0,1,443.583,268.833Z" transform="translate(-303.833 545.583) rotate(-90)" fill="#fff"/>
  </g>
</svg>
