<svg xmlns="http://www.w3.org/2000/svg" width="18.329" height="14.996" viewBox="0 0 18.329 14.996">
  <g id="camera" transform="translate(-1 -3)">
    <path id="パス_2425" data-name="パス 2425" d="M8.082,3h4.166a.833.833,0,0,1,.64.3L14.72,5.5h2.109a2.5,2.5,0,0,1,2.5,2.5v7.5a2.5,2.5,0,0,1-2.5,2.5H3.5A2.5,2.5,0,0,1,1,15.5V8A2.5,2.5,0,0,1,3.5,5.5H5.609L7.442,3.3A.833.833,0,0,1,8.082,3Zm3.775,1.666H8.472l-1.833,2.2a.833.833,0,0,1-.64.3H3.5A.834.834,0,0,0,2.666,8v7.5a.834.834,0,0,0,.833.833h13.33a.834.834,0,0,0,.833-.833V8a.834.834,0,0,0-.833-.833h-2.5a.833.833,0,0,1-.64-.3Z" transform="translate(0)" fill="#008763"/>
    <path id="楕円形_224" data-name="楕円形 224" d="M2.333-1A3.333,3.333,0,1,1-1,2.333,3.336,3.336,0,0,1,2.333-1Zm0,5A1.666,1.666,0,1,0,.666,2.333,1.668,1.668,0,0,0,2.333,4Z" transform="translate(7.832 8.999)" fill="#008763"/>
  </g>
</svg>
