<svg xmlns="http://www.w3.org/2000/svg" width="17.372" height="15.003" viewBox="0 0 17.372 15.003">
  <path id="folder" d="M16,17H3.369A2.372,2.372,0,0,1,1,14.634V4.369A2.372,2.372,0,0,1,3.369,2h3.1A2.363,2.363,0,0,1,8.448,3.062l.637.944.005.008a.787.787,0,0,0,.659.355H16a2.372,2.372,0,0,1,2.369,2.369v7.9A2.372,2.372,0,0,1,16,17ZM3.369,3.579a.791.791,0,0,0-.79.79V14.634a.791.791,0,0,0,.79.79H16a.791.791,0,0,0,.79-.79v-7.9a.791.791,0,0,0-.79-.79H9.749A2.362,2.362,0,0,1,7.773,4.886l-.637-.944,0-.007a.787.787,0,0,0-.659-.355Z" transform="translate(-1 -2)" fill="#008763"/>
</svg>
