<svg xmlns="http://www.w3.org/2000/svg" width="30" height="30" viewBox="0 0 30 30">
  <g id="グループ_3877" data-name="グループ 3877" transform="translate(-170 -327.395)">
    <g id="楕円形_333" data-name="楕円形 333" transform="translate(170 327.395)" fill="#fff" stroke="#008763" stroke-width="1">
      <circle cx="15" cy="15" r="15" stroke="none"/>
      <circle cx="15" cy="15" r="14.5" fill="none"/>
    </g>
    <g id="グループ_3822" data-name="グループ 3822" transform="translate(176 333.395)">
      <path id="パス_2413" data-name="パス 2413" d="M-1082.593,807.172l-.511-2.9,1.239-1.97,3.885-3.526,4.164,2.793,1.125,1.486,3.423.318,1.937.9.734,1.392V809.4l-1.173,1.352-1.7.87h-2.063s-1.456-.082-1.623-.126-1.527-.745-1.527-.745l-.782-.771-.431-1.336v-1.716h-.647l-1.433,1.528-1.53.188-1.352-.188-1-.453Z" transform="translate(1083.642 -794.113)" fill="#fff"/>
      <g id="薬の無料アイコン9">
        <path id="パス_1786" data-name="パス 1786" d="M8.174,8.122,15.19,1.185l0,0a4.058,4.058,0,1,1,5.738,5.738L19.271,8.565c.05,0,.1,0,.15,0a6.677,6.677,0,0,1,3.514.92,3.7,3.7,0,0,1,1.119,1.047,2.428,2.428,0,0,1,.436,1.366v2.767a2.429,2.429,0,0,1-.436,1.366,4.185,4.185,0,0,1-1.867,1.435A7.156,7.156,0,0,1,19.421,18a6.689,6.689,0,0,1-3.512-.921,3.692,3.692,0,0,1-1.121-1.047,2.438,2.438,0,0,1-.435-1.366V13.427l-.441.437,0,0A4.058,4.058,0,1,1,8.174,8.122ZM23.686,11.9a1.634,1.634,0,0,0-.3-.916,2.825,2.825,0,0,0-.75-.728l-6.162,3.606a4.765,4.765,0,0,0,.445.216,6.446,6.446,0,0,0,2.5.478,6.012,6.012,0,0,0,3.155-.815,3.049,3.049,0,0,0,.918-.854,2.058,2.058,0,0,0,.192-.354V11.9Zm-8.528,2.767a1.623,1.623,0,0,0,.3.916,3.413,3.413,0,0,0,1.514,1.144,6.334,6.334,0,0,0,2.451.469,5.9,5.9,0,0,0,3.086-.8,2.93,2.93,0,0,0,.881-.815,1.633,1.633,0,0,0,.3-.916V13.52a4.372,4.372,0,0,1-1.548,1.056,7,7,0,0,1-2.717.522,6.546,6.546,0,0,1-3.445-.9,3.772,3.772,0,0,1-.818-.676Zm0-2.134a.672.672,0,0,0,.032.071,1.894,1.894,0,0,0,.16.283,2.717,2.717,0,0,0,.533.573l6.1-3.569c-.037-.016-.073-.036-.11-.05a6.337,6.337,0,0,0-2.453-.469,6.82,6.82,0,0,0-1.044.079,5.412,5.412,0,0,0-2.041.716c-.066.04-.129.084-.188.128a2.734,2.734,0,0,0-.685.678.045.045,0,0,0-.008.009,1.625,1.625,0,0,0-.3.916v.633Zm-6.3.649a3.093,3.093,0,0,0,4.373,0l0,0,1.121-1.108V11.9a2.437,2.437,0,0,1,.435-1.366,3.948,3.948,0,0,1,1.477-1.25,5.673,5.673,0,0,0-.3-.646,5.992,5.992,0,0,0-1.532-1.872,4.4,4.4,0,0,0-2.53-.971L8.859,8.8h0a3.093,3.093,0,0,0,0,4.373Z" transform="translate(-6.986 0)" fill="#008763"/>
      </g>
    </g>
  </g>
</svg>
