<svg xmlns="http://www.w3.org/2000/svg" width="17.004" height="17" viewBox="0 0 17.004 17">
  <path id="iconmonstr-pencil-line-lined" d="M12.45,18.16l9.986-9.987a1.074,1.074,0,0,0,.305-.749,1.008,1.008,0,0,0-.306-.725L19.026,3.3a1.044,1.044,0,0,0-1.471,0L7.548,13.266c-.623,1.93-1.7,5.279-1.78,5.561a.948.948,0,0,0-.032.245A.9.9,0,0,0,6.574,20c.559,0,1.085-.207,5.876-1.84ZM8.871,14.5l2.339,2.339L7.743,17.986Zm1.045-1.276L18.29,4.891l2.556,2.547L12.488,15.8Z" transform="translate(-5.737 -3)" fill="#008763"/>
</svg>
