<svg xmlns="http://www.w3.org/2000/svg" width="11.454" height="13.999" viewBox="0 0 11.454 13.999">
  <g id="notebook-text" transform="translate(-3 -1)">
    <path id="長方形_2183" data-name="長方形 2183" d="M.909-1H8.545A1.911,1.911,0,0,1,10.454.909V11.09A1.911,1.911,0,0,1,8.545,13H.909A1.911,1.911,0,0,1-1,11.09V.909A1.911,1.911,0,0,1,.909-1ZM8.545,11.726a.637.637,0,0,0,.636-.636V.909A.637.637,0,0,0,8.545.273H.909A.637.637,0,0,0,.273.909V11.09a.637.637,0,0,0,.636.636Z" transform="translate(4 2)" fill="#008763"/>
    <g id="グループ_3926" data-name="グループ 3926" transform="translate(6.182 4.818)">
      <path id="パス_2443" data-name="パス 2443" d="M12.318,8.273H9.136A.636.636,0,1,1,9.136,7h3.182a.636.636,0,1,1,0,1.273Z" transform="translate(-8.5 -7)" fill="#008763"/>
      <path id="パス_2444" data-name="パス 2444" d="M13.272,12.273H9.136a.636.636,0,0,1,0-1.273h4.136a.636.636,0,1,1,0,1.273Z" transform="translate(-8.5 -8.455)" fill="#008763"/>
      <path id="パス_2445" data-name="パス 2445" d="M12,16.273H9.136a.636.636,0,0,1,0-1.273H12a.636.636,0,0,1,0,1.273Z" transform="translate(-8.5 -9.91)" fill="#008763"/>
    </g>
  </g>
</svg>
