<svg xmlns="http://www.w3.org/2000/svg" width="20.31" height="18" viewBox="0 0 20.31 18">
  <g id="グループ_3564" data-name="グループ 3564" transform="translate(-68.353 -268.923)">
    <path id="パス_2386" data-name="パス 2386" d="M12.048,5.96a2.089,2.089,0,0,1,3.609,0L23.72,19.781a2.089,2.089,0,0,1-1.8,3.142H5.79a2.089,2.089,0,0,1-1.8-3.142Z" transform="translate(64.655 264)" fill="red"/>
    <path id="パス_2421" data-name="パス 2421" d="M355.839,197.085a.982.982,0,1,1-.982.982.982.982,0,0,1,.982-.982m1.131-6.872a1.133,1.133,0,0,0-1.131-1.193h0a1.133,1.133,0,0,0-1.131,1.193l.289,5.421a.843.843,0,0,0,.842.8h0a.843.843,0,0,0,.842-.8Z" transform="translate(-277.353 85.368)" fill="#fff" fill-rule="evenodd"/>
  </g>
</svg>
