<svg xmlns="http://www.w3.org/2000/svg" xmlns:xlink="http://www.w3.org/1999/xlink" width="350" height="250.271" viewBox="0 0 350 250.271">
  <defs>
    <clipPath id="clip-path">
      <rect id="長方形_1879" data-name="長方形 1879" width="137.804" height="180.002" fill="none"/>
    </clipPath>
    <clipPath id="clip-path-2">
      <rect id="長方形_1888" data-name="長方形 1888" width="56.918" height="42" fill="none"/>
    </clipPath>
    <clipPath id="clip-path-3">
      <rect id="長方形_1895" data-name="長方形 1895" width="45" height="57.596" fill="none"/>
    </clipPath>
    <clipPath id="clip-path-4">
      <rect id="長方形_1897" data-name="長方形 1897" width="61.064" height="45" fill="none"/>
    </clipPath>
    <clipPath id="clip-path-5">
      <rect id="長方形_1898" data-name="長方形 1898" width="42" height="65.222" fill="none"/>
    </clipPath>
    <clipPath id="clip-path-6">
      <rect id="長方形_1899" data-name="長方形 1899" width="45" height="25.664" fill="none"/>
    </clipPath>
    <clipPath id="clip-path-8">
      <rect id="長方形_2013" data-name="長方形 2013" width="62" height="70.464" fill="none"/>
    </clipPath>
  </defs>
  <g id="グループ_3676" data-name="グループ 3676" transform="translate(-20 -110)">
    <circle id="楕円形_204" data-name="楕円形 204" cx="125" cy="125" r="125" transform="translate(70 110)" fill="#fef6d3"/>
    <g id="グループ_3447" data-name="グループ 3447" transform="translate(8 60)">
      <path id="パス_2167" data-name="パス 2167" d="M609.482,299.351,610.63,268.1l3.233-27.2,5.289-7,12.976-8.287,9.944-5.088,4.139-1.821,2.636-3.145,18.474,4.966,14.169,24.813,4.889-11.438,5.58-12.329,15.854-6.662,11.545,6.662,11.921,8.12,7.8,5.762,3.419,16.189,2.516,38.233v10.181H609.482Z" transform="translate(-490.148 -10.491)" fill="#eec37f"/>
      <g id="グループ_3428" data-name="グループ 3428" transform="translate(118 110)">
        <g id="グループ_3419" data-name="グループ 3419" clip-path="url(#clip-path)">
          <path id="パス_1968" data-name="パス 1968" d="M229.888,329.165a20.69,20.69,0,0,1-1.419-4.957c-7.164,6.488-19.11,7.061-27.245,2.041a20.741,20.741,0,0,1-2.477-1.8c-.125,4.774-1.566,9.221-5.545,12.191-.018.013-.035.023-.053.035l2.048.657,5.813,1.865c.865.277,2.343.478,2.971,1.2a11.342,11.342,0,0,1,1.1,1.9l2.552,4.542,8.937,15.908,2.738-6.438,5.073-11.928c.437-1.026.808-2.125,1.325-3.115.385-.737,1.25-.948,1.985-1.248l8.62-3.524a1.331,1.331,0,0,1-.341-.18,17.733,17.733,0,0,1-6.078-7.155" transform="translate(-143.281 -240.502)" fill="#ffeeda"/>
          <path id="パス_1969" data-name="パス 1969" d="M173.582,177.672a1.29,1.29,0,0,1-.582.038l-.176.278a5.918,5.918,0,0,1,.754.046l.155-.409c-.05.015-.1.033-.15.047" transform="translate(-128.202 -131.765)" fill="#ffc832"/>
          <path id="パス_1970" data-name="パス 1970" d="M205.783,55.831c-3.477-11.994-5.756-25.028-13.151-35.4-3.295-4.62-7.911-8.765-13.575-10.053-5.186-1.179-10.992.184-14.414,4.418-1.045,1.293-2.861-.545-1.826-1.826.087-.108.178-.212.269-.317-1.048.76-2.16,1.457-3.25,2.175,1.514.594.841,3.06-.709,2.48a6.9,6.9,0,0,0-2.084-.442,13.355,13.355,0,0,0-1.715,1.718,13.355,13.355,0,0,1,1.715-1.718c-3.072-.152-5.623,1.962-7.647,4.434a59.087,59.087,0,0,0-5.259,8.327c-2.5,4.387-5.239,8.766-7.117,13.469a23.369,23.369,0,0,0-1.32,14.664,13.043,13.043,0,0,0,4.147,6.7,11.561,11.561,0,0,1-.423-3.445c.1-3.481,1.678-7.374,5.382-7.4l.176-.278a1.315,1.315,0,0,1-.1-2.528c6.015-1.726,8.81-7.691,10.1-13.347a1.158,1.158,0,0,1,1.539-.866,1.309,1.309,0,0,1,1.206-1.082c4.894-.39,12.281-3.038,13.08-8.708.231-1.641,2.719-.939,2.49.687-.584,4.145-3.977,6.977-7.881,8.675a15.748,15.748,0,0,0,4.658.354,1.2,1.2,0,0,1,.808-1.712c2.124-.518,4.464-1.17,6.1-2.708a6.283,6.283,0,0,0,1.827-4.7,1.292,1.292,0,0,1,2.582,0,8.338,8.338,0,0,1-3.078,6.958c1.31-.554,2.6-1.18,3.873-1.843a.467.467,0,0,1,.506.029q-.108-.45-.212-.9c-.372-1.62,2.118-2.3,2.489-.686a41.425,41.425,0,0,0,4.383,12.022c1.925,3.241,4.338,6.162,5.942,9.6,2.827,6.053,3.272,15.618-3.55,19.265a1.224,1.224,0,0,1-1.326-.064,4.537,4.537,0,0,0,.988,2.215,1.265,1.265,0,0,1,1.89-.095,11.905,11.905,0,0,0,7.149-5.71c1.455-2.7,2.225-6.427.661-9.239-.809-1.455,1.422-2.755,2.229-1.3,1.98,3.561,1.268,8.028-.5,11.531-.086.17-.179.336-.272.5a7.562,7.562,0,0,0,3.79-4.721c1.044-3.208.34-6.007-.568-9.138" transform="translate(-100.185 -7.399)" fill="#7e7e7e"/>
          <path id="パス_1971" data-name="パス 1971" d="M210.394,134.249c3.246-1.736,4.264-5.471,4.23-8.923a16.336,16.336,0,0,0-1.332-6.126,1.236,1.236,0,0,1-.523.229l-2.977.6c-.734,3.847-2.778,7.775-6.948,8.494-2.737.472-6.173-.067-8.141-2.2a13.341,13.341,0,0,1-2.8-5.594h-1.237c-.575,4.926-5.624,8.266-10.483,8.033a9.2,9.2,0,0,1-5.7-2.223,9.684,9.684,0,0,1-2.93-5.81h-3.377a1.292,1.292,0,0,1,0-2.582h4.5a1.32,1.32,0,0,1,1.291,1.291c.325,3.555,2.435,6.567,6.215,6.742,3.905.18,8.133-2.482,7.951-6.742a1.3,1.3,0,0,1,1.291-1.291h3.5a1.3,1.3,0,0,1,1.245.948,12.82,12.82,0,0,0,2.141,5.136c1.354,1.751,4.112,2.144,6.165,1.743s3.236-1.917,4-3.781a15.324,15.324,0,0,0,.735-2.408c.063-.278.112-.558.167-.838.014-.072.036-.223.045-.291.007-.051.005-.04,0,0s-.017.129-.037.281a1.325,1.325,0,0,1,.948-1.245l3.75-.75c.04-.008.078-.013.117-.018-.139-.257-.282-.513-.429-.767-1.789-3.075-4.077-5.848-5.675-9.033a46.078,46.078,0,0,1-3.451-9.943.467.467,0,0,0-.506-.029c-1.27.663-2.564,1.289-3.873,1.843a16.786,16.786,0,0,1-6.744,2.937,1.243,1.243,0,0,1-1.495-.778,15.75,15.75,0,0,1-4.658-.354,24.822,24.822,0,0,1-7.689,1.928,1.408,1.408,0,0,1-.246,0c0,.018-.005.036-.01.054-1.485,6.525-4.946,13.069-11.75,15.1l-.155.409c.11.014.222.03.336.05,1.635.294.938,2.782-.686,2.49-2.771-.5-3.241,3.457-3.206,5.387a8.471,8.471,0,0,0,1.7,4.972,3.637,3.637,0,0,1,4.508,1.615,1.241,1.241,0,0,1,1.014,1.209,39.165,39.165,0,0,0,2.035,11.156,19.638,19.638,0,0,0,9.456,11.1,22.464,22.464,0,0,0,15.534,1.509,17.158,17.158,0,0,0,8.738-5.448,1.052,1.052,0,0,1,.868-1.009q.488-.6.957-1.233a21.729,21.729,0,0,0,2.8-4.522,32.7,32.7,0,0,0,1.608-6.475,1.256,1.256,0,0,1,.178-.46,4.536,4.536,0,0,1-.989-2.215,1.247,1.247,0,0,1,.022-2.165m-9.657-15.265a1.377,1.377,0,1,1-1.377,1.377,1.4,1.4,0,0,1,1.377-1.377m-20.219,0a1.377,1.377,0,1,1-1.377,1.377,1.4,1.4,0,0,1,1.377-1.377m7.31,11.655a12.517,12.517,0,0,1,1.856-2.945,3.737,3.737,0,0,0,.453-2.76c-.172-1.654,2.412-1.636,2.582,0a6.275,6.275,0,0,1-.2,2.909,13.35,13.35,0,0,1-1.353,2.311,6.553,6.553,0,0,1-.557.847,2.569,2.569,0,0,0-.173.218,5.412,5.412,0,0,0,.563.746c.414.5.861.969,1.318,1.425a1.292,1.292,0,0,1-1.825,1.826c-1.084-1.083-3.109-2.858-2.666-4.577m9.416,12.927c-2.916,3.115-9.442,2.808-12.263-.236-1.129-1.218.694-3.047,1.826-1.826,1.89,2.04,6.629,2.354,8.612.236,1.138-1.216,2.96.613,1.826,1.826m4.885-.762a1.3,1.3,0,0,1-1.766.463l-2.206-1.471a1.291,1.291,0,0,1,1.3-2.229l2.206,1.471a1.315,1.315,0,0,1,.463,1.766" transform="translate(-120.145 -72.023)" fill="#ffeeda"/>
          <path id="パス_1972" data-name="パス 1972" d="M365.535,369.163l-.128-.089a1.535,1.535,0,0,1-.094.18l.223-.091" transform="translate(-270.994 -273.784)" fill="#fff"/>
          <path id="パス_1973" data-name="パス 1973" d="M231.251,183.266a1.377,1.377,0,1,0-1.377,1.377,1.4,1.4,0,0,0,1.377-1.377" transform="translate(-169.501 -134.928)" fill="#363636"/>
          <path id="パス_1974" data-name="パス 1974" d="M308.184,181.889a1.377,1.377,0,1,0,1.377,1.377,1.393,1.393,0,0,0-1.377-1.377" transform="translate(-227.593 -134.928)" fill="#363636"/>
          <path id="パス_1975" data-name="パス 1975" d="M171.465,239.466a1.165,1.165,0,0,0-2.33,0,1.165,1.165,0,0,0,2.33,0" transform="translate(-125.467 -176.804)" fill="#fff"/>
          <path id="パス_1976" data-name="パス 1976" d="M277.7,497.934c-.695,13.021-.619,26.085-.96,39.118-.08,3.055-.168,6.111-.331,9.163-.089,1.66,2.494,1.655,2.582,0,.695-13.021.619-26.085.96-39.118.08-3.055.168-6.111.331-9.163.089-1.66-2.494-1.655-2.582,0" transform="translate(-205.043 -368.452)" fill="#323232"/>
          <path id="パス_1977" data-name="パス 1977" d="M32.9,383.126a137.457,137.457,0,0,0-15.667,8.456A45.681,45.681,0,0,0,7.871,398.8,15.375,15.375,0,0,0,4.4,405.383c-1.874,6.67-2.432,13.78-2.987,20.659-.637,7.891-.983,15.806-1.2,23.719C.1,454.128.006,458.5,0,462.865a1.292,1.292,0,0,0,2.582,0c.014-10.951.377-21.926,1.122-32.851A146.519,146.519,0,0,1,6.3,408.472a19.4,19.4,0,0,1,2.18-6.32c1.872-2.908,5.106-5.064,7.924-6.954a128.256,128.256,0,0,1,17.8-9.843c1.508-.694.2-2.92-1.3-2.229" transform="translate(0 -284.11)" fill="#323232"/>
          <path id="パス_1978" data-name="パス 1978" d="M191,318.857c0,4.013-.889,8.133-4.276,10.661-1.316.982-.03,3.225,1.3,2.229,4.173-3.114,5.556-7.853,5.555-12.89a1.292,1.292,0,0,0-2.582,0" transform="translate(-138.105 -235.608)" fill="#323232"/>
          <path id="パス_1979" data-name="パス 1979" d="M411.981,381.027a76.684,76.684,0,0,1,7.807,4.47,110.529,110.529,0,0,1,9.874,6.8c2.132,1.68,4.452,3.463,5.557,6.013a36.27,36.27,0,0,1,2.058,7.3,155.712,155.712,0,0,1,2.363,21.36c.414,7.114.6,14.241.658,21.366.03,3.77.036,7.542-.04,11.311a1.292,1.292,0,0,0,2.582,0c.207-10.2.023-20.44-.506-30.631a182.811,182.811,0,0,0-2.26-22.456,46.439,46.439,0,0,0-2.056-8.159,14.914,14.914,0,0,0-4.441-6.2,89.663,89.663,0,0,0-11.076-8.046,83.437,83.437,0,0,0-9.218-5.363c-1.494-.7-2.806,1.52-1.3,2.229" transform="translate(-305.12 -280.897)" fill="#323232"/>
          <path id="パス_1980" data-name="パス 1980" d="M328.437,308.228a25.19,25.19,0,0,0,1.805,8.164,17.73,17.73,0,0,0,6.078,7.155c1.349.975,2.638-1.264,1.3-2.229a14.93,14.93,0,0,1-5.153-6.236,22.31,22.31,0,0,1-1.452-6.854c-.137-1.644-2.72-1.659-2.582,0" transform="translate(-243.635 -227.729)" fill="#323232"/>
          <path id="パス_1981" data-name="パス 1981" d="M464.813,508.9c.712,13.12,1.066,26.238,1.444,39.371q.1,3.536.207,7.072c.05,1.657,2.632,1.665,2.582,0-.388-13-.63-26-1.267-38.984q-.183-3.73-.383-7.458c-.09-1.653-2.672-1.663-2.582,0" transform="translate(-344.803 -376.584)" fill="#323232"/>
          <path id="パス_1982" data-name="パス 1982" d="M77.464,501.484c-.009,14.674-.027,29.3.743,43.952q.115,2.2.242,4.4c.1,1.651,2.679,1.663,2.582,0-.626-10.639-1-21.267-.995-31.924l.01-16.43a1.292,1.292,0,0,0-2.582,0" transform="translate(-57.462 -371.083)" fill="#323232"/>
          <path id="パス_1983" data-name="パス 1983" d="M229.874,184.643a1.377,1.377,0,1,0-1.377-1.377,1.393,1.393,0,0,0,1.377,1.377" transform="translate(-169.501 -134.928)" fill="#363636"/>
          <path id="パス_1984" data-name="パス 1984" d="M308.184,184.643a1.377,1.377,0,1,0-1.377-1.377,1.393,1.393,0,0,0,1.377,1.377" transform="translate(-227.593 -134.928)" fill="#363636"/>
          <path id="パス_1985" data-name="パス 1985" d="M264.278,201.391a3.737,3.737,0,0,1-.453,2.76,12.51,12.51,0,0,0-1.856,2.945c-.443,1.719,1.582,3.494,2.666,4.577a1.292,1.292,0,0,0,1.826-1.826c-.457-.457-.9-.929-1.318-1.425a3.935,3.935,0,0,1-.674-.965c.156.38-.131.475.284,0a6.552,6.552,0,0,0,.557-.847,13.352,13.352,0,0,0,1.353-2.311,6.275,6.275,0,0,0,.2-2.909c-.17-1.636-2.754-1.654-2.582,0" transform="translate(-194.286 -148.48)" fill="#323232"/>
          <path id="パス_1986" data-name="パス 1986" d="M250.1,269.782c2.82,3.044,9.347,3.35,12.263.236,1.135-1.212-.687-3.042-1.826-1.826-1.983,2.118-6.721,1.8-8.611-.236-1.132-1.221-2.954.608-1.826,1.826" transform="translate(-185.264 -198.475)" fill="#323232"/>
          <path id="パス_1987" data-name="パス 1987" d="M179.923,236.526c.335,9.155,3.314,18.711,11.489,23.755,8.94,5.517,22.484,4.282,29.225-4.14a34.906,34.906,0,0,0,4.164-6.05,29.322,29.322,0,0,0,2.194-7.8c.3-1.624-2.187-2.321-2.49-.687a32.714,32.714,0,0,1-1.608,6.475,21.749,21.749,0,0,1-2.8,4.522c-2.763,3.748-5.952,6.524-10.563,7.69A22.463,22.463,0,0,1,194,258.779a19.638,19.638,0,0,1-9.456-11.1,39.18,39.18,0,0,1-2.035-11.156c-.061-1.657-2.643-1.665-2.582,0" transform="translate(-133.469 -174.534)" fill="#323232"/>
          <path id="パス_1988" data-name="パス 1988" d="M158.438,179.121c-4.489-.807-6.363,3.495-6.471,7.3a10.492,10.492,0,0,0,7.265,10.585,1.292,1.292,0,0,0,.686-2.49A7.786,7.786,0,0,1,154.545,187c-.035-1.929.435-5.885,3.206-5.387,1.624.292,2.322-2.2.686-2.49" transform="translate(-112.727 -132.801)" fill="#323232"/>
          <path id="パス_1989" data-name="パス 1989" d="M279.076,73.936a6.284,6.284,0,0,1-1.827,4.7c-1.636,1.538-3.976,2.19-6.1,2.708-1.613.394-.93,2.884.686,2.489,2.646-.646,5.461-1.57,7.426-3.554a8.971,8.971,0,0,0,2.4-6.341,1.292,1.292,0,0,0-2.582,0" transform="translate(-200.46 -53.922)" fill="#323232"/>
          <path id="パス_1990" data-name="パス 1990" d="M232.362,72.51c-.8,5.67-8.186,8.318-13.08,8.708-1.645.131-1.659,2.714,0,2.582,5.943-.473,14.6-3.742,15.57-10.6.229-1.625-2.259-2.327-2.49-.686" transform="translate(-161.747 -53.095)" fill="#323232"/>
          <path id="パス_1991" data-name="パス 1991" d="M180.59,113.811c-1.287,5.656-4.082,11.62-10.1,13.347a1.292,1.292,0,0,0,.686,2.489c6.9-1.982,10.4-8.577,11.9-15.15.368-1.618-2.12-2.308-2.49-.686" transform="translate(-125.8 -83.74)" fill="#323232"/>
          <path id="パス_1992" data-name="パス 1992" d="M300.322,263.32l2.206,1.471a1.291,1.291,0,0,0,1.3-2.229l-2.206-1.471a1.291,1.291,0,1,0-1.3,2.229" transform="translate(-222.31 -193.547)" fill="#323232"/>
          <path id="パス_1993" data-name="パス 1993" d="M243.522,7.4c3.422-4.234,9.228-5.6,14.414-4.418,5.664,1.287,10.28,5.432,13.575,10.053,7.4,10.371,9.674,23.4,13.151,35.4.908,3.131,1.612,5.93.568,9.138-.753,2.314-2.5,4.844-5.136,5.049-1.646.128-1.66,2.71,0,2.582,5.829-.452,8.664-7.059,8.262-12.247a23.311,23.311,0,0,0-1.07-4.746c-.573-1.963-1.12-3.934-1.659-5.907-.943-3.453-1.856-6.914-2.876-10.346C279.174,19.911,273.18,5.046,260.023.872c-6.308-2-14.036-.606-18.326,4.7-1.035,1.281.781,3.119,1.826,1.826" transform="translate(-179.065 0)" fill="#323232"/>
          <path id="パス_1994" data-name="パス 1994" d="M152.4,26.972c-8.413-3.146-13.891,6.462-17.314,12.478-5.157,9.064-11.707,18.678-9.629,29.633a15.423,15.423,0,0,0,3.848,8.09,19.283,19.283,0,0,0,3.852,3.154c1.421.87,2.719-1.362,1.3-2.229a13.319,13.319,0,0,1-6.173-8.182,23.371,23.371,0,0,1,1.32-14.664c1.878-4.7,4.613-9.082,7.117-13.469a59.082,59.082,0,0,1,5.259-8.328c2.465-3.011,5.713-5.494,9.731-3.992,1.558.583,2.231-1.912.686-2.49" transform="translate(-92.774 -19.551)" fill="#323232"/>
          <path id="パス_1995" data-name="パス 1995" d="M169.046,235.646a2.456,2.456,0,1,1-2.456-2.456,2.456,2.456,0,0,1,2.456,2.456" transform="translate(-121.757 -172.984)" fill="#fff"/>
          <path id="パス_1996" data-name="パス 1996" d="M164.046,231.937a1.166,1.166,0,0,1-2.33,0,1.166,1.166,0,0,1,2.33,0c.089,1.653,2.671,1.663,2.582,0a3.747,3.747,0,1,0-3.881,3.74,3.814,3.814,0,0,0,3.881-3.74c.089-1.66-2.493-1.655-2.582,0" transform="translate(-118.048 -169.275)" fill="#323232"/>
          <path id="パス_1997" data-name="パス 1997" d="M142.195,367.929l3.6-4.066-1.256.332,18.679,5.992-.772-.593,12.056,21.46,1.7,3.021a1.3,1.3,0,0,0,2.229,0l8.912-20.956,1.265-2.975-.772.593,16.15-6.6-.995-.13,2.84,2.066c1.346.979,2.635-1.26,1.3-2.229-.976-.71-2.586-2.49-3.892-2.173a26.513,26.513,0,0,0-3.512,1.436l-11.45,4.681c-.735.3-1.6.511-1.985,1.248-.517.99-.888,2.088-1.325,3.115L179.9,384.075l-3.7,8.7h2.229L168.224,374.6l-2.552-4.542a11.307,11.307,0,0,0-1.1-1.9c-.628-.723-2.107-.924-2.971-1.2l-5.813-1.865-10.565-3.389a1.269,1.269,0,0,0-1.256.332l-3.6,4.066c-1.1,1.24.721,3.072,1.826,1.826" transform="translate(-103.876 -268.262)" fill="#323232"/>
          <path id="パス_1998" data-name="パス 1998" d="M318.6,89.328a47.922,47.922,0,0,0,3.663,10.843c1.6,3.185,3.886,5.958,5.675,9.033a18.6,18.6,0,0,1,2.853,9.17c.034,3.451-.984,7.187-4.23,8.923-1.466.784-.163,3.013,1.3,2.229,6.821-3.647,6.376-13.212,3.55-19.265-1.6-3.435-4.017-6.356-5.942-9.6a41.424,41.424,0,0,1-4.383-12.022c-.372-1.619-2.862-.934-2.49.686" transform="translate(-236.317 -65.07)" fill="#323232"/>
          <path id="パス_1999" data-name="パス 1999" d="M363.428,194.147c1.564,2.813.794,6.535-.661,9.239a11.992,11.992,0,0,1-7.963,5.928c-1.619.371-.934,2.861.686,2.489a14.489,14.489,0,0,0,9.67-7.429c1.765-3.5,2.477-7.969.5-11.53-.808-1.453-3.038-.152-2.229,1.3" transform="translate(-262.512 -142.584)" fill="#323232"/>
          <path id="パス_2000" data-name="パス 2000" d="M182.468,177.675h4.5l-1.291-1.291a10.444,10.444,0,0,0,3.1,7.1,9.2,9.2,0,0,0,5.7,2.223c5.272.253,10.774-3.7,10.533-9.324l-1.291,1.291h3.5l-1.245-.948a14.13,14.13,0,0,0,3.021,6.542c1.967,2.132,5.4,2.67,8.141,2.2,4.565-.787,6.583-5.421,7.123-9.584l-.948,1.245,3.75-.75c1.628-.326.939-2.815-.687-2.489l-3.749.75a1.325,1.325,0,0,0-.948,1.245c.083-.638.022-.14-.008.01-.056.279-.1.56-.167.838a15.35,15.35,0,0,1-.735,2.408c-.76,1.864-1.939,3.38-4,3.781s-4.812.007-6.165-1.743a12.825,12.825,0,0,1-2.141-5.136,1.3,1.3,0,0,0-1.245-.948h-3.5a1.3,1.3,0,0,0-1.291,1.291c.182,4.26-4.046,6.921-7.951,6.742-3.78-.174-5.89-3.186-6.215-6.742a1.32,1.32,0,0,0-1.291-1.291h-4.5a1.292,1.292,0,0,0,0,2.582" transform="translate(-134.432 -128.972)" fill="#323232"/>
        </g>
      </g>
    </g>
    <g id="グループ_3432" data-name="グループ 3432" transform="matrix(0.966, -0.259, 0.259, 0.966, 259, 162.731)">
      <g id="グループ_3431" data-name="グループ 3431" clip-path="url(#clip-path-2)">
        <path id="パス_2187" data-name="パス 2187" d="M63.308,60.9a2.1,2.1,0,0,0-2.1-2.1H10.459a2.1,2.1,0,0,0-2.1,2.1V90.792a2.1,2.1,0,0,0,2.1,2.1h50.75a2.1,2.1,0,0,0,2.1-2.1Z" transform="translate(-7.375 -51.876)" fill="#fcf8e7" fill-rule="evenodd"/>
        <path id="パス_2188" data-name="パス 2188" d="M8.359,60.7v6.1H63.308V60.7A1.907,1.907,0,0,0,61.4,58.8H10.266A1.907,1.907,0,0,0,8.359,60.7" transform="translate(-7.375 -51.876)" fill="#c5c2be" fill-rule="evenodd"/>
        <path id="パス_2189" data-name="パス 2189" d="M184.03,14.3H161.346l1.088-5.539a.494.494,0,0,1,.485-.4h19.538a.494.494,0,0,1,.485.4L184.03,14.3" transform="translate(-142.352 -7.376)" fill="#c5c2be" fill-rule="evenodd"/>
        <path id="パス_2190" data-name="パス 2190" d="M172.688,105.37a11.342,11.342,0,1,1-11.342,11.342,11.348,11.348,0,0,1,11.342-11.342" transform="translate(-142.352 -92.966)" fill="#a1a2a5" fill-rule="evenodd"/>
        <path id="パス_2191" data-name="パス 2191" d="M215.1,153.446a5.682,5.682,0,1,1-5.682,5.682,5.685,5.685,0,0,1,5.682-5.682" transform="translate(-184.768 -135.382)" fill="#dedbd2" fill-rule="evenodd"/>
        <path id="パス_2192" data-name="パス 2192" d="M60.5,20.031a1.04,1.04,0,0,0-1.04-1.04H54.582a1.04,1.04,0,0,0-1.04,1.04v3.646H60.5Z" transform="translate(-47.239 -16.755)" fill="#dedbd2" fill-rule="evenodd"/>
        <rect id="長方形_1887" data-name="長方形 1887" width="4.693" height="3.52" transform="translate(0.984 33.994)" fill="#50c4cb"/>
        <path id="パス_2193" data-name="パス 2193" d="M18.184,5.938H14.249V3.276a2.025,2.025,0,0,0-2.025-2.025H7.344A2.025,2.025,0,0,0,5.319,3.276V5.938H3.084A3.084,3.084,0,0,0,0,9.022V38.916A3.084,3.084,0,0,0,3.084,42h50.75a3.084,3.084,0,0,0,3.084-3.084V9.022a3.084,3.084,0,0,0-3.084-3.084H42.488l-.932-4.745A1.478,1.478,0,0,0,40.105,0H20.567a1.478,1.478,0,0,0-1.45,1.193ZM53.834,7.906H3.084A1.116,1.116,0,0,0,1.968,9.022V33.009H5.677a.984.984,0,0,1,.984.984v3.52a.984.984,0,0,1-.984.984H1.968v.418a1.116,1.116,0,0,0,1.116,1.116h50.75a1.115,1.115,0,0,0,1.116-1.116V9.022a1.116,1.116,0,0,0-1.116-1.116M1.968,34.978H4.693v1.552H1.968ZM30.336,11.42A12.326,12.326,0,1,0,42.662,23.747,12.332,12.332,0,0,0,30.336,11.42m0,1.968A10.358,10.358,0,1,1,19.978,23.747,10.363,10.363,0,0,1,30.336,13.389m0,3.691A6.667,6.667,0,1,0,37,23.747a6.67,6.67,0,0,0-6.667-6.667m0,1.968a4.7,4.7,0,1,1-4.7,4.7,4.7,4.7,0,0,1,4.7-4.7M20.19,5.938l.78-3.969H39.7l.78,3.969Zm-12.9,0V3.276a.056.056,0,0,1,.056-.056h4.881a.056.056,0,0,1,.056.056V5.938Z" fill="#323232" fill-rule="evenodd"/>
      </g>
    </g>
    <g id="グループ_3437" data-name="グループ 3437" transform="matrix(0.966, 0.259, -0.259, 0.966, 34.907, 226)">
      <rect id="長方形_1892" data-name="長方形 1892" width="38.661" height="56.237" transform="translate(5.659 0.68)" fill="#fdeeb3"/>
      <g id="グループ_3436" data-name="グループ 3436">
        <g id="グループ_3435" data-name="グループ 3435" clip-path="url(#clip-path-3)">
          <path id="長方形_1893" data-name="長方形 1893" d="M5.754,0H19.16a5.754,5.754,0,0,1,5.754,5.754v0a5.753,5.753,0,0,1-5.753,5.753H5.753A5.753,5.753,0,0,1,0,5.754v0A5.754,5.754,0,0,1,5.754,0Z" transform="translate(12.845 9.602)" fill="#f8f1d4"/>
          <rect id="長方形_1894" data-name="長方形 1894" width="5.603" height="56.066" transform="translate(0.765 0.765)" fill="#7b728a"/>
          <path id="パス_2202" data-name="パス 2202" d="M44.235,0H.765A.765.765,0,0,0,0,.765V56.831a.765.765,0,0,0,.765.765h43.47A.765.765,0,0,0,45,56.831V.765A.765.765,0,0,0,44.235,0M43.47,56.066H7.134V1.53H43.47ZM1.53,1.53H5.6V56.066H1.53ZM15.661,47.069H34.943a.765.765,0,0,0,0-1.53H15.661a.765.765,0,0,0,0,1.53m0-5.019H34.943a.765.765,0,1,0,0-1.53H15.661a.765.765,0,1,0,0,1.53M38.524,10.272a1.435,1.435,0,0,0-1.435-1.435H13.515a1.435,1.435,0,0,0-1.435,1.435V20.44a1.435,1.435,0,0,0,1.435,1.435H37.089a1.435,1.435,0,0,0,1.435-1.435ZM13.61,20.344H36.993V10.367H13.61Z" transform="translate(0)" fill="#323232" fill-rule="evenodd"/>
        </g>
      </g>
    </g>
    <g id="グループ_3440" data-name="グループ 3440" transform="matrix(0.966, 0.259, -0.259, 0.966, 290.647, 301)">
      <path id="パス_2236" data-name="パス 2236" d="M0,0H27.523V2.909H0Z" transform="translate(15.303 41.258)" fill="#fceb9a"/>
      <g id="グループ_3439" data-name="グループ 3439">
        <g id="グループ_3438" data-name="グループ 3438" clip-path="url(#clip-path-4)">
          <path id="パス_2203" data-name="パス 2203" d="M405.475,15.595a6.553,6.553,0,0,1,8.995-2.169,6.553,6.553,0,0,1,2.773,8.827,6.944,6.944,0,0,1,2.938,9.354,6.314,6.314,0,0,1-2.251,2.307,6.53,6.53,0,0,1-.238,5.862c-.868,1.535-8.672,1.774-13.527,3.745-5.319,2.159-8.891,7.954-10.657,6.955-1.72-.973,1.413-7.33.511-12.784-.89-5.38-4.7-11.861-3.794-13.457a6.53,6.53,0,0,1,4.9-3.223,6.315,6.315,0,0,1,.818-3.118,6.944,6.944,0,0,1,9.532-2.3" transform="translate(-360.87 -11.561)" fill="#3e9f89" fill-rule="evenodd"/>
          <path id="パス_2204" data-name="パス 2204" d="M393.589,2.825a7.822,7.822,0,0,0-10.021,3.046,7.221,7.221,0,0,0-.9,2.79,7.4,7.4,0,0,0-4.823,3.551,2.369,2.369,0,0,0-.255,1.277,8.649,8.649,0,0,0,.429,2.055c.856,2.761,2.9,7.015,3.512,10.739s-.728,7.885-1,10.371a5.055,5.055,0,0,0,.091,1.969,1.847,1.847,0,0,0,.857,1.106,1.881,1.881,0,0,0,1.375.184,4.766,4.766,0,0,0,1.724-.9c1.946-1.463,4.732-4.7,8.371-6.182,3.359-1.364,8.149-1.878,11.014-2.591a9.252,9.252,0,0,0,2-.693,2.339,2.339,0,0,0,.971-.868,7.4,7.4,0,0,0,.56-5.963,7.22,7.22,0,0,0,1.93-2.206,7.821,7.821,0,0,0-2.55-10.159,7.558,7.558,0,0,0-3.515-9.3,7.559,7.559,0,0,0-9.781,1.775m11.278,7.406a1.093,1.093,0,0,0-.114.683,1.583,1.583,0,0,0,.468.593,6.008,6.008,0,0,1,2.585,8.078,5.381,5.381,0,0,1-1.919,1.966.936.936,0,0,0-.375,1.176,5.6,5.6,0,0,1-.185,5.008,2.954,2.954,0,0,1-.4.237,8.859,8.859,0,0,1-1.407.447c-2.932.729-7.828,1.277-11.266,2.673-3.294,1.337-5.952,4.006-7.935,5.719a8.967,8.967,0,0,1-1.529,1.141,1.618,1.618,0,0,1-.269.116.731.731,0,0,1-.086.036A.862.862,0,0,1,382.4,38a1.778,1.778,0,0,1-.037-.308,9.824,9.824,0,0,1,.2-1.967c.459-2.649,1.375-6.367.816-9.747-.63-3.808-2.7-8.165-3.571-10.988a8.113,8.113,0,0,1-.331-1.4.851.851,0,0,1,0-.46,5.6,5.6,0,0,1,4.208-2.756.936.936,0,0,0,.815-.927,5.382,5.382,0,0,1,.7-2.658,6.008,6.008,0,0,1,8.256-1.945.936.936,0,0,0,1.276-.354,5.617,5.617,0,0,1,7.719-1.815,5.617,5.617,0,0,1,2.419,7.551" transform="translate(-349.31 0)" fill="#323232" fill-rule="evenodd"/>
          <path id="パス_2205" data-name="パス 2205" d="M472.835,168.48c.877-1.5,1.57-2.686,1.938-3.3.17-.283.755-.254,1.052-.086h0c.3.168.623.655.468.946-.336.631-.992,1.834-1.829,3.36l4.169.827a.78.78,0,1,1-.3,1.531l-4.545-.9a.781.781,0,0,1-.1-.028c-.846,1.54-1.808,3.286-2.781,5.053l5.981-.492a.78.78,0,0,1,.128,1.555l-6.529.536a.777.777,0,0,1-.416-.081c-2.059,3.742-4.03,7.333-4.917,9a1.137,1.137,0,0,1-.708.561,1.227,1.227,0,0,1-1.492-.844,1.137,1.137,0,0,1,.116-.9c.972-1.618,3.035-5.158,5.182-8.85a.775.775,0,0,1-.284-.315l-2.9-5.873a.78.78,0,0,1,1.4-.691l2.659,5.38c1.014-1.744,2.015-3.467,2.9-4.986a.778.778,0,0,1-.078-.075l-3.113-3.432a.78.78,0,0,1,1.156-1.048Z" transform="translate(-428.233 -152.613)" fill="#66c5b0" fill-rule="evenodd"/>
          <path id="パス_2206" data-name="パス 2206" d="M195.532,98.953a8.351,8.351,0,1,1-5.716,10.335,8.355,8.355,0,0,1,5.716-10.335" transform="translate(-175.297 -91.239)" fill="#3e9f89" fill-rule="evenodd"/>
          <path id="パス_2207" data-name="パス 2207" d="M183.707,86.487A9.287,9.287,0,1,0,195.2,92.843a9.292,9.292,0,0,0-11.494-6.356m.518,1.8a7.415,7.415,0,1,1-5.075,9.176,7.418,7.418,0,0,1,5.075-9.176" transform="translate(-163.731 -79.672)" fill="#323232" fill-rule="evenodd"/>
          <path id="パス_2208" data-name="パス 2208" d="M235.578,141.169a5.181,5.181,0,1,1-3.546,6.411,5.183,5.183,0,0,1,3.546-6.411" transform="translate(-214.466 -130.409)" fill="#66c5b0" fill-rule="evenodd"/>
          <path id="パス_2209" data-name="パス 2209" d="M284.743,191.936c-.226-.125-.709.314-.864.594a.479.479,0,1,0,.82.453c.155-.279.27-.922.044-1.047m.884-.254c.125-.226.768-.111,1.047.044a.479.479,0,1,1-.453.82c-.279-.154-.719-.637-.594-.864m-.557-.27c-.248.072-.621-.465-.709-.772a.479.479,0,1,1,.9-.259c.088.307.058.959-.191,1.031" transform="translate(-262.539 -175.713)" fill="#f8f1d4" fill-rule="evenodd"/>
          <path id="パス_2210" data-name="パス 2210" d="M72.75,170.96a.739.739,0,0,0-.982.463c-1.67,5.328,1.384,11.294,7.118,13.609s12.073.141,14.57-4.853a.738.738,0,0,0-.384-1.013c-2.416-.977-10.16-4.1-10.16-4.1l-10.161-4.1" transform="translate(-65.973 -158.106)" fill="#f1636e" fill-rule="evenodd"/>
          <path id="パス_2211" data-name="パス 2211" d="M61.553,158.528a1.676,1.676,0,0,0-2.225,1.049v0c-1.808,5.768,1.453,12.251,7.66,14.757s13.055.1,15.757-5.3h0a1.674,1.674,0,0,0-.872-2.3c-2.416-.977-10.16-4.1-10.16-4.1l-10.161-4.1Zm-.5,1.817,9.96,4.021,4.174,1.685,5.785,2.337c-2.353,4.443-8.1,6.305-13.283,4.211s-8.026-7.421-6.636-12.255" transform="translate(-54.425 -146.543)" fill="#323232" fill-rule="evenodd"/>
          <path id="パス_2212" data-name="パス 2212" d="M166.037,240.877c-.423.18-.452,1.066-.289,1.449a.837.837,0,0,0,1.533-.651c-.163-.382-.821-.977-1.244-.8m-2.484-.185c-.426-.172-1.074.435-1.229.82a.837.837,0,0,0,1.545.624c.155-.385.111-1.271-.316-1.443m-1.916-1.591c.18.423-.415,1.081-.8,1.244a.837.837,0,0,1-.651-1.533c.383-.162,1.269-.134,1.449.29" transform="translate(-147.783 -220.841)" fill="#c3636e" fill-rule="evenodd"/>
          <path id="パス_2213" data-name="パス 2213" d="M13.36,288.579a.739.739,0,0,0-.842.685c-.341,5.573,4.056,10.631,10.178,11.5S34.45,298,35.673,292.555a.738.738,0,0,0-.616-.891c-2.58-.368-10.848-1.543-10.848-1.543L13.36,288.579" transform="translate(-11.564 -266.959)" fill="#f1636e" fill-rule="evenodd"/>
          <path id="パス_2214" data-name="パス 2214" d="M1.929,276.089a1.676,1.676,0,0,0-1.908,1.553v0c-.37,6.034,4.353,11.543,10.98,12.485s12.7-3.034,14.023-8.932h0a1.674,1.674,0,0,0-1.4-2.022c-2.58-.368-10.848-1.543-10.848-1.543Zm-.05,1.884,10.635,1.511,4.456.633,6.177.879c-1.217,4.878-6.345,8.065-11.882,7.278S1.691,283,1.879,277.973" transform="translate(0 -255.396)" fill="#323232" fill-rule="evenodd"/>
          <path id="パス_2215" data-name="パス 2215" d="M113.558,334.577c-.455-.065-.938.68-1,1.091a.837.837,0,0,0,1.649.234c.058-.411-.2-1.261-.653-1.325m2.456-.417c-.368.276-.183,1.144.067,1.476a.837.837,0,0,0,1.332-1c-.25-.332-1.031-.752-1.4-.476m-4.7-.668c.276.367-.143,1.149-.476,1.4a.837.837,0,0,1-1-1.332c.332-.25,1.2-.435,1.476-.067" transform="translate(-101.352 -308.324)" fill="#c3636e" fill-rule="evenodd"/>
          <path id="パス_2216" data-name="パス 2216" d="M311.457,204.9c4.159.494,6.9,6.22,6.365,10.747s-4.351,7.8-8.51,7.306-7.1-4.57-6.561-9.1,4.547-9.45,8.706-8.956" transform="translate(-280.018 -189.525)" fill="#f8f1d4" fill-rule="evenodd"/>
          <path id="パス_2217" data-name="パス 2217" d="M300,192.412a7.21,7.21,0,0,0-5.415,1.844,12.8,12.8,0,0,0-4.332,7.931c-.6,5.06,2.731,9.585,7.38,10.137s8.949-3.065,9.55-8.125a12.8,12.8,0,0,0-2.353-8.725A7.21,7.21,0,0,0,300,192.412Zm-.221,1.859a5.36,5.36,0,0,1,3.553,2.324,10.829,10.829,0,0,1,1.993,7.383c-.474,3.993-3.8,6.923-7.47,6.487s-6.216-4.064-5.742-8.057a10.831,10.831,0,0,1,3.668-6.711,5.36,5.36,0,0,1,4-1.426" transform="translate(-268.451 -177.964)" fill="#323232" fill-rule="evenodd"/>
          <path id="パス_2218" data-name="パス 2218" d="M351.051,289.195a4.252,4.252,0,1,1-4.724,3.72,4.254,4.254,0,0,1,4.724-3.72" transform="translate(-320.362 -267.508)" fill="#fbd952" fill-rule="evenodd"/>
          <path id="パス_2219" data-name="パス 2219" d="M490.994,308.716a.462.462,0,0,0-.589-.283l-4.679,1.644a.462.462,0,0,0-.283.589l1.644,4.679a.462.462,0,0,0,.589.283l4.679-1.644a.462.462,0,0,0,.283-.589l-1.644-4.679" transform="translate(-449.063 -285.309)" fill="#ffc46a" fill-rule="evenodd"/>
          <path id="パス_2220" data-name="パス 2220" d="M481.954,301.517l-1.644-4.679a1.4,1.4,0,0,0-1.782-.855l-4.679,1.644a1.4,1.4,0,0,0-.856,1.782l1.644,4.679a1.4,1.4,0,0,0,1.783.856L481.1,303.3a1.4,1.4,0,0,0,.855-1.782m-7.037-2.281,1.33,3.784,3.784-1.33-1.33-3.784Z" transform="translate(-437.495 -273.742)" fill="#323232" fill-rule="evenodd"/>
          <path id="パス_2221" data-name="パス 2221" d="M565.359,323.387a.462.462,0,0,0-.647.092l-2.981,3.963a.462.462,0,0,0,.091.647l3.963,2.981a.462.462,0,0,0,.647-.092l2.981-3.964a.462.462,0,0,0-.091-.647l-3.964-2.981" transform="translate(-519.575 -299.081)" fill="#ffc46a" fill-rule="evenodd"/>
          <path id="パス_2222" data-name="パス 2222" d="M558.321,314.055l-3.964-2.981a1.4,1.4,0,0,0-1.958.277l-2.981,3.963a1.4,1.4,0,0,0,.277,1.958l3.964,2.981a1.4,1.4,0,0,0,1.958-.277l2.981-3.963a1.4,1.4,0,0,0-.277-1.958m-7.121,2.006,3.205,2.411,2.411-3.206-3.205-2.411Z" transform="translate(-508.011 -287.517)" fill="#323232" fill-rule="evenodd"/>
          <path id="パス_2223" data-name="パス 2223" d="M71.253,417.455a7.753,7.753,0,0,0,1.495-.135c7.571-1.543,10.04-4.261,10.04-7.357v-2.415c0-.1-.15-.2-.416-.276a4,4,0,0,0-1-.114H30.07a4,4,0,0,0-1,.114c-.267.073-.416.172-.416.276v2.415c0,3.1,2.469,5.814,10.041,7.357a7.762,7.762,0,0,0,1.494.135H71.253" transform="translate(-26.503 -376.664)" fill="#ffeb9a" fill-rule="evenodd"/>
          <path id="パス_2224" data-name="パス 2224" d="M27.737,406.787v2.377a.936.936,0,0,0,.936.936H59.636a.936.936,0,0,0,.936-.936v-2.377a7.5,7.5,0,0,0,.8-.114h0c8.271-1.686,10.79-4.893,10.79-8.275v-2.415a1.322,1.322,0,0,0-1.1-1.178,4.959,4.959,0,0,0-1.252-.148h-51.3a4.96,4.96,0,0,0-1.252.148,1.322,1.322,0,0,0-1.1,1.178V398.4c0,3.382,2.519,6.589,10.79,8.274h0a7.494,7.494,0,0,0,.8.114M58.7,408.228H29.609v-1.4H58.7Zm11.588-11.669v1.84c0,1.571-.8,3-2.782,4.191A20.832,20.832,0,0,1,61,404.839a6.8,6.8,0,0,1-1.308.116H28.62a6.8,6.8,0,0,1-1.308-.116,20.825,20.825,0,0,1-6.509-2.249c-1.984-1.195-2.782-2.62-2.782-4.191v-1.84a3.8,3.8,0,0,1,.485-.029H69.8a3.8,3.8,0,0,1,.485.029" transform="translate(-14.94 -365.1)" fill="#323232" fill-rule="evenodd"/>
        </g>
      </g>
    </g>
    <g id="グループ_3442" data-name="グループ 3442" transform="translate(69 295)">
      <g id="グループ_3441" data-name="グループ 3441" clip-path="url(#clip-path-5)">
        <path id="パス_2225" data-name="パス 2225" d="M85.166,239.688s4.652-1.809,6.827-.906,3.347,3.067,2.615,4.828-3.091,2.458-5.266,1.554-4.176-5.476-4.176-5.476m21.968-2.87s-4.96-.554-6.83.878-2.447,3.824-1.287,5.338,3.619,1.581,5.489.149,2.629-6.365,2.629-6.365" transform="translate(-76.17 -211.709)" fill="#3e9f89" fill-rule="evenodd"/>
        <path id="パス_2226" data-name="パス 2226" d="M68.562,14.724a5.274,5.274,0,0,1,9.947-1.3l.332.7.767-.1a5.274,5.274,0,0,1,4.31,9.058l-.562.532.332.7a5.274,5.274,0,0,1-7.283,6.9l-.679-.37-.562.532a5.274,5.274,0,0,1-8.811-4.8l.142-.76-.679-.37a5.274,5.274,0,0,1,1.838-9.861l.767-.1.142-.76" transform="translate(-56.402 -9.316)" fill="#fcf8e7" fill-rule="evenodd"/>
        <path id="パス_2227" data-name="パス 2227" d="M149.9,96.219a2.581,2.581,0,1,1-2.225,2.894,2.582,2.582,0,0,1,2.225-2.894" transform="translate(-132.052 -86.036)" fill="#fbd952" fill-rule="evenodd"/>
        <path id="パス_2228" data-name="パス 2228" d="M65.577,23.645l.643,4.92a5.865,5.865,0,0,0-2.89-2.509,6.314,6.314,0,0,0-2.971-.281,21.368,21.368,0,0,0-4.677,1.178,1.1,1.1,0,0,0-.609,1.467,21.365,21.365,0,0,0,2.466,4.145,6.317,6.317,0,0,0,2.3,1.907c2.789,1.158,5.766.11,6.7-2.148a3.9,3.9,0,0,0,.3-1.536,1.1,1.1,0,0,0,1.544-.2,3.9,3.9,0,0,0,.68,1.409c1.487,1.941,4.634,2.19,7.031.354a6.315,6.315,0,0,0,1.729-2.432,21.361,21.361,0,0,0,1.319-4.639,1.1,1.1,0,0,0-.965-1.261,21.362,21.362,0,0,0-4.822.063,6.314,6.314,0,0,0-2.8,1.035A5.865,5.865,0,0,0,68.4,28.28l-.643-4.92a6.374,6.374,0,0,0,7.617-8.815,6.374,6.374,0,0,0-5.2-10.934A6.374,6.374,0,0,0,58.169,5.18a6.374,6.374,0,0,0-2.218,11.9,6.374,6.374,0,0,0,9.626,6.562m-7.96,4.971a18.658,18.658,0,0,1,2.143-.533,5.3,5.3,0,0,1,2.725,0c1.563.649,2.547,2.124,2.021,3.39s-2.265,1.61-3.828.96a5.3,5.3,0,0,1-1.927-1.928,18.686,18.686,0,0,1-1.135-1.894m19.111-2.5a18.668,18.668,0,0,1-.61,2.122A5.3,5.3,0,0,1,74.751,30.6c-1.344,1.029-3.113,1.144-3.946.055s-.261-2.766,1.083-3.8a5.3,5.3,0,0,1,2.633-.7,18.666,18.666,0,0,1,2.208-.036M60.327,5.609A4.174,4.174,0,0,1,68.2,4.581l.332.7a1.1,1.1,0,0,0,1.136.618l.767-.1a4.173,4.173,0,0,1,3.41,7.169l-.562.532a1.1,1.1,0,0,0-.237,1.272l.332.7a4.173,4.173,0,0,1-5.764,5.459l-.679-.37a1.1,1.1,0,0,0-1.283.168l-.562.532a4.173,4.173,0,0,1-6.973-3.795l.142-.76a1.1,1.1,0,0,0-.556-1.168l-.679-.37a4.173,4.173,0,0,1,1.454-7.8l.767-.1a1.1,1.1,0,0,0,.939-.889Zm4.458,3.483a3.681,3.681,0,1,0,4.127,3.173,3.683,3.683,0,0,0-4.127-3.173m.285,2.182a1.481,1.481,0,1,1-1.277,1.66,1.482,1.482,0,0,1,1.277-1.66" transform="translate(-47.085 0.001)" fill="#323232" fill-rule="evenodd"/>
        <path id="パス_2229" data-name="パス 2229" d="M49.292,261.073a.938.938,0,0,0-1.052-.809L11.233,265.1a.938.938,0,0,0-.809,1.052l.916,7.012a.938.938,0,0,0,1.052.809L49.4,269.136a.938.938,0,0,0,.809-1.052l-.916-7.012" transform="translate(-9.316 -232.766)" fill="#c5c2be" fill-rule="evenodd"/>
        <path id="パス_2230" data-name="パス 2230" d="M58.016,371.865l-11.2,1.463a1.578,1.578,0,0,1-1.744-1.22c-1.209-5.41-5.132-21.832-5.132-21.832l34.721-4.536s.427,16.879.649,22.417a1.578,1.578,0,0,1-1.372,1.628l-11.2,1.463a2.384,2.384,0,1,0-4.729.618" transform="translate(-35.725 -309.22)" fill="#aaa2aa" fill-rule="evenodd"/>
        <path id="パス_2231" data-name="パス 2231" d="M3.379,265.724c.857,3.593,3.866,16.236,4.9,20.852a2.678,2.678,0,0,0,2.96,2.072l11.2-1.463a1.1,1.1,0,0,0,.949-1.234,1.284,1.284,0,0,1,2.547-.333,1.1,1.1,0,0,0,1.234.949l11.2-1.463a2.678,2.678,0,0,0,2.329-2.763c-.189-4.727-.528-17.718-.623-21.411l.161-.021a2.038,2.038,0,0,0,1.757-2.285l-.916-7.012a2.038,2.038,0,0,0-2.285-1.757L1.775,254.691a2.039,2.039,0,0,0-1.757,2.285l.916,7.012a2.038,2.038,0,0,0,2.285,1.757Zm17.855,19.4-10.282,1.343a.477.477,0,0,1-.528-.369c-1.013-4.532-3.929-16.788-4.852-20.659l32.3-4.219c.1,3.978.433,16.572.618,21.212a.477.477,0,0,1-.415.492l-10.282,1.343a3.486,3.486,0,0,0-6.559.857M3.094,263.542,39.78,258.75l-.874-6.69L2.22,256.852Z" transform="translate(0 -223.449)" fill="#323232" fill-rule="evenodd"/>
      </g>
    </g>
    <g id="グループ_3448" data-name="グループ 3448" transform="translate(-5.571 51.295)">
      <g id="グループ_3444" data-name="グループ 3444" transform="matrix(0.966, 0.259, -0.259, 0.966, 326.366, 203.018)">
        <g id="グループ_3443" data-name="グループ 3443" clip-path="url(#clip-path-6)">
          <path id="パス_2232" data-name="パス 2232" d="M53.426,25.592v7.781a.716.716,0,0,1-.716.716H11.133a.716.716,0,0,1-.716-.716V11.133a.716.716,0,0,1,.716-.716H52.709a.716.716,0,0,1,.716.716v7.781a3.339,3.339,0,0,0,0,6.678" transform="translate(-9.421 -9.507)" fill="#fcf8e7" fill-rule="evenodd"/>
          <path id="パス_2233" data-name="パス 2233" d="M343.18,10.417h10.489a.716.716,0,0,1,.716.716v7.781a3.339,3.339,0,1,0,0,6.678v7.781a.716.716,0,0,1-.716.716H343.18Z" transform="translate(-310.381 -9.421)" fill="#6ad1cd" fill-rule="evenodd"/>
          <path id="パス_2234" data-name="パス 2234" d="M45,16.171a1,1,0,0,0-1-1,2.343,2.343,0,1,1,0-4.687,1,1,0,0,0,1-1V1.712A1.712,1.712,0,0,0,43.288,0H1.712A1.712,1.712,0,0,0,0,1.712v22.24a1.712,1.712,0,0,0,1.712,1.712H43.288A1.712,1.712,0,0,0,45,23.952ZM33.985,1.991V3.367a1.186,1.186,0,0,1-2.371,0V1.991H1.991V23.673H31.614V22.338a1.186,1.186,0,0,1,2.371,0v1.335h9.024V17.051a4.335,4.335,0,0,1,0-8.439V1.991ZM31.614,15.224V17.6a1.186,1.186,0,0,0,2.371,0V15.224a1.186,1.186,0,0,0-2.371,0m0-7.114v2.371a1.186,1.186,0,0,0,2.371,0V8.11a1.186,1.186,0,0,0-2.371,0" fill="#323232" fill-rule="evenodd"/>
          <path id="パス_2235" data-name="パス 2235" d="M-8.919-5.624c0-.284-.131-.459-.364-.459H-12.9c-.233,0-.364.175-.364.459s.138.5.364.5h1.107v4.079c0,.35.255.532.7.532s.7-.182.7-.532V-5.121h1.107C-9.057-5.121-8.919-5.333-8.919-5.624ZM-7-5.617c0-.379-.3-.575-.75-.575s-.728.182-.728.561.277.575.728.575S-7-5.245-7-5.617ZM-7.047-1.05V-4.2c0-.35-.255-.546-.685-.546s-.714.189-.714.546v3.154c0,.357.284.532.714.532S-7.047-.7-7.047-1.05Zm4.975-.532a.573.573,0,0,0-.641-.568.51.51,0,0,0-.422.2,1.1,1.1,0,0,1-.925.583c-.415,0-.91-.342-.91-1.26,0-.765.342-1.26.9-1.26a1,1,0,0,1,.787.466.671.671,0,0,0,.488.3.564.564,0,0,0,.626-.568c0-.379-.692-1.1-1.937-1.1a2.087,2.087,0,0,0-2.3,2.156A2.061,2.061,0,0,0-4.09-.46C-2.692-.46-2.073-1.29-2.073-1.582Zm4.763.415a.689.689,0,0,0-.226-.481l-1.1-1.282.779-.648a.622.622,0,0,0,.291-.51.709.709,0,0,0-.728-.656.682.682,0,0,0-.473.219L.542-3.8c-.2.211-.408.422-.583.626.007-.277.007-.524.007-.757v-1.7c0-.357-.262-.554-.706-.554s-.692.2-.692.554v4.567c0,.357.255.554.692.554s.706-.2.706-.554v-.728l.4-.35L1.4-.759a.56.56,0,0,0,.51.248A.72.72,0,0,0,2.691-1.166Zm4.749-1.85a1.986,1.986,0,0,0-.59-1.216,2.211,2.211,0,0,0-1.573-.561,2.318,2.318,0,0,0-1.639.532,2.113,2.113,0,0,0-.626,1.617,2.1,2.1,0,0,0,.612,1.631,2.441,2.441,0,0,0,1.69.554A2.945,2.945,0,0,0,7.01-.9a.679.679,0,0,0,.335-.539.454.454,0,0,0-.5-.5,1.323,1.323,0,0,0-.648.24,1.871,1.871,0,0,1-.867.211.874.874,0,0,1-.867-.845H6.616C7.134-2.332,7.439-2.521,7.439-3.016ZM6.034-3.111c0,.058-.036.087-.117.087H4.461c.087-.728.422-.976.8-.976a.641.641,0,0,1,.481.219,1.5,1.5,0,0,1,.3.67ZM10.87-1.094c0-.24-.117-.408-.35-.408-.138,0-.189.051-.371.051-.284,0-.422-.2-.422-.816V-3.839h.59c.226,0,.35-.182.35-.437s-.124-.422-.35-.422H9.734v-.524c0-.35-.248-.546-.677-.546s-.728.189-.728.546V-4.7H8.117c-.226,0-.35.168-.35.422s.124.437.35.437h.211v1.77C8.328-.751,9-.453,9.792-.453a1.555,1.555,0,0,0,.874-.226A.479.479,0,0,0,10.87-1.094Z" transform="translate(17.897 16.207)" fill="#323232"/>
        </g>
      </g>
      <g id="グループ_3445" data-name="グループ 3445" transform="matrix(0.966, -0.259, 0.259, 0.966, 325.462, 188.352)">
        <g id="グループ_3443-2" data-name="グループ 3443" clip-path="url(#clip-path-6)">
          <path id="パス_2232-2" data-name="パス 2232" d="M53.426,25.592v7.781a.716.716,0,0,1-.716.716H11.133a.716.716,0,0,1-.716-.716V11.133a.716.716,0,0,1,.716-.716H52.709a.716.716,0,0,1,.716.716v7.781a3.339,3.339,0,0,0,0,6.678" transform="translate(-9.421 -9.507)" fill="#fcf8e7" fill-rule="evenodd"/>
          <path id="パス_2233-2" data-name="パス 2233" d="M343.18,10.417h10.489a.716.716,0,0,1,.716.716v7.781a3.339,3.339,0,1,0,0,6.678v7.781a.716.716,0,0,1-.716.716H343.18Z" transform="translate(-310.381 -9.421)" fill="#6ad1cd" fill-rule="evenodd"/>
          <path id="パス_2234-2" data-name="パス 2234" d="M45,16.171a1,1,0,0,0-1-1,2.343,2.343,0,1,1,0-4.687,1,1,0,0,0,1-1V1.712A1.712,1.712,0,0,0,43.288,0H1.712A1.712,1.712,0,0,0,0,1.712v22.24a1.712,1.712,0,0,0,1.712,1.712H43.288A1.712,1.712,0,0,0,45,23.952ZM33.985,1.991V3.367a1.186,1.186,0,0,1-2.371,0V1.991H1.991V23.673H31.614V22.338a1.186,1.186,0,0,1,2.371,0v1.335h9.024V17.051a4.335,4.335,0,0,1,0-8.439V1.991ZM31.614,15.224V17.6a1.186,1.186,0,0,0,2.371,0V15.224a1.186,1.186,0,0,0-2.371,0m0-7.114v2.371a1.186,1.186,0,0,0,2.371,0V8.11a1.186,1.186,0,0,0-2.371,0" fill="#323232" fill-rule="evenodd"/>
          <path id="パス_2235-2" data-name="パス 2235" d="M-8.919-5.624c0-.284-.131-.459-.364-.459H-12.9c-.233,0-.364.175-.364.459s.138.5.364.5h1.107v4.079c0,.35.255.532.7.532s.7-.182.7-.532V-5.121h1.107C-9.057-5.121-8.919-5.333-8.919-5.624ZM-7-5.617c0-.379-.3-.575-.75-.575s-.728.182-.728.561.277.575.728.575S-7-5.245-7-5.617ZM-7.047-1.05V-4.2c0-.35-.255-.546-.685-.546s-.714.189-.714.546v3.154c0,.357.284.532.714.532S-7.047-.7-7.047-1.05Zm4.975-.532a.573.573,0,0,0-.641-.568.51.51,0,0,0-.422.2,1.1,1.1,0,0,1-.925.583c-.415,0-.91-.342-.91-1.26,0-.765.342-1.26.9-1.26a1,1,0,0,1,.787.466.671.671,0,0,0,.488.3.564.564,0,0,0,.626-.568c0-.379-.692-1.1-1.937-1.1a2.087,2.087,0,0,0-2.3,2.156A2.061,2.061,0,0,0-4.09-.46C-2.692-.46-2.073-1.29-2.073-1.582Zm4.763.415a.689.689,0,0,0-.226-.481l-1.1-1.282.779-.648a.622.622,0,0,0,.291-.51.709.709,0,0,0-.728-.656.682.682,0,0,0-.473.219L.542-3.8c-.2.211-.408.422-.583.626.007-.277.007-.524.007-.757v-1.7c0-.357-.262-.554-.706-.554s-.692.2-.692.554v4.567c0,.357.255.554.692.554s.706-.2.706-.554v-.728l.4-.35L1.4-.759a.56.56,0,0,0,.51.248A.72.72,0,0,0,2.691-1.166Zm4.749-1.85a1.986,1.986,0,0,0-.59-1.216,2.211,2.211,0,0,0-1.573-.561,2.318,2.318,0,0,0-1.639.532,2.113,2.113,0,0,0-.626,1.617,2.1,2.1,0,0,0,.612,1.631,2.441,2.441,0,0,0,1.69.554A2.945,2.945,0,0,0,7.01-.9a.679.679,0,0,0,.335-.539.454.454,0,0,0-.5-.5,1.323,1.323,0,0,0-.648.24,1.871,1.871,0,0,1-.867.211.874.874,0,0,1-.867-.845H6.616C7.134-2.332,7.439-2.521,7.439-3.016ZM6.034-3.111c0,.058-.036.087-.117.087H4.461c.087-.728.422-.976.8-.976a.641.641,0,0,1,.481.219,1.5,1.5,0,0,1,.3.67ZM10.87-1.094c0-.24-.117-.408-.35-.408-.138,0-.189.051-.371.051-.284,0-.422-.2-.422-.816V-3.839h.59c.226,0,.35-.182.35-.437s-.124-.422-.35-.422H9.734v-.524c0-.35-.248-.546-.677-.546s-.728.189-.728.546V-4.7H8.117c-.226,0-.35.168-.35.422s.124.437.35.437h.211v1.77C8.328-.751,9-.453,9.792-.453a1.555,1.555,0,0,0,.874-.226A.479.479,0,0,0,10.87-1.094Z" transform="translate(17.897 16.207)" fill="#323232"/>
        </g>
      </g>
    </g>
    <g id="グループ_3509" data-name="グループ 3509" transform="translate(69 140)">
      <g id="グループ_3508" data-name="グループ 3508" transform="translate(0)" clip-path="url(#clip-path-8)">
        <path id="パス_2301" data-name="パス 2301" d="M494.43,427.322a9.558,9.558,0,1,0-10.466,4.908Z" transform="translate(-455.187 -394.533)" fill="#dedbd2" fill-rule="evenodd"/>
        <path id="パス_2302" data-name="パス 2302" d="M535.676,439.521a9.557,9.557,0,0,0,3.265,17.322l7.966-3.736a9.557,9.557,0,0,0-11.231-13.586" transform="translate(-510.163 -419.145)" fill="#dedbd2" fill-rule="evenodd"/>
        <path id="パス_2303" data-name="パス 2303" d="M481.093,413.707a.663.663,0,0,1-.306.293l-10.466,4.908a.663.663,0,0,1-.421.048,10.221,10.221,0,1,1,11.193-5.249m-1.076-.811a8.894,8.894,0,1,0-10.053,4.715l10.053-4.715Z" transform="translate(-441.262 -380.611)" fill="#323232" fill-rule="evenodd"/>
        <path id="パス_2304" data-name="パス 2304" d="M466.267,548.588a1.5,1.5,0,0,1,.721-2l15.778-7.4a1.5,1.5,0,0,1,2,.721h0a1.5,1.5,0,0,1-.721,2l-15.777,7.4a1.5,1.5,0,0,1-2-.721h0" transform="translate(-444.098 -514.54)" fill="#a1a2a5" fill-rule="evenodd"/>
        <path id="パス_2305" data-name="パス 2305" d="M451.743,534.946a2.163,2.163,0,0,1,1.04-2.877l15.778-7.4a2.163,2.163,0,0,1,2.877,1.04h0a2.163,2.163,0,0,1-1.04,2.877l-15.777,7.4a2.163,2.163,0,0,1-2.877-1.04Zm1.2-.563h0a.837.837,0,0,0,1.113.4l15.777-7.4a.837.837,0,0,0,.4-1.113h0a.837.837,0,0,0-1.113-.4l-15.778,7.4a.837.837,0,0,0-.4,1.113" transform="translate(-430.174 -500.616)" fill="#323232" fill-rule="evenodd"/>
        <path id="パス_2306" data-name="パス 2306" d="M254.257,723.8l10.938-5.13,10.911,27.956a.7.7,0,0,1-.356.892l-6.062,2.843a.7.7,0,0,1-.914-.3L254.257,723.8" transform="translate(-225.716 -685.991)" fill="#9d93ad" fill-rule="evenodd"/>
        <path id="パス_2307" data-name="パス 2307" d="M326.913,755.9l7.385-3.463a1.45,1.45,0,0,1,1.97.795l9.133,23.88a1.6,1.6,0,0,1-.813,2.016l-2.725,1.278a1.28,1.28,0,0,1-1.663-.538L326.913,755.9" transform="translate(-298.371 -718.088)" fill="#9d93ad" fill-rule="evenodd"/>
        <path id="パス_2308" data-name="パス 2308" d="M514.642,858.052l-3.022,1.417-.759-1.619a1.669,1.669,0,0,1,.8-2.22h0a1.669,1.669,0,0,1,2.22.8Z" transform="translate(-475.864 -816.573)" fill="#6a6374" fill-rule="evenodd"/>
        <path id="パス_2309" data-name="パス 2309" d="M493.542,912.21l-3.022,1.417.759,1.619a1.669,1.669,0,0,0,2.22.8h0a1.669,1.669,0,0,0,.8-2.22Z" transform="translate(-454.764 -870.731)" fill="#f1626e" fill-rule="evenodd"/>
        <path id="パス_2310" data-name="パス 2310" d="M480.377,842.227l1.519,3.238a2.332,2.332,0,0,1-1.121,3.1h0a2.332,2.332,0,0,1-3.1-1.121l-1.519-3.238a2.332,2.332,0,0,1,1.121-3.1h0a2.332,2.332,0,0,1,3.1,1.121m-.16,2.783-1.822.854.478,1.019a1.006,1.006,0,0,0,1.338.484h0a1.006,1.006,0,0,0,.484-1.338Zm-2.385-.346,1.822-.854-.478-1.019a1.006,1.006,0,0,0-1.338-.484h0a1.006,1.006,0,0,0-.484,1.338Z" transform="translate(-441.758 -802.649)" fill="#323232" fill-rule="evenodd"/>
        <path id="パス_2311" data-name="パス 2311" d="M257.665,1360.933l5-2.345.714,1.522a.7.7,0,0,1-.338.935l-3.727,1.748a.7.7,0,0,1-.935-.338l-.714-1.522" transform="translate(-213.161 -1296.812)" fill="#6a6374" fill-rule="evenodd"/>
        <path id="パス_2312" data-name="パス 2312" d="M262.177,734.164l.433.924a1.366,1.366,0,0,1-.657,1.817l-3.727,1.748A1.366,1.366,0,0,1,256.41,738l-.433-.924a1.366,1.366,0,0,1-1.705-.607L239.753,710.2a.663.663,0,0,1,.3-.921l10.938-5.13a.663.663,0,0,1,.9.359L262.8,732.465a1.366,1.366,0,0,1-.624,1.7m-5,2.347.432.922a.04.04,0,0,0,.053.019l3.727-1.748a.04.04,0,0,0,.019-.053l-.432-.922ZM261.545,733l-6.062,2.843a.04.04,0,0,1-.052-.017l-14.175-25.645,9.655-4.528,10.654,27.3a.04.04,0,0,1-.02.05" transform="translate(-211.792 -672.071)" fill="#323232" fill-rule="evenodd"/>
        <path id="パス_2313" data-name="パス 2313" d="M245.806,1417.645l2.2,4.694a.663.663,0,0,1-1.2.563l-2.2-4.694a.663.663,0,0,1,1.2-.563" transform="translate(-197.19 -1352.819)" fill="#323232" fill-rule="evenodd"/>
        <g id="グループ_3511" data-name="グループ 3511" transform="translate(41.82 4.113)">
          <path id="パス_2314" data-name="パス 2314" d="M208.779,239.325c.8.85.525,2.409-.613,3.479s-2.711,1.249-3.51.4-.525-2.409.613-3.479,2.711-1.249,3.51-.4" transform="translate(-203.547 -232.043)" fill="#f1626e" fill-rule="evenodd"/>
          <path id="パス_2315" data-name="パス 2315" d="M196.7,90.454h-.012a.664.664,0,0,0-.428.263l0,0a.678.678,0,0,0-.115.271l-1.049,5.876a3.444,3.444,0,0,0-3.93.776c-1.438,1.352-1.652,3.343-.642,4.417s3.01.982,4.448-.37a3.642,3.642,0,0,0,1.2-3.327l1.033-5.786a2.852,2.852,0,0,0,1.543.653,3.387,3.387,0,0,0,2.447-.9.663.663,0,0,0-.836-1.03,2.147,2.147,0,0,1-1.5.6,2.093,2.093,0,0,1-1.479-1.11.664.664,0,0,0-.683-.346m-1.885,7.979a.951.951,0,0,0-.169-.249,1.126,1.126,0,0,0-.8-.327,2.79,2.79,0,0,0-2.638,2.481,1.04,1.04,0,0,0,1.074,1.142,2.546,2.546,0,0,0,1.776-.754,2.588,2.588,0,0,0,.858-1.646.662.662,0,0,1-.127-.521Z" transform="translate(-189.898 -90.447)" fill="#323232" fill-rule="evenodd"/>
        </g>
        <g id="グループ_3512" data-name="グループ 3512" transform="translate(56.006 30.203)">
          <path id="パス_2316" data-name="パス 2316" d="M18.228,823.5c.983.628,1.1,2.207.258,3.524s-2.322,1.875-3.306,1.247-1.1-2.207-.258-3.524,2.322-1.875,3.306-1.247" transform="translate(-13.707 -816.009)" fill="#6ad1cc" fill-rule="evenodd"/>
          <path id="パス_2317" data-name="パス 2317" d="M4.276,670.885A3.444,3.444,0,0,0,.657,672.6c-1.062,1.663-.783,3.646.46,4.439s3.159.214,4.222-1.449a3.642,3.642,0,0,0,.352-3.52l-.513-7.233a.663.663,0,1,0-1.323.094Zm.112,1.584a.951.951,0,0,0-.225-.2,1.126,1.126,0,0,0-.853-.122,2.545,2.545,0,0,0-1.537,1.167,2.546,2.546,0,0,0-.413,1.885,1.127,1.127,0,0,0,.469.722,1.126,1.126,0,0,0,.853.121,2.546,2.546,0,0,0,1.537-1.167,2.589,2.589,0,0,0,.429-1.806A.661.661,0,0,1,4.4,672.6Z" transform="translate(0 -664.221)" fill="#323232" fill-rule="evenodd"/>
        </g>
        <g id="グループ_3514" data-name="グループ 3514" transform="translate(0 25.684)">
          <path id="パス_2318" data-name="パス 2318" d="M1192.763,704.667c.693.939.234,2.455-1.024,3.382s-2.84.917-3.533-.022-.234-2.455,1.024-3.382,2.841-.917,3.533.022" transform="translate(-1187.232 -697.631)" fill="#6ad1cc" fill-rule="evenodd"/>
          <path id="パス_2319" data-name="パス 2319" d="M1179.162,571.031a3.443,3.443,0,0,0-3.994.3c-1.589,1.171-2.039,3.122-1.164,4.309s2.872,1.334,4.46.163a3.643,3.643,0,0,0,1.592-3.159l2.117-6.935a.663.663,0,0,0-1.268-.387Zm-.463,1.519a.954.954,0,0,0-.138-.268,1.126,1.126,0,0,0-.752-.419,2.791,2.791,0,0,0-2.915,2.149,1.04,1.04,0,0,0,.93,1.262,2.545,2.545,0,0,0,1.853-.537,2.587,2.587,0,0,0,1.049-1.532.661.661,0,0,1-.064-.533Z" transform="translate(-1173.564 -564.853)" fill="#323232" fill-rule="evenodd"/>
        </g>
        <g id="グループ_3510" data-name="グループ 3510" transform="translate(8.11 0)">
          <path id="パス_2320" data-name="パス 2320" d="M827.8,164.015c.686.944.217,2.456-1.047,3.374s-2.847.9-3.533-.047-.217-2.456,1.047-3.374,2.847-.9,3.533.047" transform="translate(-822.257 -155.868)" fill="#fceb9a" fill-rule="evenodd"/>
          <path id="パス_2321" data-name="パス 2321" d="M1005.321,219.546c.686.944.217,2.456-1.047,3.374s-2.847.9-3.533-.047-.217-2.456,1.047-3.374,2.847-.9,3.533.047" transform="translate(-991.702 -208.874)" fill="#fceb9a" fill-rule="evenodd"/>
          <path id="パス_2322" data-name="パス 2322" d="M816.366.395v0l0,.008,0,.008h0l-.006.015,0,.008,0,.008,0,.008,0,.008-2.135,6.825a3.444,3.444,0,0,0-4,.274c-1.6,1.16-2.061,3.108-1.194,4.3s2.862,1.354,4.459.194A3.642,3.642,0,0,0,815.089,8.9l1.688-5.4,6.806,2.129-1.3,4.171a3.444,3.444,0,0,0-4,.274c-1.6,1.16-2.061,3.108-1.194,4.3s2.862,1.354,4.459.194a3.642,3.642,0,0,0,1.614-3.148l2.518-8.049,0-.008,0-.008a.664.664,0,0,0-.191-.672h0l-.006-.005-.006-.005-.006-.005-.006-.005-.006-.005-.006-.005-.006,0-.006,0-.007,0-.007,0-.007,0-.007,0-.007,0-.007,0-.007,0-.007,0-.007,0-.007,0-.007,0-.007,0-.007,0-.007,0-.007,0-.008,0-.008,0-.008,0-.008,0-.008,0-.008,0-.008,0-.008,0-.008,0-.008,0-.008,0-.008,0L817.172.025a.663.663,0,0,0-.806.369M821.8,11.326a.948.948,0,0,0-.136-.269,1.126,1.126,0,0,0-.749-.425,2.79,2.79,0,0,0-2.93,2.129,1.04,1.04,0,0,0,.922,1.268,2.546,2.546,0,0,0,1.857-.524,2.588,2.588,0,0,0,1.059-1.525.661.661,0,0,1-.061-.533ZM813.732,8.8a.956.956,0,0,0-.136-.269,1.126,1.126,0,0,0-.749-.425,2.79,2.79,0,0,0-2.93,2.129,1.04,1.04,0,0,0,.921,1.268,2.546,2.546,0,0,0,1.857-.524,2.589,2.589,0,0,0,1.059-1.525.662.662,0,0,1-.061-.533Zm3.441-6.557,6.806,2.129.236-.755-6.806-2.129Z" transform="translate(-808.586 0.005)" fill="#323232" fill-rule="evenodd"/>
        </g>
        <g id="グループ_3513" data-name="グループ 3513" transform="translate(8.118 45.117)">
          <path id="パス_2323" data-name="パス 2323" d="M890.412,1209.044c1.039.531,1.306,2.091.6,3.483s-2.131,2.09-3.17,1.559-1.306-2.091-.6-3.482,2.131-2.09,3.171-1.559" transform="translate(-886.189 -1199.015)" fill="#6ad1cc" fill-rule="evenodd"/>
          <path id="パス_2324" data-name="パス 2324" d="M1073.822,1178.108c1.039.531,1.306,2.091.6,3.483s-2.131,2.09-3.171,1.559-1.306-2.091-.6-3.482,2.131-2.09,3.17-1.559" transform="translate(-1061.258 -1169.486)" fill="#6ad1cc" fill-rule="evenodd"/>
          <path id="パス_2325" data-name="パス 2325" d="M884.144,992.214h-.117l-8.34,1.407a.664.664,0,0,0-.549.581v.183l1.189,7.051a3.444,3.444,0,0,0-3.438,2.055c-.9,1.757-.429,3.7.884,4.375s3.165-.09,4.063-1.848a3.642,3.642,0,0,0,.012-3.538l-1.292-7.662,7.032-1.186,1.079,6.4a3.444,3.444,0,0,0-3.438,2.055c-.9,1.757-.428,3.7.884,4.375s3.165-.09,4.063-1.848a3.642,3.642,0,0,0,.012-3.538l-1.4-8.316a.664.664,0,0,0-.6-.55h-.049Zm-7.547,10.8a.95.95,0,0,0-.243-.178,1.126,1.126,0,0,0-.86-.039,2.79,2.79,0,0,0-1.648,3.225,1.04,1.04,0,0,0,1.4.713,2.546,2.546,0,0,0,1.418-1.309,2.587,2.587,0,0,0,.253-1.839.661.661,0,0,1-.3-.448Zm8.34-1.407a.951.951,0,0,0-.243-.178,1.126,1.126,0,0,0-.86-.039,2.791,2.791,0,0,0-1.647,3.225,1.04,1.04,0,0,0,1.4.713,2.546,2.546,0,0,0,1.418-1.309,2.588,2.588,0,0,0,.253-1.839.662.662,0,0,1-.3-.448Z" transform="translate(-872.432 -992.214)" fill="#323232" fill-rule="evenodd"/>
        </g>
      </g>
    </g>
  </g>
</svg>
