<svg xmlns="http://www.w3.org/2000/svg" xmlns:xlink="http://www.w3.org/1999/xlink" width="250" height="250" viewBox="0 0 250 250">
  <defs>
    <clipPath id="clip-path">
      <rect id="長方形_2015" data-name="長方形 2015" width="199.635" height="199.997" fill="none"/>
    </clipPath>
  </defs>
  <g id="グループ_3677" data-name="グループ 3677" transform="translate(-70 -110)">
    <circle id="楕円形_205" data-name="楕円形 205" cx="125" cy="125" r="125" transform="translate(70 110)" fill="#fef6d3"/>
    <g id="グループ_3674" data-name="グループ 3674" transform="translate(95 150)">
      <g id="グループ_3673" data-name="グループ 3673">
        <g id="グループ_3672" data-name="グループ 3672" clip-path="url(#clip-path)">
          <path id="パス_2327" data-name="パス 2327" d="M317.955,540.357a2.128,2.128,0,0,0-3.755.58,29.768,29.768,0,0,1,3.767,2.891c.428-1.318.6-2.6-.012-3.471" transform="translate(-246.606 -423.399)" fill="#fdeeda"/>
          <path id="パス_2328" data-name="パス 2328" d="M448.574,480.825a1.649,1.649,0,1,0-3.3,0,1.649,1.649,0,1,0,3.3,0" transform="translate(-349.484 -376.068)" fill="#fff"/>
          <path id="パス_2329" data-name="パス 2329" d="M228,542.9a45.29,45.29,0,0,0-5.618-3.936c-2.753-1.9-5.6-4.423-8.647-5.806-3.548-1.611-5.7,4.083-7.1,6.708-.938,1.752-1.823,3.532-2.671,5.329,2.4-.578,4.809-1.124,7.214-1.689l.055-.014-1.393-2.091a2.658,2.658,0,1,1,4.589-2.682l2.211,3.318a9.755,9.755,0,0,1,3.366-.163c2.528.392,3.851,2.456,5.241,4.39.551.767,1.116,1.534,1.682,2.3,3.258-.162,3.418-3.436,1.072-5.667" transform="translate(-160.081 -418.234)" fill="#fdeeda"/>
          <path id="パス_2330" data-name="パス 2330" d="M178.122,656.227c1.082-2.182,3.543-5.035,3.864-7.664a2.856,2.856,0,0,1-.779-.444,66.638,66.638,0,0,1-9.46-9.418,57.977,57.977,0,0,1-1.547-3.121,2.726,2.726,0,0,1,2.657-2.657c2.329-.2,4.652-.457,6.981-.654a2.678,2.678,0,0,1,2.657,2.658,2.592,2.592,0,0,1-.094.667,2.624,2.624,0,0,1,.461,2.137c-.4,2.046,1.93,5.766,4.257,3.515,1.35-1.306-.089-6.1-.264-7.682-.183-1.663.089-4.356-.648-5.837-.969-1.95-2.461-1.318-4.212-1.3a72.482,72.482,0,0,0-13.5,1.377c-3.347.649-4.767-4.474-1.413-5.125a72.725,72.725,0,0,1,13.782-1.584c2.437-.006,5.305-.449,7.509.841a5.489,5.489,0,0,1,1.887,1.849c-1.4-4.125-3.91-8.534-5.68-9.04-2.32-.664-5.856,0-8.241.009l-8.792.035c-3.426.014-3.419-5.3,0-5.315,5.763-.023,11.91-.657,17.629.029,3.592.431,5.463,2.579,7.044,5.675.108.21.222.437.339.671-.43-3.8-3.333-7.539-5.523-10.64-.829-1.174-1.652-2.352-2.488-3.52-1.473-2.057-1.91-1.73-4.171-1.264-2.705.558-5.394,1.29-8.086,1.913-3.424.793-6.872,1.6-10.254,2.556-1.492.423-2.388.484-2.651,2.075-.277,1.674.787,4.039.973,5.713a7.089,7.089,0,0,1-.9,4.924c-1.909,3.054-1.425,5.735-.982,9.145.405,3.112.959,6.258,1.186,9.393.574,7.909-.649,16.045-1.477,23.888a2.854,2.854,0,0,1-.231.844,15.3,15.3,0,0,0,3.157,2.52h14.132a48.912,48.912,0,0,1,2.873-7.165" transform="translate(-123.978 -470.977)" fill="#fdeeda"/>
          <path id="パス_2331" data-name="パス 2331" d="M172.633,894.4a17.047,17.047,0,0,0,5.327,2.065c2.973.631,5.533-.012,8.336-.51.144-.524.308-1.039.469-1.555Z" transform="translate(-135.494 -701.988)" fill="#fdeeda"/>
          <path id="パス_2332" data-name="パス 2332" d="M217.249,293.448A20.647,20.647,0,1,0,196.6,272.8c.294,11.236,9.182,20.647,20.647,20.647M230.064,262a3.943,3.943,0,1,1-3.943,3.943A3.942,3.942,0,0,1,230.064,262M208.5,273.917l6.9,6.9c2.423,2.423-1.336,6.179-3.758,3.758l-6.9-6.9c-2.423-2.423,1.336-6.179,3.758-3.758" transform="translate(-154.307 -197.908)" fill="#fdeeda"/>
          <path id="パス_2333" data-name="パス 2333" d="M638.365,558.555a2.7,2.7,0,0,1-.094-2.1q-1.821-.6-3.625-1.248-.66,11.959-1.795,23.918a2.128,2.128,0,0,1,1.872-.568q4.977.629,9.954,1.258a81.987,81.987,0,0,0-6.311-21.265" transform="translate(-496.705 -435.767)" fill="#2db1d0"/>
          <path id="パス_2334" data-name="パス 2334" d="M388.31,153.443c-.051.017-.1.02-.148.034.008.137.018.274.018.41,0-.137-.011-.273-.018-.41-3.066.857-4.362-3.835-1.489-5.058-.176-.4-.356-.8-.535-1.2a2.4,2.4,0,0,1-2.871-1.843c-5.213-20.9-18.967-38.05-40.727-42.5a2.288,2.288,0,0,1-1.576-1.053,15.477,15.477,0,0,1-3.521,1.664,2.715,2.715,0,0,1-.33.829c-4.166,6.822-9.148,13.812-15.591,18.7a2.837,2.837,0,0,1-.334.2,33.1,33.1,0,0,1,10.941,5.826,33.117,33.117,0,0,1-15.521,58.449q-.147,1.694-.294,3.389c.074-.015.147-.032.222-.045a2.838,2.838,0,0,1,4.958-.669,37.677,37.677,0,0,0,17.081,13.594c6.767,2.618,13.225,1.631,19.619-1.6,11.776-5.945,17.929-15.832,20.51-28.381a2.254,2.254,0,0,1,2.543-1.9,2.771,2.771,0,0,1,1,.041c4.585,1.04,8.985-5.775,10.049-9.45,1.034-3.571,1.677-10.919-3.983-9.031m-42.54,11.182c3.425,0,3.42,5.315,0,5.315s-3.42-5.315,0-5.315m6.807,20.889a6.937,6.937,0,0,1-13.834-.84,6.936,6.936,0,0,1,13.834-.837,3.845,3.845,0,0,1,0,1.677m9.141-34.806c-3.425,0-3.42-5.315,0-5.315s3.42,5.315,0,5.315" transform="translate(-248.264 -79.918)" fill="#fdeeda"/>
          <path id="パス_2335" data-name="パス 2335" d="M310.841,37.4c23.491,4.805,38.806,23.624,44.439,46.213a2.613,2.613,0,0,1-2.254,3.256c.179.4.359.8.535,1.2.076-.032.142-.073.224-.1a9.49,9.49,0,0,1,4.985-.446,7.74,7.74,0,0,0-.163-1.1,2.628,2.628,0,0,1-2.242-3.255c3.321-13.613,1.743-28.394-6.068-40.245-8.512-12.915-24.575-21.808-39.9-16.368a2.259,2.259,0,0,1-3.031-1.459c-.192.08-.385.16-.578.237.386,1.575-.407,3.352-2.421,3.091-15.765-2.044-31.4,18.421-30.175,33.123a33.865,33.865,0,0,1,10.974.548,2.912,2.912,0,0,1,.56-4.024c-.844.64.688-.6.952-.84,1.065-.95,2.076-1.959,3.056-3a77.292,77.292,0,0,0,9.677-12.954c1.611-2.638,5.5-.7,4.919,1.854a15.476,15.476,0,0,0,3.521-1.664,2.811,2.811,0,0,1,2.989-4.072" transform="translate(-215.153 -19.563)" fill="#a18778"/>
          <path id="パス_2336" data-name="パス 2336" d="M532.656,454.462c-.005.216,1.118.845,4.228,2.175,3.442,1.472,8.794-.4,12.812.843,6.328,1.959,13.1,2.521,19.293,4.843a29.941,29.941,0,0,1,15.273,13.017c4.369,1.844,9.086.834,11.824-2.93a11.883,11.883,0,0,1-6.159.522c-5.94-.972-8.862-5.732-10.552-11.038-2.1-6.59-3.835-12.148-9.472-16.689a25.671,25.671,0,0,0-18.757-5.529c-2.52.247-3.152-2.595-1.948-4.227-.527-.265-1.053-.531-1.571-.8a12.569,12.569,0,0,1-8.2,3.868,42.388,42.388,0,0,1-6.775,15.949" transform="translate(-404.327 -341.139)" fill="#a18778"/>
          <path id="パス_2337" data-name="パス 2337" d="M276.194,755.945c.072.851.122,1.7.137,2.535.074,4.138-1.82,7.386-5.392,8.315.371,2.185-.25,4.191-1.631,6.6a67.206,67.206,0,0,0-4.886,9.969h19.753a144.864,144.864,0,0,1-5.415-25.363,2.109,2.109,0,0,1,1.416-2.377l-.547-2.694a5.69,5.69,0,0,1-3.434,3.011" transform="translate(-207.537 -590.954)" fill="#b2dbd0"/>
          <path id="パス_2338" data-name="パス 2338" d="M365.005,576.537c-9.316,3.782-18.871,2.131-26.955-2.628,3.646,4.872,8.473,9.185,13.557,10.913,3.225,1.1-16.1-4.486-20.546-11.949q-.208.529-.4,1.051c.039.155.094.305.124.464a7.846,7.846,0,0,1-4.848,8.78c.5.78.975,1.571,1.412,2.379,2.636,4.862,3.617,10.692.309,15.438.98,3.3,1.4,6.689.251,9.146l.547,2.694a2.923,2.923,0,0,1,3.9,2.377c.933,8.782,3.152,16.938,5.636,25.363h17.348c-.007-.078-.025-.149-.025-.232-.162-17.226.664-54.051,1.866-54.269a2.6,2.6,0,0,1,.96-.975c4.548-2.709,9.392-5.627,13.113-9.422a24.516,24.516,0,0,0,3.526-4.678,43.157,43.157,0,0,1-9.772,5.547" transform="translate(-255.817 -448.152)" fill="#fff"/>
          <path id="パス_2339" data-name="パス 2339" d="M699.113,584.461c-.186-.1-.372-.2-.557-.313a2.443,2.443,0,0,1-1.223-2.656,23.211,23.211,0,0,0-10.669-8.845c-5.24-2.16-11.027-2.934-16.61-4.234a86.263,86.263,0,0,1,5.957,20.707,2.765,2.765,0,0,1-.244,1.675,8.526,8.526,0,0,1,3.169,1.066c4.229,2.632,2.679,7.447,1.189,11.173-4.72,11.809-9.213,23.709-13.957,35.509H715.2a360.425,360.425,0,0,0-11.939-44.176,70.838,70.838,0,0,0-4.145-9.907" transform="translate(-522.855 -446.13)" fill="#b2dbd0"/>
          <path id="パス_2340" data-name="パス 2340" d="M48.125,643.77c0-.041,0-.075,0-.117.957-9.061,2.368-18.4,1-27.487-.511-3.394-1.176-6.821-1.6-10.211-.46-3.7,1.557-4.737,2.556-7.825,1.309-4.042-2.868-8.767.919-12.481a12.064,12.064,0,0,1,5.663-2.6,2.936,2.936,0,0,1,.108-.336c.478-1.1.969-2.283,1.482-3.5-4.442,1.706-8.857,3.488-13.211,5.4-3.42,1.5-5.61,2.815-7.331,6.259-2.045,4.092-3.06,8.735-4.088,13.162-3.312,14.264-6.285,28.624-9.129,42.99H48.372c-.014-.018-.031-.034-.045-.052a2.813,2.813,0,0,1-.2-3.194" transform="translate(-19.228 -454.603)" fill="#b2dbd0"/>
          <path id="パス_2341" data-name="パス 2341" d="M502.183,686.429a2.688,2.688,0,0,1-4.174.538l-12.442-13.022q.156,22.5.35,45c0,.082-.016.153-.021.232h19.123c3.043-15.867,5.266-31.921,6.82-48.028l-9.656,15.278" transform="translate(-381.106 -526.765)" fill="#fff"/>
          <path id="パス_2342" data-name="パス 2342" d="M622.309,694.232c.7-1.759,2.637-4.791,2.682-6.739.088-3.745-4.938-3.288-7.564-3.62l-7.661-.969a2.769,2.769,0,0,1-2.173-1.521c-1.533,15.366-3.68,30.681-6.539,45.827h8.32c3.487-8.637,6.808-17.338,10.193-26.016q1.36-3.486,2.743-6.963" transform="translate(-471.747 -534.797)" fill="#2db1d0"/>
          <path id="パス_2343" data-name="パス 2343" d="M270.24,505.79c.466.32.977.647,1.508.979q.27-3.114.541-6.228l-.041,0a34.479,34.479,0,0,1-5.4-.54q-.087,1.727-.173,3.454c1.234.722,2.431,1.555,3.563,2.333" transform="translate(-209.306 -392.436)" fill="#78c8e6"/>
          <path id="パス_2344" data-name="パス 2344" d="M190.931,274.422a27.9,27.9,0,1,0-26.317-18.617c3.9,11.212,14.615,18.386,26.317,18.617m-4.362-53.478c23.315-3.926,39.35,24.059,24.258,42.214a26.122,26.122,0,0,1-28.847,7.726,26.405,26.405,0,0,1-17.009-24.36c.327-12.486,9.063-23.469,21.6-25.58" transform="translate(-127.989 -171.631)" fill="#78c8e6"/>
          <path id="パス_2345" data-name="パス 2345" d="M188.908,277.8a26.122,26.122,0,0,0,28.847-7.726c15.093-18.154-.942-46.14-24.257-42.214-12.536,2.111-21.272,13.094-21.6,25.58a26.406,26.406,0,0,0,17.009,24.36M197.86,232.8a20.647,20.647,0,0,1,0,41.293c-11.465,0-20.352-9.411-20.646-20.647A20.914,20.914,0,0,1,197.86,232.8" transform="translate(-134.918 -178.55)" fill="#232323"/>
          <path id="パス_2346" data-name="パス 2346" d="M518,309.667c3.42,0,3.425-5.315,0-5.315s-3.425,5.315,0,5.315" transform="translate(-404.55 -238.876)" fill="#232323"/>
          <path id="パス_2347" data-name="パス 2347" d="M420.572,461.191a6.937,6.937,0,0,0,13.834.84,3.853,3.853,0,0,0,0-1.677,6.936,6.936,0,0,0-13.835.837m8.612,0a1.649,1.649,0,1,1-3.3,0,1.649,1.649,0,1,1,3.3,0" transform="translate(-330.094 -356.435)" fill="#232323"/>
          <path id="パス_2348" data-name="パス 2348" d="M443.872,393.747c-3.42,0-3.425,5.315,0,5.315s3.425-5.315,0-5.315" transform="translate(-346.366 -309.04)" fill="#232323"/>
          <path id="パス_2350" data-name="パス 2350" d="M337.759,305.822a3.943,3.943,0,1,0-3.943-3.943,3.943,3.943,0,0,0,3.943,3.943" transform="translate(-262.002 -233.841)" fill="#232323"/>
          <path id="パス_2352" data-name="パス 2352" d="M473.96,18.534c-10.092-13.6-27.638-22.619-44.4-16.669a2.761,2.761,0,0,0-1.618,3.666,7.442,7.442,0,0,0,2.528-1.537,7.442,7.442,0,0,1-2.528,1.537,2.259,2.259,0,0,0,3.031,1.459c15.325-5.44,31.388,3.453,39.9,16.368,7.811,11.851,9.388,26.632,6.067,40.245a2.628,2.628,0,0,0,2.242,3.254c-.22-1.1-.427-2.192.891-2.631-1.318.439-1.111,1.533-.891,2.631a2.383,2.383,0,0,0,2.883-1.842c3.844-15.761,1.728-33.235-8.105-46.482" transform="translate(-335.728 0)" fill="#232323"/>
          <path id="パス_2353" data-name="パス 2353" d="M477.131,128.879c-5.633-22.588-20.948-41.408-44.439-46.213a2.811,2.811,0,0,0-2.989,4.072,7.217,7.217,0,0,0,2.043-1.968,7.217,7.217,0,0,1-2.043,1.968,2.288,2.288,0,0,0,1.576,1.053c21.76,4.451,35.514,21.6,40.727,42.5a2.4,2.4,0,0,0,2.871,1.843,24.377,24.377,0,0,1-1.5-3.963,24.377,24.377,0,0,0,1.5,3.963,2.614,2.614,0,0,0,2.254-3.256" transform="translate(-337.004 -64.832)" fill="#232323"/>
          <path id="パス_2354" data-name="パス 2354" d="M336.317,767.245c-.358-3.366-5.676-3.4-5.315,0a144.88,144.88,0,0,0,5.416,25.363h5.535c-2.483-8.425-4.7-16.581-5.636-25.363" transform="translate(-259.78 -600.194)" fill="#232323"/>
          <path id="パス_2355" data-name="パス 2355" d="M157.132,895.957c-2.8.5-5.364,1.141-8.336.51a17.051,17.051,0,0,1-5.327-2.065h-7.994a20.457,20.457,0,0,0,11.908,7.19c4.582,1,8.241-.154,12.74-.763A2.08,2.08,0,0,0,162,898.268a37.337,37.337,0,0,1,1.212-3.866H157.6c-.161.516-.325,1.032-.469,1.555" transform="translate(-106.33 -701.988)" fill="#232323"/>
          <path id="パス_2356" data-name="パス 2356" d="M639.014,323.47a15,15,0,0,0-1.489-5.058c-2.873,1.224-1.577,5.915,1.489,5.058" transform="translate(-499.116 -249.911)" fill="#232323"/>
          <path id="パス_2357" data-name="パス 2357" d="M195.125,134.623c-2.276,2.381-3.835,4.367-7.482,4.342-4.472-.031-6.263-3.584-7.47-7.312-1.641-5.072-2.822-9.785-6.122-14.109a30.883,30.883,0,0,0-27.231-12.011,2.677,2.677,0,0,0-1.948,1.088c1.856.932,3.674,1.9,4.789,3.575-1.115-1.673-2.932-2.644-4.789-3.575-1.2,1.632-.572,4.473,1.948,4.227a25.67,25.67,0,0,1,18.757,5.529c5.637,4.541,7.374,10.1,9.472,16.689,1.69,5.306,4.611,10.066,10.552,11.038a11.885,11.885,0,0,0,6.159-.522c-2.738,3.763-7.455,4.774-11.824,2.93a29.942,29.942,0,0,0-15.273-13.017c-6.19-2.322-12.965-2.885-19.293-4.843-4.018-1.244-8.848-2.963-12.291-4.435-3.11-1.33-5.821,3.247-2.682,4.589.881.377,1.769.74,2.659,1.1a2.685,2.685,0,0,0-.393,1.279q-.57,10.476-1.5,20.95a2.679,2.679,0,0,0-4.132.487l-8.672,13.72L105.9,153.3c4.94-2.954,10.181-6.227,14.022-10.491,4.086-4.536,6.764-10.633,8.317-16.5a2.872,2.872,0,0,0,.092-.676,42.389,42.389,0,0,0,6.775-15.949,12.567,12.567,0,0,0,8.2-3.868,18.242,18.242,0,0,1-1.612-.936,18.242,18.242,0,0,0,1.612.936,22.745,22.745,0,0,0,6.346-11.794c1.024-5.906-.777-12.648-6.028-13.757a1.4,1.4,0,0,1-1.044,1.586,1.4,1.4,0,0,0,1.044-1.586,9.49,9.49,0,0,0-4.985.446c-.082.027-.148.068-.224.1A15,15,0,0,1,139.9,85.87c.05-.014.1-.016.148-.034,5.66-1.888,5.017,5.461,3.983,9.031-1.064,3.675-5.465,10.489-10.049,9.45a2.77,2.77,0,0,0-1-.041,2.254,2.254,0,0,0-2.544,1.9c-2.582,12.549-8.734,22.436-20.51,28.382-6.394,3.228-12.851,4.215-19.619,1.6a37.676,37.676,0,0,1-17.081-13.594,2.838,2.838,0,0,0-4.958.669c-.074.013-.147.03-.221.045q.147-1.695.294-3.389A33.117,33.117,0,0,0,83.865,61.435,33.107,33.107,0,0,0,72.924,55.61a2.792,2.792,0,0,0,.334-.2c6.443-4.884,11.425-11.875,15.591-18.7a2.714,2.714,0,0,0,.33-.829c-.833.291-1.657.546-2.409.8.752-.25,1.575-.506,2.409-.8.585-2.557-3.309-4.491-4.919-1.854a77.285,77.285,0,0,1-9.677,12.954c-.98,1.036-1.991,2.046-3.055,3-.264.236-1.8,1.48-.952.84a2.912,2.912,0,0,0-.56,4.024,33.867,33.867,0,0,0-10.974-.548c-1.225-14.7,14.41-35.167,30.175-33.123,2.013.261,2.807-1.517,2.421-3.091a8.673,8.673,0,0,0-3.094,1.769,8.673,8.673,0,0,1,3.094-1.769,2.834,2.834,0,0,0-2.421-2.224C70.674,13.451,52.153,37.1,53.734,54.442a2.836,2.836,0,0,0,.214.833,32.249,32.249,0,0,0-8.1,3.447A33.59,33.59,0,0,0,30.31,93.336,33.031,33.031,0,0,0,52.3,118.506q-.074,1.482-.149,2.965a6.6,6.6,0,0,0-4.99,1.845,24.674,24.674,0,0,0-4.954,6.743c-6.215,2.313-12.388,4.759-18.469,7.4-3.356,1.46-6.138,2.81-8.3,5.86-2.351,3.309-3.633,7.388-4.717,11.257-4.51,16.1-7.421,32.81-10.664,49.208a2.809,2.809,0,0,0-.021.938H5.271C8.114,190.36,11.087,176,14.4,161.735c1.028-4.427,2.043-9.07,4.088-13.162,1.721-3.444,3.911-4.759,7.331-6.259,4.354-1.91,8.769-3.691,13.211-5.4-.513,1.218-1,2.4-1.482,3.5a2.937,2.937,0,0,0-.108.336,12.06,12.06,0,0,0-5.662,2.6c-3.787,3.714.39,8.439-.919,12.481-1,3.087-3.017,4.126-2.557,7.825.422,3.39,1.086,6.817,1.6,10.211,1.368,9.083-.043,18.426-1,27.487,0,.042,0,.076,0,.117a2.814,2.814,0,0,0,.2,3.194c.014.018.031.034.045.052h7.994a15.3,15.3,0,0,1-3.157-2.52,2.854,2.854,0,0,0,.231-.844c.828-7.843,2.051-15.979,1.477-23.888-.227-3.136-.781-6.281-1.186-9.393-.444-3.41-.927-6.091.982-9.145a7.089,7.089,0,0,0,.9-4.924c-.187-1.675-1.25-4.04-.973-5.713.263-1.591,1.159-1.652,2.651-2.075,3.383-.959,6.831-1.763,10.254-2.556,2.692-.623,5.381-1.355,8.087-1.913,2.261-.466,2.7-.793,4.171,1.264.837,1.168,1.66,2.347,2.488,3.52,2.189,3.1,5.092,6.837,5.523,10.64-.117-.234-.231-.461-.339-.671-1.581-3.1-3.453-5.243-7.045-5.675-5.719-.687-11.865-.052-17.629-.029-3.419.014-3.426,5.328,0,5.315l8.792-.035c2.386-.009,5.922-.673,8.242-.009,1.77.507,4.277,4.916,5.68,9.041a5.485,5.485,0,0,0-1.887-1.85c-2.2-1.29-5.072-.847-7.509-.841A72.729,72.729,0,0,0,43.1,164.008c-3.354.651-1.934,5.774,1.413,5.125a72.48,72.48,0,0,1,13.5-1.377c1.75-.013,3.243-.645,4.212,1.3.736,1.481.464,4.174.648,5.837.175,1.583,1.614,6.376.264,7.682-2.326,2.251-4.659-1.469-4.257-3.515a2.624,2.624,0,0,0-.461-2.137,2.581,2.581,0,0,0,.094-.667,2.678,2.678,0,0,0-2.657-2.657c-2.329.2-4.652.457-6.981.654a2.727,2.727,0,0,0-2.657,2.657,2.832,2.832,0,0,0,.993,2.057,2.818,2.818,0,0,0,.554,1.064,66.666,66.666,0,0,0,9.46,9.418,2.847,2.847,0,0,0,.779.444c-.321,2.628-2.782,5.482-3.864,7.664a48.862,48.862,0,0,0-2.874,7.165h5.615a67.209,67.209,0,0,1,4.886-9.969c1.381-2.413,2-4.419,1.631-6.6,3.572-.929,5.466-4.177,5.392-8.315-.015-.837-.065-1.684-.137-2.535a5.69,5.69,0,0,0,3.434-3.011l-.2-.994.2.994c1.149-2.456.729-5.848-.251-9.145,3.308-4.746,2.326-10.576-.309-15.438-.438-.807-.913-1.6-1.412-2.379a7.846,7.846,0,0,0,4.848-8.78c-.03-.159-.084-.309-.124-.464q.192-.522.4-1.051c4.449,7.462,11.313,14.414,19.133,17.074,3.245,1.1,4.638-4.028,1.413-5.125-5.083-1.729-9.911-6.041-13.557-10.913,8.084,4.759,17.639,6.41,26.955,2.628a43.155,43.155,0,0,0,9.772-5.547,24.531,24.531,0,0,1-3.526,4.678c-3.721,3.795-8.565,6.713-13.113,9.422a2.6,2.6,0,0,0-.959.975,2.676,2.676,0,0,0-2.263,2.591c.12,17.226,5.454,19.987,5.362,6.676L116.9,172.512a2.688,2.688,0,0,0,4.174-.538l9.656-15.278c-1.553,16.107-3.777,32.162-6.82,48.028h5.392c2.859-15.146,5.006-30.461,6.539-45.827a2.77,2.77,0,0,0,2.173,1.521l7.661.969c2.627.332,7.652-.125,7.564,3.62-.046,1.948-1.981,4.979-2.682,6.739q-1.386,3.476-2.743,6.963c-3.385,8.677-6.705,17.379-10.193,26.016h5.688c4.744-11.8,9.236-23.7,13.957-35.509,1.49-3.726,3.04-8.541-1.189-11.173a8.517,8.517,0,0,0-3.169-1.066,2.767,2.767,0,0,0,.244-1.675,86.255,86.255,0,0,0-5.957-20.707c5.582,1.3,11.37,2.074,16.61,4.234a23.212,23.212,0,0,1,10.669,8.845,2.443,2.443,0,0,0,1.223,2.656c.185.11.371.21.557.313a70.808,70.808,0,0,1,4.145,9.907,360.438,360.438,0,0,1,11.939,44.176h5.263a2.8,2.8,0,0,0-.035-.938c-2.438-11.433-5.294-22.813-8.626-34.017a145.427,145.427,0,0,0-5.8-17.073c6.422.4,12.425-3.35,15.094-10.166a2.114,2.114,0,0,0-.8-2.708q.73-.688,1.447-1.442c2.364-2.472-1.389-6.236-3.758-3.758M36.625,96.486A27.912,27.912,0,1,1,62.942,115.1c-11.7-.231-22.42-7.4-26.317-18.617m26.358,23.929-.54,6.228c-.531-.332-1.043-.658-1.508-.978-1.132-.779-2.329-1.611-3.563-2.333q.086-1.727.173-3.454a34.5,34.5,0,0,0,5.4.54l.04,0m3.859,22.225c-.565-.771-1.131-1.538-1.682-2.3-1.391-1.934-2.713-4-5.241-4.39a9.755,9.755,0,0,0-3.366.163l-2.211-3.318a2.658,2.658,0,0,0-4.589,2.682l1.393,2.091-.055.014c-2.4.565-4.812,1.112-7.214,1.689.848-1.8,1.734-3.577,2.671-5.329,1.4-2.624,3.552-8.318,7.1-6.708,3.046,1.383,5.894,3.911,8.647,5.806a45.312,45.312,0,0,1,5.618,3.936c2.346,2.232,2.185,5.505-1.072,5.667m4.52-9.9a29.792,29.792,0,0,0-3.767-2.891,2.128,2.128,0,0,1,3.755-.58c.613.866.44,2.153.012,3.471m76.61,23.623q-4.977-.632-9.954-1.258a2.128,2.128,0,0,0-1.872.568q1.126-11.952,1.795-23.918,1.805.648,3.625,1.248a2.7,2.7,0,0,0,.094,2.1,81.981,81.981,0,0,1,6.311,21.265" transform="translate(0 -12.311)" fill="#323232"/>
          <path id="パス_2358" data-name="パス 2358" d="M238.489,361.118c2.422,2.422,6.181-1.335,3.758-3.758l-6.9-6.9c-2.422-2.422-6.181,1.335-3.758,3.758l6.9,6.9" transform="translate(-181.154 -274.453)" fill="#78c8e6"/>
          <path id="パス_2360" data-name="パス 2360" d="M374.715,576.537c-9.316,3.782-18.871,2.131-26.955-2.628,3.646,4.872,8.473,9.185,13.557,10.913,2.848.619.412,1.761,3.309,3.833a2.675,2.675,0,0,1,2.263-2.591,2.6,2.6,0,0,1,.959-.975c4.548-2.709,9.392-5.627,13.113-9.422a24.518,24.518,0,0,0,3.526-4.678,43.157,43.157,0,0,1-9.772,5.547" transform="translate(-265.527 -448.152)" fill="#fdeeda"/>
        </g>
      </g>
      <path id="パス_2359" data-name="パス 2359" d="M609.688,555.211l10.674,3.354,11.906,19.742-.729,21.321-13.06,28.549-17.427.006,3.334-19.383,1.579-11.845,1.625-14.6,1.27-13.767.567-8.342.162-3.422Z" transform="translate(-471.747 -435.768)" fill="#b2dbd0"/>
      <path id="パス_2361" data-name="パス 2361" d="M173.005,283.249h26.7l7.108-48.473.8-9.36.888-12.382.17-2.973a5.305,5.305,0,0,1,.153-1.169,2.413,2.413,0,0,1,.26-.493l-1.986-.779s-1.36-.5-1.671-1.007a2.467,2.467,0,0,1-.419-.97,6.141,6.141,0,0,1,.079-.926c.047-.053-.778-.559-.778-.559l-.1.734-.778,2.728s-1.944,4.935-2.386,5.88-2.345,4.244-2.553,4.517-2.668,3.471-3.106,3.9-4.742,4.212-5.04,4.418-6.324,4.146-6.549,4.327a32,32,0,0,1-5.176,2.379,42.35,42.35,0,0,1-7.574.171C170,233.023,173.005,283.249,173.005,283.249Z" transform="translate(-76.006 -90.834)" fill="#fff"/>
    </g>
  </g>
</svg>
