<svg xmlns="http://www.w3.org/2000/svg" xmlns:xlink="http://www.w3.org/1999/xlink" width="317.394" height="250" viewBox="0 0 317.394 250">
  <defs>
    <clipPath id="clip-path">
      <rect id="長方形_1881" data-name="長方形 1881" width="317.394" height="200.001" fill="none"/>
    </clipPath>
  </defs>
  <g id="グループ_3678" data-name="グループ 3678" transform="translate(-36 -110)">
    <circle id="楕円形_206" data-name="楕円形 206" cx="125" cy="125" r="125" transform="translate(70 110)" fill="#fef6d3"/>
    <g id="グループ_3427" data-name="グループ 3427" transform="translate(36 150)">
      <g id="グループ_3421" data-name="グループ 3421" clip-path="url(#clip-path)">
        <path id="パス_2288" data-name="パス 2288" d="M12.671,198.742l-7.717-4.375L2.207,183.973v-71.4l1.579-6.365,4.97-5.507,13.39-7.239L40.31,86.144l7.342-2.773,3.5-11.361,6.594,6.422,9.012,6.324,5.926,3.256L78.5,103.8l1.812-4.164,3.528-9.09,4.583-2.534,3.55-1.867,2.415-4.676,1.684,5.647h3.1l20.149,9.817,6.137,4.317,3.23,15.649,1.071,7.128L124.1,180.65,112.9,187.744H44.512L32.791,193.16l-9.236,4.164-6.126,1.418Z" fill="#a9e7ee"/>
        <path id="パス_2001" data-name="パス 2001" d="M325.4,279.333c1.7.294,3.045-.706,4.036-1.981l-7.272-.776a4.648,4.648,0,0,0,3.236,2.757" transform="translate(-243.449 -209)" fill="#fff"/>
        <path id="パス_2002" data-name="パス 2002" d="M686.666,589.344c1.422-.015,2.419-1.145,3.089-2.385l-6.359.151a4.111,4.111,0,0,0,3.27,2.234" transform="translate(-516.421 -443.547)" fill="#fff"/>
        <path id="パス_2003" data-name="パス 2003" d="M273.188,549.2a34.385,34.385,0,0,0-2.957-4.372c-1.036-1.263-2.321-2.726-3.935-3.227-1.672-.52-2.639.762-3.839,1.679-1.651,1.261-3.441,2.369-5.2,3.476-2,1.259-4.386,1.73-6.021,3.521-1.56,1.709-2.85,3.657-4.4,5.379a27.429,27.429,0,0,1-9.981,6.744,1.336,1.336,0,0,1-1.8-1.579c-.454.188-.9.4-1.353.61a1.042,1.042,0,0,1,.827,1.135c-.231,4.1,2.24,8.193,4.359,11.521.848,1.332,1.744,2.646,2.694,3.917l1.458-1.119a1.321,1.321,0,0,1,.694-1.814c3.029-1.165,6.244-2.778,9.5-3.068,3.384-.3,6.6-.09,9.72-1.707,2.244-1.161,3.833-3.227,5.648-4.929a1.19,1.19,0,0,1,1.652-.011,33.157,33.157,0,0,0,3.553-3.932,7.7,7.7,0,0,1-.827-.153,3.628,3.628,0,0,1-1.209,2.154,5.248,5.248,0,0,1-5.335,1.37,6.135,6.135,0,0,1-4.627,3.357c-1.942.241-4.043-1.633-5.271-3.124a10.036,10.036,0,0,1-5.929,4.773,1.223,1.223,0,0,1-.65-2.356,7.512,7.512,0,0,0,5.224-5.78,1.332,1.332,0,0,1,.06-.206c-.879-.885-1.758-1.771-2.6-2.692-1.06-1.159.664-2.891,1.728-1.728,1.687,1.845,3.522,3.548,5.209,5.393a1.255,1.255,0,0,1-.355,1.955c.838.793,1.939,1.494,2.858,1.156,1.666-.613,2.638-1.838,1.965-3.625-1.23-3.266-3.787-6.292-6.216-8.734a1.222,1.222,0,0,1,1.728-1.728,35.88,35.88,0,0,1,4.973,6.23,13.378,13.378,0,0,1,2.161,4.667,2.667,2.667,0,0,0,2.645-.113c.434-.275,1.116-.731,1.278-1.268.311-1.029-.9-2.8-1.352-3.7-1.458-2.858-3.179-6.006-5.681-8.086-1.211-1.006.527-2.726,1.728-1.728a21.474,21.474,0,0,1,4.231,5.33,39.269,39.269,0,0,1,3.008,5.793h0a3.671,3.671,0,0,0,3.113.222c1.09-.6,1.178-2.047.92-3.125-.559-2.326-2.19-4.448-3.394-6.487" transform="translate(-176.599 -409.177)" fill="#fff"/>
        <path id="パス_2004" data-name="パス 2004" d="M667.817,452.111c-.018.125-.035.251-.047.379.013-.128.029-.253.047-.379a3.873,3.873,0,0,0-2.45-.11,1.228,1.228,0,0,1-.795-2.31,6.32,6.32,0,0,1-.521-.595,1.157,1.157,0,0,1-1.635.456c-6.346-3.7-12.7-10.413-13.144-18.112-.49-.529-1-1.05-1.444-1.619a17.194,17.194,0,0,1-13.364,13.613,1.24,1.24,0,0,1-1.465-.9,7.1,7.1,0,0,1-4.347-.02,17.731,17.731,0,0,1-3.832,1.543,1.205,1.205,0,0,1-.651.007,9.75,9.75,0,0,0-1.4,1.956q.072.434.148.862a1.311,1.311,0,0,1-1.21,1.526c.136,1.035.22,2.064.324,3.079a1.092,1.092,0,0,1,1.681.718,86.186,86.186,0,0,1,1.118,11.693,15.333,15.333,0,0,0,1.2,6.041,17.829,17.829,0,0,0,3.637,4.985,16.188,16.188,0,0,0,11.916,5.011,23.243,23.243,0,0,0,12.428-4.367,24.28,24.28,0,0,0,7.291-9.239,1.015,1.015,0,0,1,1.233-.583,7.61,7.61,0,0,1,.657-.8,1.243,1.243,0,0,1,.386-2.4c3.55-.118,6.738-2.264,6.75-6.078a4.511,4.511,0,0,0-2.509-4.361m-36.707.766a1.222,1.222,0,0,1,0-2.443,1.222,1.222,0,0,1,0,2.443m3.6,5.04a6.329,6.329,0,0,1,1.224-2c.557-.822.283-1.658.074-2.573-.35-1.533,2.006-2.182,2.356-.65a5.881,5.881,0,0,1-.006,3.936c-.292.6-1,1.077-1.217,1.69-.314.867.627,1.69,1.168,2.241,1.1,1.124-.625,2.853-1.728,1.728-1.125-1.148-2.31-2.658-1.872-4.375m11.473,9.357c-.938,2.665-2.779,5.589-5.911,5.761-3.159.173-5.383-2.65-6.584-5.225a1.27,1.27,0,0,1-.122-.652,1.182,1.182,0,0,1,1.039-1.176,1.087,1.087,0,0,1,.458-.018l9.942-.237a1.23,1.23,0,0,1,1.178,1.546m.443-14.152a1.222,1.222,0,0,1,0-2.443,1.222,1.222,0,0,1,0,2.443" transform="translate(-469.801 -324.803)" fill="#ffeeda"/>
        <path id="パス_2005" data-name="パス 2005" d="M1172.483,531.607c-.341-8.269-.668-16.542-1.349-24.792a194.362,194.362,0,0,0-2.888-21.65,92.473,92.473,0,0,0-2.469-10.373,12.3,12.3,0,0,0-3.307-5.139c-3.222-3.055-7.623-4.626-11.78-5.935-4.105-1.293-8.331-2.274-12.284-4.009a1.023,1.023,0,0,1-.385-1.635c-.28-.129-.556-.271-.826-.429a15.83,15.83,0,0,1-1.073,2.348c.1.876.2,1.753.281,2.629.765-.336,1.8,0,1.669,1.037q-.932,7.552-1.6,15.132a433.437,433.437,0,0,0-1.379,53.814,1.176,1.176,0,0,1-.124.594h12.857c0-.008,0-.016,0-.024q0-4.243-.007-8.487c-.015-9.7-.006-19.4-.162-29.1-.03-1.89-.148-3.792-.07-5.681a34.842,34.842,0,0,1,2.157-10.629,34.026,34.026,0,0,1,5.526-10.01c1.011-1.207,2.731.53,1.728,1.728-.053.064-.1.129-.156.195-.03.044-.349.47-.415.561-.588.821-1.133,1.673-1.643,2.544a35.677,35.677,0,0,0-3.709,8.856c-1.274,4.792-1.006,9.591-.946,14.481.059,4.791.081,9.582.1,14.373q.042,10.582.041,21.164c0,.008,0,.016,0,.024h24.127q-.048-.262-.094-.525a1.266,1.266,0,0,1-1.812-1.067" transform="translate(-857.534 -345.828)" fill="#eec37f"/>
        <path id="パス_2006" data-name="パス 2006" d="M959.6,469.86a18.492,18.492,0,0,1,1.083,11.026c-.743,3.348-3.395,6.032-6.065,8.224.118.438.315.864.474,1.3a.95.95,0,0,1,1.05.882,12.374,12.374,0,0,1-6.051,12.674,11.837,11.837,0,0,1,1.023,1.951,1.239,1.239,0,0,1,1.149.826,11.814,11.814,0,0,1-4.7,13.8,1.175,1.175,0,0,1-.575.2,3.034,3.034,0,0,0-.039.738,1.289,1.289,0,0,1,1.414,1.168,12.352,12.352,0,0,1-5.245,12.1,1.312,1.312,0,0,1-2.107-1.223,14.84,14.84,0,0,1-6.112-1.34,8.036,8.036,0,0,1-1.93.233,1.222,1.222,0,0,1,0-2.443c4.512,0,7.035-4.977,7.737-8.8a1.016,1.016,0,0,1,1.214-.868,15.91,15.91,0,0,1,1.25-2.484,1.351,1.351,0,0,1-.159-.123,9.722,9.722,0,0,1,1.321-15.329c.257-.523.532-1.042.794-1.56a1.218,1.218,0,0,1-.75-.514,11.775,11.775,0,0,1-2.243-9.134,9.946,9.946,0,0,1,5.857-6.709,1.241,1.241,0,0,1,1.219.08,3.387,3.387,0,0,0,.49-.521,11.239,11.239,0,0,1-3.465-5.162,6.457,6.457,0,0,0-1.011.728,1.139,1.139,0,0,1,.339,1.907l-14.8,13.207a1.24,1.24,0,0,1-1.728,0l-2.513-3.014-17.869-21.432a1.322,1.322,0,0,1,.863-2.134,22.782,22.782,0,0,0-1.775-3.384c-.546.137-1.093.265-1.641.389v2.353a1.169,1.169,0,0,1,1.218,1.179q.089,8.046.313,16.089c.484,17.939,1.326,35.868,1.565,53.813h50.8a1.227,1.227,0,0,1-.168-.594q-.276-7.6-.292-15.214a433.506,433.506,0,0,1,3.275-53.732,1.274,1.274,0,0,1,.774-1.037c-.085-.876-.184-1.753-.28-2.629a16.638,16.638,0,0,1-3.7,4.515" transform="translate(-684.713 -351.181)" fill="#fff"/>
        <path id="パス_2007" data-name="パス 2007" d="M955.148,402.028c-.338.909-1.668,1.365-2.143.272a24.766,24.766,0,0,1-1.6-7.918c-.132.156-.262.313-.4.465-6.033,6.742-16.541,7.964-24.487,4.01-.2,3.427-1.154,6.644-4.044,8.885-2.5,1.941-5.693,2.76-8.7,3.578-.319.087-.64.168-.96.249a22.748,22.748,0,0,1,1.775,3.384,1.013,1.013,0,0,1,.865.406l2.513,3.014L935.1,438.922,948.912,426.6a1.194,1.194,0,0,1,1.389-.179,6.446,6.446,0,0,1,1.012-.728,10.238,10.238,0,0,1-.489-3.331,11,11,0,0,1,4.868-8.751,9.521,9.521,0,0,1-1.747-5.547,8.813,8.813,0,0,1,2.086-5.511,3.117,3.117,0,0,1-.883-.525" transform="translate(-689.788 -298.022)" fill="#ffeeda"/>
        <path id="パス_2008" data-name="パス 2008" d="M806.262,469.852a1.141,1.141,0,0,1,1.226-1.179V466.32c-2.272.515-4.56.946-6.818,1.517a17.779,17.779,0,0,0-11.189,8.5,1.168,1.168,0,0,1-2.05.007,7.351,7.351,0,0,0-.459,2.4,7.387,7.387,0,0,1,2.094,5.134c.11,5.253-4.258,8.539-9.191,8.7a1.285,1.285,0,0,1-.386-.043,7.632,7.632,0,0,0-.658.8,1.3,1.3,0,0,1,.876,1.816,29.791,29.791,0,0,1-4.1,6.344,1.057,1.057,0,0,1,1.54.778,14.539,14.539,0,0,0,2.63,6.621c1.177,1.415,3.169,2.3,4.8,3.069a46.124,46.124,0,0,0,5.854,2.224c3.532,1.106,6.952,2.06,9.428,5.016,4.525,5.4,4.828,13.091,5.184,19.8a1.1,1.1,0,0,1-.218.757h3.318q-.093-7.177-.29-14.352c-.5-18.518-1.383-37.024-1.588-55.55m-11.224,40.973a1.222,1.222,0,0,1-2.443,0c-.044-7.462,1.217-15.118-.61-22.462a1.223,1.223,0,0,1,2.356-.65c1.886,7.581.652,15.411.7,23.111" transform="translate(-586.099 -352.384)" fill="#eec37f"/>
        <path id="パス_2009" data-name="パス 2009" d="M965.01,212.669a1.235,1.235,0,0,1-1.389-1.766c-.137-.219-.267-.442-.394-.661-.651.474-1.677.391-1.834-.6-.34-2.161-1.708-4.047-2.939-5.8a49.8,49.8,0,0,1-3.779-5.64,1.185,1.185,0,0,1,.152-1.362,27.722,27.722,0,0,0-2-3.52c-1.57,2.984-4.892,5.14-8.19,6.206a1.185,1.185,0,0,1-1.453-1.53,10.1,10.1,0,0,1-3.51-1.068,19.45,19.45,0,0,1-4.876,2.929c-1,.42-1.607-.572-1.422-1.426a9.786,9.786,0,0,1-5.13.159,16.888,16.888,0,0,1-2.4,1.395,1.293,1.293,0,0,1-1.755-.7,11.535,11.535,0,0,0-3.574,3.485,1.37,1.37,0,0,1-.014.272c-.77,5.152-1.441,10.112-3.4,14.975q-.144.358-.285.717c.207,1.325.443,2.62.682,3.912a1.38,1.38,0,0,1,1.827,1.084c-.094-.707.083.531.113.714q.187,1.153.417,2.3a57.112,57.112,0,0,0,1.633,6.38,2.848,2.848,0,0,0,1.54.094,2.848,2.848,0,0,1-1.54-.094c.032.1.062.2.094.3,1.5,4.537,3.919,8.459,8.183,10.854a20.145,20.145,0,0,0,13.669,2.051c8.586-1.771,12.733-9.7,14.944-17.462a1.24,1.24,0,0,1,2.4.181c.213-.362.423-.731.634-1.1a3.385,3.385,0,0,1-.809-2.2,3.521,3.521,0,0,1,3.475-3.475,3.337,3.337,0,0,1,2.508,1.114,10.082,10.082,0,0,0,2.164-5.484c.154-2.348-.608-6.106-3.741-5.224m-37.9,1.059a1.312,1.312,0,1,1,1.312-1.312,1.335,1.335,0,0,1-1.312,1.312m4.53,8.239a4.684,4.684,0,0,1,.839-1.34,9.188,9.188,0,0,0,.873-1.664,7.237,7.237,0,0,0,.219-3.5c-.168-1.564,2.277-1.547,2.443,0a9.254,9.254,0,0,1-1.21,6.024,5.152,5.152,0,0,1-.527.815,2.207,2.207,0,0,0-.169.215,5.067,5.067,0,0,0,.541.714c.394.473.821.923,1.256,1.358a1.222,1.222,0,0,1-1.728,1.728c-1.03-1.03-2.959-2.719-2.538-4.353m11.585,10.883c-.851,2.647-2.616,5.753-5.753,5.891-3.371.148-5.578-3.223-6.784-5.914a1.307,1.307,0,0,1-.118-.531,1.13,1.13,0,0,1,1.061-1.305,1.034,1.034,0,0,1,.547.011l9.87.3a1.234,1.234,0,0,1,1.178,1.546m2.416-19.122a1.312,1.312,0,1,1,1.312-1.312,1.335,1.335,0,0,1-1.312,1.312" transform="translate(-692.809 -146.086)" fill="#ffeeda"/>
        <path id="パス_2010" data-name="パス 2010" d="M910.191,301.241c-.239-1.292-.475-2.588-.682-3.912a30.454,30.454,0,0,0-2.362,9.446,14.1,14.1,0,0,1,3.55,1.859c-.494-2.115-.848-4.249-1.121-6.309a.935.935,0,0,1,.616-1.084" transform="translate(-685.503 -224.682)" fill="#a18778"/>
        <path id="パス_2011" data-name="パス 2011" d="M940.829,134.773c-1.4-4.413-2.322-8.951-3.428-13.441-.944-3.83-1.912-7.689-4.1-11.024a23.211,23.211,0,0,0-7.126-6.675,30.151,30.151,0,0,0-9.305-4.261c-5.923-1.359-13.918-.668-17.537,4.906a1.275,1.275,0,0,1-2.3-.457,9.052,9.052,0,0,0-1,.89,1.1,1.1,0,0,1-.6,1.839c-.274.045-.542.1-.806.157a6.138,6.138,0,0,0-.457,1.31,6.138,6.138,0,0,1,.457-1.31,13.449,13.449,0,0,0-9.193,7.523c-1.663,3.266-2.374,6.884-3.707,10.28-1.454,3.7-3.188,7.288-4.659,10.984-2.4,6.033-5.139,14.373,1.554,18.667a1.2,1.2,0,0,1,.438,1.572q.493.125.966.253.048-.69.139-1.388c.531-4.022,2.236-7.524,3.555-11.31,1.385-3.975,1.774-8.2,2.392-12.34.218-1.457,2.305-.961,2.37.377a11.537,11.537,0,0,1,3.574-3.485,1.021,1.021,0,0,1,.521-1.409c3.385-1.609,7.1-4.837,6.512-9.013-.218-1.541,2.137-2.2,2.356-.649.615,4.355-1.83,8.005-5.231,10.377a9.787,9.787,0,0,0,5.13-.159,1.279,1.279,0,0,1,.772-.93c3.76-1.582,7.613-4.864,7.436-9.3-.062-1.575,2.381-1.567,2.443,0,.143,3.591-1.738,6.541-4.354,8.724a10.106,10.106,0,0,0,3.51,1.068,1.165,1.165,0,0,1,.8-.826c3.873-1.253,8.364-4.433,7.121-9.095a1.223,1.223,0,0,1,2.356-.649,7.922,7.922,0,0,1-.637,5.894,27.653,27.653,0,0,1,2,3.52,1.15,1.15,0,0,1,1.958.129c2.069,4.009,6.237,7.4,6.964,12.02a1.266,1.266,0,0,1-.523,1.253c.127.219.256.442.394.662a1.133,1.133,0,0,1,.74-.59c4.512-1.271,6.879,3.027,6.855,6.961A12.593,12.593,0,0,1,935.5,154.5a1.171,1.171,0,0,1-.045.231,3.486,3.486,0,0,1-3.547,3.032,3.526,3.526,0,0,1-2.542-1.266c-.211.368-.42.736-.634,1.1a1.248,1.248,0,0,1-.046.469,39.221,39.221,0,0,1-4.282,10.16,1.245,1.245,0,0,1,.255.676c.228,2.862.267,6.115,1.429,8.787a1.259,1.259,0,0,1,.033.961,3.12,3.12,0,0,0,.883.524,7.781,7.781,0,0,1,2.709-2.058c1.423-.643,2.664,1.464,1.233,2.11a6.1,6.1,0,0,0-3.585,5.46,8.089,8.089,0,0,0,3.471,6.45c1.256.922.035,3.041-1.233,2.11a13.08,13.08,0,0,1-1.34-1.132,8.5,8.5,0,0,0-4.018,6.87,7.939,7.939,0,0,0,.148,1.725c.021-.03.045-.056.065-.087-.02.03-.044.057-.065.087a8.663,8.663,0,0,0,4.125,5.746,1.223,1.223,0,0,1-1.233,2.11,11,11,0,0,1-1.53-1.088,3.387,3.387,0,0,1-.49.521,1.128,1.128,0,0,1,.015,2.029,7.7,7.7,0,0,0-4.734,5.248c-.555,2.595.541,5.157,2,7.251.695,1-.41,1.955-1.36,1.747-.263.518-.537,1.036-.794,1.56l.046-.033c1.308-.884,2.529,1.234,1.233,2.11a7.254,7.254,0,0,0-.872,11.524c1.117,1.01-.414,2.625-1.568,1.851a15.916,15.916,0,0,0-1.25,2.484,1.3,1.3,0,0,1,1.142,1.517c-.8,4.365-3.655,9.256-8.163,10.364a14.842,14.842,0,0,0,6.112,1.34,1.084,1.084,0,0,1,.379-.5,12.508,12.508,0,0,0,3.59-3.958,11.552,11.552,0,0,0,.939-6.418A1.028,1.028,0,0,1,923,244.939a3.03,3.03,0,0,1,.039-.738,1.262,1.262,0,0,1-.659-2.306,9.365,9.365,0,0,0,3.574-11.042c-.341-.916.437-1.507,1.207-1.476a11.833,11.833,0,0,0-1.023-1.951,13.042,13.042,0,0,1-2.021.935c-1.483.538-2.116-1.824-.65-2.356a9.841,9.841,0,0,0,6.366-10.6,1.367,1.367,0,0,1,1.306-1.531c-.159-.436-.355-.862-.473-1.3-.581.477-1.162.931-1.725,1.363-1.248.958-2.464-1.166-1.233-2.11,2.647-2.03,5.907-4.706,6.667-8.127a15.862,15.862,0,0,0-.831-9.129,1.3,1.3,0,0,1-.478-2.317,13.363,13.363,0,0,0,5.78-10.211,17.841,17.841,0,0,0-.611-4.931,7.49,7.49,0,0,0-1.977-3.926c-1.089-.936.255-2.446,1.4-1.936l.245-.567a1.311,1.311,0,0,1-.666-2.348c2.35-1.8,4.765-3.572,6.428-6.072a13.964,13.964,0,0,0,2-10.166c-.969-5.945-3.03-11.6-4.841-17.321m-2.666,22.141a24.117,24.117,0,0,1-9.918,15.588c-1.288.91-2.507-1.21-1.233-2.11a21.718,21.718,0,0,0,8.8-14.128c.263-1.549,2.617-.888,2.356.65" transform="translate(-660.766 -74.641)" fill="#a18778"/>
        <path id="パス_2012" data-name="パス 2012" d="M248.212,10.991c-7.9-2.293-18.594-1.171-23.253,6.47a1.256,1.256,0,0,1-2.278-.431,5.9,5.9,0,0,0-.844.743,1.1,1.1,0,0,1-.627,1.82,5.2,5.2,0,0,0-.758.2c-.057.108-.113.217-.168.325.054-.108.11-.217.168-.325-3.1,1.039-5.127,4.852-6.13,7.7-1.628,4.633-.915,9.742.177,14.408a1.235,1.235,0,0,1-1.141,1.516c-.062.267-.122.534-.176.8a4.575,4.575,0,0,1,4.42.615,1.242,1.242,0,0,1,.339,1.749,4.905,4.905,0,0,1,.887.2,1.08,1.08,0,0,1,1.473-1.062l1.011.378c.129-.113.257-.226.384-.341a1.3,1.3,0,0,1-.171-1.821c1.235-1.5,2.71-2.831,4.024-4.267,1.535-1.678,3.493-3.584,4.3-5.76a1.325,1.325,0,0,1,2.167-.445,12.754,12.754,0,0,0,.946-5.056,24.542,24.542,0,0,1-2.079-4.294c-.551-1.478,1.811-2.11,2.356-.65a18.221,18.221,0,0,0,6.134,8.464,24.237,24.237,0,0,0,10.251,3.981.984.984,0,0,1,.86.79,14,14,0,0,0,3.479-.728c-.345-.159-.688-.318-1.027-.481a18.566,18.566,0,0,1-9.327-8.979c-.654-1.42,1.453-2.66,2.11-1.233a15,15,0,0,0,4.287,5.635,25.433,25.433,0,0,0,5.1,2.909c3.259,1.517,6.588,3.092,8.134,6.564a1.249,1.249,0,0,1-.006,1.07,5.982,5.982,0,0,0,2.67,1.978,50.14,50.14,0,0,0,.416-12.408c-1.25-9.72-8.859-17.353-18.109-20.036" transform="translate(-161.095 -7.507)" fill="#7e7e7e"/>
        <path id="パス_2013" data-name="パス 2013" d="M259.177,101.083q.031-.252.061-.5a5.979,5.979,0,0,1-2.67-1.978c-.4.832-1.639,1.208-2.1.164-1.358-3.05-4.31-4.331-7.165-5.647a14,14,0,0,1-3.479.728,1.33,1.33,0,0,1-1.509,1.566A25.737,25.737,0,0,1,231,90.824a19.349,19.349,0,0,1-4.7-5.27,12.754,12.754,0,0,1-.946,5.056,1,1,0,0,1,.189,1.094c-1.677,4.5-6,7.507-8.956,11.1a1.015,1.015,0,0,1-1.557.094c-.127.115-.255.228-.384.341l6.626,2.481a1.223,1.223,0,0,1,.773.822,1.236,1.236,0,0,1,.648,1.354c-.319,1.674.513,3.589,1.351,4.995a6.45,6.45,0,0,0,4.145,3.123,6.654,6.654,0,0,0,5.822-.884,6.309,6.309,0,0,0,2.7-5.038,1.245,1.245,0,0,1,.053-.437,1.039,1.039,0,0,1,1.158-1.251l4.645.49c.047,0,.093.012.137.021a1.326,1.326,0,0,1,1.695,1.474c-.533,2.969,1.49,6.76,4.845,6.671,3.5-.094,4.824-3,5.264-5.984.229-1.552,2.583-.889,2.356.649a9.558,9.558,0,0,1-2.31,5.508,7.745,7.745,0,0,1-6.054,2.233,7.49,7.49,0,0,1-6.332-6.016,5.808,5.808,0,0,0-.256,2.575c.183,1.271.82,2.43.941,3.713a3.469,3.469,0,0,1-1,2.858c-.564.561-1.79.984-2.1,1.737-.589,1.437-2.952.8-2.356-.649a4.938,4.938,0,0,1,1.951-2.225c.36-.256.831-.5,1.01-.925.266-.629-.122-1.427-.317-2.037a9.778,9.778,0,0,1,.429-7.381l-1.334-.141a9.325,9.325,0,0,1-17.2,3.149,10.641,10.641,0,0,1-1.69-6.19l-7.26-2.718a1.253,1.253,0,0,1-.824-1.294,4.906,4.906,0,0,0-.887-.2,1.071,1.071,0,0,1-1.572.361,2.515,2.515,0,0,0-3.815.72,7.909,7.909,0,0,0-1.513,4.216c-.189,3.947,1.639,8.233,5.781,9.2a1.057,1.057,0,0,1,.831.76,1.276,1.276,0,0,1,.266.987q-.977,7.208-1.955,14.416c-.176,1.3-1.847,1.046-2.271.032l-.477,1.976a71.219,71.219,0,0,0,11.357,9.006q2.8,1.862,5.719,3.552,1.441.832,2.911,1.612c.663.35,1.255.561,1.58,1.271.662,1.448,1.165,2.993,1.743,4.475l3.476,8.924q1.529-3.949,2.908-7.956c.2-.588.405-1.178.6-1.769a4.6,4.6,0,0,1,.709-1.785,4.884,4.884,0,0,1,1.932-.74q.218-.072.435-.148l.511-3.92a17.722,17.722,0,0,1-8.744.2c-5.454-1.156-10.381-4.827-13.919-9.024-3.423-4.061-6.2-9.311-5.8-14.772.113-1.562,2.557-1.569,2.443,0-.417,5.744,3.02,11.185,6.961,15.072,3.5,3.453,8.04,6.3,13.049,6.641a13.829,13.829,0,0,0,6.491-.79,15.18,15.18,0,0,0,5.979-5.47,73.35,73.35,0,0,0,4.66-7.279,31.775,31.775,0,0,0,3.156-9.036c1.327-6.438,2.577-12.9,3.5-19.414.158-1.113,1.411-1.087,2.029-.417.154-.811.312-1.62.417-2.443-.733.205-1.591-.16-1.476-1.106m-28.607,8.778a1.222,1.222,0,0,1,0-2.443,1.222,1.222,0,0,1,0,2.443m18.222,1.576a1.222,1.222,0,0,1,0-2.443,1.222,1.222,0,0,1,0,2.443m-5.238,21.183c-1.488,2.817-4.169,5.356-7.594,4.76-3.1-.54-5.075-3.374-5.818-6.246a1.171,1.171,0,0,1,.053-.792.976.976,0,0,1,1.124-.755l11.178,1.194a1.24,1.24,0,0,1,1.055,1.838" transform="translate(-154.428 -64.651)" fill="#ffeeda"/>
        <path id="パス_2014" data-name="パス 2014" d="M669.493,391.745a22.843,22.843,0,0,0-5.793-10.909,24.73,24.73,0,0,0-18.589-6.315c-2.935.411-6.592,1.452-8.213,4.164a1.249,1.249,0,0,1-2.28-.474q-.374.408-.747.819c1.043.564.37,2.478-1.024,2.229-1.706-.3-3.515,1.278-4.643,2.349a14.913,14.913,0,0,0-3.286,4.3c-2.345,4.97-1.923,10.9-1.039,16.209a9.75,9.75,0,0,1,1.4-1.956,1.241,1.241,0,0,1,0-2.363,15.516,15.516,0,0,0,10.407-9.379c.551-1.459,2.912-.823,2.356.65a18.18,18.18,0,0,1-8.282,9.542,7.1,7.1,0,0,0,4.348.02,1.076,1.076,0,0,1,.815-1.46,14.845,14.845,0,0,0,11.73-12.3c.252-1.551,2.606-.889,2.356.649-.022.133-.048.265-.073.4.449.569.955,1.09,1.445,1.619-.013-.224-.022-.448-.025-.674a1.222,1.222,0,0,1,2.443,0c.084,7.091,6.2,13.317,11.959,16.676a1.155,1.155,0,0,1,.4,1.653,6.308,6.308,0,0,0,.521.595,1.428,1.428,0,0,1,.145-.046,6.375,6.375,0,0,1,3.7.1c.189-.557.4-1.109.6-1.669a1.151,1.151,0,0,1-1-1.489,25.575,25.575,0,0,0,.361-12.932" transform="translate(-470.915 -282.891)" fill="#a18778"/>
        <path id="パス_2015" data-name="パス 2015" d="M394.786,521.366a36.034,36.034,0,0,0-4.275-2c-2.059-.779-4.966-2.077-7.193-1.373a36.436,36.436,0,0,0-7.694,3.974,11.92,11.92,0,0,1,2.613,2.13,23.014,23.014,0,0,1,1.714,2.029l.159-.081a1.229,1.229,0,0,1,.141-1.984c1.949-1.2,4.549-2.323,6.871-1.9,2.69.485,6.529,3.767,9.19,1.686,1.43-1.118-.608-1.988-1.527-2.481" transform="translate(-283.848 -391.281)" fill="#fff"/>
        <path id="パス_2016" data-name="パス 2016" d="M491.046,534.919l-2.327-.223-14.75-1.411-2.409-.231a7.7,7.7,0,0,0-1.416-.176c-.55.122-.943.955-1.254,1.38q-.556.762-1.111,1.525-1.338,1.842-2.672,3.687-4.093,5.662-8.167,11.338a1.274,1.274,0,0,1-1.595.411l-.171.251a7.531,7.531,0,0,1,.782.064,61.146,61.146,0,0,1,6.724,1.733,48.449,48.449,0,0,1,6.378,1.91,13.309,13.309,0,0,1,3.532,2.217c.147-.464-.018-.843-.453-1.437s-.9-1.171-1.383-1.726c-1.144-1.31-2.3-2.607-3.427-3.935-1.5-1.769-4.3-4.657-3.408-7.231a4.255,4.255,0,0,1,6-2.207c1.995,1.064,3.713,3.242,5.2,4.9,2.086,2.324,4.008,4.794,5.859,7.307l.178.24,1.353-1.75c-.953.159-2.01-.776-1.3-1.74l8.166-11.072,1.609-2.182c.209-.283.7-.756.684-1.145-.009-.194-.234-.4-.25-.47-.128-.013-.258-.02-.383-.032" transform="translate(-343.963 -402.672)" fill="#e4e4e4"/>
        <path id="パス_2017" data-name="パス 2017" d="M444.679,622.327l.466-.686a1.358,1.358,0,0,0-.466.686" transform="translate(-336.03 -469.755)" fill="#fff"/>
        <path id="パス_2018" data-name="パス 2018" d="M455.8,585c-1.728-2.346-3.529-4.643-5.477-6.813q-1.168-1.3-2.412-2.533a9.566,9.566,0,0,0-2.3-1.988,1.786,1.786,0,0,0-2.48.924c-.206.734.7,1.919,1.112,2.5a79.616,79.616,0,0,0,5.269,6.233c1.687,1.936,3.478,4.089,1.822,6.549a22.3,22.3,0,0,1,2.317,3.1c.831,1.342-1.283,2.567-2.11,1.233a20.682,20.682,0,0,0-2.91-3.513,11.671,11.671,0,0,0-5.157-3.124c-1.858-.583-3.747-1.05-5.632-1.537-1.842-.475-3.8-1.342-5.715-1.442a3.265,3.265,0,0,0-2.132.659l-.466.686a1.44,1.44,0,0,0,.5,1.349c1.279,1.356,3.52,1.415,5.215,1.86,2.884.756,6.16,1.37,8.424,3.42a30.445,30.445,0,0,1,3.634,4.074,1.155,1.155,0,0,1,.222.456l.023.032c.873,1.315-1.244,2.537-2.11,1.233-2.169-3.266-6.065-4.968-9.74-5.824-2.106-.491-4.243-.856-6.366-1.263-1.024-.2-4.809-1.576-4.69.322.116,1.858,2.595,2.185,4.008,2.5a39.337,39.337,0,0,1,5.426,1.589,27.426,27.426,0,0,1,9.676,6.05,1.24,1.24,0,0,1-1.066,2.073,1.311,1.311,0,0,1-.475-.123c-2.68-1.25-5.1-2.959-7.735-4.288a16.723,16.723,0,0,0-3.813-1.428,6.265,6.265,0,0,0-3.21-.191c-1.326.481-.461,1.635.2,2.289,1.016,1.013,2.433,1.336,3.691,1.951,2.419,1.183,4.417,3.06,6.928,4.077,1.441.584.807,2.946-.649,2.356a19.725,19.725,0,0,1-2.162-1.042c-1.943,4.085-2.765,8.931-.638,13.11a1.379,1.379,0,0,1,.087.216h8.824a1.008,1.008,0,0,1-.165-.757,18.264,18.264,0,0,1,2.38-6.271c1.378-2.506,2.963-4.893,4.521-7.29,1.331-2.048,2.678-4.1,3.848-6.242a46.453,46.453,0,0,0,2.4-6.193c.574-1.529,1.35-3.2,1.263-4.867-.085-1.623-1.253-2.869-2.174-4.119" transform="translate(-320.888 -433.365)" fill="#ffeeda"/>
        <path id="パス_2019" data-name="パス 2019" d="M686.2,620.126a20.181,20.181,0,0,1-1.9-5.667,1.3,1.3,0,0,1,.011-.533,22.55,22.55,0,0,1-4.54,3.736,24.728,24.728,0,0,1-14.141,3.812,16.809,16.809,0,0,1-3.848-.741,1.326,1.326,0,0,1-.048.323c-.748,2.71-3.383,3.768-5.877,4.579a9.04,9.04,0,0,0,1.345.937,1.117,1.117,0,0,1,1.528-.3c4.328,2.6,9.115,4.386,14.229,4.164s9.85-2.422,14.1-5.141a1.143,1.143,0,0,1,1.742.722,16.61,16.61,0,0,0,2.332-1.258,11.369,11.369,0,0,1-4.932-4.634" transform="translate(-495.609 -463.925)" fill="#ffeeda"/>
        <path id="パス_2020" data-name="パス 2020" d="M641.394,672.153c-.907-3.3-2.555-6.653-5.6-8.458a22.021,22.021,0,0,0-4.989-1.883,56.838,56.838,0,0,1-5.721-2.052c-1.071-.452-2.151-.935-3.177-1.495a16.546,16.546,0,0,1-2.332,1.258,1.18,1.18,0,0,1-.509,1.388c-4.624,2.956-9.781,5.233-15.335,5.474-5.523.24-10.787-1.687-15.463-4.5a1.194,1.194,0,0,1-.294-1.812,9.016,9.016,0,0,1-1.345-.937c-.471.153-.936.3-1.383.442-2.946.953-5.906,1.859-8.829,2.881-2.571.9-5.653,1.761-7.67,3.693-2.282,2.186-2.478,5.639-3.045,8.566a94.1,94.1,0,0,0-1.455,10.081h78.936a1.2,1.2,0,0,1-.3-.757,55.9,55.9,0,0,0-1.487-11.892" transform="translate(-426.383 -497.431)" fill="#b2dbd0"/>
        <path id="パス_2021" data-name="パス 2021" d="M989.626,360.547c1.449,0,2.41-1.292,3.026-2.61l-6.547-.2c.822,1.425,1.975,2.809,3.521,2.81" transform="translate(-745.169 -270.331)" fill="#fff"/>
        <path id="パス_2022" data-name="パス 2022" d="M414.735,572.815a11.571,11.571,0,0,0-3.187.934q-.6.212-1.194.45a28.664,28.664,0,0,1,1.463,2.814,10.41,10.41,0,0,1,.433,1.167,20.717,20.717,0,0,0,3.269-2.267c.965-1,1.078-3.131-.784-3.1" transform="translate(-310.092 -432.858)" fill="#fff"/>
        <path id="パス_2023" data-name="パス 2023" d="M954.887,266.1a1.312,1.312,0,1,0,1.312,1.312,1.327,1.327,0,0,0-1.312-1.312" transform="translate(-720.586 -201.086)" fill="#363636"/>
        <path id="パス_2024" data-name="パス 2024" d="M1030.734,266.1a1.312,1.312,0,1,0,1.312,1.312,1.327,1.327,0,0,0-1.312-1.312" transform="translate(-777.902 -201.086)" fill="#363636"/>
        <path id="パス_2025" data-name="パス 2025" d="M1106.036,322.915a1.032,1.032,0,0,0,2.063,0,1.032,1.032,0,0,0-2.063,0" transform="translate(-835.797 -243.263)" fill="#fff"/>
        <path id="パス_2026" data-name="パス 2026" d="M856.372,402.127c.009,3.459-.49,6.856-3.543,8.955-2.524,1.735-5.774,2.416-8.693,3.174-3.086.8-6.35,1.19-9.378,2.171a20.619,20.619,0,0,0-8.266,5.117,17.681,17.681,0,0,0-3.182,4.155c-.721,1.395,1.387,2.632,2.11,1.233a17.778,17.778,0,0,1,11.189-8.5c3.122-.79,6.3-1.306,9.419-2.155,3.006-.819,6.2-1.638,8.7-3.578,3.362-2.607,4.1-6.535,4.089-10.577a1.222,1.222,0,0,0-2.443,0" transform="translate(-622.038 -302.983)" fill="#323232"/>
        <path id="パス_2027" data-name="パス 2027" d="M1147.587,459.213c3.953,1.734,8.178,2.716,12.284,4.009,4.157,1.309,8.558,2.88,11.78,5.935a12.3,12.3,0,0,1,3.307,5.139,92.517,92.517,0,0,1,2.469,10.374,194.366,194.366,0,0,1,2.887,21.65c.681,8.25,1.008,16.523,1.349,24.792.064,1.567,2.508,1.575,2.443,0-.62-15.053-1.212-30.173-3.931-45.025-.675-3.687-1.482-7.351-2.45-10.974a16.28,16.28,0,0,0-3.073-6.316c-2.864-3.5-7.173-5.5-11.336-6.995-4.77-1.714-9.847-2.659-14.5-4.7-1.426-.626-2.672,1.479-1.233,2.11" transform="translate(-866.714 -345.332)" fill="#323232"/>
        <path id="パス_2028" data-name="パス 2028" d="M1070.072,382.15c.266,3.336.411,6.913,1.762,10.02.625,1.438,2.731.2,2.11-1.233-1.162-2.671-1.2-5.925-1.429-8.787-.124-1.557-2.569-1.57-2.443,0" transform="translate(-808.617 -287.893)" fill="#323232"/>
        <path id="パス_2029" data-name="パス 2029" d="M307.981,175.038a1.222,1.222,0,0,0,0,2.443,1.222,1.222,0,0,0,0-2.443" transform="translate(-231.84 -132.271)" fill="#323232"/>
        <path id="パス_2030" data-name="パス 2030" d="M382.56,181.489a1.222,1.222,0,0,0,0,2.443,1.222,1.222,0,0,0,0-2.443" transform="translate(-288.197 -137.146)" fill="#323232"/>
        <path id="パス_2031" data-name="パス 2031" d="M216.84,221.032q-.978,7.208-1.955,14.416c-.208,1.538,2.145,2.2,2.356.649q.977-7.208,1.955-14.415c.208-1.538-2.145-2.2-2.356-.649" transform="translate(-162.373 -166.358)" fill="#323232"/>
        <path id="パス_2032" data-name="パス 2032" d="M269.366,171.63a10.144,10.144,0,0,0,1.6,6.877,9.57,9.57,0,0,0,13.56,2.931,8.7,8.7,0,0,0,3.664-6.964c-.075-1.565-2.519-1.574-2.443,0a6.31,6.31,0,0,1-2.7,5.038,6.652,6.652,0,0,1-5.822.884,6.448,6.448,0,0,1-4.144-3.123c-.839-1.406-1.671-3.321-1.351-4.995.293-1.536-2.062-2.2-2.356-.649" transform="translate(-203.459 -129.03)" fill="#323232"/>
        <path id="パス_2033" data-name="パス 2033" d="M358.18,181.829c-.771,4.288,1.783,9.24,6.456,9.726a7.745,7.745,0,0,0,6.054-2.233A9.56,9.56,0,0,0,373,183.814c.227-1.538-2.127-2.2-2.356-.649-.44,2.985-1.767,5.891-5.264,5.984-3.354.09-5.378-3.7-4.844-6.671.276-1.537-2.078-2.2-2.356-.649" transform="translate(-270.563 -136.736)" fill="#323232"/>
        <path id="パス_2034" data-name="パス 2034" d="M338.127,181.512l4.645.49c1.562.165,1.55-2.28,0-2.443l-4.645-.49c-1.562-.165-1.55,2.28,0,2.443" transform="translate(-254.631 -135.31)" fill="#323232"/>
        <path id="パス_2035" data-name="パス 2035" d="M237.1,158.5l7.637,2.86c1.474.552,2.111-1.809.649-2.356l-7.637-2.86c-1.474-.552-2.111,1.809-.649,2.356" transform="translate(-178.544 -117.933)" fill="#323232"/>
        <path id="パス_2036" data-name="パス 2036" d="M235.381,182.883c-.4,5.461,2.377,10.71,5.8,14.772,3.538,4.2,8.465,7.868,13.919,9.024,5,1.06,10.226.334,14.051-3.235a38.721,38.721,0,0,0,5.642-7.365,40.038,40.038,0,0,0,4.656-9.137c1.291-3.9,1.831-8.153,2.589-12.184.719-3.821,1.393-7.652,1.939-11.5.218-1.538-2.136-2.2-2.356-.649-.923,6.51-2.174,12.976-3.5,19.414a31.774,31.774,0,0,1-3.157,9.036,73.375,73.375,0,0,1-4.66,7.279,15.18,15.18,0,0,1-5.979,5.47,13.83,13.83,0,0,1-6.491.79c-5.009-.342-9.547-3.188-13.049-6.641-3.941-3.886-7.378-9.328-6.961-15.072.114-1.569-2.33-1.561-2.443,0" transform="translate(-177.842 -122.208)" fill="#323232"/>
        <path id="パス_2037" data-name="パス 2037" d="M203.341,149.887c-4.6-3.051-8.392,1.969-8.934,6.251-.659,5.207,2.1,11.09,7.5,12.352,1.53.357,2.183-2,.65-2.356-4.143-.967-5.971-5.254-5.782-9.2a7.912,7.912,0,0,1,1.513-4.216,2.516,2.516,0,0,1,3.815-.72c1.314.872,2.539-1.243,1.233-2.11" transform="translate(-146.835 -112.557)" fill="#323232"/>
        <path id="パス_2038" data-name="パス 2038" d="M342.419,187.509a9.84,9.84,0,0,0-.5,7.554c.2.61.583,1.408.317,2.037-.18.425-.65.668-1.01.925a4.936,4.936,0,0,0-1.951,2.225c-.6,1.454,1.767,2.087,2.356.65.309-.753,1.535-1.176,2.1-1.737a3.469,3.469,0,0,0,1-2.858c-.121-1.283-.758-2.441-.941-3.713a7,7,0,0,1,.737-3.849c.624-1.427-1.48-2.672-2.11-1.233" transform="translate(-256.306 -141.212)" fill="#323232"/>
        <path id="パス_2039" data-name="パス 2039" d="M322.13,266.955l-11.178-1.194a1.231,1.231,0,0,0-1.178,1.546c.743,2.872,2.716,5.706,5.818,6.246,3.424.6,6.106-1.943,7.593-4.76.734-1.39-1.374-2.626-2.11-1.233-.987,1.869-2.675,4.01-5.064,3.6-2.166-.375-3.38-2.562-3.881-4.5l-1.178,1.546L322.13,269.4c1.561.167,1.55-2.278,0-2.443" transform="translate(-234.06 -200.824)" fill="#323232"/>
        <path id="パス_2040" data-name="パス 2040" d="M198.436,349.248a119.294,119.294,0,0,1,11.972,15.591,1.231,1.231,0,0,0,1.919.247,43.7,43.7,0,0,0,6.911-13.489c.484-1.5-1.875-2.142-2.356-.649a40.378,40.378,0,0,1-6.283,12.41l1.919.247a123.175,123.175,0,0,0-12.355-16.086c-1.044-1.18-2.766.553-1.728,1.728" transform="translate(-149.709 -262.312)" fill="#323232"/>
        <path id="パス_2041" data-name="パス 2041" d="M227.532,312.421l2.443,8.307a1.231,1.231,0,0,0,2.042.539l6.462-7.982c.683-.844,2.341-2.275,2.16-3.469a37.247,37.247,0,0,0-1.212-4.3l-1.476-5.232a1.236,1.236,0,0,0-2.233-.292c-1.414,2.976-3.306,5.463-6.347,6.874a16.832,16.832,0,0,1-1.792.69,4.883,4.883,0,0,0-1.932.74,4.592,4.592,0,0,0-.709,1.785c-.194.592-.4,1.181-.6,1.77-1.276,3.687-2.624,7.342-4.1,10.954H222.6l-4.644-11.922c-.577-1.483-1.081-3.028-1.743-4.475-.325-.71-.917-.921-1.58-1.271q-1.472-.777-2.911-1.612-2.915-1.684-5.719-3.552a69.363,69.363,0,0,1-11.856-9.514A1.234,1.234,0,0,0,192.1,291l-3.44,11.276c-.46,1.507,1.9,2.152,2.356.649l3.44-11.276-2.042.539a68.181,68.181,0,0,0,10.375,8.553,99.707,99.707,0,0,0,11.617,7.03l-.561-.73,6.393,16.413a1.235,1.235,0,0,0,2.356,0c1.867-4.582,3.654-9.234,5.09-13.97l-.853.853a18.565,18.565,0,0,0,6.138-2.782,16.616,16.616,0,0,0,4.854-6.331l-2.233-.292,2.688,9.529.314-1.189-8.307,10.262,2.042.539q-1.222-4.154-2.443-8.307a1.223,1.223,0,0,0-2.356.649" transform="translate(-142.523 -219.226)" fill="#323232"/>
        <path id="パス_2042" data-name="パス 2042" d="M1194.707,503.977a34.016,34.016,0,0,0-5.526,10.01,34.848,34.848,0,0,0-2.157,10.629c-.078,1.889.04,3.79.07,5.68.156,9.7.147,19.4.162,29.1q.006,4.243.008,8.487a1.222,1.222,0,0,0,2.443,0q0-10.582-.041-21.164c-.019-4.791-.041-9.582-.1-14.373-.06-4.89-.328-9.689.946-14.481A35.679,35.679,0,0,1,1194.22,509c.51-.871,1.055-1.724,1.643-2.544.083-.116.579-.775.366-.5q.1-.13.2-.256c1-1.2-.717-2.935-1.728-1.728" transform="translate(-896.978 -380.531)" fill="#323232"/>
        <path id="パス_2043" data-name="パス 2043" d="M842.524,551.838c1.827,7.343.566,15,.61,22.462a1.222,1.222,0,0,0,2.443,0c-.046-7.7,1.189-15.53-.7-23.111a1.223,1.223,0,0,0-2.356.65" transform="translate(-636.638 -415.859)" fill="#323232"/>
        <path id="パス_2044" data-name="パス 2044" d="M356.972,85.9c-1.545-3.472-4.874-5.048-8.134-6.564a25.437,25.437,0,0,1-5.1-2.909,15,15,0,0,1-4.287-5.635c-.657-1.426-2.764-.187-2.11,1.233A18.567,18.567,0,0,0,346.671,81c3.146,1.515,6.67,2.71,8.192,6.129.638,1.434,2.744.192,2.11-1.233" transform="translate(-254.826 -53.015)" fill="#323232"/>
        <path id="パス_2045" data-name="パス 2045" d="M254.281,9.955c4.659-7.641,15.349-8.763,23.253-6.47,9.25,2.683,16.859,10.316,18.109,20.036.552,4.3.043,8.64-.477,12.912-.19,1.557,2.255,1.543,2.443,0a54.092,54.092,0,0,0,.513-12.607,24.966,24.966,0,0,0-5.134-12.8,29.323,29.323,0,0,0-13.652-9.539,27.963,27.963,0,0,0-16.682-.414,17.394,17.394,0,0,0-10.483,7.647c-.821,1.346,1.292,2.575,2.11,1.233" transform="translate(-190.418 0)" fill="#323232"/>
        <path id="パス_2046" data-name="パス 2046" d="M207.519,64.423c-1.091-4.666-1.8-9.775-.177-14.408,1.082-3.079,3.355-7.279,6.888-7.9,1.546-.271.891-2.627-.649-2.356-4.25.746-6.975,5.4-8.4,9.078-2,5.168-1.248,10.982-.019,16.236.358,1.53,2.714.883,2.356-.649" transform="translate(-154.116 -30.029)" fill="#323232"/>
        <path id="パス_2047" data-name="パス 2047" d="M254.738,105.507c-.811,2.176-2.769,4.082-4.3,5.76-1.314,1.436-2.789,2.763-4.024,4.267-.991,1.206.729,2.944,1.728,1.728,2.955-3.6,7.28-6.607,8.956-11.1.55-1.475-1.811-2.112-2.356-.649" transform="translate(-185.979 -79.102)" fill="#323232"/>
        <path id="パス_2048" data-name="パス 2048" d="M954.887,266.1a1.312,1.312,0,1,0,1.312,1.312,1.327,1.327,0,0,0-1.312-1.312" transform="translate(-720.586 -201.086)" fill="#363636"/>
        <path id="パス_2049" data-name="パス 2049" d="M954.887,266.1a1.312,1.312,0,1,0,1.312,1.312,1.327,1.327,0,0,0-1.312-1.312" transform="translate(-720.586 -201.086)" fill="#363636"/>
        <path id="パス_2050" data-name="パス 2050" d="M1030.734,266.1a1.312,1.312,0,1,0,1.312,1.312,1.327,1.327,0,0,0-1.312-1.312" transform="translate(-777.902 -201.086)" fill="#363636"/>
        <path id="パス_2051" data-name="パス 2051" d="M1030.734,266.1a1.312,1.312,0,1,0,1.312,1.312,1.327,1.327,0,0,0-1.312-1.312" transform="translate(-777.902 -201.086)" fill="#363636"/>
        <path id="パス_2052" data-name="パス 2052" d="M979.238,280.347a7.229,7.229,0,0,1-.22,3.5,9.158,9.158,0,0,1-.873,1.664,4.693,4.693,0,0,0-.839,1.34c-.421,1.634,1.508,3.323,2.538,4.353a1.222,1.222,0,0,0,1.728-1.728c-.435-.435-.862-.885-1.256-1.358a3.553,3.553,0,0,1-.644-.923c.142.368-.11.432.272-.006a5.164,5.164,0,0,0,.528-.815,9.252,9.252,0,0,0,1.209-6.024c-.166-1.547-2.611-1.564-2.443,0" transform="translate(-738.476 -210.968)" fill="#323232"/>
        <path id="パス_2053" data-name="パス 2053" d="M984.56,347.8l-10.3-.315a1.237,1.237,0,0,0-1.055,1.838c1.206,2.691,3.413,6.062,6.784,5.914,3.136-.138,4.9-3.243,5.753-5.891.482-1.5-1.876-2.143-2.356-.649-.512,1.59-1.584,4.1-3.6,4.1-2.274,0-3.7-2.993-4.467-4.71l-1.055,1.838,10.3.315c1.573.048,1.571-2.4,0-2.443" transform="translate(-735.322 -262.583)" fill="#323232"/>
        <path id="パス_2054" data-name="パス 2054" d="M917.048,314.19c1.057,7.961,3.3,17.026,10.292,21.806,8.1,5.534,20.2,4.814,26.854-2.624,3.379-3.776,5.335-8.586,6.707-13.4a1.223,1.223,0,0,0-2.356-.649c-2.211,7.76-6.358,15.69-14.944,17.462a20.144,20.144,0,0,1-13.668-2.051c-4.264-2.395-6.682-6.316-8.182-10.854a56.488,56.488,0,0,1-1.728-6.675q-.229-1.145-.417-2.3c-.03-.183-.207-1.422-.113-.714-.2-1.536-2.65-1.556-2.443,0" transform="translate(-692.976 -236.548)" fill="#323232"/>
        <path id="パス_2055" data-name="パス 2055" d="M1104.138,264.522c3.133-.882,3.9,2.876,3.741,5.224-.229,3.476-2.623,7.233-6.091,8.222a1.223,1.223,0,0,0,.65,2.356c4.743-1.353,7.877-6.416,7.906-11.2.024-3.934-2.343-8.232-6.855-6.961a1.223,1.223,0,0,0,.649,2.356" transform="translate(-831.937 -197.939)" fill="#323232"/>
        <path id="パス_2056" data-name="パス 2056" d="M791.231,512.617c2.994-.767,4.968,1.61,4.959,4.471-.012,3.814-3.2,5.96-6.75,6.078-1.568.052-1.575,2.5,0,2.443,4.933-.165,9.3-3.45,9.192-8.7-.092-4.4-3.581-7.79-8.05-6.646a1.223,1.223,0,0,0,.649,2.356" transform="translate(-595.665 -385.419)" fill="#323232"/>
        <path id="パス_2057" data-name="パス 2057" d="M672.252,371.13c1.621-2.712,5.278-3.753,8.213-4.164a24.727,24.727,0,0,1,18.589,6.315,22.846,22.846,0,0,1,5.793,10.909,25.576,25.576,0,0,1-.361,12.932,1.222,1.222,0,0,0,2.356.649c2.5-8.545.729-18.492-5.175-25.268a22.974,22.974,0,0,0-9.54-6.292,24.707,24.707,0,0,0-11.347-1.73c-3.917.45-8.489,1.819-10.638,5.414a1.223,1.223,0,0,0,2.11,1.233" transform="translate(-506.269 -275.337)" fill="#323232"/>
        <path id="パス_2058" data-name="パス 2058" d="M620.187,519.372a89.215,89.215,0,0,1,1.063,11.622,17.292,17.292,0,0,0,1.352,6.369,19.526,19.526,0,0,0,3.9,5.538,19.081,19.081,0,0,0,12.15,5.963,24.726,24.726,0,0,0,14.141-3.812,25.971,25.971,0,0,0,9.449-10.974c.685-1.408-1.421-2.648-2.11-1.233a24.278,24.278,0,0,1-7.291,9.239,23.242,23.242,0,0,1-12.428,4.367,16.186,16.186,0,0,1-11.917-5.011,17.825,17.825,0,0,1-3.637-4.984,15.336,15.336,0,0,1-1.2-6.041,86.18,86.18,0,0,0-1.118-11.693c-.293-1.543-2.648-.89-2.356.65" transform="translate(-468.637 -391.317)" fill="#323232"/>
        <path id="パス_2059" data-name="パス 2059" d="M625.958,392.688c-4.379-.783-8.619,3.914-10.49,7.381-3.135,5.807-2.441,13.1-1.336,19.34.274,1.546,2.629.891,2.356-.649-.978-5.518-1.581-11.83.892-17.071a14.915,14.915,0,0,1,3.286-4.3c1.128-1.071,2.937-2.654,4.643-2.349,1.537.275,2.2-2.079.649-2.356" transform="translate(-463.377 -296.677)" fill="#323232"/>
        <path id="パス_2060" data-name="パス 2060" d="M656.555,514.183a1.222,1.222,0,0,0,0,2.443,1.222,1.222,0,0,0,0-2.443" transform="translate(-495.247 -388.552)" fill="#323232"/>
        <path id="パス_2061" data-name="パス 2061" d="M720.068,515.183a1.222,1.222,0,0,0,0,2.443,1.222,1.222,0,0,0,0-2.443" transform="translate(-543.242 -389.308)" fill="#323232"/>
        <path id="パス_2062" data-name="パス 2062" d="M681.659,576.776l-10.262.244a1.238,1.238,0,0,0-1.055,1.838c1.2,2.574,3.425,5.4,6.584,5.225,3.133-.172,4.973-3.1,5.911-5.761.524-1.486-1.836-2.125-2.356-.649-.579,1.643-1.745,3.954-3.783,3.976-2.129.022-3.475-2.371-4.246-4.023l-1.055,1.838,10.262-.244a1.222,1.222,0,0,0,0-2.443" transform="translate(-506.453 -435.851)" fill="#323232"/>
        <path id="パス_2063" data-name="パス 2063" d="M772.2,611.368a20.172,20.172,0,0,0,1.9,5.667c1.649,3.189,4.924,4.784,8.109,6.129a56.854,56.854,0,0,0,5.721,2.052,22.023,22.023,0,0,1,4.989,1.883c3.047,1.8,4.695,5.157,5.6,8.458a55.861,55.861,0,0,1,1.487,11.892c.083,1.564,2.527,1.574,2.443,0-.356-6.709-.659-14.4-5.184-19.8-2.476-2.956-5.9-3.91-9.428-5.016a46.106,46.106,0,0,1-5.854-2.224c-1.633-.769-3.624-1.653-4.8-3.069a14.536,14.536,0,0,1-2.63-6.621c-.275-1.546-2.63-.891-2.356.649" transform="translate(-583.508 -460.834)" fill="#323232"/>
        <path id="パス_2064" data-name="パス 2064" d="M582.144,637.776a3.554,3.554,0,0,1-2.415,2.2c-1.355.577-2.781,1-4.183,1.444-3.069.977-6.147,1.935-9.174,3.042-2.688.982-5.67,2-7.676,4.143-2.125,2.272-2.617,5.325-3.159,8.269a108.614,108.614,0,0,0-1.883,13.791c-.086,1.571,2.358,1.566,2.443,0a88.446,88.446,0,0,1,1.6-12.084c.567-2.927.763-6.38,3.045-8.566,2.017-1.932,5.1-2.794,7.67-3.693,2.923-1.022,5.884-1.927,8.83-2.881,2.815-.911,6.371-1.8,7.26-5.021a1.223,1.223,0,0,0-2.356-.649" transform="translate(-418.378 -481.296)" fill="#323232"/>
        <path id="パス_2065" data-name="パス 2065" d="M660.758,662.935c4.675,2.81,9.94,4.738,15.462,4.5,5.553-.241,10.711-2.518,15.335-5.475,1.321-.844.1-2.96-1.233-2.11-4.251,2.718-8.984,4.918-14.1,5.141s-9.9-1.562-14.229-4.164a1.223,1.223,0,0,0-1.233,2.11" transform="translate(-498.873 -498.477)" fill="#323232"/>
        <path id="パス_2066" data-name="パス 2066" d="M285.388,63.412a21.031,21.031,0,0,0,6.778,9.563,25.737,25.737,0,0,0,11.314,4.588c1.538.272,2.2-2.082.65-2.356a24.235,24.235,0,0,1-10.251-3.981,18.221,18.221,0,0,1-6.134-8.464c-.545-1.46-2.907-.828-2.356.649" transform="translate(-215.596 -46.802)" fill="#323232"/>
        <path id="パス_2067" data-name="パス 2067" d="M680.289,422.8a14.845,14.845,0,0,1-11.73,12.3c-1.538.32-.887,2.676.649,2.356a17.192,17.192,0,0,0,13.437-14.011c.25-1.538-2.1-2.2-2.356-.649" transform="translate(-504.545 -318.829)" fill="#323232"/>
        <path id="パス_2068" data-name="パス 2068" d="M639.538,437.518a15.516,15.516,0,0,1-10.407,9.379,1.223,1.223,0,0,0,.649,2.356,18.071,18.071,0,0,0,12.114-11.085c.556-1.473-1.8-2.109-2.356-.649" transform="translate(-474.762 -329.995)" fill="#323232"/>
        <path id="パス_2069" data-name="パス 2069" d="M734.44,430.042c.094,7.98,6.638,14.979,13.169,18.786a1.222,1.222,0,0,0,1.233-2.109c-5.763-3.359-11.875-9.585-11.959-16.676a1.222,1.222,0,0,0-2.443,0" transform="translate(-554.993 -324.078)" fill="#323232"/>
        <path id="パス_2070" data-name="パス 2070" d="M675.96,521.391c.209.915.483,1.75-.074,2.573a6.321,6.321,0,0,0-1.224,2c-.438,1.717.747,3.227,1.872,4.375,1.1,1.125,2.83-.6,1.728-1.728-.541-.552-1.482-1.374-1.168-2.241.222-.613.924-1.088,1.217-1.69a5.88,5.88,0,0,0,.006-3.936c-.35-1.532-2.706-.884-2.356.649" transform="translate(-509.751 -392.847)" fill="#323232"/>
        <path id="パス_2071" data-name="パス 2071" d="M915.615,480.7l17.869,21.433L936,505.148a1.24,1.24,0,0,0,1.728,0l14.8-13.207c1.176-1.049-.557-2.772-1.728-1.728L936,503.42h1.728l-17.869-21.433-2.512-3.014c-1.008-1.209-2.728.527-1.728,1.728" transform="translate(-691.674 -361.637)" fill="#323232"/>
        <path id="パス_2072" data-name="パス 2072" d="M901.086,477.128c.205,18.526,1.089,37.032,1.588,55.55q.217,8.043.313,16.089a1.222,1.222,0,0,0,2.443,0c-.206-18.526-1.089-37.032-1.588-55.55q-.217-8.044-.313-16.089a1.222,1.222,0,0,0-2.443,0" transform="translate(-680.923 -359.659)" fill="#323232"/>
        <path id="パス_2073" data-name="パス 2073" d="M1128.057,478.662a433.566,433.566,0,0,0-3.275,53.732q.012,7.609.292,15.214c.057,1.568,2.5,1.575,2.443,0a433.51,433.51,0,0,1,1.379-53.814q.669-7.58,1.6-15.132c.192-1.557-2.253-1.543-2.443,0" transform="translate(-849.963 -360.832)" fill="#323232"/>
        <path id="パス_2074" data-name="パス 2074" d="M969.255,96.739c3.618-5.574,11.613-6.265,17.537-4.906a30.15,30.15,0,0,1,9.305,4.261,23.21,23.21,0,0,1,7.126,6.675c2.19,3.335,3.159,7.194,4.1,11.024,1.106,4.49,2.029,9.028,3.428,13.441,1.812,5.716,3.873,11.377,4.841,17.321a13.964,13.964,0,0,1-2,10.166c-1.663,2.5-4.078,4.272-6.428,6.072-1.232.943-.016,3.066,1.233,2.11a34.536,34.536,0,0,0,6.348-5.648,15.938,15.938,0,0,0,3.539-10.267,41.166,41.166,0,0,0-1.825-9.662c-.754-2.8-1.587-5.576-2.534-8.313a143.317,143.317,0,0,1-3.779-13.932c-1.02-4.3-1.99-8.765-4.246-12.624a24.366,24.366,0,0,0-7.223-7.574,34.576,34.576,0,0,0-10.023-5.093c-7.3-2.088-17.028-1.19-21.512,5.717-.859,1.323,1.256,2.549,2.11,1.233" transform="translate(-730.69 -67.102)" fill="#323232"/>
        <path id="パス_2075" data-name="パス 2075" d="M1115.991,397a7.489,7.489,0,0,1,1.977,3.926,17.832,17.832,0,0,1,.611,4.931,13.362,13.362,0,0,1-5.78,10.211c-1.286.887-.066,3.005,1.233,2.11a16,16,0,0,0,6.981-12.087,19.649,19.649,0,0,0-.69-5.814,9.693,9.693,0,0,0-2.606-5c-1.187-1.02-2.923.7-1.728,1.728" transform="translate(-840.496 -298.463)" fill="#323232"/>
        <path id="パス_2076" data-name="パス 2076" d="M953.3,170.325c.59,4.177-3.128,7.4-6.512,9.013-1.419.675-.181,2.782,1.233,2.11,4.558-2.166,8.388-6.442,7.635-11.772-.219-1.551-2.574-.891-2.356.649" transform="translate(-714.982 -127.55)" fill="#323232"/>
        <path id="パス_2077" data-name="パス 2077" d="M992.714,168.736c.176,4.432-3.677,7.714-7.436,9.3-1.427.6-.8,2.966.649,2.356,4.745-2,9.453-6.045,9.23-11.652-.062-1.567-2.506-1.575-2.443,0" transform="translate(-743.935 -126.618)" fill="#323232"/>
        <path id="パス_2078" data-name="パス 2078" d="M1032.534,167.169c1.244,4.662-3.247,7.842-7.12,9.095-1.49.482-.853,2.842.649,2.356,5.188-1.678,10.442-6.047,8.827-12.1a1.223,1.223,0,0,0-2.356.649" transform="translate(-774.233 -125.179)" fill="#323232"/>
        <path id="パス_2079" data-name="パス 2079" d="M1085.937,419.023a8.512,8.512,0,0,0-4.8,7.569,10.65,10.65,0,0,0,4.682,8.56c1.268.932,2.488-1.188,1.233-2.11a8.089,8.089,0,0,1-3.471-6.45,6.1,6.1,0,0,1,3.585-5.46c1.431-.646.19-2.753-1.233-2.11" transform="translate(-816.985 -316.552)" fill="#323232"/>
        <path id="パス_2080" data-name="パス 2080" d="M1074.229,470.147a10.736,10.736,0,0,0-.379,18.933,1.223,1.223,0,0,0,1.233-2.11,8.3,8.3,0,0,1,.379-14.713c1.392-.732.159-2.841-1.233-2.11" transform="translate(-807.33 -355.161)" fill="#323232"/>
        <path id="パス_2081" data-name="パス 2081" d="M1096.647,483.543a15.743,15.743,0,0,1,1,9.5c-.76,3.421-4.02,6.1-6.667,8.127-1.231.944-.015,3.067,1.233,2.11,3.151-2.418,6.885-5.511,7.79-9.587a18.433,18.433,0,0,0-1.243-11.387c-.672-1.42-2.78-.182-2.11,1.233" transform="translate(-824.031 -363.992)" fill="#323232"/>
        <path id="パス_2082" data-name="パス 2082" d="M1048.8,618a9.726,9.726,0,0,0-1.366,15.362c1.164,1.052,2.9-.671,1.728-1.728a7.254,7.254,0,0,1,.872-11.524c1.3-.876.074-2.994-1.233-2.11" transform="translate(-789.13 -466.844)" fill="#323232"/>
        <path id="パス_2083" data-name="パス 2083" d="M1072.584,634.775a9.365,9.365,0,0,1-3.574,11.042c-1.318.848-.095,2.964,1.233,2.11a11.813,11.813,0,0,0,4.7-13.8c-.544-1.46-2.907-.828-2.356.649" transform="translate(-807.39 -478.563)" fill="#323232"/>
        <path id="パス_2084" data-name="パス 2084" d="M1058.783,545.079a9.946,9.946,0,0,0-5.857,6.709,11.775,11.775,0,0,0,2.243,9.134c.891,1.283,3.01.063,2.11-1.233-1.455-2.095-2.551-4.656-2-7.251a7.7,7.7,0,0,1,4.734-5.249c1.428-.652.188-2.759-1.233-2.11" transform="translate(-795.502 -411.807)" fill="#323232"/>
        <path id="パス_2085" data-name="パス 2085" d="M1079,571.36a9.841,9.841,0,0,1-6.366,10.6c-1.466.533-.833,2.895.65,2.356a12.363,12.363,0,0,0,8.072-13.608c-.218-1.551-2.573-.891-2.356.649" transform="translate(-809.93 -430.6)" fill="#323232"/>
        <path id="パス_2086" data-name="パス 2086" d="M1071.311,207.585a49.784,49.784,0,0,0,3.779,5.64c1.231,1.749,2.6,3.636,2.939,5.8.244,1.549,2.6.891,2.356-.65-.727-4.619-4.9-8.01-6.964-12.02-.721-1.4-2.831-.163-2.11,1.233" transform="translate(-809.445 -155.469)" fill="#323232"/>
        <path id="パス_2087" data-name="パス 2087" d="M1103.29,316.779a2.253,2.253,0,1,0,2.253,2.253,2.253,2.253,0,0,0-2.253-2.253" transform="translate(-832.02 -239.38)" fill="#fff"/>
        <path id="パス_2088" data-name="パス 2088" d="M1099.511,311.772a3.475,3.475,0,1,0,3.468,3.6,3.537,3.537,0,0,0-3.468-3.6c-1.571-.085-1.567,2.359,0,2.443a1.032,1.032,0,0,1,0,2.063,1.032,1.032,0,0,1,0-2.063c1.564-.084,1.574-2.528,0-2.443" transform="translate(-828.242 -235.595)" fill="#323232"/>
        <path id="パス_2089" data-name="パス 2089" d="M887.04,120.9a15.112,15.112,0,0,0-10.377,6.915c-2.265,3.494-3.1,7.485-4.5,11.339-1.434,3.953-3.295,7.738-4.884,11.628-1.533,3.754-2.989,7.74-3.1,11.84a11.51,11.51,0,0,0,5.465,10.354c1.327.852,2.554-1.262,1.233-2.11-6.693-4.294-3.957-12.634-1.554-18.667,1.472-3.7,3.206-7.281,4.659-10.984,1.333-3.4,2.044-7.014,3.707-10.279,2.1-4.117,5.369-6.923,10-7.68,1.548-.253.891-2.608-.65-2.356" transform="translate(-653.031 -91.344)" fill="#323232"/>
        <path id="パス_2090" data-name="パス 2090" d="M887.177,227.71c-.618,4.139-1.008,8.365-2.392,12.34-1.319,3.786-3.024,7.288-3.555,11.31a21.179,21.179,0,0,0,1.591,11.363c1.32,3.09,3.64,6.86,2.348,10.323a6.251,6.251,0,0,1-7.858,3.468c-1.476-.547-2.114,1.814-.649,2.356a8.661,8.661,0,0,0,8.664-1.87c2.647-2.384,3.085-5.971,2.15-9.268-1.14-4.018-3.641-7.478-3.968-11.738-.343-4.468.975-8.576,2.622-12.66,1.961-4.863,2.633-9.823,3.4-14.975.23-1.538-2.124-2.2-2.356-.649" transform="translate(-661.84 -171.405)" fill="#323232"/>
        <path id="パス_2091" data-name="パス 2091" d="M1053.762,698.154a11.549,11.549,0,0,1-.939,6.418,12.506,12.506,0,0,1-3.59,3.958c-1.24.965.5,2.682,1.728,1.728a12.352,12.352,0,0,0,5.244-12.1c-.134-1.555-2.578-1.569-2.443,0" transform="translate(-792.552 -526.688)" fill="#323232"/>
        <path id="パス_2092" data-name="パス 2092" d="M1020.173,693.018c-.7,3.826-3.224,8.805-7.737,8.8a1.222,1.222,0,0,0,0,2.443c5.624,0,9.183-5.638,10.093-10.6.282-1.537-2.073-2.2-2.356-.649" transform="translate(-764.175 -523.026)" fill="#323232"/>
        <path id="パス_2093" data-name="パス 2093" d="M1096.825,331.335a21.718,21.718,0,0,1-8.8,14.128c-1.274.9-.055,3.019,1.233,2.11a24.117,24.117,0,0,0,9.918-15.588c.261-1.538-2.093-2.2-2.356-.649" transform="translate(-821.783 -249.712)" fill="#323232"/>
        <path id="パス_2094" data-name="パス 2094" d="M481.567,543.725l7.67-10.4c.882-1.2,1.912-2.368,2.684-3.64a3.03,3.03,0,0,0-1.637-4.43,8.482,8.482,0,0,0-1.3-.137l-14.915-1.427c-1.628-.156-3.291-.227-4.909-.47a3.211,3.211,0,0,0-3.316,1.354c-.818,1.073-1.594,2.18-2.387,3.272q-5.215,7.183-10.384,14.4c-.918,1.279,1.2,2.5,2.11,1.233q4.075-5.675,8.167-11.338,1.334-1.845,2.672-3.687.555-.763,1.111-1.525c.31-.425.7-1.258,1.254-1.38a7.713,7.713,0,0,1,1.416.176l2.409.231,14.75,1.411,2.327.223c.179.017.37.017.547.052a1.017,1.017,0,0,1,.115.011c-.6-.2-.042.131-.028.439.017.388-.475.861-.684,1.145l-1.609,2.182-8.166,11.072c-.934,1.267,1.185,2.487,2.11,1.233" transform="translate(-342.2 -395.343)" fill="#323232"/>
        <path id="パス_2101" data-name="パス 2101" d="M402.923,353.328c-.255-.107-.139-.06.135.058q.563.241,1.124.486,1.893.827,3.769,1.693c3.567,1.643,7.1,3.374,10.542,5.262,1.83,1,3.637,2.051,5.387,3.188a18.912,18.912,0,0,1,4.013,3.02,9.95,9.95,0,0,1,1.709,3.775,47.031,47.031,0,0,1,1.223,5.757c.685,4.3.986,8.644,1.5,12.965.183,1.542,2.628,1.561,2.443,0-.475-4.015-.784-8.047-1.351-12.052-.517-3.648-1.029-7.828-2.97-11.047a11.541,11.541,0,0,0-3.381-3.2,61.977,61.977,0,0,0-5.425-3.447c-3.669-2.111-7.463-4-11.3-5.8-2.239-1.047-4.493-2.066-6.772-3.022-1.448-.607-2.08,1.756-.649,2.356" transform="translate(-303.867 -265.144)" fill="#323232"/>
        <path id="パス_2104" data-name="パス 2104" d="M100.544,611.926a123.42,123.42,0,0,1-15.055,6.88c-5.782,2.357-11.609,4.612-17.333,7.11a79.475,79.475,0,0,0-7.438,3.6,1.223,1.223,0,0,0,1.233,2.11,124.708,124.708,0,0,1,14.756-6.657c5.818-2.361,11.674-4.635,17.418-7.173a80.713,80.713,0,0,0,7.653-3.762,1.223,1.223,0,0,0-1.233-2.11" transform="translate(-45.432 -462.284)" fill="#323232"/>
        <path id="パス_2105" data-name="パス 2105" d="M72.134,419.146a35.732,35.732,0,0,1,4.268,5.027,27.848,27.848,0,0,1,3.059,6.675,54.126,54.126,0,0,1,2.086,10.117c1.031,8.033,1.562,16.136,2,24.22.105,1.93.2,3.862.282,5.794.063,1.567,2.507,1.575,2.443,0-.219-5.443-.55-10.884-.958-16.315-.33-4.4-.714-8.8-1.261-13.178a59.546,59.546,0,0,0-1.861-10.1,33.762,33.762,0,0,0-3.388-7.987,36.915,36.915,0,0,0-4.945-5.982c-1.093-1.134-2.819.594-1.728,1.728" transform="translate(-54.246 -315.15)" fill="#323232"/>
        <path id="パス_2106" data-name="パス 2106" d="M179.339,639.892a22.681,22.681,0,0,0,4.955,16.167c.98,1.229,2.7-.51,1.728-1.728a20.244,20.244,0,0,1-4.239-14.44c.141-1.566-2.3-1.556-2.443,0" transform="translate(-135.454 -482.662)" fill="#323232"/>
        <path id="パス_2107" data-name="パス 2107" d="M320.232,436.791a97.835,97.835,0,0,1,.358,17.588c-.148,1.564,2.3,1.554,2.443,0a97.84,97.84,0,0,0-.358-17.588c-.133-1.555-2.577-1.569-2.443,0" transform="translate(-241.985 -329.184)" fill="#323232"/>
        <path id="パス_2108" data-name="パス 2108" d="M495.593,612.447a17.013,17.013,0,0,1,2.483-5.815c1.383-2.412,2.926-4.728,4.438-7.059a71.218,71.218,0,0,0,3.985-6.631,61.838,61.838,0,0,0,2.719-7.346,10.156,10.156,0,0,0,.717-4.735c-.25-1.826-1.374-3.189-2.435-4.63-1.851-2.513-3.773-4.984-5.859-7.307-1.492-1.661-3.21-3.84-5.2-4.9a4.255,4.255,0,0,0-6,2.207c-.9,2.574,1.912,5.462,3.408,7.231,1.123,1.328,2.284,2.625,3.427,3.935.484.554.948,1.132,1.383,1.726.637.87.7,1.28.04,2.169-.935,1.266,1.185,2.486,2.11,1.233,1.873-2.537.033-4.748-1.7-6.731a79.6,79.6,0,0,1-5.269-6.233c-.412-.585-1.319-1.771-1.112-2.5a1.786,1.786,0,0,1,2.48-.924,9.56,9.56,0,0,1,2.3,1.988q1.245,1.229,2.412,2.533c1.948,2.169,3.749,4.466,5.477,6.813.921,1.25,2.089,2.5,2.173,4.119.087,1.671-.689,3.338-1.263,4.867a46.458,46.458,0,0,1-2.4,6.193c-1.171,2.146-2.517,4.194-3.848,6.242-1.557,2.4-3.142,4.784-4.521,7.29a18.266,18.266,0,0,0-2.38,6.271c-.209,1.553,2.237,1.538,2.443,0" transform="translate(-370.475 -425.833)" fill="#323232"/>
        <path id="パス_2109" data-name="パス 2109" d="M461.141,619.8c-1.784-2.879-4.511-5.808-7.672-7.1a48.4,48.4,0,0,0-6.378-1.91,61.193,61.193,0,0,0-6.724-1.733,5.439,5.439,0,0,0-4.872,1.485,3.7,3.7,0,0,0-.244,4.657c1.176,1.684,3.132,2.314,5.048,2.714,2.334.487,4.59,1.247,6.863,1.952a7.945,7.945,0,0,1,3.54,2.528c.507.545,1,1.108,1.469,1.683.145.176.288.355.432.532.079.1.347.447.076.094.944,1.23,3.068.015,2.11-1.233a30.433,30.433,0,0,0-3.634-4.074c-2.264-2.05-5.54-2.665-8.424-3.421-1.695-.444-3.936-.5-5.215-1.86-1.524-1.615.581-2.773,2.1-2.694,1.911.1,3.872.966,5.715,1.442,1.885.486,3.774.953,5.632,1.537a11.672,11.672,0,0,1,5.157,3.125,20.686,20.686,0,0,1,2.91,3.513c.827,1.334,2.941.109,2.11-1.233" transform="translate(-328.371 -460.194)" fill="#323232"/>
        <path id="パス_2110" data-name="パス 2110" d="M440.02,642.671c-4.4-6.617-13-7.356-20.109-8.7-1.523-.287-3.229-.5-4.406.747a3.711,3.711,0,0,0-.509,3.892c1.312,3.254,5.722,3.317,8.6,4.188a25.941,25.941,0,0,1,10.9,6.206,1.222,1.222,0,0,0,1.728-1.728,27.425,27.425,0,0,0-9.676-6.05,39.318,39.318,0,0,0-5.426-1.589c-1.413-.316-3.892-.643-4.008-2.5-.118-1.9,3.667-.518,4.69-.322,2.124.407,4.261.772,6.367,1.263,3.675.856,7.571,2.559,9.74,5.824.866,1.3,2.983.082,2.11-1.233" transform="translate(-313.359 -478.907)" fill="#323232"/>
        <path id="パス_2111" data-name="パス 2111" d="M442.3,668.681c-3.456-1.611-6.515-3.969-10.092-5.334-2.358-.9-6.312-1.969-8.265.262-2.278,2.6.665,5.723,3.061,6.795a30.3,30.3,0,0,1,4.836,2.573,24.675,24.675,0,0,0,4.632,2.579c1.457.59,2.09-1.772.65-2.356-2.511-1.017-4.509-2.894-6.928-4.077-1.258-.615-2.674-.939-3.691-1.951-.656-.654-1.521-1.808-.2-2.289a6.262,6.262,0,0,1,3.21.191,16.707,16.707,0,0,1,3.814,1.428c2.636,1.329,5.056,3.038,7.735,4.288,1.416.66,2.659-1.445,1.233-2.11" transform="translate(-319.741 -500.469)" fill="#323232"/>
        <path id="パス_2112" data-name="パス 2112" d="M453.593,704.325c-2.44,4.972-3.356,10.727-.759,15.829.713,1.4,2.822.167,2.11-1.233-2.171-4.265-1.271-9.226.76-13.363.69-1.406-1.416-2.646-2.11-1.233" transform="translate(-341.014 -531.766)" fill="#323232"/>
        <path id="パス_2114" data-name="パス 2114" d="M350.443,335.51l-.733,5.62c-.2,1.554,2.242,1.54,2.443,0l.733-5.62c.2-1.554-2.242-1.54-2.443,0" transform="translate(-264.256 -252.658)" fill="#323232"/>
        <path id="パス_2115" data-name="パス 2115" d="M556.671,100.131l2.3-7.345c.471-1.5-1.887-2.147-2.356-.65l-2.3,7.345c-.471,1.5,1.887,2.147,2.356.649" transform="translate(-418.832 -68.981)" fill="#ffc833"/>
        <path id="パス_2116" data-name="パス 2116" d="M589.79,137.729l7.583-5.552c1.256-.919.038-3.04-1.233-2.11l-7.583,5.552c-1.256.92-.038,3.041,1.233,2.11" transform="translate(-444.356 -98.113)" fill="#ffc833"/>
        <path id="パス_2117" data-name="パス 2117" d="M617.462,194.621l7.319-2.16a1.223,1.223,0,0,0-.65-2.356l-7.318,2.16a1.223,1.223,0,0,0,.649,2.356" transform="translate(-465.458 -143.614)" fill="#ffc833"/>
        <path id="パス_2152" data-name="パス 2152" d="M58.38,153.328l5.65-3.227,7.83-7.025,4.113-4.023,7.934-4.779,4.977-2.817,5.989-4.1,6.12-2.124,6.3,1.4,6.4,3.185v2.315l-1.914,2.141s-4.966-.764-5.691-.919-5.1-1.222-5.1-1.222l-3.623,1.222-2.5,1.69,1.757,4.007,1.506,1.116h1.689l4.586-1.116,2.881,1.116v2.142l-4.011,3.663-2.289,1.865L99.827,150.1l-3.2.916-1.757,2.312-3.578,1.46H88.885l4.249,2.051-5.828,5.556-7.322,1.135L71.86,165.2l-3.679,1.127L64.03,169.8,59.4,161.766l-1.932-4.927-.931-3.51Z" fill="#ffeeda"/>
        <path id="パス_2153" data-name="パス 2153" d="M240.812,554.813a27.428,27.428,0,0,0,9.981-6.744c1.553-1.722,2.843-3.67,4.4-5.379,1.634-1.791,4.024-2.262,6.021-3.521,1.757-1.108,3.547-2.216,5.2-3.476,1.2-.916,2.168-2.2,3.839-1.679,1.614.5,2.9,1.965,3.935,3.228a34.378,34.378,0,0,1,2.956,4.372c1.2,2.04,2.836,4.162,3.394,6.487.259,1.078.171,2.525-.919,3.125a3.692,3.692,0,0,1-3.136-.232c-1.423-.637-2.668,1.468-1.233,2.11,2.081.931,4.719,1.333,6.5-.449,1.874-1.879,1.512-4.693.535-6.905a53.609,53.609,0,0,0-3.474-6.115,30.394,30.394,0,0,0-3.861-5.219,8.561,8.561,0,0,0-5.035-2.948c-2.166-.218-3.394,1.092-4.972,2.3a39.652,39.652,0,0,1-6.243,4.015,29.827,29.827,0,0,0-3.566,1.719,13.854,13.854,0,0,0-3.08,3.218,38.752,38.752,0,0,1-5.235,5.846,27.426,27.426,0,0,1-7.239,4.139c-1.442.615-.2,2.721,1.233,2.11" transform="translate(-180.558 -401.594)" fill="#323232"/>
        <path id="パス_2154" data-name="パス 2154" d="M408.043,572.954c1.887-1.272,4.564-2.5,5.327-4.827a3.983,3.983,0,0,0-2.65-5.183c-1.976-.526-4.489.659-6.308,1.417-1.43.6-.8,2.961.65,2.356.456-.19.92-.361,1.386-.525a11.572,11.572,0,0,1,3.187-.934c1.861-.034,1.748,2.092.784,3.1a25.9,25.9,0,0,1-3.608,2.489c-1.3.875-.076,2.992,1.233,2.11" transform="translate(-304.991 -425.301)" fill="#323232"/>
        <path id="パス_2155" data-name="パス 2155" d="M362.966,515.424c2.992-1.734,6.083-3.95,9.408-5,2.226-.7,5.133.593,7.193,1.373a36.053,36.053,0,0,1,4.275,2c.919.493,2.957,1.363,1.527,2.481-2.661,2.081-6.5-1.2-9.19-1.686-2.322-.419-4.922.709-6.871,1.9-1.338.82-.112,2.935,1.233,2.11a13.051,13.051,0,0,1,2.663-1.251,5.9,5.9,0,0,1,4.665.387c3.03,1.251,7.728,3.052,9.987-.588,2.151-3.467-2.719-5.554-5.154-6.672-2.781-1.277-6.225-2.76-9.357-2.7a11.527,11.527,0,0,0-4.761,1.668c-2.334,1.2-4.582,2.559-6.85,3.874a1.223,1.223,0,0,0,1.233,2.11" transform="translate(-272.903 -383.707)" fill="#323232"/>
        <path id="パス_2156" data-name="パス 2156" d="M354.737,566.771c2.5,2.079,4.223,5.227,5.681,8.086.456.894,1.663,2.668,1.352,3.7-.162.536-.844.993-1.278,1.268a2.83,2.83,0,0,1-2.92,0c-1.429-.616-2.674,1.488-1.233,2.11,2.472,1.066,4.544.952,6.585-.928,1.5-1.383,1.513-3.041.779-4.837a39.319,39.319,0,0,0-3.008-5.793,21.466,21.466,0,0,0-4.231-5.33c-1.2-1-2.939.721-1.728,1.728" transform="translate(-267.753 -426.759)" fill="#323232"/>
        <path id="パス_2157" data-name="パス 2157" d="M326.744,582.93c2.429,2.442,4.987,5.468,6.216,8.734.673,1.787-.3,3.012-1.965,3.625-1.312.483-3-1.149-3.753-2.148-.937-1.238-3.06-.022-2.11,1.233,1.157,1.528,3.468,3.786,5.588,3.523a6.049,6.049,0,0,0,4.724-3.6c.824-2.418-.763-4.887-2-6.861a35.873,35.873,0,0,0-4.973-6.23,1.222,1.222,0,0,0-1.728,1.728" transform="translate(-245.512 -438.924)" fill="#323232"/>
        <path id="パス_2158" data-name="パス 2158" d="M310.2,605.7c1.687,1.845,3.522,3.548,5.209,5.394,1.063,1.163,2.787-.569,1.728-1.728-1.687-1.845-3.522-3.549-5.209-5.394-1.063-1.163-2.787.569-1.728,1.728" transform="translate(-234.161 -456.114)" fill="#323232"/>
        <path id="パス_2159" data-name="パス 2159" d="M272.862,650.25c3.4-1.308,6.817-2.937,10.5-3.077,3.325-.126,6.45-.418,9.444-2.013,2.372-1.264,4.078-3.432,6.01-5.242,1.15-1.077-.58-2.8-1.728-1.728-1.816,1.7-3.4,3.767-5.648,4.929-3.123,1.616-6.336,1.406-9.72,1.707-3.26.289-6.474,1.9-9.5,3.068-1.453.559-.822,2.922.65,2.356" transform="translate(-205.08 -482.004)" fill="#323232"/>
        <path id="パス_2160" data-name="パス 2160" d="M302.817,621.376a7.512,7.512,0,0,1-5.224,5.779,1.223,1.223,0,0,0,.65,2.356,9.949,9.949,0,0,0,6.93-7.486c.314-1.535-2.041-2.191-2.356-.649" transform="translate(-224.235 -468.89)" fill="#323232"/>
        <path id="パス_2161" data-name="パス 2161" d="M55.483,414.091c-.25,4.438,2.255,8.884,4.538,12.511a60.667,60.667,0,0,0,5.1,7.008q.123-.96.247-1.919a255.462,255.462,0,0,1-27.565,18.131C34.5,451.69,31.129,453.463,27.652,455a34.381,34.381,0,0,1-10.251,3.13c-3.69.368-7.832-.2-10.539-2.973-1.93-1.974-2.462-4.574-2.694-7.218-1.031-11.754-1.045-23.643-1.277-35.433-.215-10.91-.43-21.829-.4-32.742a31.455,31.455,0,0,1,.88-8.736c1.064-3.658,3.679-6.61,6.564-9a46.512,46.512,0,0,1,9.869-5.843c4.721-2.235,9.61-4.106,14.525-5.865,2.8-1,5.622-1.962,8.448-2.9,1.485-.492.849-2.852-.65-2.356-9.991,3.307-20.384,6.685-29.461,12.123a30.918,30.918,0,0,0-8.738,7.526A19.328,19.328,0,0,0,.188,375.365c-.328,4.228-.136,8.53-.1,12.765q.09,9.677.263,19.352c.225,12.86.334,25.771,1.227,38.606a26.319,26.319,0,0,0,.891,6.332,11.689,11.689,0,0,0,7.749,7.5c7.56,2.414,15.633-1.218,22.326-4.535,11.787-5.841,22.872-13.321,33.44-21.129q.31-.229.618-.459a1.248,1.248,0,0,0,.247-1.919,56.346,56.346,0,0,1-4.568-6.27c-2.118-3.327-4.589-7.423-4.358-11.52.088-1.571-2.355-1.566-2.443,0" transform="translate(0 -260.705)" fill="#323232"/>
      </g>
    </g>
  </g>
</svg>
