<svg xmlns="http://www.w3.org/2000/svg" xmlns:xlink="http://www.w3.org/1999/xlink" width="261.367" height="250" viewBox="0 0 261.367 250">
  <defs>
    <clipPath id="clip-path">
      <rect id="長方形_1877" data-name="長方形 1877" width="261.367" height="199.998" fill="none"/>
    </clipPath>
  </defs>
  <g id="グループ_3679" data-name="グループ 3679" transform="translate(-64 -110)">
    <circle id="楕円形_207" data-name="楕円形 207" cx="125" cy="125" r="125" transform="translate(70 110)" fill="#fef6d3"/>
    <g id="グループ_3426" data-name="グループ 3426" transform="translate(64 150)">
      <g id="グループ_3417" data-name="グループ 3417" clip-path="url(#clip-path)">
        <path id="パス_2168" data-name="パス 2168" d="M11.247,189.119,10.5,167.307l.751-26.627,2.339-12.765,4.858-4.758,10.537-5.712,9.2-3.727,5.059-2.114,3.3-4.588,4.8,2.9,25.9,28.975,3.349-6.771,6.443-14.68,8.332-3.727,6.021-2.114,5.81,3.577,8.361,4.277,5.122,3.7,4.14,8.968,1.562,5.674,9.056,50.365Z" fill="#eec37f"/>
        <path id="パス_1852" data-name="パス 1852" d="M660.379,614.678a.972.972,0,0,1,.5.216,25.258,25.258,0,0,1,1.692-2.552q.3-.42.612-.835a1.22,1.22,0,0,1-.322-.368,7.1,7.1,0,0,0-5.1-3.559c-2.116-.206-3.157,1.727-1.6,3.242,1.248,1.213,2.54,2.393,3.846,3.544.12.106.245.209.369.312" transform="translate(-498.575 -462.175)" fill="#ffeeda"/>
        <path id="パス_1853" data-name="パス 1853" d="M443.837,582.444c-2.676-3.786-5.3-7.608-7.993-11.382-.418-.587-1.03-1.893-1.656-2.253-.325-.186-.7-.044-1.051,0-.569.066-1.141.109-1.711.164L417.9,570.263c-1.587.152-3.173.317-4.761.456l-.071,0c-.078.066-.223.174-.212.253.029.208-.048.334.052.567a5.16,5.16,0,0,0,.514.758l9.684,14.277a.949.949,0,0,1,.125.185l2.218,3.27,2.206-8.8c.644-2.567,1.8-6.229,5.2-5.662,3.8.635,4.026,5.118,3.657,8.122-.371,3.021-1.7,5.814-2.338,8.764.065-.067.131-.132.2-.2,2.385-2.474,4.657-5.068,7.163-7.423a12.355,12.355,0,0,1,2.66-2.05,1.267,1.267,0,0,1-.356-.343" transform="translate(-314.061 -432.622)" fill="#fff"/>
        <path id="パス_1854" data-name="パス 1854" d="M549.442,635.5c.12.035.043-.016,0,0" transform="translate(-417.961 -483.425)" fill="#fff"/>
        <path id="パス_1855" data-name="パス 1855" d="M445.612,655.153l.24-.956a1.175,1.175,0,0,1-1.136-.531l-2.353-3.469a1.379,1.379,0,0,0-1.939,1.309c-.056,1.281,1.863,2.787,2.661,3.7.672.773,1.337,1.576,2.015,2.374a20.251,20.251,0,0,1,.513-2.43" transform="translate(-335.029 -494.515)" fill="#fff"/>
        <path id="パス_1856" data-name="パス 1856" d="M474.7,623.635c.349-3.484,1.912-6.62,2.54-10.036.291-1.58.633-3.9-.3-5.325-.96-1.472-2.347-.986-2.992.408a27.505,27.505,0,0,0-1.348,4.869l-1.479,5.9c-.44,1.756-.963,3.514-1.314,5.29a3,3,0,0,0,.251,2.529,2.159,2.159,0,0,0,1.456.7,29.013,29.013,0,0,1,3.331-3.637,1.046,1.046,0,0,1-.148-.693" transform="translate(-357.267 -462.033)" fill="#fff"/>
        <path id="パス_1857" data-name="パス 1857" d="M317.992,436.467c-1.853-1.487-3.9-3.066-5.053-5.194a10.136,10.136,0,0,1-1.087-3.986,15.221,15.221,0,0,1-3.088,1.68,19.813,19.813,0,0,1-6.857,1.166,21.29,21.29,0,0,1-7.6-.907c-.291-.1-.58-.209-.867-.321q.079,2.044.172,4.086a26.13,26.13,0,0,0,.607,5.558,20.34,20.34,0,0,0,2.233,5.053c1.729,2.955,3.166,5.958,3.254,9.457a16.592,16.592,0,0,1-1.022,5.222l1.837,3.27,4.975-11.7,2.919-6.864c.48-1.129.684-1.853,1.857-2.4,2.412-1.126,4.953-2.011,7.446-2.939,1.122-.417,2.242-.844,3.367-1.262-.351-.18-.7-.37-1.03-.574a1.321,1.321,0,0,1-2.063.651" transform="translate(-223.221 -325.037)" fill="#ffeeda"/>
        <path id="パス_1858" data-name="パス 1858" d="M254.195,226.846c1.363-.652,1.731-1.963,1.994-3.354a41.2,41.2,0,0,0,.669-4.379,9.728,9.728,0,0,0-.042-1.9l-2.089.291c-.865,3.568-3.1,7.076-7.011,7.5-2.514.273-5.573-.435-7.265-2.439a12.085,12.085,0,0,1-2.329-5.382l-1.155-.068c-.816,4.467-5.5,7.281-9.973,6.872a8.521,8.521,0,0,1-5.269-2.333,9.052,9.052,0,0,1-2.44-5.583l-3.048-.18c-1.533-.09-1.538-2.484,0-2.393l4.163.246a1.225,1.225,0,0,1,1.2,1.2c.109,3.356,1.851,6.262,5.4,6.654s7.643-1.848,7.706-5.739a1.211,1.211,0,0,1,1.2-1.2l3.238.191a1.207,1.207,0,0,1,1.154.878,11.8,11.8,0,0,0,1.781,5.023c1.175,1.649,3.727,2.133,5.625,1.861,3.008-.431,4.38-3.827,4.885-6.486a1.153,1.153,0,0,1,.836-.836l2.854-.4a18,18,0,0,0-2.1-4.013c-1.836-2.737-3.9-5.3-5.281-8.315a38.112,38.112,0,0,1-2.514-7.884,8.277,8.277,0,0,0-4.091-1.089,14.523,14.523,0,0,1-6.816,2.717,1.285,1.285,0,0,1-1.337-1.877c-.719-.127-1.434-.3-2.132-.481a21.638,21.638,0,0,1-8.248,2.3c-.127.212-.244.43-.355.654a1.069,1.069,0,0,1,.227,1.068c-1.638,5.639-4.906,11.289-10.727,13.129a1.329,1.329,0,0,1-1.823,1.338c-2.827-1.215-5.165,1.543-5.285,4.216a8.179,8.179,0,0,0,2.1,5.266A3.384,3.384,0,0,1,212.1,223.6a1.069,1.069,0,0,1,.873,1.122c-.025,1.109,0,2.23.072,3.351a3.689,3.689,0,0,1,3.312.109c2.016,1.079,2.036,2.973,1.831,4.86a4.014,4.014,0,0,1,2.431.7c1.417.977,1.48,2.4,1.438,3.973-.005.215-.015.431-.022.646a4.18,4.18,0,0,1,3.442.916c1.094,1.061,1.07,2.608,1.08,4.022.012,1.737.053,3.474.107,5.211a18.5,18.5,0,0,0,3.03,1.07,22.412,22.412,0,0,0,6.854.336,14.29,14.29,0,0,0,5.92-1.52,19.148,19.148,0,0,0,5.447-4.728c3.146-3.769,4.4-8.424,5.552-13.1a1.088,1.088,0,0,1,1.387-.814l-.01-.714c-1.111-.013-1.846-1.622-.649-2.194m-7.811-10.791a1.276,1.276,0,1,1-1.35,1.2,1.3,1.3,0,0,1,1.35-1.2m-18.707-1.1a1.276,1.276,0,1,1-1.349,1.2,1.3,1.3,0,0,1,1.349-1.2m8.8,14.875c.483-.429.954-.876,1.395-1.349a3.748,3.748,0,0,1,.419-.477.3.3,0,0,0,.12-.171c-.194-.366-.5-.732-.7-1.083a10.636,10.636,0,0,1-1.115-2.236,6.67,6.67,0,0,1,.061-2.826c.249-1.518,2.554-.87,2.307.636a3.207,3.207,0,0,0,.411,2.505,10.2,10.2,0,0,1,1.456,2.681c.282,1.6-1.611,3.074-2.666,4.011-1.148,1.02-2.846-.667-1.692-1.692m-10.732,5.562a1.216,1.216,0,0,1,.429-1.637l2.122-1.24a1.2,1.2,0,0,1,1.208,2.066l-2.122,1.24a1.213,1.213,0,0,1-1.637-.429m15.975,1.95a6.792,6.792,0,0,1-5.711,5.347c-3.491.336-5.623-2.714-6.472-5.712a1.088,1.088,0,0,1,.144-.961,1.037,1.037,0,0,1,1.01-.554l9.875.365a1.213,1.213,0,0,1,1.154,1.514" transform="translate(-156.537 -147.264)" fill="#ffeeda"/>
        <path id="パス_1859" data-name="パス 1859" d="M248.418,144.441c-.331-1.564-.623-3.136-.889-4.713-.528-3.13-.951-6.275-1.438-9.411-.931-5.995-2.136-12.025-5.057-17.406-2.669-4.915-6.575-9.668-11.93-11.742-4.979-1.929-11.143-1.269-14.857,2.808-1.04,1.141-2.728-.556-1.692-1.692a13.047,13.047,0,0,1,1.429-1.347,26.751,26.751,0,0,0-4.107,2.915l.067.028c1.407.622.188,2.683-1.208,2.066a5.782,5.782,0,0,0-1.747-.473,6.758,6.758,0,0,1-.732.2,6.758,6.758,0,0,0,.732-.2c-2.985-.312-5.642,1.9-7.6,4.129a63.653,63.653,0,0,0-5.507,7.857c-2.44,3.811-5.082,7.539-6.982,11.662a21.236,21.236,0,0,0-1.829,13.086,12.218,12.218,0,0,0,2.507,5.369,7.725,7.725,0,0,1,2.645-7.755,5.313,5.313,0,0,1,4.125-1.089,1.025,1.025,0,0,1,.818-.745c5.667-1.27,8.611-6.556,10.12-11.746a1.219,1.219,0,0,1,2.08-.432c.111-.224.228-.442.355-.654-.386.03-.764.049-1.131.056a1.2,1.2,0,0,1,0-2.393c4.512-.092,11.58-2.074,12.628-7.273.3-1.511,2.611-.867,2.308.636-.612,3.036-2.816,5.216-5.556,6.673.7.183,1.413.354,2.132.481a1.02,1.02,0,0,1,.7-.431,12.765,12.765,0,0,0,5.809-2.141,5.773,5.773,0,0,0,2-4.224c.12-1.528,2.513-1.535,2.393,0a8.325,8.325,0,0,1-2.514,5.758c-.076.068-.154.132-.232.2a8.277,8.277,0,0,1,4.091,1.089c-.208-.967-.391-1.941-.555-2.919-.254-1.509,2.052-2.152,2.308-.636a53.94,53.94,0,0,0,1.407,6.344q.139.177.275.361-.135-.184-.275-.361a27.866,27.866,0,0,0,2.376,5.77c1.639,2.92,3.9,5.436,5.521,8.364a13.81,13.81,0,0,1,1.576,9.342c-.5,2.881-.57,6.519-3.6,7.968a1.249,1.249,0,0,1-.559.127l.01.714a1.279,1.279,0,0,1,.832.618,1.212,1.212,0,0,1,.526-.123c2.282-.04,4.313-2.023,5.677-3.656a12.893,12.893,0,0,0,3.172-7.043,14.717,14.717,0,0,0-.614-4.012" transform="translate(-140.507 -76.169)" fill="#7e7e7e"/>
        <path id="パス_1860" data-name="パス 1860" d="M731.611,302.846a1.088,1.088,0,0,1,.089,1.916,1,1,0,0,1,.455.719c.612,3.5,2.092,6.789,3.066,10.2.579-1.007,1.113-2.041,1.61-3.081a34.7,34.7,0,0,0,1.929-4.935,27.106,27.106,0,0,0,.7-2.816,21.622,21.622,0,0,1,.34-2.7c.349-1.036,2.318-1.754,3.208-2.307q1.934-1.2,3.824-2.475c2.6-1.744,5.159-3.556,7.592-5.523,1.516-1.225,3.44-2.593,4.4-4.339a1.3,1.3,0,0,1,.153-.217,4.768,4.768,0,0,1-.7-2.194A1.2,1.2,0,0,1,756.663,284q-.022-1.464-.043-2.928a28.953,28.953,0,0,1-4.993,9.274,22.094,22.094,0,0,1-14.254,8.1,19.561,19.561,0,0,1-14.378-3.689,6.2,6.2,0,0,1-.179.953c.955,1.091,1.879,2.208,2.864,3.284a17.768,17.768,0,0,0,5.933,3.851" transform="translate(-549.846 -213.811)" fill="#ffeeda"/>
        <path id="パス_1861" data-name="パス 1861" d="M170.169,468.258a1.269,1.269,0,0,1,.084.116l1.584-.792a1.357,1.357,0,0,1-.107-.188c-.529.272-1.048.561-1.561.864" transform="translate(-129.448 -355.547)" fill="#fff"/>
        <path id="パス_1862" data-name="パス 1862" d="M696.745,353.734a20.123,20.123,0,0,0,3.527,5.875,44.035,44.035,0,0,1,3.589,4.188,16.021,16.021,0,0,0,1.732-4.372,18.619,18.619,0,0,1,2.164-5.2,16.191,16.191,0,0,1-4.47-3.2c-1.208-1.288-2.309-2.655-3.48-3.968l-1.028,4.968c-.273,1.321-2.073.994-2.31-.116-.351.4-.685.805-1.026,1.2,0,.027-.005.054-.01.082a.973.973,0,0,1,1.312.539" transform="translate(-529.016 -264.006)" fill="#fff"/>
        <path id="パス_1863" data-name="パス 1863" d="M690.57,359.065a1.232,1.232,0,0,1,.027.445c.342-.4.676-.807,1.026-1.2a1.256,1.256,0,0,1,0-.521q.24-1.159.48-2.319l-3.043,2.435a1.157,1.157,0,0,1,1.507,1.164" transform="translate(-524.171 -270.403)" fill="#fff"/>
        <path id="パス_1864" data-name="パス 1864" d="M528.266,551.068c-.048.287-.092.574-.128.861l.006.017c.064-.289.127-.576.186-.864-.022,0-.043-.009-.064-.015" transform="translate(-401.756 -419.198)" fill="#fff"/>
        <path id="パス_1865" data-name="パス 1865" d="M514,669.088c-.458-3.253-2.6-5.932-4.9-8.146a35.519,35.519,0,0,0-7.98-5.71c-1.712,2.1-3.829,4.17-5.073,6.581-.707,1.37-2.771.159-2.066-1.208,1.263-2.446,3.42-4.571,5.146-6.692a24.292,24.292,0,0,0,2.026-2.635c.493-.815.892-2.627-.2-3.177a.277.277,0,0,1-.044-.026l-.041,0a1.01,1.01,0,0,0-.2.057,3.249,3.249,0,0,0-.354.137,7.887,7.887,0,0,0-1.192.7c-.417.282-.816.589-1.206.908-.553.68-1.123,1.349-1.724,2-2.37,2.584-4.849,5.076-7.379,7.505-1.135,1.089-2.648-.52-1.692-1.692,1.216-1.491,2.492-2.937,3.8-4.351a53.469,53.469,0,0,1,5.3-5.154c.677-.84,1.323-1.7,1.98-2.573.419-.558.955-1.031,1.346-1.6.539-.79,1.358-2.29.93-3.244-.778-1.735-2.65-.048-4.088,1.492-.331.471-.668.914-.983,1.317a69.82,69.82,0,0,1-12.293,11.762c-1.179.916-2.829-.586-1.692-1.692l6.606-6.424c2.061-2,4.04-4.21,6.234-6.072a9.963,9.963,0,0,0,1.7-3.081,2.24,2.24,0,0,0-.444-2.207,1.778,1.778,0,0,0-.746-.354l-.007,0a35.086,35.086,0,0,0-5.566,5.118c-2.029,2.136-3.977,4.388-6.167,6.365a26.447,26.447,0,0,0-3.829,4,1.128,1.128,0,0,1-.382.565,7.886,7.886,0,0,0-1.2,3.019c-.51,3.336,3.363,5.059,5.871,6.073a56.469,56.469,0,0,1,7.754,4.084c3.349,2.007,6.642,4.118,9.884,6.3h15.849c-.21-.686-.446-1.365-.715-2.035-.329,1.086-2.082,1.4-2.267.08" transform="translate(-363.291 -483.436)" fill="#ffeeda"/>
        <path id="パス_1866" data-name="パス 1866" d="M721.753,688.149c-.867-.5-1.737-1.021-2.618-1.552q-1.547-.593-3.112-1.134a53.639,53.639,0,0,0-6.7-1.97c-2.345-.487-4.264.232-6.672.032-6.194-.514-10.41-5.248-14.193-9.689a1.222,1.222,0,0,1-.043-1.558,2.883,2.883,0,0,1-1.089-.482,9.614,9.614,0,0,1-2.558-2.514c-.007-.011-.012-.022-.019-.033a1.215,1.215,0,0,1-.564-.151c-1.783-.955-3.932-1.7-5.248-3.286.019.518.044,1.039.07,1.561a1.088,1.088,0,0,1,.725,1.071v25.007a1.161,1.161,0,0,1-.177.64h40.978c-.214-.095-.43-.186-.643-.282a1.2,1.2,0,0,1-.429-1.637,41.1,41.1,0,0,0,2.293-4.021" transform="translate(-516.467 -506.483)" fill="#fff"/>
        <path id="パス_1867" data-name="パス 1867" d="M726.755,617.121a54.906,54.906,0,0,1-7.968-3.095,29.513,29.513,0,0,1-5.072-2.974,21.45,21.45,0,0,1-3.944-4.345c-1.787-2.275-4.337-3.464-6.632-5.137a25.949,25.949,0,0,1-3.213-2.721c-.89-.9-1.649-1.926-2.552-2.812-.6-.588-1.089-.979-1.917-.678a11.316,11.316,0,0,0-2.873,1.864,30.517,30.517,0,0,0-5.818,6.334c-1.247,1.753-3.732,4.227-2.529,6.577.638,1.247,2.115,1.934,3.484,2.542a7.727,7.727,0,0,1,1.182-3.84,40.314,40.314,0,0,1,6.509-7.511c1.1-1.081,2.792.611,1.692,1.692a62.954,62.954,0,0,0-4.984,5.417c-1,1.241-2.176,2.824-2.032,4.5a3.75,3.75,0,0,0,1.437,2.441c.61.544.911.9,1.542.834a10.087,10.087,0,0,1,1.9-3.948,34.806,34.806,0,0,1,5.965-6.49c1.171-.987,2.871.7,1.692,1.692a33.876,33.876,0,0,0-4.424,4.47c-1.037,1.271-3.422,3.794-2.715,5.575.67,1.689,3.377,2.594,4.977,2.9a4.358,4.358,0,0,0,4.625-1.7,19.3,19.3,0,0,1-.69-2.75l-1.632,1.512c-1.129,1.046-2.824-.643-1.692-1.692l4.445-4.118c1.129-1.046,2.824.643,1.692,1.692l-.654.605a15.183,15.183,0,0,0,4.183,9.627c1.122,1.06-.573,2.749-1.692,1.692a14.522,14.522,0,0,1-2.951-4.109,6.555,6.555,0,0,1-5.138,1.71,12.306,12.306,0,0,1-4.206-1.19,23.53,23.53,0,0,0,4.469,3.893,11.725,11.725,0,0,0,8.038,1.8,14.468,14.468,0,0,1,5.8.433,77.555,77.555,0,0,1,9.7,3.268c1.414.568.793,2.881-.636,2.308q-.6-.24-1.2-.469c.881.532,1.751,1.048,2.618,1.553,2.9-5.818,4.5-12.572,3.148-18.889q-.279-.062-.555-.136a1.2,1.2,0,0,1-1.38,1.669" transform="translate(-520.256 -452.811)" fill="#ffeeda"/>
        <path id="パス_1868" data-name="パス 1868" d="M881.54,681.867c.019.108.035.217.052.326,0-.106,0-.213,0-.32l-.055-.006" transform="translate(-670.588 -518.697)" fill="#fff"/>
        <path id="パス_1869" data-name="パス 1869" d="M912.9,396.271c-.192-7.3-.316-14.644-1.169-21.9-.465-3.955-1.161-8.149-3.231-11.621-1.693-2.838-4.334-4.754-7.142-6.436a59.337,59.337,0,0,0-9.381-4.327c-6.526-2.5-13.071-4.943-19.563-7.533a1.308,1.308,0,0,1-.219-2.292l-3.639-3.01.184.433a1.252,1.252,0,0,1-.132,1.241c.149.312.309.615.486.906a1.154,1.154,0,0,1,1.963.85c-.029.389-.057.779-.086,1.169.118.078.237.156.364.225-.127-.069-.246-.147-.364-.225q-.692,9.182-1.23,18.375c-.581,9.831-1.04,19.669-1.558,29.5-.368,6.973-.7,13.967-1.513,20.906a1.292,1.292,0,0,1-1.286,1.138c-.046,1.5-.128,3.011-.189,4.506q9.341,3.133,18.848,5.783a5.053,5.053,0,0,0,.211-1.787.981.981,0,0,1-.753-1.1c.509-5.862,1.137-11.711,1.738-17.564.84-8.174,1.024-16.452,2.774-24.5a75.474,75.474,0,0,1,3.139-10.908c1.053-2.756,2.31-5.866,4.583-7.861,1.154-1.013,2.852.674,1.692,1.692-2.478,2.175-3.689,5.844-4.707,8.869a82.726,82.726,0,0,0-3.949,20.23c-.768,10.032-2.008,20.019-2.878,30.042a1.283,1.283,0,0,1-1.64,1.1,5.053,5.053,0,0,1-.211,1.787q1.8.5,3.605.981a1.2,1.2,0,0,1-.636,2.308c-7.361-1.955-14.666-4.166-21.892-6.577,0,.166,0,.33,0,.5.314.034.632.067.955.1-.323-.032-.64-.065-.955-.1,0,.106,0,.213,0,.32,1.043,6.518-.655,13.418-3.638,19.361.882.5,1.77.987,2.681,1.477-.91-.49-1.8-.981-2.681-1.477-.5,1-1.034,1.966-1.6,2.9q2.694,1.173,5.459,2.172c8.223,2.965,16.78,4.973,25.13,7.541a46.793,46.793,0,0,0,8.779,1.971c2.455.259,5.643.445,7.711-1.186a5.808,5.808,0,0,0,1.711-3.049c.408-1.275.745-2.573,1.044-3.878a94.342,94.342,0,0,0,1.6-9.386c.909-7.293,1.332-14.646,1.556-21.989q.3-9.837.037-19.677m-36.949-48.627c1.362,6.012,2.555,12.06,3.918,18.072.34,1.5-1.967,2.137-2.308.636-1.362-6.012-2.556-12.06-3.918-18.072-.34-1.5,1.968-2.137,2.308-.636m7.314,30.191c-.453,1.911-1.134,3.759-1.578,5.674-.961,4.14-1.637,8.35-2.55,12.5-1.343,6.108-3.007,12.137-4.532,18.2a1.2,1.2,0,0,1-2.308-.636c.851-3.381,1.739-6.753,2.6-10.131,1.635-6.388,2.924-12.838,4.209-19.3.392-1.973.989-3.878,1.544-5.807.331-1.153.843-2.615.347-3.8-.568-1.355-2.18-1.676-3.485-1.853-1.536-.209-3.093-.192-4.621-.472s-.869-2.583.636-2.307c3.348.613,8.138-.13,9.694,3.79a6.844,6.844,0,0,1,.041,4.14" transform="translate(-654.107 -257.993)" fill="#b2dbd0"/>
        <path id="パス_1870" data-name="パス 1870" d="M881.281,679.654l-.159-.052c.036.18.068.361.1.542l.055.005c0-.165,0-.33,0-.5" transform="translate(-670.27 -516.974)" fill="#fff"/>
        <path id="パス_1871" data-name="パス 1871" d="M722.188,397.652c.409-3.511.677-7.038.912-10.564,1.238-18.605,1.884-37.24,3.215-55.84-4.5,4.983-9.322,9.7-14.207,14.288a1.208,1.208,0,0,1-1.879-.242c-1.74-3.553-3.434-7.142-4.907-10.815-.574-1.432,1.741-2.048,2.307-.636,1.2,3,2.578,5.947,3.992,8.861,4.962-4.7,9.842-9.524,14.349-14.654a1.086,1.086,0,0,1,.609-.37,1.184,1.184,0,0,1,.427-.83c-.176-.29-.336-.594-.486-.906-.476.678-1.532.913-1.934-.033l-2.689-6.323c-.541.591-1.142,1.135-1.72,1.65-1.618,1.446-3.345,2.774-5.089,4.064a119.214,119.214,0,0,1-10.834,7.19,34.761,34.761,0,0,1-6.339,16.136c-.532.753-1.993.826-2.187-.286-.747-4.274-2.787-8.231-3.621-12.484a27.037,27.037,0,0,0-1.461,4.258,14.538,14.538,0,0,1-2.949,5.658,1.21,1.21,0,0,1-1.879-.242,44.683,44.683,0,0,0-4.455-5.356,20,20,0,0,1-3.353-5.416c-.27,1.673-.5,3.353-.718,5.033-1.4,10.834-2.595,21.808-2.965,32.732a1.172,1.172,0,0,1-1.191,1.153c-.038.65-.045,1.3-.045,1.953a40.187,40.187,0,0,1,4.728,2.332q3.29,1.766,6.436,3.783a1.142,1.142,0,0,1,.536,1.2c.307.234.612.475.91.73a4.633,4.633,0,0,1,2.448-.523c2.416.237,3.952,3.051,5.515,4.583,2.3,2.248,5.208,3.541,7.642,5.572,1.908,1.592,2.949,3.895,4.812,5.509a24.33,24.33,0,0,0,5.385,3.319,50.719,50.719,0,0,0,7.651,2.976,1.118,1.118,0,0,1,.744.639q.276.073.555.135a20.6,20.6,0,0,0-.536-2.012c-.44-1.366,1.52-2,2.179-.917.336.114.673.225,1.009.338.062-1.5.143-3,.189-4.506a.988.988,0,0,1-1.107-1.139m-24.046-44.69c-.51,7.625-1.446,15.212-1.957,22.837-.1,1.531-2.5,1.537-2.393,0,.51-7.625,1.446-15.212,1.957-22.837.1-1.531,2.5-1.537,2.393,0" transform="translate(-512.021 -243.11)" fill="#fff"/>
        <path id="パス_1872" data-name="パス 1872" d="M681.464,598.59a1.235,1.235,0,0,1-1.112-.231c.139.1.007.006,0,0h0l-.055-.041c-.211-.157-.422-.314-.636-.467-.647-.463-1.31-.906-1.991-1.316-.285-.172-.591-.361-.912-.545V597.1a10.11,10.11,0,0,1,4.162,3.638q.473-.591.965-1.164l-.422-.984" transform="translate(-514.81 -453.369)" fill="#fff"/>
        <path id="パス_1873" data-name="パス 1873" d="M560.445,431.3c-3.38.631-8.814,3.646-10.951-.846-1.582-3.327,2.233-5,4.65-6.172,1.329-.644,2.687-1.224,4.016-1.867a4.974,4.974,0,0,1,3.915-.568c.258.081.515.171.77.267,0-.65.007-1.3.045-1.953a1.092,1.092,0,0,1-1.2-1.153c.087-2.578.264-5.154.455-7.726q.676-9.052,1.685-18.078c.461-4.172.921-8.365,1.607-12.513-.9.538-1.806,1.046-2.729,1.531a1.329,1.329,0,0,1-.023.174c-.5,2.443-1.039,4.878-1.6,7.307a83.12,83.12,0,0,1-3.024,10.957c-.547,1.426-2.859.8-2.308-.636a83.146,83.146,0,0,0,3.024-10.957q.637-2.739,1.225-5.49c-3.172,1.512-6.434,2.851-9.637,4.3-4.011,1.815-8.146,3.489-12.05,5.521-1.326.69-3.1,1.567-3.914,2.732a12.027,12.027,0,0,0-1.457,3.679c-1.848,6.644-2.452,13.7-3,20.556a1.269,1.269,0,0,1-1.593,1.112c-.058.287-.122.574-.186.864a17.386,17.386,0,0,1,1.061,4.725,1.029,1.029,0,0,1-.331.873,21.319,21.319,0,0,1,.651,4.457q2.032,2.908,4.072,5.81a.975.975,0,0,1,.075,1.12,3.19,3.19,0,0,1,2.186,1.2,4.106,4.106,0,0,1,1.033,3.423,3.647,3.647,0,0,1,4.551,3.673,7.363,7.363,0,0,1-1.883,4.293,2.719,2.719,0,0,1,2.4,1.631c1.169,2.162.327,4.152-.9,5.92a37.409,37.409,0,0,1,8.454,6.189c2.454,2.419,4.762,5.446,5.255,8.949a1.283,1.283,0,0,1-.04.556c.27.67.505,1.349.715,2.035h7.361a1.158,1.158,0,0,1-.178-.64V451.55a1.185,1.185,0,0,1,1.668-1.071c-.026-.522-.051-1.043-.07-1.561a5.044,5.044,0,0,1-1.084-4.215,5.908,5.908,0,0,1-1.78-1.352c-.937-.832-1.855-1.687-2.77-2.543-1.141-1.066-2.211-1.976-2.4-3.61-.335-2.839,2.056-4.768,4.764-4.6a7.766,7.766,0,0,1,2.754.72V432.21a5.07,5.07,0,0,0-3.278-.914m-10.914-20.888a4.587,4.587,0,0,1,3.614-3.6c2.34-.673,4.75-.66,7.047-1.579,1.432-.573,2.049,1.743.636,2.308a36.084,36.084,0,0,1-6.359,1.416,4.207,4.207,0,0,0-2.146.942,1.72,1.72,0,0,0-.46,1.485,27.091,27.091,0,0,0,.61,4.928c.383,2.072.745,4.148,1.107,6.223.264,1.509-2.043,2.15-2.308.636-.41-2.349-.843-4.693-1.256-7.041a19.78,19.78,0,0,1-.487-5.717m6.932,30.039c.911,6.357,1.748,12.724,2.633,19.084.21,1.509-2.1,2.155-2.307.636-.885-6.36-1.722-12.727-2.633-19.084-.216-1.509,2.09-2.155,2.308-.636" transform="translate(-401.775 -289.59)" fill="#b2dbd0"/>
        <path id="パス_1874" data-name="パス 1874" d="M648.647,567.167a1.141,1.141,0,0,1-1.744.865q-3.147-2.01-6.436-3.783c-1.1-.59-2.321-1.362-3.563-1.9-.01.168-.022.334-.037.5.015-.166.027-.333.037-.5a8.274,8.274,0,0,0-1.716-.558c-1.162-.224-2.519.835-3.524,1.285-1.031.46-2.06.92-3.064,1.437-.615.316-1.224.646-1.808,1.015-.325.2-1.012.541-1.181.913-.183.4.4,1.226.85,1.493a3.693,3.693,0,0,0,2.475.205c1.845-.326,3.556-1.2,5.4-1.495a6.48,6.48,0,0,1,3.678.758,25.162,25.162,0,0,1,5.092,3.227c.849.669.26,1.7-.58,1.924l.422.984a27.826,27.826,0,0,1,2.947-2.976,17.919,17.919,0,0,1,3.659-2.662c-.3-.255-.6-.5-.91-.73" transform="translate(-475.876 -427.329)" fill="#ffeeda"/>
        <path id="パス_1875" data-name="パス 1875" d="M871.005,292.83a4.765,4.765,0,0,0,.7,2.194,1.106,1.106,0,0,1,1.453-.179l-1.379-3.6q0,.247.007.495a1.071,1.071,0,0,1-.778,1.095" transform="translate(-662.574 -221.547)" fill="#fff"/>
        <path id="パス_1876" data-name="パス 1876" d="M227.629,407.184a118.091,118.091,0,0,0,4.073-11.146,14.707,14.707,0,0,0,.974-5.089c-.24-3.514-1.982-6.13-3.589-9.144a21.86,21.86,0,0,1-2.437-9.645c-.17-3.652-.323-7.306-.39-10.962-.016-.884-.018-1.767-.028-2.65-.005-.493.043-1.238-.375-1.6a1.1,1.1,0,0,0-1.783.358,5.093,5.093,0,0,0-.2.672c-.37,4.167-1.064,8.334-1.754,12.432-.258,1.531-2.524.859-2.307-.636.32-2.208.675-4.415,1-6.625.389-2.827.738-5.67.884-8.52.048-.93.438-2.515-.532-3.04-.517-.28-.692-.3-.844.008a6.733,6.733,0,0,0-.385,1.418q-.173.757-.32,1.521l-1.386,12.04c-.173,1.5-2.511,1.555-2.393,0q.294-3.871.767-7.726c.182-1.488.382-2.976.635-4.454l.37-3.218c.129-1.122,1.007-4.053-.2-4.844-1.506-.984-1.783.937-2.029,2a17.733,17.733,0,0,1-.472,3.812q-.77,5.28-1.54,10.56c-.2,1.34-2.452,1.009-2.35-.318.284-3.688.713-7.38,1.325-11.027.17-1.011.314-2.138.544-3.235a1.088,1.088,0,0,0-.228-.346c-.861-.863-1.292.176-1.611.876a33.325,33.325,0,0,0-1.5,3.932,21.33,21.33,0,0,0-.764,9.963c.5,2.941,1.214,5.867,1.968,8.752,1.807,6.91,3.828,13.763,5.58,20.688.559,2.21-.058,4.231-.761,6.353-.5,1.5-1.053,2.986-1.663,4.445a1.317,1.317,0,0,1-1.615.734q-.051.262-.1.52,4.525,1.316,8.995,2.813,2.6.875,5.174,1.813a13.947,13.947,0,0,1,2.275.945c.055-.332.09-.668.117-1.01-.751.009-1.475-.559-1.114-1.427" transform="translate(-158.606 -263.251)" fill="#fff"/>
        <path id="パス_1877" data-name="パス 1877" d="M527.491,550.676a1.142,1.142,0,0,1-.278-.123l-.094.326q.126.328.244.658c.035-.287.079-.574.128-.861" transform="translate(-400.98 -418.806)" fill="#fff"/>
        <path id="パス_1878" data-name="パス 1878" d="M404.654,461.781c.334.2.679.394,1.03.574l.42-.153-1.418-.783a.937.937,0,0,1-.032.362" transform="translate(-307.82 -351.002)" fill="#fff"/>
        <path id="パス_1879" data-name="パス 1879" d="M158.074,465.858c.513-.3,1.032-.592,1.561-.864a1.2,1.2,0,0,1-.089-.755,10.1,10.1,0,0,0-5.278,2.168c.876-.3,1.753-.591,2.632-.87a1.036,1.036,0,0,1,1.173.321" transform="translate(-117.352 -353.147)" fill="#fff"/>
        <path id="パス_1880" data-name="パス 1880" d="M756.677,78.374a8.068,8.068,0,0,1,6.989-.643,1.254,1.254,0,0,1-.143,2.39,27.277,27.277,0,0,1,8.5,5.134c0-.194,0-.388.011-.583a1.219,1.219,0,0,1,1.537-1.122c-.342-.759-.724-1.509-1.053-2.279a1.288,1.288,0,0,1-2.228.535c-.018-.022-.038-.041-.055-.064-2.346-3.229-5.455-6.6-9.238-8.11a6.5,6.5,0,0,0-6.334.637,12.176,12.176,0,0,0-3.882,3.855,31.268,31.268,0,0,1,5.892.25" transform="translate(-571.122 -55.601)" fill="#7e7e7e"/>
        <path id="パス_1881" data-name="パス 1881" d="M728.13,115.148c-1.144-1.258-2.8-1.143-4.29-.641-1.39.469-2.02-1.588-.842-2.218a6.213,6.213,0,0,1-.952-.744,1.057,1.057,0,0,1-1.79.232,17.846,17.846,0,0,1-4.01-11.482,27.273,27.273,0,0,0-8.5-5.134,1.143,1.143,0,0,1-.494-.083,5.779,5.779,0,0,0-5.921.97,6.006,6.006,0,0,0-.518.494c-.94,1.019-2.394-.243-1.929-1.33a1.264,1.264,0,0,1,.237-.362,7.956,7.956,0,0,1,1.779-1.437,31.246,31.246,0,0,0-5.892-.25c-.029.05-.062.1-.091.147q.31.178.624.348a1.242,1.242,0,0,1-.955.306c-.012.028-.026.054-.038.082-.515,1.188-2.057.51-2.17-.569a15.887,15.887,0,0,0-2.009-.614,1.041,1.041,0,0,1-1.15,1.106c-2.046-.138-3.874.317-4.888,2.229a14.493,14.493,0,0,0-1.178,5.992,54.181,54.181,0,0,1-.408,6.489c-.42,2.394-2.941,4.61-5.168,5.353-.04.013-.079.023-.117.033.005.1.01.2.015.307a1.291,1.291,0,0,1,1.215,1.134,161.983,161.983,0,0,0,3.195,19.078c1.287,5.294,2.978,10.682,7.19,14.4a17.225,17.225,0,0,0,15.263,3.616c10.472-2.384,16.4-13.021,16.95-23.131a1.174,1.174,0,0,1,.953-1.118,1.2,1.2,0,0,1,.379-.129c4.144-.712,6.71-4.452,6.834-8.529a6.465,6.465,0,0,0-1.321-4.55M688.357,117.5a1.2,1.2,0,0,1,0-2.393,1.2,1.2,0,0,1,0,2.393m5.736,6.791c.731-1.192,1.4-2.313.949-3.739a6.912,6.912,0,0,0-1.407-2.528c-1.048-1.127.641-2.823,1.692-1.692,1.556,1.674,2.69,4.243,2.1,6.522a17.025,17.025,0,0,1-1.915,3.782,3.95,3.95,0,0,0-.544.966c-.082.542.352.956.626,1.378q.791,1.219,1.593,2.43c.855,1.288-1.219,2.485-2.066,1.208q-.8-1.211-1.593-2.43a4.888,4.888,0,0,1-1.012-2.089c-.133-1.337.908-2.722,1.574-3.808m10.713,15.332c-2.948,3.206-9.361,3.294-12.444.246-1.1-1.085.6-2.776,1.692-1.692,2.188,2.163,6.995,2,9.06-.246,1.045-1.136,2.733.56,1.692,1.692m1.552-24.283a1.2,1.2,0,0,1,0,2.393,1.2,1.2,0,0,1,0-2.393m3.459,24.5a1.2,1.2,0,0,1-1.692,0l-1.574-1.968a1.226,1.226,0,0,1,0-1.692,1.2,1.2,0,0,1,1.692,0l1.574,1.968a1.225,1.225,0,0,1,0,1.692" transform="translate(-515.342 -70.642)" fill="#ffeeda"/>
        <path id="パス_1882" data-name="パス 1882" d="M749.356,94.734c-.119.213-.231.43-.331.654a1.243,1.243,0,0,0,.955-.306q-.313-.17-.624-.348" transform="translate(-569.784 -72.064)" fill="#fff"/>
        <path id="パス_1883" data-name="パス 1883" d="M721.541,47.172q.276-4.821.359-9.653c.078-4.68.556-10.432-4.074-13.244a1.108,1.108,0,0,1-.567-.936,1.184,1.184,0,0,1-1.337-.814,18.121,18.121,0,0,0-5.025-7.813,18.472,18.472,0,0,0-27.168,3.2,1.212,1.212,0,0,1-1.958,1.309c-2.358-2.34-5.977.435-7.679,2.315a19.225,19.225,0,0,0-4.521,9.678,23.214,23.214,0,0,0,.583,8.008c.325,1.652.7,3.3,1.173,4.919a1.085,1.085,0,0,1-.6,1.343,23.977,23.977,0,0,1,.46,3.185,6.83,6.83,0,0,0,2.739-2.468,6.165,6.165,0,0,0,.549-2.977c.124-2.221.115-4.45.4-6.66A10.811,10.811,0,0,1,677,30.825a7.1,7.1,0,0,1,6.095-2.157,1.226,1.226,0,0,1,1.15,1.287,15.928,15.928,0,0,1,2.009.615,1.265,1.265,0,0,1,.1-.639,13.637,13.637,0,0,1,5.374-5.707,8.568,8.568,0,0,1,7.355-1c4.646,1.487,8.354,5.4,11.173,9.243a8.416,8.416,0,0,1-.323-1.211,8.416,8.416,0,0,0,.323,1.211l.145.2a1.027,1.027,0,0,1,.216.738c.33.77.711,1.52,1.053,2.279a1.043,1.043,0,0,1,.856,1.121,16.662,16.662,0,0,0,.022,1.748c0,.042.013.083.016.124,0-.042-.012-.083-.016-.124a15.1,15.1,0,0,0,3.276,8.625,1.237,1.237,0,0,1,.1,1.46,6.211,6.211,0,0,0,.952.744,1.348,1.348,0,0,1,.206-.09,6.77,6.77,0,0,1,4.9.033c.054-.367.117-.734.184-1.1a1.011,1.011,0,0,1-.622-1.051" transform="translate(-509.221 -7.733)" fill="#7e7e7e"/>
        <path id="パス_1884" data-name="パス 1884" d="M317.169,378.813c.674,1.392,1.767,2.605,3.45,2.391a4.06,4.06,0,0,0,2.961-2.154l-6.411-.237" transform="translate(-241.271 -288.163)" fill="#fff"/>
        <path id="パス_1885" data-name="パス 1885" d="M671.517,645.464c-.017,0-.039-.021-.07-.094.125.295.206.26.111.147-.015-.018-.027-.035-.041-.053" transform="translate(-510.77 -490.933)" fill="#fff"/>
        <path id="パス_1886" data-name="パス 1886" d="M294.193,284.194a1.276,1.276,0,1,0-1.349,1.2,1.3,1.3,0,0,0,1.349-1.2" transform="translate(-221.854 -215.159)" fill="#363636"/>
        <path id="パス_1887" data-name="パス 1887" d="M372.367,288.811a1.276,1.276,0,1,0-1.349,1.2,1.3,1.3,0,0,0,1.349-1.2" transform="translate(-281.321 -218.671)" fill="#363636"/>
        <path id="パス_1888" data-name="パス 1888" d="M217.058,322.384c.007-1.358-1.971-1.684-2.151-.268a1.085,1.085,0,0,0,2.151.268" transform="translate(-163.472 -244.335)" fill="#fff"/>
        <path id="パス_1890" data-name="パス 1890" d="M719.844,607.13a50.71,50.71,0,0,1-7.651-2.976,24.334,24.334,0,0,1-5.386-3.319c-1.863-1.615-2.9-3.917-4.812-5.509-2.434-2.031-5.347-3.323-7.642-5.572-1.564-1.532-3.1-4.346-5.515-4.583-2.264-.222-4.518,1.822-6.107,3.185A39.173,39.173,0,0,0,676.7,595.3c-1.716,2.364-3.643,5.094-2.2,8.112,1.123,2.355,3.79,3.19,5.926,4.334,1.357.727,2.567-1.338,1.208-2.066-1.588-.85-4.063-1.5-4.943-3.225-1.2-2.35,1.282-4.824,2.529-6.577a30.508,30.508,0,0,1,5.817-6.334,11.317,11.317,0,0,1,2.874-1.863c.827-.3,1.318.09,1.917.678.9.886,1.662,1.911,2.552,2.812a25.979,25.979,0,0,0,3.213,2.721c2.295,1.673,4.845,2.862,6.632,5.137a21.423,21.423,0,0,0,3.944,4.345,29.5,29.5,0,0,0,5.072,2.974,54.971,54.971,0,0,0,7.968,3.095,1.2,1.2,0,0,0,.636-2.308" transform="translate(-512.709 -445.128)" fill="#323232"/>
        <path id="パス_1891" data-name="パス 1891" d="M707.5,619.514a40.306,40.306,0,0,0-6.509,7.51c-1.249,2.076-1.728,4.637-.347,6.774a9.618,9.618,0,0,0,2.558,2.514,3.187,3.187,0,0,0,3.036.3c1.461-.467.836-2.778-.636-2.307-.966.308-1.249-.077-1.988-.736a3.747,3.747,0,0,1-1.437-2.441c-.145-1.677,1.035-3.259,2.031-4.5a63.009,63.009,0,0,1,4.984-5.417c1.1-1.081-.592-2.773-1.692-1.692" transform="translate(-532.344 -471.001)" fill="#323232"/>
        <path id="パス_1892" data-name="パス 1892" d="M729.807,638.25a34.816,34.816,0,0,0-5.965,6.49c-1.546,2.18-2.953,4.86-1.023,7.273a10.62,10.62,0,0,0,7.014,3.345,6.6,6.6,0,0,0,6.458-3.368,1.2,1.2,0,0,0-2.066-1.208,4.353,4.353,0,0,1-4.888,2.1c-1.6-.306-4.307-1.211-4.977-2.9-.707-1.782,1.678-4.3,2.715-5.575a33.861,33.861,0,0,1,4.424-4.47c1.179-.994-.521-2.679-1.692-1.692" transform="translate(-549.136 -485.289)" fill="#323232"/>
        <path id="パス_1893" data-name="パス 1893" d="M758.843,662.771l-4.445,4.118c-1.132,1.049.563,2.738,1.692,1.692l4.445-4.118c1.132-1.049-.563-2.738-1.692-1.692" transform="translate(-573.586 -503.92)" fill="#323232"/>
        <path id="パス_1894" data-name="パス 1894" d="M640.63,558.427q-3.146-2.01-6.436-3.783a32.592,32.592,0,0,0-5.5-2.6,4.973,4.973,0,0,0-3.915.568c-1.329.643-2.687,1.223-4.016,1.867-2.417,1.172-6.232,2.844-4.65,6.172,2.136,4.492,7.571,1.476,10.95.846,1.449-.27,3,.742,4.19,1.459.681.411,1.344.853,1.991,1.316.214.153.425.309.636.467l.055.041c1.2.943,2.9-.739,1.692-1.692a25.149,25.149,0,0,0-5.092-3.227,6.477,6.477,0,0,0-3.678-.758c-1.848.3-3.559,1.168-5.4,1.494a3.7,3.7,0,0,1-2.476-.205c-.452-.267-1.033-1.09-.85-1.493.169-.372.856-.709,1.181-.913.585-.369,1.194-.7,1.808-1.015,1-.516,2.034-.976,3.064-1.437,1.006-.449,2.362-1.508,3.524-1.285,1.809.348,3.673,1.6,5.279,2.46q3.29,1.766,6.436,3.783c1.3.832,2.5-1.239,1.208-2.066" transform="translate(-468.395 -419.792)" fill="#323232"/>
        <path id="パス_1896" data-name="パス 1896" d="M495.916,665.053c-3.943-2.708-7.962-5.319-12.065-7.778a56.457,56.457,0,0,0-7.754-4.084c-2.508-1.014-6.381-2.737-5.871-6.073.475-3.106,3.216-5.606,5.411-7.588s4.138-4.228,6.167-6.365a35.085,35.085,0,0,1,5.566-5.118c.043-.029.155.046-.026-.013a1.875,1.875,0,0,1,.779.364,2.239,2.239,0,0,1,.444,2.207,11.726,11.726,0,0,1-2.107,3.63,66.1,66.1,0,0,1-12.432,11.947l1.692,1.692,11.793-11.468c1.126-1.1,4.461-5.578,5.57-3.1.428.954-.391,2.454-.93,3.244-.391.574-.927,1.047-1.346,1.6-1.1,1.471-2.178,2.9-3.42,4.264-2.452,2.7-5.032,5.289-7.661,7.814l1.692,1.692a78.864,78.864,0,0,1,7.682-8.27,22.92,22.92,0,0,1,2.626-2.147,7.855,7.855,0,0,1,1.192-.7,3.292,3.292,0,0,1,.353-.137,1.018,1.018,0,0,1,.2-.057c.325-.027-.137-.09.085.022,1.09.55.691,2.363.2,3.177a24.261,24.261,0,0,1-2.026,2.635c-1.726,2.121-3.884,4.245-5.146,6.692-.705,1.366,1.359,2.578,2.066,1.208,1.275-2.47,3.468-4.588,5.2-6.737,1.747-2.165,3.824-4.768,2.249-7.682-1.522-2.815-4.347-1.435-6.265.007a47.965,47.965,0,0,0-6.31,5.948c-1.3,1.414-2.581,2.86-3.8,4.351-.956,1.172.558,2.781,1.692,1.692,2.529-2.429,5.008-4.921,7.379-7.505a60.313,60.313,0,0,0,3.914-4.839c1.276-1.714,2.8-3.262,2.872-5.578a3.644,3.644,0,0,0-4.993-3.527,7.962,7.962,0,0,0-2.958,2.313c-.244.286-.457.6-.7.886-.1.12.3-.3.035-.073-2.234,1.879-4.241,4.124-6.334,6.158l-6.606,6.424c-1.137,1.106.513,2.607,1.692,1.692a69.849,69.849,0,0,0,12.293-11.762c1.9-2.429,4.59-6.295,1.986-9.208-2.311-2.584-4.753-.489-6.631,1.277-2.506,2.354-4.778,4.949-7.163,7.423-2.339,2.426-4.842,4.333-6.705,7.223-1.832,2.841-2.49,6.244-.1,8.972,2.361,2.7,6.145,3.585,9.212,5.234a175.6,175.6,0,0,1,16.1,10.087c1.273.874,2.471-1.2,1.208-2.066" transform="translate(-355.897 -475.966)" fill="#323232"/>
        <path id="パス_1898" data-name="パス 1898" d="M768.485,669.647a17.681,17.681,0,0,0,4.887,11.345c1.119,1.057,2.814-.632,1.692-1.692a15.186,15.186,0,0,1-4.186-9.653c-.082-1.532-2.475-1.542-2.393,0" transform="translate(-584.586 -508.524)" fill="#323232"/>
        <path id="パス_1899" data-name="パス 1899" d="M651.6,609.164c.1.113.014.148-.111-.147.213.5.062-1.111-.034-.766l.55-.715a2.463,2.463,0,0,1,1.092-.047c-.052.032-.171-.148-.022-.011-.266-.244-.556-.467-.827-.706-1.305-1.151-2.6-2.331-3.846-3.544-1.559-1.516-.517-3.449,1.6-3.243a7.1,7.1,0,0,1,5.1,3.559,1.2,1.2,0,0,0,2.066-1.208,9.438,9.438,0,0,0-7.157-4.745c-2.708-.171-5.1,1.759-4.764,4.6.193,1.634,1.264,2.544,2.4,3.61.916.856,1.833,1.711,2.77,2.543.637.565,1.533,1.643,2.5,1.385,1.181-.314.966-1.554.37-2.254-1-1.175-2.685.525-1.692,1.692" transform="translate(-490.811 -454.58)" fill="#323232"/>
        <path id="パス_1900" data-name="パス 1900" d="M316.787,594.821c-.644,12.069-.574,24.177-.89,36.256-.074,2.831-.156,5.664-.307,8.492-.082,1.539,2.311,1.534,2.393,0,.644-12.069.574-24.177.89-36.257.074-2.831.156-5.664.307-8.492.082-1.539-2.311-1.534-2.393,0" transform="translate(-240.068 -451.604)" fill="#323232"/>
        <path id="パス_1901" data-name="パス 1901" d="M68.344,469.467a107.449,107.449,0,0,0-16.836,6.86c-3.147,1.627-6.592,3.523-8.855,6.325a14.7,14.7,0,0,0-2.559,6.4c-1.424,6.829-1.712,13.935-1.968,20.886-.285,7.712-.316,15.433-.229,23.15.048,4.29.122,8.582.275,12.87.055,1.535,2.448,1.542,2.393,0-.381-10.693-.443-21.416-.168-32.112a168.213,168.213,0,0,1,1.525-21.488,28.02,28.02,0,0,1,1.645-6.693c1.237-2.685,4.115-4.423,6.568-5.86a92.857,92.857,0,0,1,18.846-8.035c1.463-.464.838-2.775-.636-2.308" transform="translate(-28.796 -357.077)" fill="#323232"/>
        <path id="パス_1902" data-name="パス 1902" d="M229.447,405.228c-.22,3.74-1.322,7.436-4.6,9.594-1.281.843-.084,2.917,1.208,2.067,4.029-2.653,5.511-7.024,5.784-11.66.091-1.538-2.3-1.533-2.393,0" transform="translate(-170.625 -307.381)" fill="#323232"/>
        <path id="パス_1903" data-name="パス 1903" d="M369.958,415.622a12.728,12.728,0,0,0,1.186,5.9c1.158,2.129,3.2,3.707,5.054,5.195,1.19.955,2.893-.728,1.692-1.692-1.628-1.307-3.493-2.677-4.567-4.512a9.921,9.921,0,0,1-.972-4.89,1.2,1.2,0,0,0-2.393,0" transform="translate(-281.427 -315.285)" fill="#323232"/>
        <path id="パス_1904" data-name="パス 1904" d="M292.844,285.393a1.276,1.276,0,1,0-1.2-1.349,1.291,1.291,0,0,0,1.2,1.349" transform="translate(-221.855 -215.159)" fill="#363636"/>
        <path id="パス_1905" data-name="パス 1905" d="M292.844,285.393a1.276,1.276,0,1,0-1.2-1.349,1.291,1.291,0,0,0,1.2,1.349" transform="translate(-221.855 -215.159)" fill="#363636"/>
        <path id="パス_1906" data-name="パス 1906" d="M371.018,290.01a1.276,1.276,0,1,0-1.2-1.349,1.291,1.291,0,0,0,1.2,1.349" transform="translate(-281.322 -218.671)" fill="#363636"/>
        <path id="パス_1907" data-name="パス 1907" d="M371.018,290.01a1.276,1.276,0,1,0-1.2-1.349,1.291,1.291,0,0,0,1.2,1.349" transform="translate(-281.322 -218.671)" fill="#363636"/>
        <path id="パス_1908" data-name="パス 1908" d="M333.012,308.236a6.674,6.674,0,0,0-.061,2.826,10.617,10.617,0,0,0,1.115,2.236,12.181,12.181,0,0,1,.8,1.3c-.183-.485.01-.216-.221-.047a3.723,3.723,0,0,0-.419.477c-.441.472-.912.92-1.395,1.349-1.154,1.025.544,2.712,1.692,1.692,1.055-.937,2.948-2.414,2.666-4.011a10.192,10.192,0,0,0-1.456-2.681,3.207,3.207,0,0,1-.411-2.506c.247-1.506-2.059-2.154-2.308-.636" transform="translate(-252.89 -233.817)" fill="#323232"/>
        <path id="パス_1909" data-name="パス 1909" d="M304.893,370.055c.849,3,2.981,6.048,6.472,5.712a6.792,6.792,0,0,0,5.711-5.347,1.214,1.214,0,0,0-1.154-1.514l-9.875-.365c-1.54-.057-1.538,2.336,0,2.393l9.875.365-1.154-1.514a4.469,4.469,0,0,1-3.526,3.6c-2.316.3-3.516-2.112-4.042-3.97a1.2,1.2,0,0,0-2.308.636" transform="translate(-231.893 -280.348)" fill="#323232"/>
        <path id="パス_1910" data-name="パス 1910" d="M225.817,319.993a39.681,39.681,0,0,0,1.165,10.41,22.126,22.126,0,0,0,8.7,12.451,26.352,26.352,0,0,0,7.174,3.875,21.289,21.289,0,0,0,7.6.907,19.813,19.813,0,0,0,6.857-1.166,17.76,17.76,0,0,0,6.018-4.178,24.3,24.3,0,0,0,5-7.232,51.575,51.575,0,0,0,2.674-8.58c.368-1.5-1.939-2.133-2.308-.636-1.149,4.671-2.405,9.326-5.551,13.1a19.157,19.157,0,0,1-5.447,4.728,14.289,14.289,0,0,1-5.92,1.52,22.414,22.414,0,0,1-6.854-.337,21.781,21.781,0,0,1-6.539-3.01c-4.082-2.676-7.45-6.335-8.833-11.083a36.032,36.032,0,0,1-1.348-10.764,1.2,1.2,0,0,0-2.393,0" transform="translate(-171.772 -242.54)" fill="#323232"/>
        <path id="パス_1911" data-name="パス 1911" d="M204.71,261.8a5.705,5.705,0,0,0-6.028.543,7.717,7.717,0,0,0-2.779,4.96c-.631,4.417,3.059,9.39,7.107,10.841,1.452.52,2.078-1.791.636-2.308-2.807-1.006-5.564-4.718-5.428-7.754.12-2.673,2.459-5.431,5.285-4.216,1.4.6,2.62-1.459,1.208-2.066" transform="translate(-148.969 -198.691)" fill="#323232"/>
        <path id="パス_1912" data-name="パス 1912" d="M794.555,189.2a1.2,1.2,0,0,0,0-2.393,1.2,1.2,0,0,0,0,2.393" transform="translate(-603.539 -142.103)" fill="#323232"/>
        <path id="パス_1913" data-name="パス 1913" d="M719.332,188.224a1.2,1.2,0,0,0,0-2.393,1.2,1.2,0,0,0,0,2.393" transform="translate(-546.317 -141.362)" fill="#323232"/>
        <path id="パス_1914" data-name="パス 1914" d="M970.814,426.28c-2.273,1.995-3.53,5.105-4.583,7.861a75.475,75.475,0,0,0-3.139,10.908c-1.75,8.049-1.934,16.326-2.774,24.5-.6,5.853-1.23,11.7-1.738,17.564-.133,1.534,2.261,1.525,2.393,0,.87-10.023,2.109-20.01,2.877-30.042a82.746,82.746,0,0,1,3.949-20.23c1.018-3.026,2.228-6.695,4.707-8.869,1.16-1.018-.538-2.7-1.692-1.692" transform="translate(-729.188 -324.034)" fill="#323232"/>
        <path id="パス_1915" data-name="パス 1915" d="M863.6,244.312q.079,5.423.158,10.846a1.2,1.2,0,0,0,2.393,0q-.079-5.423-.158-10.846a1.2,1.2,0,0,0-2.393,0" transform="translate(-656.938 -184.969)" fill="#323232"/>
        <path id="パス_1916" data-name="パス 1916" d="M672.565,183.863a179.01,179.01,0,0,0,2.948,18.3c1.326,5.859,3.077,11.991,7.516,16.3a19.394,19.394,0,0,0,16.11,5.174,22.092,22.092,0,0,0,14.254-8.1,30.681,30.681,0,0,0,6.555-17.7c.083-1.539-2.31-1.534-2.393,0-.546,10.11-6.478,20.747-16.95,23.131a17.225,17.225,0,0,1-15.263-3.616c-4.213-3.721-5.9-9.109-7.19-14.4a162.034,162.034,0,0,1-3.195-19.078c-.18-1.51-2.575-1.528-2.393,0" transform="translate(-511.613 -138.998)" fill="#323232"/>
        <path id="パス_1917" data-name="パス 1917" d="M864.648,174.561c1.492-.5,3.147-.617,4.29.641a6.464,6.464,0,0,1,1.321,4.55c-.124,4.077-2.69,7.817-6.834,8.529-1.515.26-.872,2.567.636,2.308a10.527,10.527,0,0,0,8.193-8.026c.837-3.267.529-7.637-2.452-9.769a6.347,6.347,0,0,0-5.791-.541c-1.452.489-.829,2.8.636,2.308" transform="translate(-656.15 -130.696)" fill="#323232"/>
        <path id="パス_1918" data-name="パス 1918" d="M749.362,280.015c-2.065,2.246-6.872,2.409-9.06.246-1.1-1.084-2.789.607-1.692,1.692,3.083,3.049,9.5,2.96,12.444-.246,1.041-1.132-.647-2.829-1.692-1.692" transform="translate(-561.591 -212.721)" fill="#323232"/>
        <path id="パス_1919" data-name="パス 1919" d="M705.921,333.544c1.822,1.783,3.335,3.8,5.072,5.651a19.524,19.524,0,0,0,6.286,4.084c1.389.641,2.606-1.421,1.208-2.066a17.761,17.761,0,0,1-5.932-3.851c-1.671-1.827-3.164-3.771-4.941-5.51-1.1-1.078-2.8.613-1.692,1.692" transform="translate(-536.722 -252.177)" fill="#323232"/>
        <path id="パス_1920" data-name="パス 1920" d="M691.9,374.2a21.992,21.992,0,0,0,3.681,6.13,44.635,44.635,0,0,1,4.455,5.356,1.21,1.21,0,0,0,1.879.242,14.537,14.537,0,0,0,2.949-5.658,19.133,19.133,0,0,1,2.5-6.07c.881-1.267-1.192-2.464-2.066-1.208a17.9,17.9,0,0,0-2.486,5.692,13.527,13.527,0,0,1-2.591,5.552l1.879.242a42.584,42.584,0,0,0-4.609-5.611,20.122,20.122,0,0,1-3.527-5.875c-.637-1.4-2.7-.185-2.066,1.208" transform="translate(-526.238 -283.261)" fill="#323232"/>
        <path id="パス_1921" data-name="パス 1921" d="M781.111,306.085c-.961,1.746-2.885,3.113-4.4,4.339-2.433,1.967-5,3.779-7.592,5.522q-1.891,1.27-3.824,2.475c-.891.553-2.859,1.271-3.208,2.307a21.64,21.64,0,0,0-.34,2.7,27.114,27.114,0,0,1-.7,2.816,34.732,34.732,0,0,1-1.929,4.935,37.885,37.885,0,0,1-3.156,5.519l2.187.286c-.773-4.422-2.934-8.5-3.707-12.925-.265-1.514-2.571-.872-2.307.636.773,4.422,2.934,8.5,3.707,12.925.194,1.111,1.655,1.039,2.187.286a34.367,34.367,0,0,0,6.4-16.861l-.592,1.033a117.993,117.993,0,0,0,11.36-7.5c1.744-1.29,3.471-2.618,5.089-4.064a13.114,13.114,0,0,0,2.885-3.225c.743-1.35-1.323-2.559-2.066-1.208" transform="translate(-572.135 -232.39)" fill="#323232"/>
        <path id="パス_1922" data-name="パス 1922" d="M807.488,360.145c1.472,3.672,3.167,7.262,4.907,10.815a1.208,1.208,0,0,0,1.879.242c5.376-5.054,10.683-10.249,15.555-15.794,1.013-1.153-.673-2.852-1.692-1.692-4.871,5.545-10.179,10.74-15.554,15.794l1.879.242c-1.648-3.366-3.271-6.764-4.665-10.243-.566-1.412-2.881-.8-2.308.636" transform="translate(-614.187 -268.777)" fill="#323232"/>
        <path id="パス_1923" data-name="パス 1923" d="M701.12,333.419l-1.436,6.94c-.311,1.5,2,2.146,2.307.636l1.436-6.94c.311-1.5-2-2.146-2.308-.636" transform="translate(-532.229 -252.977)" fill="#323232"/>
        <path id="パス_1924" data-name="パス 1924" d="M875,309.751l3.1,7.28c.6,1.413,2.663.195,2.066-1.208l-3.1-7.28c-.6-1.413-2.663-.195-2.066,1.208" transform="translate(-665.533 -234.231)" fill="#323232"/>
        <path id="パス_1925" data-name="パス 1925" d="M797.956,274.491l1.574,1.968a1.2,1.2,0,0,0,1.692,0,1.225,1.225,0,0,0,0-1.692l-1.574-1.968a1.2,1.2,0,0,0-1.692,0,1.225,1.225,0,0,0,0,1.692" transform="translate(-606.747 -207.254)" fill="#323232"/>
        <path id="パス_1926" data-name="パス 1926" d="M675.914,35.7c-4.661-4.624-11.025,1.523-13.43,5.556a21.01,21.01,0,0,0-2.941,8.8,29.11,29.11,0,0,0,.727,7.83c.33,1.7.718,3.4,1.2,5.062a1.2,1.2,0,0,0,2.307-.636c-.469-1.617-.848-3.266-1.173-4.918a23.221,23.221,0,0,1-.583-8.008,19.223,19.223,0,0,1,4.521-9.678c1.7-1.879,5.321-4.655,7.679-2.315a1.2,1.2,0,0,0,1.692-1.692" transform="translate(-501.672 -25.906)" fill="#323232"/>
        <path id="パス_1927" data-name="パス 1927" d="M332.23,165.054a5.773,5.773,0,0,1-2,4.224,12.762,12.762,0,0,1-5.809,2.141c-1.513.276-.872,2.583.636,2.308a14.111,14.111,0,0,0,7.048-2.914,8.324,8.324,0,0,0,2.514-5.758c.12-1.536-2.273-1.528-2.393,0" transform="translate(-246.133 -124.683)" fill="#323232"/>
        <path id="パス_1928" data-name="パス 1928" d="M285.093,161.81c-1.048,5.2-8.116,7.18-12.628,7.273a1.2,1.2,0,0,0,0,2.393c5.56-.114,13.666-2.733,14.935-9.03.3-1.5-2-2.147-2.308-.636" transform="translate(-206.385 -122.434)" fill="#323232"/>
        <path id="パス_1929" data-name="パス 1929" d="M235.794,206.569c-1.508,5.191-4.452,10.476-10.119,11.746-1.5.337-.866,2.644.636,2.308,6.491-1.455,10.055-7.444,11.791-13.418a1.2,1.2,0,0,0-2.308-.636" transform="translate(-171.018 -156.497)" fill="#323232"/>
        <path id="パス_1930" data-name="パス 1930" d="M291.257,355.724l-2.122,1.24a1.2,1.2,0,1,0,1.208,2.066l2.122-1.24a1.2,1.2,0,0,0-1.208-2.066" transform="translate(-219.499 -270.479)" fill="#323232"/>
        <path id="パス_1931" data-name="パス 1931" d="M741.946,71.322a11.334,11.334,0,0,1,4.341-4.738,6.5,6.5,0,0,1,6.334-.637c3.783,1.51,6.892,4.881,9.238,8.11.9,1.234,2.973.041,2.066-1.208-2.836-3.905-6.592-7.928-11.317-9.44a8.567,8.567,0,0,0-7.355,1,13.634,13.634,0,0,0-5.374,5.707c-.606,1.4,1.455,2.619,2.066,1.208" transform="translate(-562.743 -47.916)" fill="#323232"/>
        <path id="パス_1932" data-name="パス 1932" d="M869.926,61.98c4.63,2.812,4.152,8.563,4.074,13.244q-.08,4.828-.359,9.653c-.088,1.538,2.305,1.533,2.393,0,.207-3.614.343-7.237.375-10.857a33.1,33.1,0,0,0-.324-6.96,11.166,11.166,0,0,0-4.951-7.147,1.2,1.2,0,0,0-1.208,2.066" transform="translate(-661.32 -45.439)" fill="#323232"/>
        <path id="パス_1933" data-name="パス 1933" d="M684.939,87.406a7.1,7.1,0,0,0-6.094,2.157,10.809,10.809,0,0,0-2.127,5.741c-.288,2.21-.279,4.439-.4,6.66a6.17,6.17,0,0,1-.549,2.977,6.548,6.548,0,0,1-3.1,2.614c-1.454.485-.83,2.8.636,2.308,2.228-.744,4.748-2.959,5.168-5.353a54.185,54.185,0,0,0,.408-6.489,14.492,14.492,0,0,1,1.178-5.992c1.014-1.912,2.841-2.367,4.888-2.229,1.537.1,1.531-2.29,0-2.393" transform="translate(-511.065 -66.47)" fill="#323232"/>
        <path id="パス_1934" data-name="パス 1934" d="M839.547,117.817a17.863,17.863,0,0,0,4,12.064c.977,1.192,2.661-.51,1.692-1.692a15.385,15.385,0,0,1-3.3-10.372c.065-1.54-2.328-1.537-2.393,0" transform="translate(-638.631 -88.746)" fill="#323232"/>
        <path id="パス_1935" data-name="パス 1935" d="M301.735,96.437c3.714-4.076,9.878-4.737,14.857-2.807,5.355,2.074,9.261,6.827,11.93,11.742,2.922,5.382,4.127,11.412,5.057,17.407.487,3.136.91,6.282,1.439,9.411.266,1.577.558,3.148.889,4.713a14.707,14.707,0,0,1,.614,4.012,12.892,12.892,0,0,1-3.172,7.043c-1.363,1.634-3.394,3.616-5.677,3.656a1.2,1.2,0,0,0,0,2.393c4.9-.087,8.862-5.391,10.444-9.524a11.98,11.98,0,0,0,.8-3.706,16.766,16.766,0,0,0-.66-4.293c-.79-3.684-1.344-7.41-1.893-11.136-.989-6.71-2.019-13.5-5-19.666-2.746-5.68-7.029-11.155-12.886-13.832-6.008-2.745-13.814-2.181-18.439,2.9-1.035,1.136.652,2.833,1.692,1.692" transform="translate(-227.997 -68.63)" fill="#323232"/>
        <path id="パス_1936" data-name="パス 1936" d="M202.364,113.232c-7.925-3.5-13.443,5.172-17.117,10.8-5.222,8-11.682,16.5-10.319,26.625a14.347,14.347,0,0,0,3.052,7.584,17.7,17.7,0,0,0,3.506,3.238c1.266.882,2.464-1.191,1.208-2.066a12.364,12.364,0,0,1-5.205-7.858,21.236,21.236,0,0,1,1.828-13.086c1.9-4.123,4.542-7.851,6.982-11.662a63.641,63.641,0,0,1,5.507-7.857c2.336-2.659,5.661-5.288,9.35-3.656,1.4.617,2.615-1.444,1.208-2.066" transform="translate(-132.927 -85.52)" fill="#323232"/>
        <path id="パス_1937" data-name="パス 1937" d="M214.471,318.492a2.276,2.276,0,1,1-2.138-2.406,2.276,2.276,0,0,1,2.138,2.406" transform="translate(-159.688 -240.443)" fill="#fff"/>
        <path id="パス_1938" data-name="パス 1938" d="M209.473,314.695a1.085,1.085,0,0,1-2.152-.268c.18-1.416,2.159-1.089,2.152.268a1.2,1.2,0,0,0,2.393,0,3.471,3.471,0,1,0-3.726,3.32,3.521,3.521,0,0,0,3.726-3.32c.173-1.528-2.221-1.515-2.393,0" transform="translate(-155.887 -236.646)" fill="#323232"/>
        <path id="パス_1939" data-name="パス 1939" d="M178.218,450.573l3.338-3.769-1.45.187,17.421,8.6a2.563,2.563,0,0,0,.451.223c.472.115-.389-.113-.27-.349-.03.059.287.511.319.568l1.895,3.372,6.224,11.078,4.309,7.669a1.2,1.2,0,0,0,2.066,0l6.664-15.67,1.789-4.206a8.009,8.009,0,0,0,.933-2.194c0-.214-.532.3-.056.094.409-.175.806-.383,1.218-.556,1.566-.659,3.16-1.255,4.75-1.854q4.314-1.624,8.657-3.167l-.922-.121c3.157,2.248,6.319,4.522,9.61,6.571,2.765,1.722,6.046,3.181,8.276,5.619a21.924,21.924,0,0,1,3.362,5.948c.972,2.2,2.15,4.761,2.3,7.194.093,1.53,2.487,1.541,2.393,0-.205-3.363-1.828-6.8-3.265-9.787a24.162,24.162,0,0,0-2.676-4.541,19.775,19.775,0,0,0-5.216-4.121c-3.356-2.089-6.686-4.133-9.935-6.391-1.109-.771-2.194-1.592-3.323-2.333a1.7,1.7,0,0,0-1.659-.2c-2.314.769-4.6,1.659-6.88,2.509-2.493.927-5.033,1.812-7.446,2.939-1.173.547-1.376,1.271-1.856,2.4l-2.919,6.864-5.865,13.791h2.066l-9.964-17.736-2.209-3.933a3.728,3.728,0,0,0-1.1-1.5,32.352,32.352,0,0,0-3.086-1.524l-5.617-2.774-9.228-4.557a1.226,1.226,0,0,0-1.45.187l-3.338,3.769c-1.018,1.149.669,2.848,1.692,1.692" transform="translate(-134.043 -338.34)" fill="#323232"/>
        <path id="パス_1940" data-name="パス 1940" d="M882.617,349.832c-1.514,19.778-2.16,39.6-3.477,59.389-.234,3.526-.5,7.053-.912,10.564-.178,1.527,2.217,1.514,2.393,0,.809-6.939,1.146-13.933,1.514-20.906.519-9.835.977-19.673,1.558-29.5q.578-9.777,1.317-19.543c.118-1.536-2.276-1.528-2.393,0" transform="translate(-668.061 -265.243)" fill="#323232"/>
        <path id="パス_1941" data-name="パス 1941" d="M917.3,372.548c1.362,6.012,2.556,12.06,3.918,18.072.34,1.5,2.648.866,2.307-.636-1.362-6.011-2.555-12.06-3.917-18.072-.34-1.5-2.648-.866-2.308.636" transform="translate(-697.761 -282.261)" fill="#323232"/>
        <path id="パス_1942" data-name="パス 1942" d="M911.521,469.9c1.528.28,3.085.263,4.621.472,1.305.177,2.916.5,3.485,1.853.5,1.182-.016,2.644-.347,3.8-.555,1.93-1.152,3.835-1.544,5.807-1.285,6.466-2.573,12.916-4.209,19.3-.865,3.378-1.753,6.749-2.6,10.13a1.2,1.2,0,0,0,2.308.636c1.525-6.063,3.19-12.092,4.532-18.2.913-4.153,1.589-8.363,2.549-12.5.444-1.914,1.125-3.763,1.579-5.673a6.846,6.846,0,0,0-.041-4.14c-1.556-3.92-6.346-3.177-9.694-3.79-1.505-.275-2.151,2.03-.636,2.308" transform="translate(-692.737 -355.68)" fill="#323232"/>
        <path id="パス_1943" data-name="パス 1943" d="M721.689,10.292a18.471,18.471,0,0,1,27.247-3.313,18.121,18.121,0,0,1,5.025,7.814c.482,1.455,2.793.832,2.308-.636a20.382,20.382,0,0,0-12.109-12.8,21.161,21.161,0,0,0-16.893.878,20.332,20.332,0,0,0-7.644,6.854c-.864,1.28,1.208,2.479,2.066,1.208" transform="translate(-547.26 0.001)" fill="#323232"/>
        <path id="パス_1944" data-name="パス 1944" d="M373.027,181.171a42.951,42.951,0,0,0,3.069,10.8c1.378,3.018,3.445,5.578,5.281,8.315,1.677,2.5,2.929,5.151,2.691,8.234a41.138,41.138,0,0,1-.669,4.378c-.263,1.392-.631,2.7-1.995,3.355-1.389.664-.176,2.728,1.208,2.066,3.031-1.448,3.106-5.087,3.6-7.968a13.808,13.808,0,0,0-1.576-9.342c-1.62-2.928-3.882-5.444-5.521-8.364a37.043,37.043,0,0,1-3.783-12.114c-.255-1.515-2.562-.873-2.308.636" transform="translate(-283.747 -136.675)" fill="#323232"/>
        <path id="パス_1945" data-name="パス 1945" d="M237.276,272.1l6.131,1.913-.878-1.153a9.654,9.654,0,0,0,2.521,6.713,8.52,8.52,0,0,0,5.269,2.333c4.882.447,10.015-2.942,10.1-8.131l-1.2,1.2,3.238.191-1.154-.878a12.753,12.753,0,0,0,2.469,6.2c1.693,2,4.751,2.711,7.265,2.439,4.181-.453,6.447-4.432,7.171-8.241l-.836.836,3.51-.489c1.519-.212.872-2.518-.636-2.308l-3.51.489a1.152,1.152,0,0,0-.836.836c-.505,2.658-1.876,6.054-4.885,6.485-1.9.272-4.451-.212-5.625-1.861a11.808,11.808,0,0,1-1.781-5.023,1.208,1.208,0,0,0-1.154-.879l-3.238-.191a1.212,1.212,0,0,0-1.2,1.2c-.063,3.891-4.173,6.129-7.706,5.738s-5.288-3.3-5.4-6.653a1.233,1.233,0,0,0-.878-1.154l-6.131-1.913c-1.473-.46-2.1,1.85-.636,2.308" transform="translate(-179.861 -205.188)" fill="#323232"/>
        <path id="パス_1946" data-name="パス 1946" d="M208.857,398.749s3.111-7.418,2.632-9.333c-2.377-9.507-5.516-20.045-6.407-24.016-1.505-6.706-2.579-9.895-.69-16.5a33.156,33.156,0,0,1,2.29-5.65c1.184-1.633,3.851-.255,3.612,1.9l-1.971,13.519s.848-11.113,2.531-16.229c.749-2.277,4.659-1.337,4.466,1.513l-2.176,18.9s.944-12.489,2.284-15.7c.605-1.451,3.522-.355,3.6,1.215.255,4.9-1.956,18-1.956,18L218.62,355.7c.087-.669.129-3.934,2.043-3.934,1.684,0,2.872.479,2.872,2.872,0,4.517.262,10.565.479,15.076a18.523,18.523,0,0,0,3.111,9.333A16.559,16.559,0,0,1,230,387.424c.257,3.461-5.106,16.35-5.106,16.35" transform="translate(-154.713 -259.522)" fill="#ffeeda"/>
        <path id="パス_1947" data-name="パス 1947" d="M212.375,588.73q4.5,1.279,8.956,2.737,2.061.678,4.109,1.4a23.713,23.713,0,0,1,4.2,1.583c.963.569.424,1.469.144,2.314-.2.606-.386,1.218-.566,1.831-.423,1.439-.812,2.888-1.193,4.338-1.976,7.532-3.716,15.124-5.631,22.672-.81,3.192-1.586,6.423-2.672,9.536-.509,1.457,1.8,2.083,2.307.636,2.37-6.79,3.785-13.977,5.489-20.953.957-3.919,1.911-7.839,2.942-11.739.4-1.5.8-3,1.254-4.485.5-1.637,1.484-3.486.416-5.091-.768-1.155-2.246-1.579-3.476-2.027q-2.575-.939-5.173-1.813-5.2-1.749-10.473-3.242a1.2,1.2,0,0,0-.636,2.308" transform="translate(-160.912 -446.053)" fill="#323232"/>
        <path id="パス_1948" data-name="パス 1948" d="M152.983,598.912c-4.95,12.979-10.523,25.71-15.473,38.689-.549,1.44,1.763,2.063,2.307.636,4.95-12.979,10.524-25.71,15.474-38.69.549-1.44-1.763-2.063-2.308-.636" transform="translate(-104.54 -454.979)" fill="#323232"/>
        <path id="パス_1949" data-name="パス 1949" d="M93.509,556.227a125.667,125.667,0,0,1,5.179,17.967,143.686,143.686,0,0,1,2.914,18.567c.129,1.523,2.523,1.537,2.393,0a148.263,148.263,0,0,0-2.914-18.812,126.4,126.4,0,0,0-5.264-18.358c-.544-1.425-2.858-.807-2.308.636" transform="translate(-71.068 -422.024)" fill="#323232"/>
        <path id="パス_1950" data-name="パス 1950" d="M564.463,365.5c-4.965,3.4-10.556,5.621-16.032,8.039-4.2,1.854-8.477,3.671-12.584,5.716a16.694,16.694,0,0,0-4.889,3.183,9.661,9.661,0,0,0-1.83,3.507,60.916,60.916,0,0,0-2.356,11.543c-.5,3.708-.893,7.432-1.19,11.162-.122,1.535,2.272,1.527,2.393,0,.544-6.855,1.148-13.912,3-20.556a12.029,12.029,0,0,1,1.457-3.679c.815-1.165,2.588-2.042,3.914-2.732,3.9-2.031,8.039-3.706,12.05-5.521,5.867-2.655,11.932-4.936,17.277-8.6,1.263-.865.068-2.939-1.208-2.066" transform="translate(-399.808 -277.876)" fill="#323232"/>
        <path id="パス_1951" data-name="パス 1951" d="M741.476,191.457a6.919,6.919,0,0,1,1.407,2.528c.449,1.426-.218,2.547-.949,3.739-.666,1.086-1.707,2.471-1.574,3.808a4.891,4.891,0,0,0,1.011,2.089q.791,1.219,1.593,2.43c.848,1.277,2.921.08,2.066-1.208q-.8-1.211-1.593-2.43c-.274-.423-.708-.836-.626-1.378a3.953,3.953,0,0,1,.544-.966,17.028,17.028,0,0,0,1.915-3.782c.588-2.28-.546-4.848-2.1-6.522-1.051-1.13-2.74.565-1.692,1.692" transform="translate(-563.184 -144.07)" fill="#323232"/>
        <path id="パス_1952" data-name="パス 1952" d="M717.76,692.707c3.784,4.441,8,9.175,14.193,9.689,2.408.2,4.327-.519,6.672-.032a53.66,53.66,0,0,1,6.7,1.97c1.447.5,2.888,1.032,4.31,1.6s2.05-1.74.636-2.308a77.448,77.448,0,0,0-9.7-3.268,14.462,14.462,0,0,0-5.8-.433,11.728,11.728,0,0,1-8.038-1.8c-2.859-1.835-5.1-4.551-7.277-7.111-1-1.174-2.686.526-1.692,1.692" transform="translate(-545.77 -525.354)" fill="#323232"/>
        <path id="パス_1953" data-name="パス 1953" d="M573.213,710.42a35.617,35.617,0,0,1,8.179,5.818c2.3,2.215,4.442,4.893,4.9,8.146.214,1.519,2.52.873,2.308-.636-.493-3.5-2.8-6.531-5.255-8.949a37.572,37.572,0,0,0-8.924-6.446c-1.363-.713-2.574,1.351-1.208,2.066" transform="translate(-435.587 -538.733)" fill="#323232"/>
        <path id="パス_1954" data-name="パス 1954" d="M852.676,427.99c2.7,8.367-.288,17.8-4.9,24.923a1.2,1.2,0,0,0,.429,1.637c8.6,3.889,17.7,6.114,26.723,8.748,6.318,1.844,13.111,4.681,19.829,3.74,2.736-.383,5.247-1.7,6.327-4.363a43.286,43.286,0,0,0,2.175-8.211,165.618,165.618,0,0,0,2.35-21.691,344.554,344.554,0,0,0-.385-44.665c-.369-4.889-.812-10.03-2.665-14.621a18.463,18.463,0,0,0-6.625-8.271,47.078,47.078,0,0,0-9.4-5.025c-5.34-2.2-10.8-4.112-16.184-6.2q-3.317-1.288-6.621-2.609c-1.43-.571-2.052,1.743-.636,2.308,6.492,2.59,13.036,5.033,19.563,7.533a59.347,59.347,0,0,1,9.381,4.326c2.808,1.682,5.45,3.6,7.142,6.436,2.071,3.471,2.766,7.666,3.231,11.621.853,7.257.977,14.6,1.169,21.9q.259,9.838-.037,19.677c-.224,7.343-.648,14.7-1.556,21.989a94.322,94.322,0,0,1-1.6,9.386c-.3,1.3-.637,2.6-1.044,3.878a5.807,5.807,0,0,1-1.711,3.049c-2.069,1.631-5.257,1.445-7.711,1.186a46.788,46.788,0,0,1-8.779-1.971c-8.35-2.568-16.907-4.575-25.13-7.541q-3.35-1.209-6.6-2.673l.429,1.637c4.948-7.638,8.029-17.818,5.146-26.766-.471-1.46-2.782-.835-2.308.636" transform="translate(-644.778 -267.225)" fill="#323232"/>
        <path id="パス_1955" data-name="パス 1955" d="M871.646,669.751c7.81,2.649,15.719,5.061,23.691,7.179a1.2,1.2,0,0,0,.636-2.307c-7.972-2.118-15.88-4.531-23.691-7.179-1.462-.5-2.089,1.815-.636,2.308" transform="translate(-662.434 -507.672)" fill="#323232"/>
        <path id="パス_1956" data-name="パス 1956" d="M672.448,367.412c-.948,4.963-1.5,10.014-2.052,15.033q-1,9.023-1.685,18.078c-.192,2.572-.368,5.148-.455,7.726-.052,1.54,2.341,1.538,2.393,0,.369-10.924,1.563-21.9,2.964-32.732.323-2.5.669-4.995,1.142-7.469.287-1.5-2.019-2.149-2.308-.636" transform="translate(-508.342 -278.834)" fill="#323232"/>
        <path id="パス_1957" data-name="パス 1957" d="M761.543,455.4c-.51,7.625-1.446,15.212-1.957,22.837-.1,1.537,2.291,1.531,2.393,0,.51-7.625,1.446-15.212,1.957-22.837.1-1.537-2.291-1.531-2.393,0" transform="translate(-577.816 -345.546)" fill="#323232"/>
        <path id="パス_1958" data-name="パス 1958" d="M672.258,673.134v25.007a1.2,1.2,0,0,0,2.393,0V673.134a1.2,1.2,0,0,0-2.393,0" transform="translate(-511.387 -511.174)" fill="#323232"/>
        <path id="パス_1959" data-name="パス 1959" d="M450.242,719.58q-.423,8.248-.845,16.5c-.079,1.539,2.314,1.535,2.393,0q.422-8.248.845-16.5c.079-1.539-2.314-1.535-2.393,0" transform="translate(-341.855 -546.508)" fill="#323232"/>
        <path id="パス_1960" data-name="パス 1960" d="M647.8,382.417c-.5,2.443-1.039,4.878-1.6,7.307a83.155,83.155,0,0,1-3.024,10.957c-.552,1.439,1.761,2.062,2.308.636A83.109,83.109,0,0,0,648.5,390.36c.565-2.428,1.1-4.864,1.6-7.307.307-1.5-2-2.146-2.308-.636" transform="translate(-489.195 -290.25)" fill="#323232"/>
        <path id="パス_1961" data-name="パス 1961" d="M636.728,628.288c.911,6.357,1.748,12.724,2.633,19.084.211,1.519,2.517.872,2.308-.636-.885-6.36-1.722-12.727-2.633-19.084-.218-1.519-2.524-.873-2.308.636" transform="translate(-484.348 -476.796)" fill="#323232"/>
        <path id="パス_1962" data-name="パス 1962" d="M627.889,482.95c-2.3.919-4.707.906-7.047,1.579a4.588,4.588,0,0,0-3.614,3.6,19.773,19.773,0,0,0,.487,5.717c.412,2.348.845,4.693,1.256,7.042.265,1.514,2.571.872,2.308-.636-.363-2.076-.724-4.151-1.107-6.223a27.075,27.075,0,0,1-.61-4.928,1.719,1.719,0,0,1,.46-1.485,4.205,4.205,0,0,1,2.146-.942,36.091,36.091,0,0,0,6.359-1.416c1.412-.565.8-2.88-.636-2.308" transform="translate(-469.472 -367.311)" fill="#323232"/>
        <path id="パス_1963" data-name="パス 1963" d="M768.623,94.608a5.779,5.779,0,0,1,6.439-1.465c1.438.554,2.061-1.758.636-2.307a8.1,8.1,0,0,0-8.768,2.08c-1.043,1.131.645,2.827,1.692,1.692" transform="translate(-583.155 -68.707)" fill="#323232"/>
        <path id="パス_1964" data-name="パス 1964" d="M86.386,41.022l-2.254-7.194c-.459-1.465-2.77-.839-2.308.636l2.254,7.194c.459,1.465,2.77.839,2.308-.636" transform="translate(-62.198 -25.099)" fill="#ffc800"/>
        <path id="パス_1965" data-name="パス 1965" d="M36.306,77.209l-7.426-5.438c-1.244-.911-2.439,1.165-1.208,2.066L35.1,79.275c1.244.911,2.439-1.165,1.208-2.066" transform="translate(-20.656 -54.424)" fill="#ffc800"/>
        <path id="パス_1966" data-name="パス 1966" d="M8.644,133.929l-7.168-2.116a1.2,1.2,0,0,0-.636,2.308l7.168,2.116a1.2,1.2,0,0,0,.636-2.308" transform="translate(0 -100.229)" fill="#ffc800"/>
        <path id="パス_1967" data-name="パス 1967" d="M206.365,395.316c.61-1.459,1.166-2.944,1.663-4.445.7-2.122,1.32-4.143.761-6.353-1.752-6.926-3.773-13.778-5.58-20.688-.755-2.885-1.473-5.812-1.968-8.752a21.327,21.327,0,0,1,.764-9.963,33.255,33.255,0,0,1,1.5-3.932c.319-.7.75-1.739,1.611-.876.726.728.148,2.314.012,3.248l-1.61,11.042,2.35.318c.2-2.608.484-5.216.845-7.806.288-2.069.62-4.139,1.106-6.171.251-1.05.5-3.087,2.046-2.08,1.21.791.332,3.722.2,4.844l-1.059,9.2-.714,6.2h2.393a92.591,92.591,0,0,1,1.706-13.561,6.734,6.734,0,0,1,.385-1.418c.152-.312.327-.289.844-.009.97.526.58,2.11.532,3.041-.157,3.036-.542,6.064-.961,9.073-.282,2.028-.585,4.053-.924,6.072l2.308.636q.688-4.747,1.377-9.494a17.1,17.1,0,0,1,.576-3.61,1.1,1.1,0,0,1,1.783-.358c.418.36.37,1.105.375,1.6.01.883.012,1.767.028,2.65.067,3.656.219,7.31.389,10.962a21.855,21.855,0,0,0,2.437,9.644c1.607,3.014,3.349,5.63,3.589,9.144a14.71,14.71,0,0,1-.974,5.089,117.954,117.954,0,0,1-4.073,11.146c-.59,1.42,1.724,2.04,2.308.636,1.435-3.451,2.768-6.964,3.884-10.531a19.394,19.394,0,0,0,1.272-6.015c-.088-3.5-1.525-6.5-3.254-9.458a20.333,20.333,0,0,1-2.233-5.053,26.129,26.129,0,0,1-.607-5.558c-.18-3.972-.343-7.948-.37-11.925-.01-1.413.014-2.961-1.08-4.022a4.186,4.186,0,0,0-3.54-.9,3.269,3.269,0,0,0-2.278,2.424,8.836,8.836,0,0,0-.314,1.648c-.025.212-.05.425-.065.638-.014.2-.034.4,0,.07-.425,3.554-1.029,7.094-1.543,10.637-.217,1.495,2.05,2.167,2.308.636a120.8,120.8,0,0,0,2.008-16.716c.041-1.57-.022-3-1.439-3.973-1.263-.87-3.372-1.14-4.3.359a11.031,11.031,0,0,0-1.049,3.74c-.3,1.666-.528,3.348-.733,5.029q-.471,3.853-.767,7.726c-.118,1.555,2.22,1.5,2.393,0l1.866-16.208c.262-2.279.831-4.869-1.668-6.207a3.367,3.367,0,0,0-4.635,1.187c-.9,1.758-1.129,4.1-1.451,6.016-.613,3.647-1.042,7.34-1.325,11.027-.1,1.327,2.155,1.658,2.35.318l1.54-10.56a14.124,14.124,0,0,0,.428-4.163c-.488-2.736-4.213-4.087-5.859-1.522a19.8,19.8,0,0,0-1.6,3.668,28.229,28.229,0,0,0-1.431,5.095,26.171,26.171,0,0,0,.488,10.3c1.482,6.81,3.462,13.488,5.278,20.214q.929,3.44,1.81,6.893a6.308,6.308,0,0,1-.261,3.463,52.99,52.99,0,0,1-2.163,6.062c-.593,1.419,1.721,2.038,2.308.636" transform="translate(-151.067 -255.771)" fill="#323232"/>
        <path id="パス_2165" data-name="パス 2165" d="M110.009,157.009,98.8,140.039l-.717-2.615,4.525-1.509,13.757-.838h3.894l4.862,5.681,6.471,9.12-5.2,5.279-6.128,5.83h-5.006l-3.224-1.826Z" fill="#e4e4e4"/>
        <path id="パス_2166" data-name="パス 2166" d="M418.1,582.98l-12.388-18.263a5.186,5.186,0,0,1-.514-.758c-.1-.233-.023-.359-.052-.567-.023-.166.65-.462-.083-.221a1.78,1.78,0,0,1,.366-.035c1.588-.139,3.174-.3,4.761-.455l13.523-1.294c.57-.055,1.142-.1,1.711-.164.354-.041.726-.183,1.051,0,.627.359,1.238,1.666,1.656,2.253,2.691,3.775,5.317,7.6,7.993,11.382.882,1.248,2.958.053,2.066-1.208-2.543-3.6-5.042-7.226-7.592-10.818-.933-1.314-1.982-3.521-3.638-3.992a4.828,4.828,0,0,0-1.942.026l-13.315,1.274-5.9.564a4.635,4.635,0,0,0-1.36.236,2.963,2.963,0,0,0-1.317,4.218c1.721,2.985,3.92,5.78,5.853,8.63l7.053,10.4c.86,1.267,2.934.071,2.066-1.208" transform="translate(-306.352 -425.038)" fill="#323232"/>
      </g>
    </g>
    <path id="パス_2162" data-name="パス 2162" d="M2136.449,276.772s-6.667-5.875-6.831-6.487a32.426,32.426,0,0,1-.954-3.11,20.91,20.91,0,0,1,.954-3.054h1.458l4.008,5.064,1.365-1.226,2.54-10.041,2.065-2.74h2.75l1.811,2.74-1.081,7.138-2.065,6.606v2.154l-4.569,2.956Z" transform="translate(-1960 40)" fill="#ffeeda"/>
    <path id="パス_2163" data-name="パス 2163" d="M464.526,620.2a2.536,2.536,0,0,1-2.023-.73,3,3,0,0,1-.251-2.529c.352-1.776.874-3.534,1.314-5.29l1.479-5.9a27.529,27.529,0,0,1,1.348-4.869c.646-1.394,2.032-1.88,2.992-.408.93,1.425.587,3.744.3,5.325-.628,3.416-2.191,6.552-2.54,10.036-.153,1.531,2.241,1.52,2.393,0,.363-3.625,2.182-6.914,2.626-10.529.369-3,.146-7.487-3.657-8.122-3.4-.567-4.553,3.1-5.2,5.662l-3.015,12.024c-.446,1.779-1,3.786-.056,5.508a4.732,4.732,0,0,0,4.29,2.214,1.2,1.2,0,0,0,0-2.393" transform="translate(-285.709 -304.237)" fill="#323232"/>
    <path id="パス_2164" data-name="パス 2164" d="M442.012,654.37a51.652,51.652,0,0,1-6.363-6.8c-.8-.917-2.716-2.423-2.66-3.7a1.386,1.386,0,0,1,2.069-1.253c1.376.679,2.59-1.385,1.208-2.066-1.883-.928-3.872-.638-5.012,1.241-1.161,1.915-.53,3.812.866,5.411,1.294,1.482,2.6,2.956,3.9,4.433a35.224,35.224,0,0,0,4.3,4.434c1.193.95,2.9-.733,1.692-1.692" transform="translate(-263.595 -336.872)" fill="#323232"/>
  </g>
</svg>
