<svg xmlns="http://www.w3.org/2000/svg" xmlns:xlink="http://www.w3.org/1999/xlink" width="350" height="350" viewBox="0 0 350 350">
  <defs>
    <clipPath id="clip-path">
      <rect id="長方形_1874" data-name="長方形 1874" width="169.505" height="200" fill="none"/>
    </clipPath>
    <clipPath id="clip-path-2">
      <rect id="長方形_1921" data-name="長方形 1921" width="34.469" height="39.998" fill="none"/>
    </clipPath>
    <clipPath id="clip-path-3">
      <rect id="長方形_1917" data-name="長方形 1917" width="41.656" height="40.002" fill="#fff6d3"/>
    </clipPath>
  </defs>
  <g id="グループ_3680" data-name="グループ 3680" transform="translate(-20 -110)">
    <g id="グループ_3416" data-name="グループ 3416" transform="translate(110 260)">
      <g id="グループ_3415" data-name="グループ 3415" clip-path="url(#clip-path)">
        <path id="パス_2169" data-name="パス 2169" d="M1.01,188l7.369-19.35,18.5-12.252,16.612-7.28,5.94-5.4,22.359,7.531,7.233,10.071,20.244-1.113,4.652-7.774,18.469-8.716,3.647,1.169L146.893,156.4l10.175,7.283,7.5,12.049,2.86,12.27Z" fill="#eec37f"/>
        <path id="パス_1810" data-name="パス 1810" d="M124.354,430.144c0-.009.017-.042.05-.082-.039.032-.06.061-.05.082" transform="translate(-81.724 -282.638)" fill="#fff1bf"/>
        <path id="パス_1811" data-name="パス 1811" d="M223.424,386.468a22.586,22.586,0,0,1-1.921-6.809c-9.478,8.2-25.03,8.72-35.443,1.984-.757-.49-1.474-1.013-2.162-1.56-.533,5.657-2.489,11.268-6.992,14.911l2.186.7,7.457,2.392c1.092.35,2.889.6,3.754,1.43a10.828,10.828,0,0,1,1.495,2.512l3.342,5.948,11.243,20.012,9.026-21.224,1.992-4.683c.468-1.1.628-1.8,1.8-2.364,3.172-1.532,6.584-2.692,9.844-4.025l2.1-.859c-3.1-2.244-6.024-4.867-7.719-8.368" transform="translate(-116.263 -249.513)" fill="#ffeeda"/>
        <path id="パス_1812" data-name="パス 1812" d="M207.612,260.825c6.68-3.6,6.106-12.09,3.651-18.64a2.161,2.161,0,0,1-.37.11l-3.663.733c-1.018,5.061-3.765,10.11-9.282,10.989-3.572.569-7.957-.153-10.543-2.89a17.046,17.046,0,0,1-3.656-7.155h-1.11c-.9,6.3-7.323,10.557-13.607,10.34-6.326-.219-10.272-4.619-11.455-10.34H153.45a1.773,1.773,0,0,1-1.711-1.086A2.034,2.034,0,0,1,149.5,244.1c-3.346-.581-3.809,4.488-3.752,6.755a10.521,10.521,0,0,0,1.989,5.939,4.967,4.967,0,0,1,5.891,2.187,1.869,1.869,0,0,1,1.4,1.8,50.71,50.71,0,0,0,2.5,13.948,25.017,25.017,0,0,0,11.94,14.323,28.521,28.521,0,0,0,19.538,2.121c6.093-1.439,10.278-5.025,13.909-9.959a27.238,27.238,0,0,0,3.544-5.747,42.486,42.486,0,0,0,2.031-8.234,1.844,1.844,0,0,1,.353-.813,4.69,4.69,0,0,1-.628-2.014c-1.505-.37-2.336-2.64-.6-3.575m-29.224-4.17c.221-1.458,1.658-2.869,2.435-4.1a4.584,4.584,0,0,0,.583-3.464c-.254-2.5,3.656-2.478,3.908,0,.273,2.688-.417,4.3-1.82,6.521a12.539,12.539,0,0,0-1.114,1.578c.133-.161.541.624.706.82.514.609,1.065,1.19,1.628,1.753,1.78,1.782-.984,4.545-2.763,2.763-1.434-1.435-3.9-3.623-3.562-5.874m12.661,16.617c-3.9,4.113-12.416,3.725-16.191-.3-1.72-1.835,1.04-4.6,2.763-2.763,2.354,2.512,8.193,2.91,10.665.3,1.735-1.83,4.493.939,2.763,2.763m6.331-1.04a1.967,1.967,0,0,1-2.673.7l-2.839-1.892a2,2,0,0,1-.7-2.673,1.968,1.968,0,0,1,2.674-.7l2.838,1.893a2,2,0,0,1,.7,2.673" transform="translate(-95.782 -159.164)" fill="#ffeeda"/>
        <path id="パス_1813" data-name="パス 1813" d="M209.617,131.842l-.336.071.329-.095c-.859-2.983-1.68-6.073-2.473-9.061-3.249-12.243-6.609-24.9-13.93-35.464-3.529-5.092-9.488-11.565-17.831-13.484-7.176-1.652-14.5.591-18.662,5.713a1.213,1.213,0,0,1-1.5.434,1.91,1.91,0,0,1-1.112-1.885l.056-.485-.475.112a11.524,11.524,0,0,0-3.1,1.332l-.585.341.622.269a1.735,1.735,0,0,1,.864,2.294,1.292,1.292,0,0,1-1.762.789c-4.4-1.629-8.573.119-12.766,5.345a66.388,66.388,0,0,0-5.756,9.022q-.419.741-.838,1.48c-.608,1.067-1.227,2.133-1.848,3.2a109.963,109.963,0,0,0-7.305,14.109c-2.64,6.6-3.236,12.9-1.772,18.724a17.027,17.027,0,0,0,4.686,8.2l.807.783-.232-1.1a14.772,14.772,0,0,1-.314-3.5c.2-6.658,3.634-9.24,6.515-9.427l1.123-.073-.973-.565a1.8,1.8,0,0,1-.794-1.732,1.456,1.456,0,0,1,1.113-1.269c6.458-1.869,10.84-7.663,13.025-17.219a1.379,1.379,0,0,1,1.679-1.108l.284.047.1-.272a1.621,1.621,0,0,1,1.449-1.123,26.587,26.587,0,0,0,10.348-3.038c3.778-2.091,6.03-4.942,6.51-8.243a1.21,1.21,0,0,1,.725-1.03,1.808,1.808,0,0,1,1.71.338,1.7,1.7,0,0,1,.655,1.632c-.8,5.466-5.3,8.75-8.94,10.543l-.608.3.6.312a5.156,5.156,0,0,0,3.728.047c.258-.061.516-.123.773-.174l.253-.051.021-.258a1.369,1.369,0,0,1,1.126-1.281c4.991-1.225,10.11-3.32,10.243-9.57a1.558,1.558,0,0,1,1.693-1.551,1.456,1.456,0,0,1,1.53,1.536,14.33,14.33,0,0,1-.631,4.032l-.05.159.094.138c.326.479.642.995.949,1.494.281.458.572.931.872,1.381l1.08,1.617-.462-1.889c-.119-.487-.237-.974-.35-1.463a1.618,1.618,0,0,1,1.3-1.97,1.4,1.4,0,0,1,1.8,1.085c1.141,4.953,2.726,10.7,5.841,15.815.872,1.432,1.823,2.84,2.743,4.2a55.713,55.713,0,0,1,4.911,8.272,26.269,26.269,0,0,1,2.116,13.363c-.439,3.521-1.986,8.27-6.858,10.9a1.54,1.54,0,0,1-1.125.17l-.47-.116.047.482a5.038,5.038,0,0,0,.678,2.162l.259.415.3-.385a1.583,1.583,0,0,1,2.159-.08l.14.1.166-.051a15.351,15.351,0,0,0,8.943-7.046c1.891-3.349,3.149-8.315,1.01-12.209a1.5,1.5,0,0,1,0-1.551,1.831,1.831,0,0,1,1.559-.877,1.372,1.372,0,0,1,1.212.786c2.2,4.011,1.994,9.479-.559,14.627l-.529,1.065,1.014-.62a10.667,10.667,0,0,0,4.07-5.715c1.388-4.338.337-7.984-.88-12.206" transform="translate(-77.979 -48.156)" fill="#7e7e7e"/>
        <path id="パス_1814" data-name="パス 1814" d="M202.039,155.132c-2.558,2.606-6.25,3.82-9.706,4.668a1.987,1.987,0,0,1-2.425-2.181c-1.435.29-2.908.868-4.275.159a32.138,32.138,0,0,1-11.186,3.056c-.028,0-.054,0-.082,0-1.964,8.458-6.474,16.822-15.271,19.48.073.011.144.018.217.031a1.621,1.621,0,0,1,1.211.8,1.774,1.774,0,0,1,1.7-1.067h5.789a2,2,0,0,1,1.954,1.954c.422,4.486,3.087,8.218,7.84,8.386,4.842.171,10.007-3.116,9.8-8.386a1.975,1.975,0,0,1,1.954-1.954h4.5a1.974,1.974,0,0,1,1.884,1.435,16.2,16.2,0,0,0,2.682,6.478c1.661,2.148,5,2.637,7.534,2.192,2.641-.465,4.127-2.413,5.086-4.79a19.51,19.51,0,0,0,.924-3.078c.068-.308.33-1.953.2-.925a2,2,0,0,1,1.435-1.884l4.595-.919c-.132-.244-.266-.483-.4-.714-2.315-3.953-5.255-7.53-7.3-11.638a59.385,59.385,0,0,1-4.339-12.446c-.624-.934-1.193-1.951-1.822-2.877a10.456,10.456,0,0,1-2.5,4.217M178.1,185a1.772,1.772,0,1,1,1.772-1.772A1.8,1.8,0,0,1,178.1,185m27.784-1.772a1.772,1.772,0,1,1-1.772-1.772,1.792,1.792,0,0,1,1.772,1.772" transform="translate(-104.558 -99.182)" fill="#ffeeda"/>
        <path id="パス_1815" data-name="パス 1815" d="M10.739,538.858l.005.015c.014.047.023.077.03.1,0-.022-.007-.045-.011-.068l-.019-.074-.005.027" transform="translate(-7.058 -354.121)" fill="#fff1bf"/>
        <path id="パス_1816" data-name="パス 1816" d="M152.691,296.7a1.206,1.206,0,0,0,2.411,0,1.206,1.206,0,0,0-2.411,0" transform="translate(-100.349 -194.223)" fill="#fff"/>
        <path id="パス_1817" data-name="パス 1817" d="M174.676,367.846c0,5.37-1.156,12-5.736,15.446-1.741,1.31-.035,4.288,1.73,2.96,5.652-4.255,7.431-11.641,7.434-18.407a1.715,1.715,0,0,0-3.428,0" transform="translate(-110.55 -240.661)" fill="#323232"/>
        <path id="パス_1818" data-name="パス 1818" d="M306.753,367.867a26.86,26.86,0,0,0,2.207,9.649c1.69,3.494,4.617,6.114,7.719,8.343,1.794,1.289,3.508-1.683,1.73-2.96a19.387,19.387,0,0,1-6.489-7.113,22.466,22.466,0,0,1-1.739-7.919c-.181-2.183-3.611-2.2-3.428,0" transform="translate(-201.594 -240.682)" fill="#323232"/>
        <path id="パス_1819" data-name="パス 1819" d="M244.615,259.2a4.754,4.754,0,0,1-.519,3.436c-.426.689-.859,1.392-1.311,2.064a6.1,6.1,0,0,0-1.162,1.866c-.518,2.227,2.064,4.5,3.466,5.9a1.715,1.715,0,0,0,2.424-2.424c-.552-.552-1.09-1.122-1.6-1.717-.179-.211-.792-.773-.788-1.05,0-.345,1.015-1.5,1.215-1.814a8.688,8.688,0,0,0,1.7-6.261c-.224-2.173-3.654-2.2-3.428,0" transform="translate(-158.751 -169.269)" fill="#323232"/>
        <path id="パス_1820" data-name="パス 1820" d="M162.135,293.248c.43,11.717,4.211,23.93,14.6,30.477,11.692,7.368,29.41,5.631,38.123-5.523a44.448,44.448,0,0,0,5.179-7.6,38.313,38.313,0,0,0,2.764-9.923c.4-2.156-2.9-3.081-3.305-.911a41.675,41.675,0,0,1-2.084,8.368,27.27,27.27,0,0,1-3.432,5.557c-3.624,4.935-7.761,8.612-13.847,10.113-6.44,1.589-13.808,1.137-19.747-1.935a25.283,25.283,0,0,1-12.314-14.6,50.831,50.831,0,0,1-2.509-14.016c-.081-2.2-3.509-2.21-3.428,0" transform="translate(-106.555 -191.636)" fill="#323232"/>
        <path id="パス_1821" data-name="パス 1821" d="M143.441,237.207c-5.782-1.034-8.23,4.451-8.391,9.375-.2,6.117,3.363,11.987,9.384,13.737,2.123.617,3.029-2.69.911-3.305a9.976,9.976,0,0,1-6.874-9.67c-.036-2.434.555-7.458,4.059-6.832,2.157.386,3.083-2.917.911-3.306" transform="translate(-88.75 -155.809)" fill="#323232"/>
        <path id="パス_1822" data-name="パス 1822" d="M261.027,135.7a8.03,8.03,0,0,1-2.34,6.011c-2.1,1.967-5.1,2.8-7.819,3.465-2.142.524-1.234,3.83.911,3.306,3.414-.835,7.05-2.028,9.583-4.591a11.6,11.6,0,0,0,3.093-8.19c.044-2.207-3.384-2.207-3.428,0" transform="translate(-164.068 -88.094)" fill="#323232"/>
        <path id="パス_1823" data-name="パス 1823" d="M217.5,134.2c-1.032,7.272-10.5,10.662-16.777,11.165-2.184.175-2.2,3.6,0,3.428,7.672-.615,18.826-4.827,20.083-13.681.306-2.158-3-3.09-3.306-.911" transform="translate(-130.836 -87.382)" fill="#323232"/>
        <path id="パス_1824" data-name="パス 1824" d="M166.282,174.221c-1.653,7.259-5.234,14.917-12.954,17.134-2.116.608-1.216,3.917.912,3.306,8.9-2.557,13.418-11.052,15.348-19.529.489-2.148-2.815-3.065-3.306-.911" transform="translate(-99.975 -113.691)" fill="#323232"/>
        <path id="パス_1825" data-name="パス 1825" d="M224.535,73.212c4.426-5.47,11.931-7.2,18.624-5.639,7.425,1.734,13.417,7.272,17.66,13.385,9.207,13.263,12.129,29.725,16.537,44.951,1.19,4.108,2.115,7.776.692,11.978-.979,2.89-3.2,6.021-6.5,6.279-2.185.17-2.2,3.6,0,3.428,7.425-.579,11.088-8.871,10.7-15.5a26.026,26.026,0,0,0-1.236-5.873c-.762-2.592-1.487-5.194-2.2-7.8-1.245-4.553-2.446-9.119-3.791-13.644-4.614-15.53-12.344-34.7-29.32-40.058-8.129-2.565-18.067-.759-23.6,6.074-1.376,1.7,1.035,4.14,2.424,2.424" transform="translate(-145.702 -41.799)" fill="#323232"/>
        <path id="パス_1826" data-name="パス 1826" d="M144.229,89.938c-10.834-4.046-17.9,8.281-22.314,16.04-6.638,11.669-15.022,23.98-12.439,38.078a19.957,19.957,0,0,0,4.786,10.341,24.69,24.69,0,0,0,5.169,4.282c1.886,1.155,3.61-1.808,1.73-2.96a17.112,17.112,0,0,1-7.938-10.573c-1.626-6.372-.683-12.766,1.735-18.8s5.931-11.642,9.136-17.277a75.721,75.721,0,0,1,6.735-10.674c3.161-3.873,7.324-7.077,12.489-5.148,2.069.773,2.963-2.539.911-3.306" transform="translate(-71.633 -58.585)" fill="#323232"/>
        <path id="パス_1827" data-name="パス 1827" d="M153.31,292.879a3.16,3.16,0,1,1-3.16-3.16,3.16,3.16,0,0,1,3.16,3.16" transform="translate(-96.603 -190.404)" fill="#fff"/>
        <path id="パス_1828" data-name="パス 1828" d="M148.31,289.593a1.446,1.446,0,0,1-2.891,0,1.446,1.446,0,0,1,2.891,0c.118,2.194,3.547,2.208,3.428,0a4.874,4.874,0,1,0-5.046,4.864,4.961,4.961,0,0,0,5.046-4.864c.119-2.2-3.31-2.2-3.428,0" transform="translate(-93.317 -187.118)" fill="#323232"/>
        <path id="パス_1829" data-name="パス 1829" d="M3.4,456.7c.069.21.217.425.043.186-.044-.06.108-.734-.017.032.038-.231.089-.459.145-.687A28.8,28.8,0,0,1,5.6,451.016c1.506-3.221,3.039-6.87,5.229-9.687a26.969,26.969,0,0,1,5.872-5.255A99.308,99.308,0,0,1,40.05,424.269c1.751-.629,4.157-1.014,5.478-2.376,1.5-1.551,2.878-3.25,4.311-4.867l-1.668.441L72.2,425.175l-1.024-.788,15.5,27.589,2.195,3.907c.574,1.022,2.444,1.214,2.96,0l11.457-26.938,1.637-3.85-1.024.788,20.778-8.5-1.32-.173c1.208.878,2.389,1.906,3.673,2.666,1.485.88,3.186,1.509,4.745,2.248,3.664,1.736,7.312,3.5,10.879,5.426,4.868,2.634,10.057,5.439,14.024,9.364,2.041,2.019,3.125,4.722,4.375,7.267a76.612,76.612,0,0,1,3.391,7.7c.279.772.541,1.553.747,2.347.077.3.141.6.205.9.116.552.012-.042.046.3.012.127.006.253.013.38.024.416-.014-.052.027-.112-.254.363.357-.54.359-.542-1.49,1.622.928,4.053,2.424,2.424,1.191-1.3.456-3.56.022-5a55.129,55.129,0,0,0-2.779-6.985c-1.488-3.253-2.9-6.936-5.158-9.73-3.85-4.759-9.939-7.972-15.214-10.864-4.083-2.239-8.276-4.247-12.483-6.239a27.376,27.376,0,0,1-4.483-2.268c-1.212-.881-2.933-2.781-4.557-2.352a35.751,35.751,0,0,0-4.151,1.7l-6.871,2.81c-3.176,1.3-6.509,2.424-9.6,3.923-1.059.515-1.2,1.2-1.63,2.2l-2.106,4.952L88.872,454.153h2.96L78.652,430.691,75.4,424.908a14.316,14.316,0,0,0-1.4-2.425c-.826-.947-2.751-1.211-3.887-1.575l-7.561-2.425-13.474-4.322a1.685,1.685,0,0,0-1.668.441l-4.032,4.552c-.029.033-.59.662-.588.664-.033-.031,1.323-.632-.032-.148l-3.406,1.217c-2.832,1.011-5.6,2.212-8.341,3.445a94.918,94.918,0,0,0-16.362,9.009,31.033,31.033,0,0,0-6.329,5.672c-2.286,2.86-3.857,6.439-5.424,9.726a34.571,34.571,0,0,0-2.647,6.647A4.33,4.33,0,0,0,.1,457.613c.69,2.085,4,1.192,3.306-.911" transform="translate(0 -272.136)" fill="#323232"/>
        <path id="パス_1830" data-name="パス 1830" d="M296.533,150.741a61.319,61.319,0,0,0,4.789,14.106c2.065,4.071,5,7.626,7.283,11.57,3.793,6.544,6.549,18.645-1.8,23.113-1.946,1.04-.217,4,1.73,2.96,8.714-4.66,8.247-16.856,4.686-24.638-2.029-4.434-5.11-8.209-7.617-12.357-2.908-4.811-4.511-10.223-5.761-15.665-.494-2.149-3.8-1.24-3.306.911" transform="translate(-194.849 -97.662)" fill="#323232"/>
        <path id="パス_1831" data-name="パス 1831" d="M342.993,252.425c2.028,3.656.994,8.522-.944,12.008a15.394,15.394,0,0,1-10.12,7.427c-2.149.493-1.24,3.8.911,3.306a18.711,18.711,0,0,0,12.39-9.416c2.356-4.549,3.3-10.406.723-15.055-1.071-1.93-4.032-.2-2.96,1.73" transform="translate(-217.338 -164.203)" fill="#323232"/>
        <path id="パス_1832" data-name="パス 1832" d="M165.055,237.088h5.789l-1.714-1.714c.318,3.458,1.39,6.936,4.112,9.271a11.931,11.931,0,0,0,7.358,2.781c6.784.262,13.811-4.816,13.506-12.052l-1.714,1.714h4.5l-1.653-1.258c.619,2.973,1.882,6.4,4.047,8.59,2.624,2.65,6.963,3.309,10.5,2.675,5.823-1.045,8.392-7.059,9.08-12.363l-1.258,1.653,4.824-.965c2.162-.432,1.247-3.737-.911-3.305l-4.824.965a1.76,1.76,0,0,0-1.258,1.653c.126-.972-.154.763-.211,1.021a20.022,20.022,0,0,1-.9,3c-.939,2.376-2.416,4.406-5.03,4.957-2.56.54-6.112.106-7.873-2.031a15.934,15.934,0,0,1-2.882-6.757,1.732,1.732,0,0,0-1.653-1.258h-4.5a1.732,1.732,0,0,0-1.714,1.714c.228,5.409-5.108,8.815-10.078,8.624-4.879-.189-7.618-4.025-8.042-8.624a1.752,1.752,0,0,0-1.714-1.714h-5.789a1.715,1.715,0,0,0,0,3.428" transform="translate(-107.386 -152.52)" fill="#323232"/>
        <path id="パス_1833" data-name="パス 1833" d="M279.031,319.622l2.838,1.892a1.714,1.714,0,0,0,1.73-2.96l-2.838-1.892a1.714,1.714,0,0,0-1.73,2.96" transform="translate(-182.824 -207.954)" fill="#323232"/>
        <path id="パス_1834" data-name="パス 1834" d="M224.687,320.371c1.419,9.771,17.981,10.407,18.47-.122a1.738,1.738,0,0,0-1.714-1.714l-15.1-.333c-2.207-.049-2.206,3.379,0,3.428l15.1.333-1.714-1.714c-.143,3.071-2.866,4.476-5.688,4.329-3.059-.16-5.6-2.014-6.048-5.117-.316-2.175-3.62-1.25-3.306.911" transform="translate(-147.651 -209.122)" fill="#323232"/>
        <path id="パス_1835" data-name="パス 1835" d="M201.039,241.884a2.625,2.625,0,0,1,2.773-.191c1.952,1.023,3.687-1.934,1.73-2.96a6.206,6.206,0,0,0-6.927.727,1.724,1.724,0,0,0,0,2.424,1.756,1.756,0,0,0,2.424,0" transform="translate(-130.202 -156.412)" fill="#323232"/>
        <path id="パス_1836" data-name="パス 1836" d="M285.664,239.46a6.2,6.2,0,0,0-6.927-.727c-1.955,1.024-.224,3.984,1.73,2.96a2.63,2.63,0,0,1,2.773.191,1.768,1.768,0,0,0,2.424,0,1.726,1.726,0,0,0,0-2.424" transform="translate(-182.622 -156.411)" fill="#323232"/>
        <path id="パス_1837" data-name="パス 1837" d="M227.8,437.551c-1.162-6.994-2.088-14.35-6.155-20.158a7.587,7.587,0,0,0-3.843-3.2c-1.634-.47-3.7.262-4.188,1.892a4.549,4.549,0,0,0-4.88-2.15,7.369,7.369,0,0,0-4.521,3.268,20.646,20.646,0,0,0-2.288,5.227,228.693,228.693,0,0,0-10.151,47.149,1.692,1.692,0,0,0,.146,1.134c.315.465.976.5,1.537.482,13.552-.385,29.2.068,42.753-.317l-2-6.028a212.488,212.488,0,0,1-6.41-27.3" transform="translate(-126.014 -271.983)" fill="#ffeeda"/>
        <path id="パス_1838" data-name="パス 1838" d="M251.516,565.383h2.61q-.677-3.527-1.309-7.065-.616,3.539-1.3,7.065" transform="translate(-165.297 -366.928)" fill="#fff"/>
        <path id="パス_1839" data-name="パス 1839" d="M277.043,466.2c-2.386-11.89-5.563-23.6-8.527-35.353-1.245-4.936-2.028-10.184-3.911-14.925-1.161-2.922-3.1-6.966-6.817-6.787-4.444.214-5.963,5.105-5.823,8.816.083,2.2,3.511,2.21,3.428,0-.064-1.71.012-4.151,1.722-5.126,1.246-.711,2.049.173,2.76,1.237,2.844,4.251,3.418,10,4.623,14.846,3.159,12.715,6.662,25.352,9.241,38.2.434,2.161,3.739,1.246,3.306-.911" transform="translate(-165.586 -268.878)" fill="#363636"/>
        <path id="パス_1840" data-name="パス 1840" d="M258.931,484.6c-.756-5.039-1.537-10.08-2.454-15.092-.485-2.651-.707-6.605-2.9-8.482-2.016-1.726-5.223-.883-6.589,1.238-1.7,2.636-.492,6.579-.172,9.448q.779,7,1.558,14c.574,5.156,1.19,10.337,2.171,15.431.417,2.164,3.721,1.248,3.306-.911-1.544-8.014-2.236-16.209-3.139-24.315-.377-3.391-.913-6.8-1.136-10.208-.057-.86.367-2.689,1.623-2.158.75.318.955,1.953,1.131,2.665.327,1.32.558,2.667.8,4,.935,5.078,1.725,10.184,2.491,15.29.326,2.174,3.63,1.25,3.306-.911" transform="translate(-161.738 -302.378)" fill="#363636"/>
        <path id="パス_1841" data-name="パス 1841" d="M252.522,442.951c.081-1.264-.442-9.124,2.985-6.38a5.885,5.885,0,0,1,1.9,3.785q.533,2.556,1.062,5.113,1.957,9.448,3.814,18.915c.425,2.163,3.729,1.247,3.305-.911q-1.254-6.387-2.549-12.765c-.857-4.2-1.439-8.615-2.648-12.726-.923-3.138-3.925-6.067-7.389-5.076-4.535,1.3-3.675,6.466-3.9,10.046-.141,2.2,3.287,2.194,3.428,0" transform="translate(-163.702 -284.377)" fill="#363636"/>
        <path id="パス_1842" data-name="パス 1842" d="M245.02,525.769c-.829,5.641-2.021,11.213-3.126,16.8-.426,2.155,2.877,3.077,3.306.911,1.105-5.591,2.3-11.163,3.126-16.8.317-2.158-2.985-3.089-3.306-.911" transform="translate(-158.948 -344.721)" fill="#363636"/>
        <path id="パス_1843" data-name="パス 1843" d="M188.144,467.139c2.643-13.171,6.256-26.116,9.475-39.151.7-2.824,1.4-5.65,2-8.5a15.037,15.037,0,0,1,1.765-5.372c.727-1.079,1.909-1.869,3.155-1.344,1.922.809,2.013,3.467,1.947,5.2-.083,2.206,3.345,2.2,3.428,0,.131-3.464-1-7.583-4.771-8.609-3.6-.979-6.445,1.865-7.667,4.962a32.406,32.406,0,0,0-1.336,5.076c-.605,2.779-1.3,5.541-1.985,8.3-1.5,6.066-3.089,12.112-4.617,18.173-1.7,6.75-3.332,13.52-4.7,20.347-.432,2.154,2.871,3.076,3.306.911" transform="translate(-121.451 -268.91)" fill="#363636"/>
        <path id="パス_1844" data-name="パス 1844" d="M233.293,487.613q.888-4.338,1.757-8.68c.424-2.118.848-4.237,1.255-6.359.324-1.687.459-4.352,1.632-5.7,1.444-1.656-.971-4.091-2.424-2.424-1.416,1.625-1.86,3.839-2.264,5.9-.439,2.241-.869,4.484-1.316,6.724q-.961,4.816-1.947,9.628c-.44,2.153,2.863,3.074,3.306.911" transform="translate(-151.121 -304.872)" fill="#363636"/>
        <path id="パス_1845" data-name="パス 1845" d="M230.3,435.964c-.716-2.669-3.8-5.035-6.6-3.7-2.844,1.362-3.419,5.185-3.993,7.935q-2,9.608-4.049,19.209c-.458,2.152,2.846,3.072,3.306.911q1.4-6.6,2.792-13.208c.647-3.078,1.095-6.279,2.019-9.289.205-.669.638-2.3,1.46-2.489.857-.2,1.582.888,1.757,1.539a1.715,1.715,0,0,0,3.306-.911" transform="translate(-141.706 -283.834)" fill="#363636"/>
        <path id="パス_1846" data-name="パス 1846" d="M90.271,7.173,84.019.529c-1.515-1.61-3.936.818-2.424,2.424L87.847,9.6c1.515,1.61,3.936-.818,2.424-2.424" transform="translate(-53.31 0)" fill="#ffe146"/>
        <path id="パス_1847" data-name="パス 1847" d="M55.2,59.449,47.26,54.98c-1.925-1.083-3.655,1.877-1.73,2.96l7.941,4.468c1.925,1.083,3.655-1.877,1.73-2.96" transform="translate(-29.37 -35.979)" fill="#ffe146"/>
        <path id="パス_1848" data-name="パス 1848" d="M41.036,129.534l-9.111.1c-2.2.025-2.21,3.453,0,3.428l9.111-.1c2.2-.024,2.21-3.452,0-3.428" transform="translate(-19.893 -85.13)" fill="#ffe146"/>
        <path id="パス_1849" data-name="パス 1849" d="M402.43,9.6l6.253-6.643c1.511-1.606-.908-4.034-2.424-2.424l-6.253,6.643c-1.511,1.606.908,4.034,2.424,2.424" transform="translate(-262.57 0)" fill="#ffe146"/>
        <path id="パス_1850" data-name="パス 1850" d="M433.516,62.409l7.941-4.468c1.922-1.082.2-4.044-1.73-2.96l-7.941,4.468c-1.923,1.082-.2,4.044,1.73,2.96" transform="translate(-283.219 -35.979)" fill="#ffe146"/>
        <path id="パス_1851" data-name="パス 1851" d="M443.894,132.962l9.111.1c2.207.025,2.208-3.4,0-3.428l-9.111-.1c-2.207-.024-2.208,3.4,0,3.428" transform="translate(-290.64 -85.13)" fill="#ffe146"/>
      </g>
    </g>
    <circle id="楕円形_201" data-name="楕円形 201" cx="60" cy="60" r="60" transform="translate(20 160)" fill="#fef6d3"/>
    <circle id="楕円形_202" data-name="楕円形 202" cx="60" cy="60" r="60" transform="translate(135 110)" fill="#fef6d3"/>
    <circle id="楕円形_203" data-name="楕円形 203" cx="60" cy="60" r="60" transform="translate(250 160)" fill="#fef6d3"/>
    <g id="グループ_3490" data-name="グループ 3490" transform="translate(0 11)">
      <text id="趣味_嗜好" data-name="趣味・嗜好" transform="translate(195 139)" fill="#404040" font-size="12" font-family="HiraginoSans-W6, Hiragino Sans"><tspan x="-27.6" y="0">趣味・嗜好</tspan></text>
      <g id="グループ_3507" data-name="グループ 3507" transform="translate(-80.778 2.425)">
        <path id="合体_1" data-name="合体 1" d="M5.611,22.357l.069-.069A12.051,12.051,0,1,1,20.786,3.762,12.049,12.049,0,1,1,35.812,22.338l.019.019L20.721,37.478Z" transform="translate(255.333 148.572)" fill="#f1636e"/>
        <path id="heart" d="M21.725,40.5a.875.875,0,0,1-.618-.255L6.166,25.374a28.9,28.9,0,0,1-4.533-5.33,14.8,14.8,0,0,1-1.541-3.26A12.1,12.1,0,0,1-.5,13.062,12.5,12.5,0,0,1,3.2,4.179,12.607,12.607,0,0,1,12.117.5a13.076,13.076,0,0,1,5.361,1,14.953,14.953,0,0,1,4.247,2.908A14.953,14.953,0,0,1,25.972,1.5a13.076,13.076,0,0,1,5.361-1A12.622,12.622,0,0,1,42.958,8.172a12.437,12.437,0,0,1,.992,4.89,11.986,11.986,0,0,1-.6,3.712,14.858,14.858,0,0,1-1.546,3.255,29.992,29.992,0,0,1-4.523,5.343L22.342,40.25A.875.875,0,0,1,21.725,40.5ZM12.117,2.239A10.876,10.876,0,0,0,2.1,8.849a10.713,10.713,0,0,0-.854,4.212,11.259,11.259,0,0,0,1.87,6.065,27.307,27.307,0,0,0,4.269,5l.011.01L21.725,38.4,36.053,24.139l.006-.006C39.25,21.02,42.2,17.524,42.2,13.062a10.762,10.762,0,0,0-3.184-7.653,10.857,10.857,0,0,0-7.686-3.17,11.393,11.393,0,0,0-4.663.858,14.226,14.226,0,0,0-4.327,3.139.876.876,0,0,1-1.235,0A14.226,14.226,0,0,0,16.78,3.1,11.393,11.393,0,0,0,12.117,2.239Z" transform="translate(254.278 147.075)" fill="#323232"/>
      </g>
    </g>
    <g id="グループ_3491" data-name="グループ 3491" transform="translate(-4 11)">
      <text id="ご本人史" transform="translate(84 189)" fill="#404040" font-size="12" font-family="HiraginoSans-W6, Hiragino Sans"><tspan x="-24" y="0">ご本人史</tspan></text>
      <g id="グループ_3506" data-name="グループ 3506" transform="translate(67 200.002)">
        <g id="グループ_3505" data-name="グループ 3505" clip-path="url(#clip-path-2)">
          <path id="パス_2293" data-name="パス 2293" d="M36.257,420.933a.31.31,0,0,1-.309.309H7.579a1.329,1.329,0,0,1-1.329-1.329v-2.467a1.329,1.329,0,0,1,1.329-1.329H36.257Z" transform="translate(-5.734 -381.76)" fill="#ccc6ae" fill-rule="evenodd"/>
          <path id="パス_2294" data-name="パス 2294" d="M36.257,40.092H7.463a1.185,1.185,0,0,0-.857.372,1.3,1.3,0,0,0-.355.9V7.52A1.242,1.242,0,0,1,7.463,6.25H35.948a.31.31,0,0,1,.309.309Z" transform="translate(-5.734 -5.734)" fill="#b2dbd0" fill-rule="evenodd"/>
          <path id="パス_2296" data-name="パス 2296" d="M372.138,91.247l-2.465.536v4.189l2.465-.536Z" transform="translate(-339.15 -83.713)" fill="#fbd952" fill-rule="evenodd"/>
          <path id="パス_2297" data-name="パス 2297" d="M373.1,229.092l-3.429.289v4.189l3.429-.289Z" transform="translate(-339.15 -210.176)" fill="#50c4cb" fill-rule="evenodd"/>
          <path id="パス_2298" data-name="パス 2298" d="M372.216,280.73l-2.543.214v2.2l2.543-.214Z" transform="translate(-339.15 -257.551)" fill="#3ea5ab" fill-rule="evenodd"/>
          <path id="パス_2299" data-name="パス 2299" d="M0,35.648c0-.007,0-.013,0-.02V1.786A1.758,1.758,0,0,1,1.729,0H30.214a.825.825,0,0,1,.826.826v6.6l1.839-.4a.516.516,0,0,1,.626.5v4.189a.516.516,0,0,1-.406.5l-2.058.448v5.968l2.87-.242a.516.516,0,0,1,.559.514V23.1a.516.516,0,0,1-.473.514l-.414.035v1.727a.516.516,0,0,1-.473.514l-2.07.174v13.1a.825.825,0,0,1-.826.826H1.845A1.845,1.845,0,0,1,0,38.154V35.687c0-.013,0-.026,0-.038m30.007-.774v4.092H1.845a.812.812,0,0,1-.812-.812V35.687a.812.812,0,0,1,.812-.813Zm0-1.032V1.032H1.729a.726.726,0,0,0-.7.754V33.993a1.68,1.68,0,0,1,.7-.151Zm2.543-10.1v1.166l-1.511.127V23.868l.157-.013Zm-1.511-4.062,2.4-.2V22.63l-2.4.2Zm0-11.193,1.433-.311v3.133l-1.433.311Z" fill="#323232" fill-rule="evenodd"/>
        </g>
      </g>
    </g>
    <g id="グループ_3489" data-name="グループ 3489" transform="translate(0 11)">
      <text id="支援_配慮事項" data-name="支援・配慮事項" transform="translate(310 189)" fill="#404040" font-size="12" font-family="HiraginoSans-W6, Hiragino Sans"><tspan x="-39.6" y="0">支援・配慮事項</tspan></text>
      <g id="グループ_3486" data-name="グループ 3486" transform="translate(289 200)">
        <g id="グループ_3485" data-name="グループ 3485" clip-path="url(#clip-path-3)">
          <path id="パス_2282" data-name="パス 2282" d="M27.676,49.8a18.721,18.721,0,1,1,1.47,3.219l-3.978.5a.149.149,0,0,1-.137-.238L27.676,49.8" transform="translate(-23.695 -24)" fill="#fbe146" fill-rule="evenodd"/>
          <path id="パス_2283" data-name="パス 2283" d="M2.527,25.861.3,28.8a1.455,1.455,0,0,0,1.341,2.323l3.137-.4a19.9,19.9,0,1,0-2.246-4.866M4.04,28.188,5.02,26.9a1.306,1.306,0,0,0,.194-1.216,17.415,17.415,0,1,1,1.367,2.994,1.306,1.306,0,0,0-1.295-.643Z" transform="translate(0)" fill="#323232" fill-rule="evenodd"/>
          <path id="パス_2284" data-name="パス 2284" d="M357.322,207.643a2.266,2.266,0,1,1-2.267,2.266,2.268,2.268,0,0,1,2.267-2.266m2.613-15.868a2.616,2.616,0,0,0-2.612-2.756h0a2.616,2.616,0,0,0-2.612,2.756c.179,3.347.523,9.806.668,12.518a1.947,1.947,0,0,0,1.944,1.843h0a1.947,1.947,0,0,0,1.944-1.843Z" transform="translate(-336.18 -181.02)" fill="#323232" fill-rule="evenodd"/>
        </g>
      </g>
    </g>
  </g>
</svg>
